<?xml version="1.0" encoding="UTF-8" standalone="no"?>
<!-- Created with Inkscape (http://www.inkscape.org/) -->

<svg
   xmlns:dc="http://purl.org/dc/elements/1.1/"
   xmlns:cc="http://creativecommons.org/ns#"
   xmlns:rdf="http://www.w3.org/1999/02/22-rdf-syntax-ns#"
   xmlns:svg="http://www.w3.org/2000/svg"
   xmlns="http://www.w3.org/2000/svg"
   xmlns:sodipodi="http://sodipodi.sourceforge.net/DTD/sodipodi-0.dtd"
   xmlns:inkscape="http://www.inkscape.org/namespaces/inkscape"
   width="459.53101"
   height="149.448"
   id="svg4011"
   version="1.1"
   inkscape:version="0.48.4 r9939"
   sodipodi:docname="New document 2">
  <defs
     id="defs4013">
    <linearGradient
       id="SVGID_45_"
       gradientUnits="userSpaceOnUse"
       x1="473.47549"
       y1="1403.2185"
       x2="473.47549"
       y2="-1126.0363">
      <stop
         offset="0"
         style="stop-color:#B43C62"
         id="stop879" />
      <stop
         offset="1"
         style="stop-color:#9B388B"
         id="stop881" />
    </linearGradient>
    <linearGradient
       id="SVGID_46_"
       gradientUnits="userSpaceOnUse"
       x1="459.35449"
       y1="1905.4639"
       x2="459.35449"
       y2="-1827.6561">
      <stop
         offset="0"
         style="stop-color:#B43C62"
         id="stop886" />
      <stop
         offset="1"
         style="stop-color:#9B388B"
         id="stop888" />
    </linearGradient>
    <linearGradient
       id="SVGID_47_"
       gradientUnits="userSpaceOnUse"
       x1="557.74249"
       y1="595.02338"
       x2="557.74261"
       y2="-286.5834">
      <stop
         offset="0"
         style="stop-color:#B43C62"
         id="stop893" />
      <stop
         offset="1"
         style="stop-color:#9B388B"
         id="stop895" />
    </linearGradient>
    <linearGradient
       id="SVGID_48_"
       gradientUnits="userSpaceOnUse"
       x1="689.68701"
       y1="1062.1506"
       x2="689.68701"
       y2="-847.4953">
      <stop
         offset="0"
         style="stop-color:#B43C62"
         id="stop900" />
      <stop
         offset="1"
         style="stop-color:#9B388B"
         id="stop902" />
    </linearGradient>
    <linearGradient
       id="SVGID_49_"
       gradientUnits="userSpaceOnUse"
       x1="557.74249"
       y1="1601.4769"
       x2="557.74261"
       y2="-1364.0988">
      <stop
         offset="0"
         style="stop-color:#B43C62"
         id="stop907" />
      <stop
         offset="1"
         style="stop-color:#9B388B"
         id="stop909" />
    </linearGradient>
    <linearGradient
       id="SVGID_50_"
       gradientUnits="userSpaceOnUse"
       x1="766.97449"
       y1="1670.8976"
       x2="766.97449"
       y2="-1441.6138">
      <stop
         offset="0"
         style="stop-color:#B43C62"
         id="stop914" />
      <stop
         offset="1"
         style="stop-color:#9B388B"
         id="stop916" />
    </linearGradient>
    <linearGradient
       id="SVGID_51_"
       gradientUnits="userSpaceOnUse"
       x1="641.34802"
       y1="1601.4769"
       x2="641.34802"
       y2="-1364.0988">
      <stop
         offset="0"
         style="stop-color:#B43C62"
         id="stop921" />
      <stop
         offset="1"
         style="stop-color:#9B388B"
         id="stop923" />
    </linearGradient>
  </defs>
  <sodipodi:namedview
     id="base"
     pagecolor="#ffffff"
     bordercolor="#666666"
     borderopacity="1.0"
     inkscape:pageopacity="0.0"
     inkscape:pageshadow="2"
     inkscape:zoom="0.98994949"
     inkscape:cx="658.849"
     inkscape:cy="-50.351905"
     inkscape:document-units="px"
     inkscape:current-layer="layer1"
     showgrid="false"
     fit-margin-top="0"
     fit-margin-left="0"
     fit-margin-right="0"
     fit-margin-bottom="0"
     inkscape:window-width="1920"
     inkscape:window-height="1137"
     inkscape:window-x="1676"
     inkscape:window-y="-4"
     inkscape:window-maximized="1" />
  <metadata
     id="metadata4016">
    <rdf:RDF>
      <cc:Work
         rdf:about="">
        <dc:format>image/svg+xml</dc:format>
        <dc:type
           rdf:resource="http://purl.org/dc/dcmitype/StillImage" />
        <dc:title></dc:title>
      </cc:Work>
    </rdf:RDF>
  </metadata>
  <g
     inkscape:label="Layer 1"
     inkscape:groupmode="layer"
     id="layer1"
     transform="translate(352.62264,199.50467)">
    <g
       transform="translate(-724.58264,-341.23367)"
       id="TRIALS_IN_TAINTED_SPACE">
      <g
         id="g290">
        <path
           style="fill:#8e44ad"
           inkscape:connector-curvature="0"
           d="m 388.975,266.826 h 11.383 v 2.81 h -4.018 v 21.339 h -3.348 v -21.339 h -4.018 v -2.81 z"
           id="path292" />
        <path
           style="fill:#2c3e50"
           inkscape:connector-curvature="0"
           d="m 409.831,266.826 h 5.189 c 4.888,0 5.39,1.304 5.39,6.589 0,3.244 -0.436,4.649 -3.181,5.485 v 0.066 c 2.276,0.234 3.046,1.405 3.046,3.68 v 5.251 c 0,0.87 0,2.074 0.201,3.077 h -3.147 c -0.335,-0.602 -0.402,-1.204 -0.402,-2.174 v -5.452 c 0,-2.274 -0.402,-2.876 -2.611,-2.876 h -1.138 v 10.502 h -3.348 v -24.148 z m 3.347,10.837 h 0.871 c 2.645,0 3.013,-0.501 3.013,-4.114 0,-3.579 -0.201,-3.914 -2.276,-3.914 h -1.607 v 8.028 z"
           id="path294" />
        <path
           style="fill:#2c3e50"
           inkscape:connector-curvature="0"
           d="m 430.787,266.826 h 3.348 v 24.149 h -3.348 v -24.149 z"
           id="path296" />
        <path
           style="fill:#2c3e50"
           inkscape:connector-curvature="0"
           d="m 448.999,266.826 h 3.883 l 4.921,24.149 h -3.348 l -1.104,-6.154 h -5.223 l -1.105,6.154 h -3.348 l 5.324,-24.149 z m -0.369,15.185 h 4.252 l -2.076,-11.64 h -0.067 l -2.109,11.64 z"
           id="path298" />
        <path
           style="fill:#2c3e50"
           inkscape:connector-curvature="0"
           d="m 467.444,266.826 h 3.348 v 21.339 h 5.625 v 2.81 h -8.972 v -24.149 z"
           id="path300" />
        <path
           style="fill:#2c3e50"
           inkscape:connector-curvature="0"
           d="m 485.655,283.984 h 3.348 v 1.973 c 0,1.605 0.603,2.609 1.942,2.609 1.774,0 2.209,-1.204 2.209,-2.776 0,-2.04 -0.101,-2.709 -3.583,-6.154 -2.143,-2.141 -3.917,-4.08 -3.917,-7.358 0,-3.946 1.841,-5.652 5.49,-5.652 1.808,0 3.113,0.602 3.917,1.338 0.569,0.535 0.971,1.371 0.971,3.077 v 2.274 h -3.147 v -1.906 c 0,-1.372 -0.569,-2.174 -1.875,-2.174 -1.373,0 -2.009,0.769 -2.009,2.642 0,1.639 0.334,2.643 3.415,5.854 3.281,3.412 3.884,4.582 3.884,7.492 0,3.779 -1.473,5.954 -5.457,5.954 -3.08,0 -5.189,-1.304 -5.189,-4.315 v -2.878 z"
           id="path302" />
        <path
           style="fill:#8e44ad"
           inkscape:connector-curvature="0"
           d="m 520.604,266.826 h 3.348 v 24.149 h -3.348 v -24.149 z"
           id="path304" />
        <path
           style="fill:#2c3e50"
           inkscape:connector-curvature="0"
           d="m 534.363,266.826 h 4.62 l 3.951,20.068 H 543 v -20.068 h 3.147 v 24.149 h -4.821 l -3.951,-20.604 h -0.067 v 20.604 h -2.946 v -24.149 z"
           id="path306" />
        <path
           style="fill:#8e44ad"
           inkscape:connector-curvature="0"
           d="m 568.647,266.826 h 11.383 v 2.81 h -4.018 v 21.339 h -3.348 v -21.339 h -4.018 v -2.81 z"
           id="path308" />
        <path
           style="fill:#2c3e50"
           inkscape:connector-curvature="0"
           d="m 591.284,266.826 h 3.883 l 4.921,24.149 h -3.348 l -1.104,-6.154 h -5.223 l -1.105,6.154 h -3.348 l 5.324,-24.149 z m -0.369,15.185 h 4.252 l -2.076,-11.64 h -0.067 l -2.109,11.64 z"
           id="path310" />
        <path
           style="fill:#2c3e50"
           inkscape:connector-curvature="0"
           d="m 609.629,266.826 h 3.348 v 24.149 h -3.348 v -24.149 z"
           id="path312" />
        <path
           style="fill:#2c3e50"
           inkscape:connector-curvature="0"
           d="m 623.387,266.826 h 4.62 l 3.95,20.068 h 0.067 v -20.068 h 3.146 v 24.149 h -4.82 l -3.95,-20.604 h -0.067 v 20.604 h -2.946 v -24.149 z"
           id="path314" />
        <path
           style="fill:#2c3e50"
           inkscape:connector-curvature="0"
           d="m 644.646,266.826 h 11.382 v 2.81 h -4.017 v 21.339 h -3.349 v -21.339 h -4.017 v -2.81 z"
           id="path316" />
        <path
           style="fill:#2c3e50"
           inkscape:connector-curvature="0"
           d="m 665.5,266.826 h 9.106 v 2.81 h -5.758 v 7.559 h 5.423 v 2.81 h -5.423 v 8.161 h 5.758 v 2.81 H 665.5 v -24.15 z"
           id="path318" />
        <path
           style="fill:#2c3e50"
           inkscape:connector-curvature="0"
           d="m 684.08,266.826 h 5.391 c 5.423,0 5.858,1.806 5.858,8.83 v 7.191 c 0,6.188 -1.104,8.128 -6.395,8.128 h -4.854 v -24.149 z m 3.349,21.339 h 1.606 c 2.478,0 2.946,-1.305 2.946,-5.452 v -8.295 c 0,-3.579 -0.368,-4.783 -3.214,-4.783 h -1.339 v 18.53 z"
           id="path320" />
        <path
           style="fill:#8e44ad"
           inkscape:connector-curvature="0"
           d="m 719.632,283.984 h 3.348 v 1.973 c 0,1.605 0.603,2.609 1.942,2.609 1.774,0 2.209,-1.204 2.209,-2.776 0,-2.04 -0.101,-2.709 -3.582,-6.154 -2.143,-2.141 -3.917,-4.08 -3.917,-7.358 0,-3.946 1.842,-5.652 5.49,-5.652 1.809,0 3.114,0.602 3.917,1.338 0.569,0.535 0.971,1.371 0.971,3.077 v 2.274 h -3.146 v -1.906 c 0,-1.372 -0.569,-2.174 -1.875,-2.174 -1.372,0 -2.009,0.769 -2.009,2.642 0,1.639 0.335,2.643 3.415,5.854 3.281,3.412 3.884,4.582 3.884,7.492 0,3.779 -1.474,5.954 -5.457,5.954 -3.08,0 -5.189,-1.304 -5.189,-4.315 v -2.878 z"
           id="path322" />
        <path
           style="fill:#2c3e50"
           inkscape:connector-curvature="0"
           d="m 740.421,266.826 h 5.524 c 4.553,0 5.423,1.238 5.423,6.823 0,5.585 -0.87,6.823 -5.423,6.823 h -2.176 v 10.502 h -3.349 v -24.148 z m 3.349,10.837 h 1.74 c 2.276,0 2.511,-0.368 2.511,-4.014 0,-3.646 -0.234,-4.014 -2.511,-4.014 h -1.74 v 8.028 z"
           id="path324" />
        <path
           style="fill:#2c3e50"
           inkscape:connector-curvature="0"
           d="m 763.454,266.826 h 3.883 l 4.922,24.149 h -3.348 l -1.105,-6.154 h -5.222 l -1.105,6.154 h -3.348 l 5.323,-24.149 z m -0.368,15.185 h 4.251 l -2.075,-11.64 h -0.067 l -2.109,11.64 z"
           id="path326" />
        <path
           style="fill:#2c3e50"
           inkscape:connector-curvature="0"
           d="m 781.367,272.98 c 0,-3.378 1.105,-6.355 5.658,-6.355 3.314,0 4.854,1.672 4.854,4.382 v 2.408 h -3.147 v -1.673 c 0,-1.538 -0.535,-2.508 -1.941,-2.508 -1.741,0 -2.076,1.238 -2.076,4.147 v 11.84 c 0,2.843 0.904,3.345 1.976,3.345 1.238,0 2.042,-0.87 2.042,-2.876 v -1.672 h 3.147 v 2.676 c 0,2.542 -1.038,4.482 -4.922,4.482 -4.218,0 -5.591,-2.241 -5.591,-5.987 V 272.98 z"
           id="path328" />
        <path
           style="fill:#2c3e50"
           inkscape:connector-curvature="0"
           d="m 801.554,266.826 h 9.106 v 2.81 h -5.758 v 7.559 h 5.423 v 2.81 h -5.423 v 8.161 h 5.758 v 2.81 h -9.106 v -24.15 z"
           id="path330" />
      </g>
    </g>
    <g
       transform="translate(-724.58264,-341.23367)"
       id="g876">
      <linearGradient
         id="linearGradient3962"
         gradientUnits="userSpaceOnUse"
         x1="473.47549"
         y1="1403.2185"
         x2="473.47549"
         y2="-1126.0363">
        <stop
           offset="0"
           style="stop-color:#B43C62"
           id="stop3964" />
        <stop
           offset="1"
           style="stop-color:#9B388B"
           id="stop3966" />
      </linearGradient>
      <path
         style="fill:url(#SVGID_45_)"
         inkscape:connector-curvature="0"
         d="m 459.35,253.959 h 28.251 v -45.702 c -10.548,2.313 -20.376,4.779 -28.251,6.867 v 38.835 z"
         id="path883" />
      <linearGradient
         id="linearGradient3969"
         gradientUnits="userSpaceOnUse"
         x1="459.35449"
         y1="1905.4639"
         x2="459.35449"
         y2="-1827.6561">
        <stop
           offset="0"
           style="stop-color:#B43C62"
           id="stop3971" />
        <stop
           offset="1"
           style="stop-color:#9B388B"
           id="stop3973" />
      </linearGradient>
      <path
         style="fill:url(#SVGID_46_)"
         inkscape:connector-curvature="0"
         d="M 546.749,141.729 H 371.96 l 31.086,26.541 h 56.304 v 40.914 c 7.875,-2.088 17.703,-4.554 28.251,-6.867 V 168.27 h 59.148 v -26.541 z"
         id="path890" />
      <linearGradient
         id="linearGradient3976"
         gradientUnits="userSpaceOnUse"
         x1="557.74249"
         y1="595.02338"
         x2="557.74261"
         y2="-286.5834">
        <stop
           offset="0"
           style="stop-color:#B43C62"
           id="stop3978" />
        <stop
           offset="1"
           style="stop-color:#9B388B"
           id="stop3980" />
      </linearGradient>
      <path
         style="fill:url(#SVGID_47_)"
         inkscape:connector-curvature="0"
         d="m 546.749,194.433 c 3.422,0 8.551,0 15.047,0 2.165,0 4.483,0 6.94,0 l 0,0 h 0 v -15.93 h -21.987 v 15.93 z"
         id="path897" />
      <linearGradient
         id="linearGradient3983"
         gradientUnits="userSpaceOnUse"
         x1="689.68701"
         y1="1062.1506"
         x2="689.68701"
         y2="-847.4953">
        <stop
           offset="0"
           style="stop-color:#B43C62"
           id="stop3985" />
        <stop
           offset="1"
           style="stop-color:#9B388B"
           id="stop3987" />
      </linearGradient>
      <path
         style="fill:url(#SVGID_48_)"
         inkscape:connector-curvature="0"
         d="m 703.34,165.885 13.644,12.618 c -0.038,0.133 -0.756,2.655 -0.756,4.932 0,2.644 0.608,5.048 1.719,7.249 0.667,1.32 1.514,2.568 2.52,3.749 v 0 c 14.546,0 28.642,0 41.672,0 4.343,0 8.568,0 12.652,0 0,0 0,0 -0.001,0 0,0 0,0 0,0 -0.096,-0.019 -0.193,-0.038 -0.289,-0.058 -0.06,-0.012 -0.119,-0.023 -0.179,-0.035 -1.093,-0.217 -2.176,-0.429 -3.246,-0.637 -0.107,-0.021 -0.211,-0.041 -0.317,-0.062 -1.073,-0.208 -2.133,-0.412 -3.176,-0.613 -1.005,-0.193 -1.989,-0.382 -2.961,-0.569 -0.175,-0.034 -0.349,-0.067 -0.523,-0.101 -0.937,-0.181 -1.855,-0.359 -2.755,-0.536 -0.165,-0.032 -0.329,-0.065 -0.492,-0.097 -0.513,-0.101 -1.019,-0.202 -1.518,-0.302 -0.1,-0.02 -0.202,-0.04 -0.302,-0.06 -0.579,-0.117 -1.146,-0.232 -1.705,-0.348 -0.156,-0.032 -0.309,-0.064 -0.464,-0.097 -0.432,-0.09 -0.856,-0.18 -1.274,-0.269 -0.15,-0.032 -0.302,-0.064 -0.45,-0.096 -0.534,-0.116 -1.059,-0.231 -1.57,-0.347 -0.066,-0.015 -0.129,-0.03 -0.195,-0.045 -0.582,-0.133 -1.146,-0.265 -1.695,-0.398 -0.092,-0.022 -0.186,-0.044 -0.276,-0.067 -0.561,-0.138 -1.1,-0.276 -1.622,-0.414 -0.11,-0.029 -0.219,-0.059 -0.327,-0.088 -0.519,-0.14 -1.022,-0.281 -1.5,-0.424 -0.059,-0.018 -0.115,-0.036 -0.174,-0.053 -0.451,-0.136 -0.88,-0.273 -1.29,-0.412 -0.065,-0.022 -0.134,-0.044 -0.198,-0.066 -0.329,-0.113 -0.645,-0.228 -0.944,-0.343 -0.062,-0.024 -0.117,-0.048 -0.177,-0.071 -0.235,-0.093 -0.462,-0.186 -0.678,-0.28 -0.091,-0.04 -0.178,-0.08 -0.266,-0.12 -0.18,-0.082 -0.352,-0.165 -0.516,-0.248 -0.081,-0.041 -0.162,-0.082 -0.239,-0.123 -0.179,-0.095 -0.345,-0.192 -0.503,-0.289 -0.047,-0.029 -0.099,-0.057 -0.144,-0.086 -0.041,-0.026 -0.077,-0.053 -0.116,-0.08 -0.11,-0.074 -0.217,-0.149 -0.315,-0.224 -0.047,-0.036 -0.091,-0.073 -0.135,-0.109 -0.082,-0.068 -0.16,-0.136 -0.233,-0.204 -0.041,-0.038 -0.08,-0.077 -0.118,-0.115 -0.069,-0.071 -0.131,-0.144 -0.19,-0.216 -0.028,-0.035 -0.059,-0.07 -0.084,-0.105 -0.026,-0.035 -0.044,-0.072 -0.067,-0.107 -0.079,-0.121 -0.142,-0.245 -0.19,-0.369 -0.02,-0.053 -0.044,-0.105 -0.058,-0.159 -0.009,-0.033 -0.017,-0.066 -0.024,-0.099 -0.022,-0.107 -0.039,-0.214 -0.039,-0.323 0,-0.154 0.021,-0.305 0.059,-0.451 0.002,-0.01 0.005,-0.019 0.007,-0.029 0.039,-0.141 0.094,-0.278 0.166,-0.412 0.004,-0.008 0.008,-0.017 0.012,-0.025 0.069,-0.125 0.156,-0.246 0.252,-0.366 0.025,-0.031 0.05,-0.062 0.077,-0.092 0.055,-0.063 0.121,-0.125 0.184,-0.186 0.1,-0.099 0.209,-0.196 0.327,-0.291 0.076,-0.06 0.151,-0.121 0.234,-0.179 0.064,-0.045 0.129,-0.09 0.197,-0.135 0.108,-0.071 0.223,-0.14 0.342,-0.209 0.071,-0.041 0.14,-0.082 0.214,-0.122 0.137,-0.074 0.283,-0.146 0.432,-0.217 0.065,-0.031 0.126,-0.063 0.192,-0.094 0.22,-0.1 0.449,-0.198 0.69,-0.292 0.029,-0.012 0.062,-0.022 0.091,-0.034 0.214,-0.083 0.435,-0.163 0.664,-0.241 0.09,-0.031 0.185,-0.06 0.277,-0.09 0.175,-0.057 0.352,-0.114 0.535,-0.169 0.108,-0.032 0.219,-0.064 0.33,-0.096 0.176,-0.05 0.355,-0.1 0.537,-0.149 0.117,-0.031 0.234,-0.062 0.353,-0.092 0.187,-0.048 0.378,-0.094 0.571,-0.139 0.117,-0.028 0.232,-0.055 0.351,-0.082 0.216,-0.049 0.435,-0.096 0.656,-0.143 0.098,-0.021 0.195,-0.042 0.294,-0.063 0.322,-0.066 0.649,-0.129 0.98,-0.19 0.036,-0.007 0.073,-0.013 0.109,-0.019 0.296,-0.054 0.596,-0.106 0.898,-0.156 0.12,-0.02 0.241,-0.039 0.362,-0.058 0.223,-0.036 0.446,-0.071 0.67,-0.105 0.134,-0.02 0.27,-0.04 0.405,-0.059 0.216,-0.031 0.432,-0.062 0.648,-0.092 0.136,-0.019 0.273,-0.037 0.41,-0.055 0.22,-0.029 0.44,-0.057 0.66,-0.084 0.131,-0.016 0.262,-0.033 0.393,-0.048 0.24,-0.029 0.479,-0.056 0.719,-0.083 0.11,-0.012 0.221,-0.025 0.331,-0.037 0.345,-0.038 0.689,-0.073 1.031,-0.107 0.041,-0.004 0.08,-0.008 0.121,-0.011 0.307,-0.03 0.612,-0.059 0.915,-0.086 0.113,-0.01 0.224,-0.019 0.336,-0.029 0.227,-0.02 0.454,-0.039 0.678,-0.057 0.127,-0.01 0.252,-0.02 0.377,-0.03 0.209,-0.016 0.417,-0.032 0.623,-0.047 0.126,-0.009 0.251,-0.018 0.375,-0.027 0.203,-0.014 0.404,-0.028 0.602,-0.041 0.116,-0.008 0.232,-0.015 0.346,-0.022 0.211,-0.013 0.418,-0.026 0.624,-0.037 0.097,-0.006 0.196,-0.012 0.292,-0.017 0.589,-0.033 1.15,-0.06 1.675,-0.082 0.091,-0.004 0.178,-0.007 0.267,-0.011 0.169,-0.007 0.337,-0.013 0.497,-0.019 0.097,-0.003 0.19,-0.007 0.283,-0.01 0.143,-0.005 0.284,-0.009 0.419,-0.013 0.093,-0.003 0.185,-0.005 0.275,-0.008 0.129,-0.003 0.253,-0.006 0.374,-0.009 0.078,-0.002 0.158,-0.003 0.233,-0.005 0.124,-0.002 0.239,-0.004 0.353,-0.006 0.062,-0.001 0.128,-0.002 0.187,-0.003 0.163,-0.002 0.316,-0.003 0.453,-0.003 0.804,0 1.586,0.01 2.348,0.028 0.26,0.006 0.505,0.019 0.761,0.027 0.491,0.016 0.986,0.03 1.459,0.053 0.299,0.015 0.581,0.036 0.872,0.053 0.413,0.024 0.831,0.047 1.23,0.076 0.296,0.022 0.576,0.05 0.865,0.076 0.374,0.032 0.754,0.063 1.115,0.099 0.29,0.03 0.565,0.065 0.847,0.097 0.343,0.039 0.691,0.077 1.022,0.12 0.275,0.036 0.536,0.077 0.803,0.116 0.319,0.046 0.643,0.091 0.952,0.141 0.263,0.043 0.512,0.089 0.767,0.134 0.295,0.052 0.595,0.102 0.88,0.158 0.248,0.048 0.483,0.1 0.724,0.15 0.275,0.058 0.554,0.114 0.819,0.174 0.235,0.053 0.458,0.11 0.685,0.166 0.253,0.062 0.509,0.123 0.753,0.187 0.223,0.059 0.434,0.12 0.65,0.181 0.233,0.066 0.469,0.131 0.694,0.198 0.207,0.063 0.404,0.127 0.604,0.192 0.216,0.07 0.435,0.138 0.643,0.21 0.193,0.066 0.376,0.134 0.562,0.202 0.2,0.073 0.402,0.145 0.594,0.219 0.179,0.069 0.35,0.14 0.522,0.21 0.184,0.075 0.369,0.15 0.546,0.226 0.165,0.071 0.323,0.144 0.482,0.216 0.17,0.077 0.34,0.154 0.503,0.232 0.151,0.073 0.296,0.146 0.441,0.22 0.156,0.079 0.313,0.158 0.462,0.237 0.139,0.074 0.272,0.149 0.405,0.223 0.141,0.079 0.283,0.158 0.418,0.238 0.128,0.075 0.25,0.151 0.372,0.226 0.128,0.079 0.256,0.158 0.378,0.237 0.116,0.076 0.227,0.151 0.338,0.226 0.115,0.079 0.231,0.157 0.34,0.236 0.105,0.075 0.205,0.15 0.304,0.224 0.104,0.078 0.208,0.157 0.307,0.234 0.094,0.074 0.183,0.147 0.272,0.22 0.093,0.077 0.185,0.153 0.273,0.229 0.084,0.073 0.165,0.145 0.244,0.216 0.082,0.074 0.163,0.148 0.24,0.221 0.074,0.07 0.145,0.14 0.215,0.209 0.073,0.072 0.145,0.144 0.213,0.215 0.065,0.067 0.127,0.134 0.187,0.199 0.064,0.069 0.126,0.138 0.185,0.205 0.056,0.064 0.111,0.128 0.163,0.19 0.055,0.066 0.109,0.131 0.16,0.195 0.048,0.06 0.094,0.119 0.138,0.176 0.047,0.062 0.093,0.123 0.136,0.182 0.04,0.055 0.079,0.11 0.116,0.163 0.04,0.057 0.078,0.114 0.114,0.168 0.033,0.05 0.065,0.099 0.095,0.147 0.032,0.051 0.063,0.101 0.092,0.149 0.027,0.046 0.054,0.091 0.079,0.134 0.026,0.045 0.05,0.088 0.073,0.13 0.021,0.039 0.042,0.078 0.061,0.114 0.02,0.039 0.039,0.075 0.056,0.11 0.016,0.033 0.032,0.065 0.046,0.094 0.015,0.033 0.029,0.063 0.042,0.092 0.01,0.024 0.021,0.048 0.03,0.068 0.011,0.025 0.02,0.048 0.029,0.069 0.007,0.017 0.014,0.035 0.019,0.049 0.008,0.021 0.016,0.042 0.02,0.053 h 26.541 c -0.005,-0.032 -0.014,-0.082 -0.024,-0.139 -0.003,-0.016 -0.005,-0.026 -0.008,-0.044 -0.012,-0.066 -0.027,-0.147 -0.045,-0.239 -0.004,-0.018 -0.007,-0.035 -0.011,-0.055 -0.02,-0.1 -0.044,-0.21 -0.072,-0.335 -0.004,-0.017 -0.008,-0.036 -0.013,-0.054 -0.029,-0.125 -0.062,-0.261 -0.099,-0.409 -0.003,-0.013 -0.006,-0.025 -0.01,-0.039 -0.04,-0.154 -0.086,-0.321 -0.136,-0.498 -0.009,-0.031 -0.017,-0.061 -0.027,-0.093 -0.052,-0.177 -0.109,-0.363 -0.172,-0.56 -0.011,-0.035 -0.023,-0.071 -0.035,-0.106 -0.068,-0.207 -0.14,-0.421 -0.222,-0.647 -0.005,-0.013 -0.01,-0.027 -0.015,-0.041 -0.08,-0.222 -0.169,-0.453 -0.264,-0.692 -0.009,-0.023 -0.016,-0.043 -0.025,-0.066 -0.004,-0.009 -0.009,-0.02 -0.012,-0.029 -0.102,-0.253 -0.213,-0.516 -0.333,-0.786 -0.02,-0.045 -0.039,-0.09 -0.06,-0.135 -0.12,-0.269 -0.25,-0.545 -0.389,-0.829 -0.024,-0.049 -0.048,-0.097 -0.072,-0.146 -0.144,-0.29 -0.297,-0.586 -0.462,-0.89 -0.021,-0.039 -0.044,-0.079 -0.066,-0.118 -0.175,-0.319 -0.36,-0.644 -0.559,-0.975 -0.005,-0.009 -0.011,-0.018 -0.016,-0.026 -0.199,-0.329 -0.411,-0.665 -0.635,-1.005 -0.023,-0.035 -0.045,-0.069 -0.068,-0.105 -0.219,-0.33 -0.453,-0.665 -0.698,-1.002 -0.039,-0.054 -0.078,-0.108 -0.118,-0.163 -0.243,-0.331 -0.5,-0.666 -0.769,-1.003 -0.048,-0.06 -0.096,-0.12 -0.145,-0.18 -0.276,-0.34 -0.563,-0.682 -0.866,-1.026 -0.044,-0.05 -0.091,-0.101 -0.135,-0.151 -0.319,-0.358 -0.65,-0.717 -1.001,-1.077 -0.02,-0.021 -0.042,-0.041 -0.062,-0.062 -0.351,-0.359 -0.719,-0.718 -1.103,-1.077 -0.034,-0.032 -0.066,-0.064 -0.101,-0.096 -0.381,-0.354 -0.782,-0.707 -1.197,-1.059 -0.065,-0.055 -0.128,-0.11 -0.194,-0.165 -0.409,-0.343 -0.836,-0.684 -1.277,-1.023 -0.078,-0.06 -0.156,-0.119 -0.235,-0.179 -0.449,-0.339 -0.913,-0.676 -1.397,-1.01 -0.076,-0.052 -0.154,-0.104 -0.23,-0.156 -0.504,-0.343 -1.023,-0.683 -1.565,-1.019 -0.045,-0.028 -0.091,-0.055 -0.136,-0.082 -0.551,-0.338 -1.121,-0.672 -1.713,-1 -0.037,-0.021 -0.073,-0.042 -0.11,-0.062 -0.592,-0.327 -1.21,-0.647 -1.844,-0.962 -0.058,-0.029 -0.11,-0.059 -0.168,-0.088 -0.037,-0.018 -0.078,-0.035 -0.115,-0.054 -0.53,-0.259 -1.076,-0.514 -1.636,-0.765 -0.118,-0.053 -0.239,-0.104 -0.358,-0.156 -0.507,-0.222 -1.026,-0.441 -1.558,-0.654 -0.099,-0.04 -0.194,-0.08 -0.294,-0.12 -0.6,-0.237 -1.219,-0.469 -1.851,-0.694 -0.145,-0.052 -0.292,-0.103 -0.439,-0.154 -0.611,-0.213 -1.233,-0.422 -1.873,-0.623 -0.041,-0.013 -0.079,-0.027 -0.121,-0.04 -0.012,-0.004 -0.025,-0.007 -0.037,-0.011 -0.595,-0.186 -1.206,-0.365 -1.827,-0.54 -0.173,-0.049 -0.35,-0.096 -0.525,-0.143 -0.47,-0.128 -0.947,-0.254 -1.433,-0.376 -0.201,-0.05 -0.401,-0.101 -0.604,-0.15 -0.576,-0.14 -1.161,-0.275 -1.758,-0.405 -0.09,-0.02 -0.176,-0.041 -0.266,-0.06 -0.683,-0.147 -1.384,-0.286 -2.095,-0.419 -0.067,-0.013 -0.13,-0.027 -0.197,-0.039 -0.14,-0.026 -0.287,-0.048 -0.428,-0.073 -0.509,-0.092 -1.024,-0.18 -1.547,-0.265 -0.238,-0.039 -0.477,-0.077 -0.718,-0.114 -0.567,-0.087 -1.144,-0.17 -1.728,-0.249 -0.179,-0.024 -0.354,-0.05 -0.534,-0.074 -0.761,-0.099 -1.535,-0.19 -2.324,-0.274 -0.185,-0.02 -0.375,-0.036 -0.561,-0.055 -0.617,-0.062 -1.241,-0.121 -1.875,-0.174 -0.124,-0.01 -0.242,-0.024 -0.367,-0.034 -0.168,-0.014 -0.343,-0.023 -0.513,-0.036 -0.462,-0.035 -0.93,-0.068 -1.401,-0.098 -0.314,-0.02 -0.629,-0.04 -0.947,-0.058 -0.488,-0.027 -0.983,-0.051 -1.481,-0.073 -0.31,-0.014 -0.619,-0.028 -0.933,-0.04 -0.551,-0.02 -1.112,-0.035 -1.675,-0.049 -0.271,-0.007 -0.537,-0.016 -0.81,-0.021 -0.841,-0.015 -1.693,-0.024 -2.56,-0.024 -34.803,0 -54.648,0 -63.882,0 h -6.444 -141.05 l 28.053,21.609 h 45.126 v 12.897 c 5.981,0 12.118,0 18.363,0 2.082,0 4.175,0 6.279,0 l 0,0 h 0 v -12.897 h 49.671 v -15.651 z m 67.122,-3.906 c 0.008,0 0.016,10e-4 0.024,10e-4 -0.06,-0.002 -0.119,-0.003 -0.178,-0.005 0.051,0.001 0.103,0.002 0.154,0.004 z m 2.504,0.089 c 0.018,10e-4 0.036,0.002 0.054,0.003 -0.142,-0.006 -0.283,-0.013 -0.426,-0.019 0.124,0.005 0.248,0.01 0.372,0.016 z m 2.338,0.127 c 0.025,0.002 0.048,0.004 0.073,0.005 -0.189,-0.012 -0.38,-0.024 -0.571,-0.035 0.166,0.01 0.333,0.019 0.498,0.03 z m 2.202,0.162 c 0.027,0.002 0.053,0.005 0.08,0.007 -0.227,-0.019 -0.457,-0.037 -0.687,-0.055 0.203,0.016 0.407,0.031 0.607,0.048 z m 2.197,0.203 c 0.047,0.005 0.096,0.009 0.142,0.014 0.036,0.004 0.07,0.009 0.106,0.012 -0.183,-0.019 -0.371,-0.036 -0.556,-0.055 0.101,0.011 0.207,0.019 0.308,0.029 z m 5.276,0.688 c 0.038,0.006 0.073,0.013 0.111,0.019 -0.159,-0.025 -0.319,-0.05 -0.479,-0.075 0.122,0.019 0.246,0.037 0.368,0.056 z m 1.789,0.301 c 0.091,0.016 0.186,0.031 0.277,0.048 0.049,0.009 0.095,0.019 0.143,0.028 -0.199,-0.037 -0.402,-0.071 -0.603,-0.107 0.06,0.011 0.123,0.02 0.183,0.031 z m 4.865,1.02 c 0.043,0.01 0.084,0.022 0.127,0.032 -0.135,-0.033 -0.27,-0.066 -0.406,-0.098 0.092,0.022 0.187,0.043 0.279,0.066 z m 1.845,0.47 c 0.025,0.007 0.049,0.014 0.074,0.021 0.035,0.009 0.067,0.02 0.102,0.029 -0.167,-0.046 -0.338,-0.089 -0.506,-0.134 0.107,0.028 0.222,0.055 0.33,0.084 z m 4.079,1.242 c 0.029,0.01 0.06,0.02 0.089,0.029 0.055,0.019 0.106,0.039 0.161,0.058 -0.14,-0.048 -0.282,-0.096 -0.423,-0.143 0.056,0.019 0.116,0.037 0.173,0.056 z m 12.93,6.502 c 0.014,0.01 0.026,0.02 0.04,0.03 -0.075,-0.055 -0.151,-0.109 -0.227,-0.164 0.027,0.02 0.058,0.039 0.085,0.059 0.034,0.025 0.067,0.05 0.102,0.075 z m 1.348,1.023 c 0.034,0.027 0.063,0.054 0.096,0.081 -0.061,-0.049 -0.12,-0.097 -0.182,-0.146 0.012,0.009 0.025,0.018 0.036,0.027 0.017,0.013 0.034,0.026 0.05,0.038 z m 5.31,5.31 c 0.004,0.006 0.008,0.011 0.013,0.017 -0.037,-0.047 -0.073,-0.094 -0.11,-0.141 0.007,0.008 0.015,0.017 0.021,0.026 0.026,0.032 0.051,0.065 0.076,0.098 z m 0.701,0.933 c 0.011,0.016 0.021,0.031 0.032,0.047 -0.022,-0.031 -0.042,-0.061 -0.065,-0.091 0.005,0.007 0.011,0.015 0.016,0.022 0.007,0.007 0.012,0.014 0.017,0.022 z m 1.71,2.729 c 0,0 10e-4,0 0,0 -0.021,-0.04 -0.044,-0.081 -0.067,-0.122 10e-4,0.001 0.002,0.003 0.002,0.004 0.022,0.039 0.044,0.078 0.065,0.118 z m -22.935,1.722 c 0.06,0.06 0.119,0.119 0.176,0.178 -0.029,-0.03 -0.061,-0.061 -0.091,-0.092 -0.028,-0.029 -0.055,-0.057 -0.085,-0.086 z m 0.389,0.403 c 0.052,0.057 0.103,0.113 0.152,0.168 -0.026,-0.029 -0.055,-0.06 -0.081,-0.089 -0.024,-0.027 -0.047,-0.052 -0.071,-0.079 z m 0.333,0.376 c 0.044,0.052 0.087,0.102 0.127,0.152 -0.023,-0.028 -0.049,-0.058 -0.073,-0.086 -0.018,-0.022 -0.035,-0.044 -0.054,-0.066 z m 0.28,0.342 c 0.037,0.047 0.072,0.092 0.106,0.137 -0.02,-0.026 -0.043,-0.055 -0.064,-0.082 -0.014,-0.019 -0.028,-0.036 -0.042,-0.055 z m 0.735,1.097 c -0.002,-0.004 -0.004,-0.008 -0.007,-0.012 0.011,0.02 0.017,0.032 0.022,0.041 -0.003,-0.007 -0.008,-0.016 -0.015,-0.029 z m -0.07,-0.125 c -0.002,-0.003 -0.004,-0.006 -0.006,-0.01 0.012,0.02 0.023,0.039 0.032,0.056 -0.007,-0.013 -0.017,-0.031 -0.026,-0.046 z m -0.093,-0.157 c -0.005,-0.008 -0.009,-0.015 -0.014,-0.022 0.017,0.027 0.033,0.053 0.047,0.077 -0.009,-0.018 -0.022,-0.038 -0.033,-0.055 z m -0.134,-0.21 c -0.008,-0.011 -0.015,-0.022 -0.022,-0.034 0.023,0.034 0.045,0.067 0.065,0.099 -0.013,-0.02 -0.029,-0.044 -0.043,-0.065 z m -0.176,-0.255 c -0.011,-0.015 -0.02,-0.029 -0.031,-0.044 0.029,0.041 0.058,0.081 0.085,0.119 -0.017,-0.024 -0.036,-0.05 -0.054,-0.075 z m 22.648,-1.134 c 0.002,0.004 0.003,0.007 0.004,0.011 -0.004,-0.011 -0.009,-0.022 -0.014,-0.033 0.004,0.007 0.007,0.015 0.01,0.022 z m 0.198,0.509 c 0.007,0.019 0.015,0.039 0.022,0.058 10e-4,0.004 0.002,0.007 0.004,0.011 -0.009,-0.024 -0.018,-0.049 -0.027,-0.073 0,10e-4 0,0.003 10e-4,0.004 z m 0.187,0.534 c 10e-4,0.002 10e-4,0.004 0.002,0.006 -0.004,-0.011 -0.007,-0.022 -0.011,-0.034 0.003,0.009 0.006,0.019 0.009,0.028 z m 0.189,0.623 c 10e-4,0.004 0.002,0.007 0.003,0.011 -0.002,-0.008 -0.005,-0.017 -0.007,-0.025 0.001,0.004 0.003,0.01 0.004,0.014 z m 0.05,0.197 c 10e-4,0.005 10e-4,0.005 0.002,0.01 -0.002,-0.007 -0.004,-0.016 -0.006,-0.024 0.002,0.005 0.003,0.011 0.004,0.014 z m -1.193,-3.129 c -0.008,-0.017 -0.017,-0.035 -0.025,-0.052 0.008,0.017 0.016,0.033 0.025,0.05 0,0.001 0,0.001 0,0.002 z m -3.666,-5.488 c -0.037,-0.043 -0.074,-0.086 -0.112,-0.13 0.007,0.008 0.015,0.016 0.022,0.024 0.03,0.036 0.06,0.071 0.09,0.106 z m -1.034,-1.143 c -0.009,-0.01 -0.019,-0.019 -0.028,-0.029 0.002,0.003 0.005,0.005 0.008,0.008 0.006,0.006 0.013,0.014 0.02,0.021 z m -2.094,-2.013 c -0.013,-0.011 -0.025,-0.022 -0.037,-0.033 0.005,0.005 0.011,0.009 0.016,0.014 0.007,0.006 0.014,0.012 0.021,0.019 z m -4.266,-3.233 c -0.054,-0.036 -0.11,-0.071 -0.165,-0.107 0.02,0.013 0.043,0.026 0.063,0.039 0.034,0.022 0.068,0.045 0.102,0.068 z m -5.328,-2.977 c -0.055,-0.026 -0.11,-0.053 -0.166,-0.079 0.033,0.016 0.067,0.031 0.1,0.047 0.024,0.01 0.044,0.021 0.066,0.032 z m -1.883,-0.852 c -0.101,-0.043 -0.205,-0.086 -0.307,-0.129 0.051,0.022 0.106,0.042 0.157,0.063 0.05,0.022 0.099,0.044 0.15,0.066 z m -1.821,-0.741 c -0.01,-0.004 -0.02,-0.008 -0.03,-0.012 0.005,0.002 0.011,0.004 0.016,0.006 0.005,0.002 0.009,0.004 0.014,0.006 z m -3.6,17.04 c -0.034,-0.031 -0.066,-0.062 -0.1,-0.094 0.07,0.064 0.137,0.127 0.203,0.19 -0.034,-0.032 -0.069,-0.064 -0.103,-0.096 z m -0.494,-0.443 c -0.04,-0.034 -0.078,-0.068 -0.119,-0.103 0.081,0.068 0.158,0.135 0.234,0.202 -0.037,-0.032 -0.077,-0.065 -0.115,-0.099 z m -0.555,-0.457 c -0.047,-0.037 -0.092,-0.074 -0.14,-0.112 0.091,0.07 0.178,0.14 0.264,0.209 -0.041,-0.031 -0.083,-0.064 -0.124,-0.097 z m -0.61,-0.461 c -0.059,-0.043 -0.115,-0.085 -0.176,-0.128 0.101,0.072 0.199,0.143 0.295,0.215 -0.038,-0.029 -0.08,-0.058 -0.119,-0.087 z m -0.693,-0.481 c -0.068,-0.045 -0.133,-0.09 -0.203,-0.136 0.114,0.074 0.222,0.147 0.331,0.22 -0.042,-0.028 -0.085,-0.056 -0.128,-0.084 z m -0.771,-0.49 c -0.076,-0.046 -0.148,-0.092 -0.226,-0.138 0.125,0.074 0.245,0.148 0.365,0.222 -0.046,-0.028 -0.093,-0.056 -0.139,-0.084 z m -0.842,-0.487 c -0.086,-0.048 -0.169,-0.095 -0.257,-0.143 0.137,0.074 0.268,0.147 0.399,0.221 -0.047,-0.026 -0.095,-0.052 -0.142,-0.078 z m -0.924,-0.487 c -0.097,-0.049 -0.191,-0.098 -0.29,-0.146 0.15,0.073 0.294,0.147 0.438,0.22 -0.049,-0.024 -0.099,-0.049 -0.148,-0.074 z m -0.992,-0.473 c -0.114,-0.052 -0.223,-0.104 -0.34,-0.155 0.165,0.073 0.322,0.146 0.482,0.219 -0.047,-0.021 -0.095,-0.042 -0.142,-0.064 z m -1.089,-0.468 c -0.128,-0.052 -0.251,-0.105 -0.382,-0.156 0.18,0.071 0.35,0.143 0.524,0.214 -0.047,-0.02 -0.095,-0.039 -0.142,-0.058 z m -1.196,-0.461 c -0.137,-0.05 -0.269,-0.101 -0.41,-0.15 0.194,0.068 0.378,0.138 0.566,0.207 -0.051,-0.019 -0.104,-0.038 -0.156,-0.057 z m -1.262,-0.433 c -0.155,-0.05 -0.305,-0.102 -0.464,-0.151 0.208,0.064 0.405,0.131 0.606,0.197 -0.047,-0.015 -0.095,-0.031 -0.142,-0.046 z m -1.358,-0.412 c -0.175,-0.05 -0.344,-0.101 -0.524,-0.15 0.223,0.061 0.436,0.124 0.652,0.186 -0.042,-0.012 -0.085,-0.024 -0.128,-0.036 z m -1.47,-0.39 c -0.191,-0.047 -0.376,-0.097 -0.572,-0.142 0.239,0.056 0.465,0.115 0.697,0.173 -0.042,-0.011 -0.084,-0.021 -0.125,-0.031 z m -1.572,-0.36 c -0.209,-0.044 -0.411,-0.091 -0.625,-0.133 0.253,0.05 0.494,0.105 0.74,0.158 -0.038,-0.009 -0.077,-0.017 -0.115,-0.025 z m -1.685,-0.328 c -0.226,-0.04 -0.444,-0.083 -0.676,-0.121 0.271,0.045 0.529,0.094 0.792,0.142 -0.038,-0.007 -0.077,-0.014 -0.116,-0.021 z m -1.814,-0.292 c -0.237,-0.034 -0.465,-0.072 -0.707,-0.104 0.288,0.038 0.56,0.082 0.84,0.124 -0.044,-0.007 -0.088,-0.014 -0.133,-0.02 z m -1.925,-0.249 c -0.248,-0.028 -0.488,-0.06 -0.741,-0.086 0.299,0.031 0.583,0.068 0.874,0.102 -0.045,-0.005 -0.089,-0.011 -0.133,-0.016 z m -2.008,-0.198 c -0.271,-0.023 -0.532,-0.05 -0.809,-0.07 0.304,0.022 0.591,0.052 0.887,0.077 -0.027,-0.003 -0.052,-0.005 -0.078,-0.007 z m -2.251,-0.157 c -0.255,-0.014 -0.501,-0.033 -0.761,-0.045 0.3,0.014 0.584,0.035 0.878,0.051 -0.04,-0.002 -0.078,-0.004 -0.117,-0.006 z m -2.557,-0.103 c -0.179,-0.004 -0.349,-0.013 -0.53,-0.017 0.268,0.005 0.519,0.017 0.782,0.025 -0.085,-0.002 -0.167,-0.006 -0.252,-0.008 z m -30.706,9.126 c 0.026,0.068 0.059,0.135 0.089,0.202 -0.03,-0.068 -0.063,-0.134 -0.089,-0.202 z m 0.918,1.466 c 0.057,0.065 0.116,0.129 0.177,0.192 -0.062,-0.064 -0.12,-0.128 -0.177,-0.192 z m 13.738,5.302 c -0.024,-0.003 -0.053,-0.007 -0.079,-0.01 0,0 0,0 0,0 0.026,0.003 0.055,0.007 0.079,0.01 z m -0.314,-0.042 c -0.038,-0.005 -0.08,-0.012 -0.12,-0.018 0,0 0,0 0,0 0.04,0.006 0.082,0.012 0.12,0.018 z m -0.373,-0.056 c -0.052,-0.008 -0.107,-0.017 -0.163,-0.026 0.055,0.009 0.111,0.018 0.163,0.026 z m -0.435,-0.07 c -0.063,-0.011 -0.126,-0.021 -0.192,-0.033 0.065,0.012 0.13,0.023 0.192,0.033 z m -1.035,-0.188 c -0.014,-0.003 -0.027,-0.005 -0.04,-0.008 0.008,0.002 0.015,0.003 0.023,0.004 0.006,0.002 0.011,0.003 0.017,0.004 z m 0.543,0.102 c -0.069,-0.013 -0.139,-0.025 -0.211,-0.039 0.072,0.014 0.142,0.027 0.211,0.039 z m -0.675,-0.127 c -0.03,-0.006 -0.062,-0.013 -0.092,-0.019 0.014,0.003 0.027,0.005 0.041,0.008 0.016,0.004 0.035,0.008 0.051,0.011 z m -0.463,-0.094 c -0.075,-0.016 -0.149,-0.031 -0.226,-0.047 0.077,0.016 0.151,0.031 0.226,0.047 z m -0.652,-0.141 c -0.069,-0.015 -0.135,-0.03 -0.205,-0.045 0.07,0.016 0.136,0.03 0.205,0.045 z m -1.543,-0.372 c -0.026,-0.007 -0.051,-0.014 -0.077,-0.02 0.008,0.002 0.015,0.004 0.023,0.006 0.018,0.004 0.036,0.009 0.054,0.014 z m 0.679,0.172 c -10e-4,0 -0.003,-0.001 -0.005,-0.001 0.002,0 0.004,0 0.005,0.001 z m -0.852,-0.219 c -0.014,-0.004 -0.029,-0.008 -0.043,-0.012 0.011,0.003 0.022,0.006 0.033,0.009 0.003,0.001 0.007,0.002 0.01,0.003 z m -0.523,-0.142 c -0.089,-0.025 -0.179,-0.052 -0.269,-0.077 0.09,0.025 0.18,0.052 0.269,0.077 z m -0.71,-0.207 c -0.097,-0.029 -0.193,-0.059 -0.29,-0.09 0.097,0.031 0.194,0.061 0.29,0.09 z m -0.717,-0.225 c -0.1,-0.033 -0.2,-0.066 -0.3,-0.099 0.1,0.033 0.2,0.067 0.3,0.099 z m -1.437,-0.507 c -0.086,-0.033 -0.172,-0.065 -0.257,-0.099 0.017,0.007 0.034,0.012 0.05,0.019 0.069,0.026 0.138,0.053 0.207,0.08 z m 0.715,0.263 c -0.1,-0.035 -0.199,-0.071 -0.299,-0.107 0.1,0.036 0.2,0.071 0.299,0.107 z m -1.711,-0.668 c 0.093,0.041 0.188,0.079 0.283,0.119 -0.095,-0.039 -0.19,-0.078 -0.283,-0.119 z m -0.565,-0.254 c -0.039,-0.018 -0.077,-0.036 -0.115,-0.054 0.028,0.013 0.057,0.026 0.086,0.039 0.009,0.005 0.019,0.01 0.029,0.015 z m -0.615,-0.303 c -0.052,-0.027 -0.105,-0.052 -0.156,-0.079 0.051,0.027 0.104,0.052 0.156,0.079 z m -0.782,-0.428 c -0.049,-0.029 -0.094,-0.059 -0.142,-0.088 l 0,0 c 0.048,0.029 0.093,0.06 0.142,0.088 z m -1.345,-0.923 c 0.068,0.055 0.135,0.11 0.206,0.164 -0.071,-0.053 -0.138,-0.109 -0.206,-0.164 z m 0.555,0.415 c 0.067,0.046 0.131,0.094 0.2,0.139 -0.068,-0.045 -0.133,-0.093 -0.2,-0.139 z m -0.898,-0.7 c -0.053,-0.047 -0.101,-0.096 -0.151,-0.143 0.037,0.035 0.075,0.07 0.113,0.104 0.014,0.013 0.024,0.027 0.038,0.039 z m -1.144,-1.338 c -0.041,-0.067 -0.084,-0.134 -0.121,-0.203 10e-4,0.001 0.002,0.002 0.002,0.003 0.037,0.068 0.079,0.134 0.119,0.2 z m 0.337,0.484 c -0.052,-0.066 -0.103,-0.133 -0.152,-0.201 0.049,0.067 0.1,0.134 0.152,0.201 z m -0.83,-1.632 c -0.009,-0.034 -0.02,-0.068 -0.028,-0.103 0.005,0.024 0.015,0.047 0.02,0.071 0.004,0.011 0.006,0.022 0.008,0.032 z"
         id="path904" />
      <linearGradient
         id="linearGradient3990"
         gradientUnits="userSpaceOnUse"
         x1="557.74249"
         y1="1601.4769"
         x2="557.74261"
         y2="-1364.0988">
        <stop
           offset="0"
           style="stop-color:#B43C62"
           id="stop3992" />
        <stop
           offset="1"
           style="stop-color:#9B388B"
           id="stop3994" />
      </linearGradient>
      <path
         style="fill:url(#SVGID_49_)"
         inkscape:connector-curvature="0"
         d="m 546.749,253.959 h 21.987 v -53.586 c -9.828,0 -17.424,0 -21.987,0 v 53.586 z"
         id="path911" />
      <linearGradient
         id="linearGradient3997"
         gradientUnits="userSpaceOnUse"
         x1="766.97449"
         y1="1670.8976"
         x2="766.97449"
         y2="-1441.6138">
        <stop
           offset="0"
           style="stop-color:#B43C62"
           id="stop3999" />
        <stop
           offset="1"
           style="stop-color:#9B388B"
           id="stop4001" />
      </linearGradient>
      <path
         style="fill:url(#SVGID_50_)"
         inkscape:connector-curvature="0"
         d="m 831.386,228.521 c 0.031,-0.248 0.053,-0.473 0.069,-0.674 0,-0.004 10e-4,-0.009 10e-4,-0.013 10e-4,-0.012 10e-4,-0.02 0.002,-0.032 0.012,-0.154 0.02,-0.294 0.025,-0.416 0,-0.008 0,-0.014 0.001,-0.021 0.005,-0.125 0.007,-0.235 0.007,-0.324 0,-0.149 -0.002,-0.297 -0.005,-0.444 -0.004,-0.177 -0.018,-0.35 -0.028,-0.526 -0.007,-0.125 -0.01,-0.251 -0.02,-0.375 -0.026,-0.354 -0.062,-0.704 -0.108,-1.049 -0.003,-0.023 -0.005,-0.047 -0.008,-0.071 0,-0.003 -10e-4,-0.006 -10e-4,-0.009 -0.053,-0.38 -0.12,-0.756 -0.197,-1.127 -0.025,-0.119 -0.057,-0.236 -0.085,-0.354 -0.051,-0.222 -0.099,-0.446 -0.159,-0.665 -0.007,-0.025 -0.017,-0.049 -0.024,-0.074 -0.12,-0.429 -0.254,-0.852 -0.406,-1.267 -0.03,-0.083 -0.067,-0.163 -0.098,-0.246 -0.127,-0.333 -0.263,-0.662 -0.41,-0.987 -0.021,-0.047 -0.038,-0.097 -0.06,-0.144 -0.039,-0.084 -0.088,-0.165 -0.128,-0.249 -0.142,-0.293 -0.291,-0.583 -0.448,-0.869 -0.073,-0.132 -0.145,-0.264 -0.221,-0.394 -0.184,-0.316 -0.379,-0.628 -0.582,-0.936 -0.054,-0.082 -0.104,-0.166 -0.159,-0.247 -0.262,-0.385 -0.54,-0.763 -0.831,-1.136 -0.074,-0.095 -0.154,-0.187 -0.23,-0.282 -0.226,-0.28 -0.46,-0.557 -0.702,-0.83 -0.106,-0.12 -0.215,-0.238 -0.324,-0.357 -0.237,-0.257 -0.482,-0.511 -0.734,-0.762 -0.104,-0.104 -0.205,-0.208 -0.311,-0.311 -0.356,-0.345 -0.722,-0.685 -1.104,-1.019 -0.024,-0.021 -0.05,-0.041 -0.074,-0.062 -0.361,-0.313 -0.734,-0.62 -1.117,-0.924 -0.127,-0.1 -0.257,-0.199 -0.386,-0.299 -0.296,-0.228 -0.596,-0.453 -0.904,-0.675 -0.079,-0.057 -0.153,-0.117 -0.233,-0.174 -0.053,-0.038 -0.112,-0.074 -0.166,-0.112 -0.503,-0.354 -1.018,-0.703 -1.55,-1.044 -0.072,-0.046 -0.148,-0.091 -0.22,-0.137 -0.484,-0.306 -0.981,-0.606 -1.487,-0.901 -0.128,-0.074 -0.254,-0.149 -0.383,-0.223 -0.565,-0.323 -1.141,-0.641 -1.731,-0.951 -0.101,-0.053 -0.205,-0.105 -0.306,-0.157 -0.525,-0.272 -1.06,-0.54 -1.603,-0.803 -0.083,-0.04 -0.161,-0.082 -0.244,-0.122 -0.043,-0.021 -0.09,-0.04 -0.133,-0.061 -0.739,-0.352 -1.494,-0.694 -2.262,-1.029 -0.13,-0.057 -0.261,-0.114 -0.392,-0.17 -0.768,-0.33 -1.549,-0.653 -2.343,-0.967 -0.13,-0.052 -0.261,-0.102 -0.392,-0.153 -0.811,-0.317 -1.633,-0.628 -2.467,-0.929 -0.099,-0.036 -0.2,-0.071 -0.3,-0.106 -0.878,-0.314 -1.765,-0.622 -2.664,-0.92 -0.002,-0.001 -0.005,-0.002 -0.007,-0.003 -0.007,-0.002 -0.015,-0.005 -0.022,-0.007 -1.046,-0.347 -2.105,-0.683 -3.176,-1.009 -0.001,0 -0.002,-10e-4 -0.003,-10e-4 -19.134,0 -44.523,0 -71.901,0 23.742,14.697 76.302,15.642 76.302,25.524 0,0.207 -0.024,0.407 -0.058,0.604 -0.01,0.054 -0.022,0.108 -0.034,0.161 -0.036,0.159 -0.083,0.316 -0.141,0.469 -0.014,0.037 -0.024,0.075 -0.04,0.112 -0.076,0.183 -0.169,0.362 -0.276,0.537 -0.026,0.043 -0.056,0.084 -0.084,0.126 -0.092,0.139 -0.193,0.275 -0.303,0.408 -0.036,0.044 -0.071,0.088 -0.109,0.131 -0.145,0.164 -0.301,0.325 -0.473,0.48 -0.023,0.021 -0.049,0.041 -0.073,0.061 -0.146,0.128 -0.304,0.253 -0.468,0.376 -0.102,0.076 -0.21,0.151 -0.318,0.225 -0.124,0.085 -0.249,0.169 -0.381,0.251 -0.116,0.072 -0.237,0.143 -0.36,0.213 -0.137,0.079 -0.277,0.156 -0.422,0.232 -0.137,0.072 -0.278,0.142 -0.421,0.212 -0.149,0.072 -0.3,0.144 -0.456,0.214 -0.15,0.067 -0.304,0.133 -0.46,0.199 -0.15,0.063 -0.303,0.124 -0.458,0.185 -0.238,0.093 -0.483,0.183 -0.732,0.271 -0.136,0.048 -0.27,0.097 -0.409,0.144 -0.295,0.099 -0.601,0.194 -0.91,0.287 -0.1,0.03 -0.196,0.062 -0.298,0.092 -0.512,0.149 -1.045,0.288 -1.589,0.422 -0.13,0.032 -0.261,0.063 -0.392,0.094 -0.533,0.126 -1.075,0.248 -1.632,0.36 -0.024,0.005 -0.048,0.01 -0.072,0.015 -0.966,0.195 -1.968,0.368 -2.987,0.526 -0.087,0.013 -0.174,0.026 -0.261,0.039 -0.961,0.146 -1.939,0.276 -2.924,0.392 -0.113,0.013 -0.226,0.027 -0.339,0.04 -0.504,0.058 -1.008,0.112 -1.513,0.163 -0.041,0.004 -0.081,0.009 -0.122,0.013 -0.549,0.054 -1.098,0.104 -1.645,0.15 -0.163,0.014 -0.326,0.026 -0.489,0.04 -0.392,0.032 -0.783,0.062 -1.173,0.09 -0.178,0.013 -0.356,0.026 -0.534,0.038 -0.422,0.029 -0.842,0.055 -1.258,0.08 -0.115,0.007 -0.231,0.015 -0.345,0.021 -0.528,0.03 -1.05,0.057 -1.564,0.081 -0.129,0.006 -0.254,0.011 -0.382,0.016 -0.387,0.017 -0.771,0.033 -1.148,0.046 -0.167,0.006 -0.333,0.012 -0.497,0.017 -0.359,0.012 -0.712,0.022 -1.059,0.031 -0.135,0.004 -0.271,0.008 -0.404,0.011 -0.465,0.011 -0.921,0.02 -1.362,0.027 -0.265,0.004 -0.521,0.006 -0.777,0.009 -0.101,0.001 -0.208,0.003 -0.307,0.003 -0.353,0.003 -0.696,0.004 -1.028,0.004 -0.944,0 -1.863,-0.011 -2.764,-0.03 -0.297,-0.006 -0.581,-0.017 -0.874,-0.026 -0.598,-0.017 -1.193,-0.035 -1.772,-0.059 -0.33,-0.014 -0.651,-0.032 -0.976,-0.048 -0.524,-0.027 -1.043,-0.055 -1.551,-0.088 -0.328,-0.021 -0.652,-0.045 -0.974,-0.069 -0.47,-0.035 -0.934,-0.073 -1.39,-0.113 -0.366,-0.032 -0.729,-0.066 -1.086,-0.101 -0.43,-0.043 -0.852,-0.088 -1.269,-0.135 -0.346,-0.039 -0.691,-0.079 -1.028,-0.121 -0.409,-0.051 -0.808,-0.105 -1.205,-0.16 -0.325,-0.045 -0.651,-0.091 -0.968,-0.138 -0.389,-0.059 -0.768,-0.121 -1.146,-0.184 -0.304,-0.051 -0.61,-0.1 -0.906,-0.153 -0.389,-0.07 -0.766,-0.143 -1.141,-0.216 -0.255,-0.05 -0.515,-0.099 -0.764,-0.15 -0.392,-0.081 -0.77,-0.166 -1.148,-0.252 -0.217,-0.049 -0.441,-0.096 -0.653,-0.147 -0.439,-0.104 -0.861,-0.212 -1.279,-0.32 -0.136,-0.035 -0.279,-0.069 -0.412,-0.104 -0.546,-0.146 -1.075,-0.296 -1.587,-0.449 -0.137,-0.041 -0.264,-0.084 -0.399,-0.126 -0.372,-0.115 -0.742,-0.23 -1.096,-0.348 -0.181,-0.061 -0.352,-0.123 -0.529,-0.184 -0.292,-0.101 -0.586,-0.203 -0.866,-0.306 -0.187,-0.069 -0.364,-0.139 -0.546,-0.209 -0.254,-0.098 -0.509,-0.195 -0.753,-0.294 -0.182,-0.074 -0.355,-0.148 -0.531,-0.222 -0.222,-0.094 -0.444,-0.188 -0.657,-0.283 -0.228,-0.101 -0.445,-0.203 -0.662,-0.304 -0.175,-0.082 -0.353,-0.164 -0.522,-0.246 -0.212,-0.104 -0.414,-0.207 -0.616,-0.311 -0.156,-0.08 -0.316,-0.16 -0.466,-0.24 -0.201,-0.107 -0.39,-0.214 -0.581,-0.321 -0.136,-0.076 -0.278,-0.153 -0.408,-0.229 -0.193,-0.112 -0.374,-0.224 -0.556,-0.335 -0.11,-0.067 -0.226,-0.135 -0.331,-0.202 -0.402,-0.254 -0.768,-0.503 -1.114,-0.748 -0.072,-0.051 -0.144,-0.102 -0.214,-0.153 -0.327,-0.238 -0.634,-0.471 -0.911,-0.695 -0.042,-0.034 -0.079,-0.067 -0.12,-0.1 -0.254,-0.209 -0.488,-0.412 -0.701,-0.605 -0.033,-0.03 -0.07,-0.062 -0.103,-0.092 -0.221,-0.205 -0.417,-0.398 -0.595,-0.58 -0.037,-0.038 -0.073,-0.075 -0.108,-0.112 -0.167,-0.176 -0.321,-0.343 -0.448,-0.492 -0.013,-0.015 -0.022,-0.027 -0.034,-0.041 -0.12,-0.142 -0.223,-0.269 -0.309,-0.382 -0.015,-0.02 -0.033,-0.042 -0.047,-0.061 -0.083,-0.11 -0.151,-0.204 -0.201,-0.278 -0.012,-0.018 -0.023,-0.034 -0.034,-0.05 -0.039,-0.058 -0.074,-0.113 -0.09,-0.137 h -28.557 c 0.423,1.688 8.46,33.75 71.406,33.75 0.835,0 1.656,-0.007 2.467,-0.018 0.27,-0.004 0.532,-0.012 0.799,-0.017 0.536,-0.011 1.072,-0.021 1.598,-0.037 0.311,-0.009 0.615,-0.022 0.922,-0.033 0.472,-0.017 0.943,-0.034 1.406,-0.055 0.322,-0.015 0.638,-0.032 0.956,-0.049 0.436,-0.023 0.872,-0.045 1.3,-0.072 0.324,-0.02 0.643,-0.042 0.963,-0.064 0.413,-0.028 0.824,-0.057 1.229,-0.089 0.319,-0.025 0.634,-0.051 0.949,-0.078 0.395,-0.034 0.787,-0.068 1.175,-0.105 0.312,-0.03 0.622,-0.06 0.93,-0.092 0.381,-0.039 0.758,-0.08 1.132,-0.122 0.302,-0.034 0.603,-0.069 0.9,-0.104 0.371,-0.045 0.738,-0.092 1.102,-0.139 0.288,-0.038 0.576,-0.075 0.86,-0.115 0.367,-0.051 0.729,-0.105 1.09,-0.159 0.271,-0.041 0.542,-0.081 0.809,-0.123 0.366,-0.058 0.724,-0.119 1.083,-0.18 0.252,-0.043 0.507,-0.085 0.756,-0.129 0.373,-0.066 0.737,-0.136 1.102,-0.206 0.223,-0.043 0.451,-0.084 0.671,-0.128 0.421,-0.084 0.833,-0.171 1.244,-0.259 0.155,-0.033 0.314,-0.065 0.468,-0.098 0.562,-0.123 1.114,-0.251 1.656,-0.382 0.104,-0.025 0.204,-0.052 0.308,-0.078 0.433,-0.107 0.863,-0.215 1.284,-0.326 0.191,-0.051 0.376,-0.104 0.565,-0.155 0.327,-0.089 0.655,-0.179 0.975,-0.271 0.206,-0.06 0.407,-0.121 0.61,-0.182 0.292,-0.087 0.584,-0.174 0.869,-0.264 0.209,-0.066 0.414,-0.133 0.62,-0.199 0.272,-0.088 0.544,-0.177 0.81,-0.267 0.205,-0.069 0.406,-0.14 0.608,-0.211 0.257,-0.09 0.514,-0.181 0.765,-0.273 0.199,-0.073 0.396,-0.147 0.592,-0.221 0.247,-0.093 0.491,-0.187 0.733,-0.282 0.191,-0.075 0.381,-0.151 0.568,-0.227 0.237,-0.096 0.471,-0.193 0.702,-0.291 0.183,-0.078 0.366,-0.155 0.546,-0.234 0.228,-0.099 0.452,-0.2 0.675,-0.301 0.175,-0.079 0.351,-0.158 0.523,-0.239 0.222,-0.104 0.439,-0.208 0.656,-0.314 0.163,-0.079 0.327,-0.157 0.487,-0.237 0.223,-0.111 0.441,-0.224 0.658,-0.337 0.146,-0.076 0.294,-0.151 0.437,-0.227 0.23,-0.122 0.454,-0.247 0.677,-0.371 0.123,-0.068 0.25,-0.136 0.372,-0.205 0.273,-0.155 0.538,-0.311 0.801,-0.468 0.066,-0.04 0.136,-0.078 0.201,-0.118 0.326,-0.197 0.644,-0.396 0.955,-0.596 0.092,-0.059 0.18,-0.12 0.271,-0.179 0.215,-0.141 0.43,-0.282 0.637,-0.424 0.118,-0.081 0.232,-0.163 0.348,-0.244 0.176,-0.123 0.352,-0.246 0.523,-0.37 0.119,-0.086 0.233,-0.173 0.349,-0.259 0.161,-0.12 0.322,-0.24 0.478,-0.36 0.117,-0.09 0.23,-0.18 0.344,-0.271 0.099,-0.078 0.202,-0.157 0.299,-0.235 0.035,-0.029 0.067,-0.057 0.102,-0.086 0.332,-0.271 0.655,-0.543 0.965,-0.816 0.036,-0.032 0.069,-0.063 0.105,-0.095 0.276,-0.246 0.543,-0.492 0.802,-0.74 0.081,-0.077 0.161,-0.154 0.24,-0.232 0.243,-0.237 0.479,-0.474 0.707,-0.711 0.04,-0.042 0.083,-0.084 0.123,-0.126 0.261,-0.275 0.51,-0.55 0.752,-0.825 0.023,-0.026 0.048,-0.051 0.07,-0.077 0.024,-0.027 0.043,-0.054 0.067,-0.082 0.369,-0.425 0.715,-0.85 1.039,-1.272 0.039,-0.05 0.077,-0.1 0.115,-0.15 0.318,-0.42 0.615,-0.838 0.892,-1.252 0.016,-0.025 0.037,-0.05 0.053,-0.075 0.015,-0.022 0.026,-0.043 0.041,-0.065 0.246,-0.372 0.475,-0.741 0.69,-1.106 0.029,-0.05 0.059,-0.1 0.088,-0.149 0.21,-0.363 0.405,-0.72 0.587,-1.073 0.013,-0.026 0.03,-0.053 0.043,-0.079 0.012,-0.023 0.021,-0.046 0.033,-0.069 0.171,-0.338 0.33,-0.671 0.477,-0.997 0.023,-0.05 0.045,-0.1 0.067,-0.15 0.143,-0.324 0.275,-0.642 0.396,-0.953 0.008,-0.022 0.019,-0.044 0.027,-0.066 0.01,-0.026 0.017,-0.05 0.027,-0.076 0.121,-0.316 0.231,-0.625 0.331,-0.925 0.014,-0.044 0.028,-0.086 0.042,-0.13 0.097,-0.299 0.185,-0.589 0.263,-0.869 0.004,-0.016 0.011,-0.034 0.015,-0.049 0.006,-0.022 0.01,-0.041 0.016,-0.063 0.082,-0.302 0.155,-0.592 0.218,-0.869 0.008,-0.034 0.015,-0.068 0.023,-0.102 0.061,-0.274 0.113,-0.535 0.157,-0.782 0.003,-0.015 0.007,-0.032 0.009,-0.046 0.002,-0.014 0.003,-0.025 0.006,-0.039 0.049,-0.281 0.088,-0.544 0.119,-0.785 -0.002,-0.006 0,-0.015 10e-4,-0.024 z"
         id="path918" />
      <linearGradient
         id="linearGradient4004"
         gradientUnits="userSpaceOnUse"
         x1="641.34802"
         y1="1601.4769"
         x2="641.34802"
         y2="-1364.0988">
        <stop
           offset="0"
           style="stop-color:#B43C62"
           id="stop4006" />
        <stop
           offset="1"
           style="stop-color:#9B388B"
           id="stop4008" />
      </linearGradient>
      <path
         style="fill:url(#SVGID_51_)"
         inkscape:connector-curvature="0"
         d="m 629.027,253.959 h 24.642 v -53.586 c -8.415,0 -16.668,0 -24.642,0 v 53.586 z"
         id="path925" />
    </g>
  </g>
</svg>
