<?xml version="1.0" encoding="utf-8"?>
<!-- Generator: Adobe Illustrator 18.0.0, SVG Export Plug-In . SVG Version: 6.00 Build 0)  -->
<!DOCTYPE svg PUBLIC "-//W3C//DTD SVG 1.1//EN" "http://www.w3.org/Graphics/SVG/1.1/DTD/svg11.dtd">
<svg version="1.1"
	 id="svg2" xmlns:dc="http://purl.org/dc/elements/1.1/" xmlns:cc="http://creativecommons.org/ns#" xmlns:rdf="http://www.w3.org/1999/02/22-rdf-syntax-ns#" xmlns:svg="http://www.w3.org/2000/svg" xmlns:sodipodi="http://sodipodi.sourceforge.net/DTD/sodipodi-0.dtd" xmlns:inkscape="http://www.inkscape.org/namespaces/inkscape" sodipodi:docname="New document 1" inkscape:version="0.48.4 r9939"
	 xmlns="http://www.w3.org/2000/svg" xmlns:xlink="http://www.w3.org/1999/xlink" x="0px" y="0px" viewBox="0 0 23.8 24"
	 enable-background="new 0 0 23.8 24" xml:space="preserve">
<sodipodi:namedview  fit-margin-left="0" fit-margin-top="0" inkscape:cy="62.861873" inkscape:cx="-34.894578" inkscape:zoom="2.8" showgrid="false" bordercolor="#666666" pagecolor="#ffffff" borderopacity="1.0" id="base" inkscape:document-units="px" fit-margin-bottom="0" fit-margin-right="0" inkscape:current-layer="layer1" inkscape:window-maximized="1" inkscape:window-y="-4" inkscape:window-x="1676" inkscape:window-height="1137" inkscape:pageshadow="2" inkscape:window-width="1920" inkscape:pageopacity="0.0">
	</sodipodi:namedview>
<path d="M15.8,0h-4l6.8,7h-4.4l-2.5-2.5L9.5,7H5.1l6.8-7H0v16.1V24h7.9h4l-6.8-7h4.4l2.5,2.5l2.4-2.5h4.4l-6.8,7h4h7.9V0H15.8z
	 M11.9,6.1c1.1,0,2.1,0.9,2.1,2.1c0,1.1-0.9,2.1-2.1,2.1c-1.1,0-2.1-0.9-2.1-2.1C9.8,7,10.7,6.1,11.9,6.1z M16.7,15.3
	c0,0.5-0.5,0.5-0.5,0.5h-0.5c0,0-0.5,0-0.5-0.5v-1.2c0-0.1-0.1-0.2-0.2-0.2c-0.1,0-0.2,0.1-0.2,0.2l0,2c0,0.3-0.9,1-3,1s-3-0.7-3-1
	l0-2c0-0.1-0.1-0.2-0.2-0.2S8.4,14,8.4,14.2v1.2c0,0.5-0.5,0.5-0.5,0.5H7.5c0,0-0.5,0-0.5-0.5v-2c0-1.3,1.3-2.5,3.2-2.9
	c0,0,0.6,0.5,1.6,0.5s1.6-0.5,1.6-0.5c1.9,0.4,3.2,1.6,3.2,2.9V15.3z"/>
</svg>
