<?xml version="1.0" encoding="UTF-8" standalone="no"?>
<!-- Created with Inkscape (http://www.inkscape.org/) -->

<svg
   xmlns:dc="http://purl.org/dc/elements/1.1/"
   xmlns:cc="http://creativecommons.org/ns#"
   xmlns:rdf="http://www.w3.org/1999/02/22-rdf-syntax-ns#"
   xmlns:svg="http://www.w3.org/2000/svg"
   xmlns="http://www.w3.org/2000/svg"
   xmlns:sodipodi="http://sodipodi.sourceforge.net/DTD/sodipodi-0.dtd"
   xmlns:inkscape="http://www.inkscape.org/namespaces/inkscape"
   width="23.999001"
   height="15.999"
   id="svg7946"
   version="1.1"
   inkscape:version="0.48.4 r9939"
   sodipodi:docname="New document 28">
  <defs
     id="defs7948" />
  <sodipodi:namedview
     id="base"
     pagecolor="#ffffff"
     bordercolor="#666666"
     borderopacity="1.0"
     inkscape:pageopacity="0.0"
     inkscape:pageshadow="2"
     inkscape:zoom="7.9195959"
     inkscape:cx="-6.1359704"
     inkscape:cy="-40.334703"
     inkscape:document-units="px"
     inkscape:current-layer="layer1"
     showgrid="false"
     fit-margin-top="0"
     fit-margin-left="0"
     fit-margin-right="0"
     fit-margin-bottom="0"
     inkscape:window-width="708"
     inkscape:window-height="423"
     inkscape:window-x="2003"
     inkscape:window-y="123"
     inkscape:window-maximized="0" />
  <metadata
     id="metadata7951">
    <rdf:RDF>
      <cc:Work
         rdf:about="">
        <dc:format>image/svg+xml</dc:format>
        <dc:type
           rdf:resource="http://purl.org/dc/dcmitype/StillImage" />
        <dc:title></dc:title>
      </cc:Work>
    </rdf:RDF>
  </metadata>
  <g
     inkscape:label="Layer 1"
     inkscape:groupmode="layer"
     id="layer1"
     transform="translate(-585.14336,-661.50554)">
    <g
       transform="translate(333.54436,536.97054)"
       id="g4062"
       style="fill:#000000;fill-opacity:1">
      <path
         style="fill:#000000;fill-opacity:1"
         inkscape:connector-curvature="0"
         d="m 271.906,124.535 h -16.615 c -2.036,0 -3.692,1.656 -3.692,3.692 v 8.615 c 0,2.036 1.656,3.692 3.692,3.692 h 16.615 c 2.036,0 3.692,-1.656 3.692,-3.692 v -8.615 c 0,-2.036 -1.656,-3.692 -3.692,-3.692 z m -16.615,2.461 h 16.615 c 0.678,0 1.231,0.552 1.231,1.231 v 0.594 H 254.06 v -0.594 c 0,-0.679 0.552,-1.231 1.231,-1.231 z m 16.615,11.077 h -16.615 c -0.679,0 -1.231,-0.552 -1.231,-1.231 v -4.923 h 19.077 v 4.923 c 0,0.679 -0.553,1.231 -1.231,1.231 z"
         id="path4064" />
      <rect
         style="fill:#000000;fill-opacity:1"
         x="264.25601"
         y="133.334"
         width="8.3079996"
         height="1.2309999"
         id="rect4066" />
      <rect
         style="fill:#000000;fill-opacity:1"
         x="264.25601"
         y="135.17999"
         width="8.3079996"
         height="1.2309999"
         id="rect4068" />
    </g>
  </g>
</svg>
