<?xml version="1.0" encoding="UTF-8" standalone="no"?>
<!-- Created with Inkscape (http://www.inkscape.org/) -->

<svg
   xmlns:dc="http://purl.org/dc/elements/1.1/"
   xmlns:cc="http://creativecommons.org/ns#"
   xmlns:rdf="http://www.w3.org/1999/02/22-rdf-syntax-ns#"
   xmlns:svg="http://www.w3.org/2000/svg"
   xmlns="http://www.w3.org/2000/svg"
   xmlns:sodipodi="http://sodipodi.sourceforge.net/DTD/sodipodi-0.dtd"
   xmlns:inkscape="http://www.inkscape.org/namespaces/inkscape"
   width="7.90625"
   height="10.53125"
   id="svg9024"
   version="1.1"
   inkscape:version="0.48.4 r9939"
   sodipodi:docname="map_lock.svg">
  <defs
     id="defs9026" />
  <sodipodi:namedview
     id="base"
     pagecolor="#ffffff"
     bordercolor="#666666"
     borderopacity="1.0"
     inkscape:pageopacity="0.0"
     inkscape:pageshadow="2"
     inkscape:zoom="22.4"
     inkscape:cx="0.73796"
     inkscape:cy="0.97305167"
     inkscape:document-units="px"
     inkscape:current-layer="g4012"
     showgrid="false"
     showguides="true"
     inkscape:guide-bbox="true"
     inkscape:window-width="1920"
     inkscape:window-height="1137"
     inkscape:window-x="1676"
     inkscape:window-y="-4"
     inkscape:window-maximized="1"
     fit-margin-top="0"
     fit-margin-left="0"
     fit-margin-right="0"
     fit-margin-bottom="0" />
  <metadata
     id="metadata9029">
    <rdf:RDF>
      <cc:Work
         rdf:about="">
        <dc:format>image/svg+xml</dc:format>
        <dc:type
           rdf:resource="http://purl.org/dc/dcmitype/StillImage" />
        <dc:title />
      </cc:Work>
    </rdf:RDF>
  </metadata>
  <g
     inkscape:label="Layer 1"
     inkscape:groupmode="layer"
     id="layer1"
     transform="translate(-384.625,-407.09375)">
    <g
       transform="translate(147.97143,395.79268)"
       id="g4012">
      <g
         id="g4014">
        <g
           id="g4016">
          <path
             style="fill:#000000;fill-opacity:1;fill-rule:evenodd"
             d="m 388.5625,407.09375 c -1.453,0 -2.625,1.7575 -2.625,3.9375 l -0.28125,0 c -0.63,0.699 -1.03125,1.64125 -1.03125,2.65625 0,2.18 1.7575,3.9375 3.9375,3.9375 2.18,0 3.96875,-1.7575 3.96875,-3.9375 -0.002,-1.015 -0.40125,-1.95725 -1.03125,-2.65625 l -0.3125,0 c 0,-2.18 -1.172,-3.9375 -2.625,-3.9375 z m 0,1.96875 c 0.535,0 0.96975,0.66675 0.96875,1.46875 0,0.171 -0.0265,0.31675 -0.0625,0.46875 l -1.8125,0 c -0.036,-0.152 -0.0625,-0.29775 -0.0625,-0.46875 0,-0.802 0.43475,-1.46875 0.96875,-1.46875 z"
             transform="translate(-147.97143,-395.79268)"
             id="path4018"
             inkscape:connector-curvature="0" />
        </g>
      </g>
    </g>
  </g>
</svg>
