<?xml version="1.0" encoding="utf-8"?>
<!-- Generator: Adobe Illustrator 18.1.0, SVG Export Plug-In . SVG Version: 6.00 Build 0)  -->
<!DOCTYPE svg PUBLIC "-//W3C//DTD SVG 1.1//EN" "http://www.w3.org/Graphics/SVG/1.1/DTD/svg11.dtd">
<svg version="1.1"
	 id="svg8486" xmlns:dc="http://purl.org/dc/elements/1.1/" xmlns:inkscape="http://www.inkscape.org/namespaces/inkscape" xmlns:sodipodi="http://sodipodi.sourceforge.net/DTD/sodipodi-0.dtd" xmlns:svg="http://www.w3.org/2000/svg" xmlns:rdf="http://www.w3.org/1999/02/22-rdf-syntax-ns#" xmlns:cc="http://creativecommons.org/ns#" sodipodi:docname="New document 31" inkscape:version="0.48.4 r9939"
	 xmlns="http://www.w3.org/2000/svg" xmlns:xlink="http://www.w3.org/1999/xlink" x="0px" y="0px" viewBox="-24 25 22.7 24"
	 enable-background="new -24 25 22.7 24" xml:space="preserve">
<sodipodi:namedview  bordercolor="#666666" pagecolor="#ffffff" fit-margin-left="0" borderopacity="1.0" inkscape:cx="-99.127458" inkscape:cy="-25.403216" showgrid="false" fit-margin-top="0" inkscape:zoom="1.4" id="base" inkscape:window-maximized="0" inkscape:window-y="155" inkscape:window-x="1801" inkscape:window-height="423" inkscape:current-layer="layer1" fit-margin-bottom="0" inkscape:pageshadow="2" inkscape:pageopacity="0.0" inkscape:window-width="708" inkscape:document-units="px" fit-margin-right="0">
	</sodipodi:namedview>
<g>
	<rect x="-12.7" y="40.5" fill="#231F20" width="2.3" height="2.3"/>
	<rect x="-8.1" y="40.5" fill="#231F20" width="2.3" height="2.3"/>
	<rect x="-17.2" y="40.5" fill="#231F20" width="2.3" height="2.3"/>
	<rect x="-3.6" y="40.5" fill="#231F20" width="1.8" height="2.3"/>
	<path fill="#231F20" d="M-19.5,38.3v2.3h2.3v-2.3h2.3v2.3h2.3v-2.3h2.3v2.3h2.3v-2.3h2.3v2.3h2.3v-2.3h1.8V38
		c0-0.3-0.2-0.5-0.5-0.5H-23c-0.3,0-0.5,0.2-0.5,0.5v2.5h1.8v-2.3H-19.5z"/>
	<rect x="-21.7" y="40.5" fill="#231F20" width="2.3" height="2.3"/>
	<path fill="#231F20" d="M-3.6,45.1v-2.3h-2.3v2.3h-2.3v-2.3h-2.3v2.3h-2.3v-2.3h-2.3v2.3h-2.3v-2.3h-2.3v2.3h-2.3v-2.3h-1.8v2.5
		c0,0.3,0.2,0.5,0.5,0.5h20.7c0.3,0,0.5-0.2,0.5-0.5v-0.2H-3.6z"/>
</g>
</svg>
