<?xml version="1.0" encoding="utf-8"?>
<!-- Generator: Adobe Illustrator 16.0.0, SVG Export Plug-In . SVG Version: 6.00 Build 0)  -->
<!DOCTYPE svg PUBLIC "-//W3C//DTD SVG 1.1//EN" "http://www.w3.org/Graphics/SVG/1.1/DTD/svg11.dtd">
<svg version="1.1" id="Layer_1" xmlns="http://www.w3.org/2000/svg" xmlns:xlink="http://www.w3.org/1999/xlink" x="0px" y="0px"
	 width="96px" height="96px" viewBox="0 0 96 96" enable-background="new 0 0 96 96" xml:space="preserve">
<g>
	<path d="M0.745,42.824v3.273c0,7.228,5.862,13.092,13.093,13.092h7.146V29.73h-7.146C6.607,29.73,0.745,35.591,0.745,42.824z"/>
	<path d="M59.973,20.559c0-4.477-0.354-8.426-3.784-10.786c-0.75-2.927-3.016-5.244-5.911-6.064l25.602,1.757
		c1.15,0,2.084-0.932,2.084-2.082c0-1.151-0.934-2.085-2.084-2.085L49.731,2.324C49.379,1.764,48.76,1.39,48.051,1.39h-0.009h-0.084
		h-0.009c-0.709,0-1.328,0.374-1.681,0.935L20.121,1.298c-1.15,0-2.084,0.934-2.084,2.085c0,1.15,0.934,2.082,2.084,2.082
		l25.602-1.757c-2.896,0.82-5.161,3.138-5.911,6.064c-3.43,2.36-3.784,6.31-3.784,10.786v9.146l-9.806,0.026v29.459h13.313v14.728
		h-6.223c-3.615,0-6.546,2.931-6.546,6.547c0,3.615,2.931,6.546,6.546,6.546h8.667c1.525,4.082,3.638,7.602,5.979,7.685v0.008
		c0.015,0,0.028-0.004,0.042-0.004s0.027,0.004,0.042,0.004v-0.008c2.341-0.083,4.453-3.603,5.979-7.685h8.667
		c3.615,0,6.546-2.931,6.546-6.546c0-3.616-2.931-6.547-6.546-6.547h-6.223V59.189h13.313V29.69l-9.806,0.014V20.559z"/>
	<path d="M82.162,29.73h-7.146v29.459h7.146c7.23,0,13.093-5.864,13.093-13.092v-3.273C95.255,35.591,89.393,29.73,82.162,29.73z"/>
</g>
</svg>
