<?xml version="1.0" encoding="iso-8859-1"?>
<!-- Generator: Adobe Illustrator 16.0.0, SVG Export Plug-In . SVG Version: 6.00 Build 0)  -->
<!DOCTYPE svg PUBLIC "-//W3C//DTD SVG 1.1//EN" "http://www.w3.org/Graphics/SVG/1.1/DTD/svg11.dtd">
<svg version="1.1" xmlns="http://www.w3.org/2000/svg" xmlns:xlink="http://www.w3.org/1999/xlink" x="0px" y="0px" width="30.87px"
	 height="36.849px" viewBox="0 0 30.87 36.849" style="enable-background:new 0 0 30.87 36.849;" xml:space="preserve">
<g id="b20_fruit">
	<polygon points="21.817,33.85 21.82,33.846 21.817,33.848 	"/>
	<path d="M21.271,13.903h0.002c-1.097-1.057-4.349-4.016-4.837-10.49c-0.775-10.238-1.357,5.832-2.238,5.716
		c-0.903-0.117,0.93-7.284,0.038-7.262c-0.966,10.434-8.768,18.144-8.768,18.144s2.562-4.304,3.425-5.492
		c1.075-1.079-0.432-0.213-0.432-0.213s-1.533,0.671-2.664,1.302C2.268,17.57,0,20.617,0,24.04c0,2.101,0.855,4.06,2.331,5.713
		c0.732,0.822,2.752,2.128,3.762,2.776c0.388,0.25-0.797-3.041-0.797-3.041c0.277,0.141,1.43,3.464,1.715,3.594
		c0,0,0.847,0.861,2.545,1.377c1.122,0.355,2.125,0.389,3.21,0.362l-0.303,0.288h0.8v1.159l0.801-1.339v1.919l0.867-1.631
		l1.016,1.631v-1.631l1.738,1.631l-1.372-1.944c0.26,0.052,0.568,0.102,0.996,0.134l0.376,0.18l-0.219-0.167
		c0.189,0.01,0.399,0.018,0.645,0.018c1.748,0,2.164-0.908,3.166-1.219c0,0,0.001,0,0.003-0.002c0.062-0.044,0.108-0.086,0.172-0.13
		C22.807,32.654,31.726,24.974,21.271,13.903z"/>
	<path d="M23.267,14.742c-0.168-0.069-0.46-0.144-0.815-0.35c2.631,2.118,11.915,10.809-0.464,19.326
		c-0.093,0.073-0.154,0.119-0.167,0.128c5.326-1.662,9.05-5.424,9.05-9.806C30.87,20.064,27.812,16.594,23.267,14.742z"/>
	<path d="M22.451,14.392c-0.391-0.316-0.637-0.489-0.637-0.489C22.039,14.121,22.253,14.276,22.451,14.392z"/>
	<polygon points="21.811,33.854 21.817,33.85 21.815,33.85 	"/>
</g>
<g id="Capa_1">
</g>
</svg>
