<?xml version="1.0" encoding="UTF-8" standalone="no"?>
<!-- Created with Inkscape (http://www.inkscape.org/) -->

<svg
   xmlns:dc="http://purl.org/dc/elements/1.1/"
   xmlns:cc="http://creativecommons.org/ns#"
   xmlns:rdf="http://www.w3.org/1999/02/22-rdf-syntax-ns#"
   xmlns:svg="http://www.w3.org/2000/svg"
   xmlns="http://www.w3.org/2000/svg"
   xmlns:sodipodi="http://sodipodi.sourceforge.net/DTD/sodipodi-0.dtd"
   xmlns:inkscape="http://www.inkscape.org/namespaces/inkscape"
   width="22.667"
   height="24"
   id="svg8486"
   version="1.1"
   inkscape:version="0.48.4 r9939"
   sodipodi:docname="New document 31">
  <defs
     id="defs8488" />
  <sodipodi:namedview
     id="base"
     pagecolor="#ffffff"
     bordercolor="#666666"
     borderopacity="1.0"
     inkscape:pageopacity="0.0"
     inkscape:pageshadow="2"
     inkscape:zoom="1.4"
     inkscape:cx="-99.127458"
     inkscape:cy="-25.403216"
     inkscape:document-units="px"
     inkscape:current-layer="layer1"
     showgrid="false"
     fit-margin-top="0"
     fit-margin-left="0"
     fit-margin-right="0"
     fit-margin-bottom="0"
     inkscape:window-width="708"
     inkscape:window-height="423"
     inkscape:window-x="1801"
     inkscape:window-y="155"
     inkscape:window-maximized="0" />
  <metadata
     id="metadata8491">
    <rdf:RDF>
      <cc:Work
         rdf:about="">
        <dc:format>image/svg+xml</dc:format>
        <dc:type
           rdf:resource="http://purl.org/dc/dcmitype/StillImage" />
        <dc:title></dc:title>
      </cc:Work>
    </rdf:RDF>
  </metadata>
  <g
     inkscape:label="Layer 1"
     inkscape:groupmode="layer"
     id="layer1"
     transform="translate(-363.6665,-520.36218)">
    <path
       style="fill:#000000;fill-opacity:1"
       inkscape:connector-curvature="0"
       d="m 381.6675,524.36218 h -0.667 v -1.333 c 0,-1.472 -1.195,-2.667 -2.667,-2.667 h -12 c -1.472,0 -2.667,1.195 -2.667,2.667 v 17.333 c 0,2.208 1.792,4 4,4 h 9.333 c 2.208,0 4,-1.792 4,-4 h 0.667 c 2.573,0 4.667,-2.093 4.667,-4.667 v -6.667 c 0,-2.573 -2.093,-4.666 -4.666,-4.666 z m -3.334,1 h -2.562 c -0.772,0.93 -1.236,1.382 -2.443,1.382 -0.48,0 -1,-0.211 -1.268,-0.731 -0.298,1.285 -1.449,2.244 -2.825,2.244 -1.602,0 -2.901,-1.299 -2.901,-2.901 0,-0.06 0.002,-0.12 0.006,-0.179 -0.004,-0.049 -0.006,-0.097 -0.006,-0.147 v -0.667 -1.333 h 12 v 2.332 z m 5.334,10.333 c 0,1.103 -0.897,2 -2,2 h -0.656 v -10.667 h 0.656 c 1.103,0 2,0.897 2,2 v 6.667 z"
       id="path4070" />
  </g>
</svg>
