<?xml version="1.0" encoding="UTF-8" standalone="no"?>
<!-- Generator: Adobe Illustrator 18.0.0, SVG Export Plug-In . SVG Version: 6.00 Build 0)  -->

<svg
   xmlns:dc="http://purl.org/dc/elements/1.1/"
   xmlns:cc="http://creativecommons.org/ns#"
   xmlns:rdf="http://www.w3.org/1999/02/22-rdf-syntax-ns#"
   xmlns:svg="http://www.w3.org/2000/svg"
   xmlns="http://www.w3.org/2000/svg"
   xmlns:sodipodi="http://sodipodi.sourceforge.net/DTD/sodipodi-0.dtd"
   xmlns:inkscape="http://www.inkscape.org/namespaces/inkscape"
   version="1.1"
   id="Capa_1"
   x="0px"
   y="0px"
   viewBox="0 0 58.568 58.565"
   style="enable-background:new 0 0 58.568 58.565;"
   xml:space="preserve"
   inkscape:version="0.48.4 r9939"
   width="100%"
   height="100%"
   sodipodi:docname="airplane105.svg"><metadata
   id="metadata39"><rdf:RDF><cc:Work
       rdf:about=""><dc:format>image/svg+xml</dc:format><dc:type
         rdf:resource="http://purl.org/dc/dcmitype/StillImage" /><dc:title></dc:title></cc:Work></rdf:RDF></metadata><defs
   id="defs37" /><sodipodi:namedview
   pagecolor="#ffffff"
   bordercolor="#666666"
   borderopacity="1"
   objecttolerance="10"
   gridtolerance="10"
   guidetolerance="10"
   inkscape:pageopacity="0"
   inkscape:pageshadow="2"
   inkscape:window-width="1920"
   inkscape:window-height="1137"
   id="namedview35"
   showgrid="false"
   inkscape:zoom="4.0297106"
   inkscape:cx="29.284"
   inkscape:cy="29.2825"
   inkscape:window-x="-5"
   inkscape:window-y="-5"
   inkscape:window-maximized="1"
   inkscape:current-layer="Capa_1" />
<path
   d="M54.718,11.824c2.404-3.218,3.843-6.559,3.85-8.946c-0.003-0.773-0.158-1.377-0.453-1.827  c-0.031-0.055-0.116-0.199-0.266-0.341c-0.149-0.148-0.283-0.227-0.312-0.243C57.065,0.152,56.458,0,55.685,0  c-2.381,0.004-5.723,1.442-8.942,3.85c-2.602,1.947-5.204,4.689-8.806,8.486c-0.611,0.644-1.254,1.321-1.934,2.031l-6.977-2.091  l0.021-0.02c0.29-0.293,0.455-0.696,0.451-1.092c0.004-0.418-0.165-0.821-0.456-1.111l-1.26-1.262  c-0.291-0.293-0.693-0.461-1.109-0.461c-0.42,0-0.812,0.162-1.105,0.458l-1.885,1.886l-0.998-0.298  c0.215-0.273,0.334-0.614,0.33-0.95c0.004-0.424-0.16-0.819-0.455-1.112l-1.266-1.266c-0.289-0.29-0.689-0.456-1.109-0.456  c-0.418,0-0.809,0.163-1.099,0.458l-1.73,1.729l-7.094-2.125c-0.159-0.047-0.327-0.072-0.507-0.072  C9.251,6.588,8.784,6.775,8.443,7.113L5.949,9.608c-0.283,0.283-0.442,0.666-0.439,1.029c-0.009,0.535,0.287,1.029,0.761,1.283  l14.918,8.334c0.073,0.041,0.284,0.197,0.362,0.275l4.253,4.252c-3.978,4.191-7.522,8.25-10.284,11.781  c-0.258,0.328-0.502,0.648-0.742,0.965L3.237,36.479c-0.056-0.007-0.119-0.012-0.199-0.012c-0.529,0.011-1.046,0.22-1.43,0.591  L0.445,38.22C0.158,38.501-0.004,38.881,0,39.248c-0.009,0.56,0.33,1.078,0.839,1.305l8.119,3.856  c0.07,0.035,0.252,0.164,0.311,0.223l0.674,0.669c-0.211,0.594-0.318,1.109-0.324,1.561c-0.002,0.605,0.193,1.123,0.566,1.496  l0.029,0.025l0.008,0.006c0.383,0.371,0.879,0.56,1.493,0.56c0.442-0.007,0.952-0.112,1.548-0.322l0.684,0.683  c0.053,0.056,0.18,0.234,0.213,0.305l3.848,8.101c0.235,0.517,0.742,0.852,1.294,0.852h0.008c0.382,0,0.747-0.153,1.026-0.433  l1.191-1.195c0.353-0.372,0.561-0.885,0.569-1.426c0-0.066-0.003-0.117-0.005-0.145L21.04,43.786  c0.316-0.238,0.636-0.483,0.965-0.739c3.536-2.766,7.596-6.313,11.779-10.285l4.256,4.26c0.069,0.066,0.23,0.277,0.277,0.365  l8.318,14.891c0.254,0.481,0.743,0.778,1.285,0.778c0.387,0,0.755-0.153,1.037-0.437l2.512-2.51c0.326-0.341,0.509-0.804,0.514-1.31  c0-0.17-0.024-0.335-0.068-0.49l-2.125-7.096l1.729-1.732c0.291-0.289,0.456-0.691,0.456-1.104c0-0.415-0.161-0.805-0.454-1.102  l-1.268-1.267c-0.29-0.291-0.691-0.457-1.104-0.457c-0.35,0-0.692,0.117-0.959,0.328l-0.297-0.994l1.887-1.887  c0.29-0.291,0.455-0.693,0.455-1.107c0-0.417-0.161-0.808-0.455-1.101l-1.262-1.262c-0.291-0.295-0.695-0.462-1.11-0.462  c-0.417,0-0.821,0.169-1.106,0.46l-0.013,0.012l-2.09-6.976c0.722-0.688,1.407-1.343,2.062-1.96  C50.044,17.012,52.776,14.42,54.718,11.824z"
   id="path3" />
<g
   id="g5">
</g>
<g
   id="g7">
</g>
<g
   id="g9">
</g>
<g
   id="g11">
</g>
<g
   id="g13">
</g>
<g
   id="g15">
</g>
<g
   id="g17">
</g>
<g
   id="g19">
</g>
<g
   id="g21">
</g>
<g
   id="g23">
</g>
<g
   id="g25">
</g>
<g
   id="g27">
</g>
<g
   id="g29">
</g>
<g
   id="g31">
</g>
<g
   id="g33">
</g>
</svg>