<?xml version="1.0" encoding="UTF-8" standalone="no"?>
<!-- Created with Inkscape (http://www.inkscape.org/) -->

<svg
   xmlns:dc="http://purl.org/dc/elements/1.1/"
   xmlns:cc="http://creativecommons.org/ns#"
   xmlns:rdf="http://www.w3.org/1999/02/22-rdf-syntax-ns#"
   xmlns:svg="http://www.w3.org/2000/svg"
   xmlns="http://www.w3.org/2000/svg"
   xmlns:sodipodi="http://sodipodi.sourceforge.net/DTD/sodipodi-0.dtd"
   xmlns:inkscape="http://www.inkscape.org/namespaces/inkscape"
   width="744.09448819"
   height="1052.3622047"
   id="svg5647"
   version="1.1"
   inkscape:version="0.48.4 r9939"
   sodipodi:docname="New document 12">
  <defs
     id="defs5649" />
  <sodipodi:namedview
     id="base"
     pagecolor="#ffffff"
     bordercolor="#666666"
     borderopacity="1.0"
     inkscape:pageopacity="0.0"
     inkscape:pageshadow="2"
     inkscape:zoom="4"
     inkscape:cx="-55.507589"
     inkscape:cy="1017.6456"
     inkscape:document-units="px"
     inkscape:current-layer="layer1"
     showgrid="false"
     inkscape:window-width="1920"
     inkscape:window-height="1137"
     inkscape:window-x="1676"
     inkscape:window-y="-4"
     inkscape:window-maximized="1" />
  <metadata
     id="metadata5652">
    <rdf:RDF>
      <cc:Work
         rdf:about="">
        <dc:format>image/svg+xml</dc:format>
        <dc:type
           rdf:resource="http://purl.org/dc/dcmitype/StillImage" />
        <dc:title></dc:title>
      </cc:Work>
    </rdf:RDF>
  </metadata>
  <g
     inkscape:label="Layer 1"
     inkscape:groupmode="layer"
     id="layer1">
    <g
       transform="translate(-1113.9836,-759.99978)"
       id="Rounded_Rectangle_5_copy_3"
       style="fill:#000000;fill-opacity:1">
      <g
         id="g635"
         style="fill:#000000;fill-opacity:1">
        <path
           style="fill:#000000;fill-opacity:1"
           inkscape:connector-curvature="0"
           d="m 1156,771 h -17 c -1.104,0 -2,0.896 -2,2 v 5 c 0,1.104 0.896,2 2,2 h 17 c 1.104,0 2,-0.896 2,-2 v -5 c 0,-1.104 -0.896,-2 -2,-2 z m 4,-11 v 5.999 l 3,3.999 -3,4.008 V 780 l 8,-10 -8,-10 z m 8,0 v 5.999 l 3,3.999 -3,4.008 V 780 l 8,-10 -8,-10 z m -12,0 h -17 c -1.104,0 -2,0.896 -2,2 v 5 c 0,1.104 0.896,2 2,2 h 17 c 1.104,0 2,-0.896 2,-2 v -5 c 0,-1.104 -0.896,-2 -2,-2 z m -23,11 h -17 c -1.104,0 -2,0.896 -2,2 v 5 c 0,1.104 0.896,2 2,2 h 17 c 1.104,0 2,-0.896 2,-2 v -5 c 0,-1.104 -0.896,-2 -2,-2 z m 0,-11 h -17 c -1.104,0 -2,0.896 -2,2 v 5 c 0,1.104 0.896,2 2,2 h 17 c 1.104,0 2,-0.896 2,-2 v -5 c 0,-1.104 -0.896,-2 -2,-2 z"
           id="path637" />
      </g>
    </g>
  </g>
</svg>
