<?xml version="1.0" encoding="UTF-8" standalone="no"?>
<!-- Created with Inkscape (http://www.inkscape.org/) -->

<svg
   xmlns:dc="http://purl.org/dc/elements/1.1/"
   xmlns:cc="http://creativecommons.org/ns#"
   xmlns:rdf="http://www.w3.org/1999/02/22-rdf-syntax-ns#"
   xmlns:svg="http://www.w3.org/2000/svg"
   xmlns="http://www.w3.org/2000/svg"
   xmlns:sodipodi="http://sodipodi.sourceforge.net/DTD/sodipodi-0.dtd"
   xmlns:inkscape="http://www.inkscape.org/namespaces/inkscape"
   width="23.995001"
   height="20.992001"
   id="svg6681"
   version="1.1"
   inkscape:version="0.48.4 r9939"
   sodipodi:docname="mainmenu.svg">
  <defs
     id="defs6683" />
  <sodipodi:namedview
     id="base"
     pagecolor="#ffffff"
     bordercolor="#666666"
     borderopacity="1.0"
     inkscape:pageopacity="0.0"
     inkscape:pageshadow="2"
     inkscape:zoom="22"
     inkscape:cx="15.48003"
     inkscape:cy="11.238456"
     inkscape:current-layer="layer1"
     showgrid="true"
     inkscape:document-units="px"
     inkscape:grid-bbox="true"
     inkscape:window-width="1920"
     inkscape:window-height="1137"
     inkscape:window-x="1676"
     inkscape:window-y="-4"
     inkscape:window-maximized="1"
     fit-margin-top="0"
     fit-margin-left="0"
     fit-margin-right="0"
     fit-margin-bottom="0" />
  <metadata
     id="metadata6686">
    <rdf:RDF>
      <cc:Work
         rdf:about="">
        <dc:format>image/svg+xml</dc:format>
        <dc:type
           rdf:resource="http://purl.org/dc/dcmitype/StillImage" />
        <dc:title />
      </cc:Work>
    </rdf:RDF>
  </metadata>
  <g
     id="layer1"
     inkscape:label="Layer 1"
     inkscape:groupmode="layer"
     transform="translate(-0.006578,-0.01686)">
    <g
       transform="translate(-14.995422,-666.99414)"
       id="Menu__x28_24x24_x29_"
       style="fill:#000000;fill-opacity:1">
      <g
         id="g5996"
         style="fill:#000000;fill-opacity:1">
        <path
           style="fill:#000000;fill-opacity:1"
           inkscape:connector-curvature="0"
           d="M 38.247,683.011 H 15.752 c -0.413,0 -0.75,0.36 -0.75,0.801 v 3.421 c 0,0.424 0.337,0.77 0.75,0.77 h 22.495 c 0.413,0 0.75,-0.346 0.75,-0.77 v -3.421 c 0,-0.441 -0.337,-0.801 -0.75,-0.801 z m 0,-8 H 15.752 c -0.413,0 -0.75,0.36 -0.75,0.801 v 3.42 c 0,0.425 0.337,0.77 0.75,0.77 h 22.495 c 0.413,0 0.75,-0.345 0.75,-0.77 v -3.42 c 0,-0.441 -0.337,-0.801 -0.75,-0.801 z m 0,-8 H 15.752 c -0.413,0 -0.75,0.36 -0.75,0.801 v 3.421 c 0,0.423 0.337,0.769 0.75,0.769 h 22.495 c 0.413,0 0.75,-0.346 0.75,-0.769 v -3.421 c 0,-0.441 -0.337,-0.801 -0.75,-0.801 z"
           id="path5998" />
      </g>
    </g>
  </g>
</svg>
