<?xml version="1.0" encoding="UTF-8" standalone="no"?>
<!-- Created with Inkscape (http://www.inkscape.org/) -->

<svg
   xmlns:dc="http://purl.org/dc/elements/1.1/"
   xmlns:cc="http://creativecommons.org/ns#"
   xmlns:rdf="http://www.w3.org/1999/02/22-rdf-syntax-ns#"
   xmlns:svg="http://www.w3.org/2000/svg"
   xmlns="http://www.w3.org/2000/svg"
   xmlns:sodipodi="http://sodipodi.sourceforge.net/DTD/sodipodi-0.dtd"
   xmlns:inkscape="http://www.inkscape.org/namespaces/inkscape"
   width="22"
   height="22.000999"
   id="svg8314"
   version="1.1"
   inkscape:version="0.48.4 r9939"
   sodipodi:docname="stats.svg">
  <defs
     id="defs8316" />
  <sodipodi:namedview
     id="base"
     pagecolor="#ffffff"
     bordercolor="#666666"
     borderopacity="1.0"
     inkscape:pageopacity="0.0"
     inkscape:pageshadow="2"
     inkscape:zoom="90.509668"
     inkscape:cx="3.2495481"
     inkscape:cy="18.635392"
     inkscape:current-layer="layer1"
     showgrid="true"
     inkscape:document-units="px"
     inkscape:grid-bbox="true"
     inkscape:window-width="1920"
     inkscape:window-height="1137"
     inkscape:window-x="1676"
     inkscape:window-y="-4"
     inkscape:window-maximized="1"
     fit-margin-top="0"
     fit-margin-left="0"
     fit-margin-right="0"
     fit-margin-bottom="0"
     inkscape:showpageshadow="false" />
  <metadata
     id="metadata8319">
    <rdf:RDF>
      <cc:Work
         rdf:about="">
        <dc:format>image/svg+xml</dc:format>
        <dc:type
           rdf:resource="http://purl.org/dc/dcmitype/StillImage" />
        <dc:title />
      </cc:Work>
    </rdf:RDF>
  </metadata>
  <g
     id="layer1"
     inkscape:label="Layer 1"
     inkscape:groupmode="layer"
     transform="translate(0,0.001)">
    <g
       transform="translate(-16,-702.001)"
       id="New__x28_24x24_x29_"
       style="fill:#000000;fill-opacity:1">
      <g
         id="g5986"
         style="fill:#000000;fill-opacity:1">
        <path
           style="fill:#000000;fill-opacity:1"
           inkscape:connector-curvature="0"
           d="M 36.635,707.366 38,706.001 c 0,0 0,-2 -1,-3.001 -1,-1 -3,-0.999 -3,-0.999 l -1.381,1.382 c 0.786,0.466 1.556,1.046 2.268,1.754 0.705,0.701 1.281,1.457 1.748,2.229 z m -11.748,7.772 c 0.705,0.7 1.281,1.456 1.748,2.229 l 8.846,-8.846 c -0.383,-0.814 -0.924,-1.621 -1.652,-2.349 -0.728,-0.728 -1.535,-1.269 -2.348,-1.651 l -8.862,8.861 c 0.786,0.468 1.555,1.047 2.268,1.756 z m -3.407,-0.617 -0.48,0.48 v 4 h 4 l 0.48,-0.48 c -0.383,-0.813 -0.924,-1.62 -1.651,-2.349 -0.728,-0.727 -1.535,-1.268 -2.349,-1.651 z M 35,721 H 19 v -16 h 7.009 l 3,-3 H 18 c -1.104,0 -2,0.896 -2,2.001 V 722 c 0,1.106 0.896,2.001 2,2.001 h 18 c 1.104,0 2,-0.895 2,-2.001 V 710.962 L 35,714 v 7 z"
           id="path5988" />
      </g>
    </g>
  </g>
</svg>
