<?xml version="1.0" encoding="UTF-8" standalone="no"?>
<!-- Created with Inkscape (http://www.inkscape.org/) -->

<svg
   xmlns:dc="http://purl.org/dc/elements/1.1/"
   xmlns:cc="http://creativecommons.org/ns#"
   xmlns:rdf="http://www.w3.org/1999/02/22-rdf-syntax-ns#"
   xmlns:svg="http://www.w3.org/2000/svg"
   xmlns="http://www.w3.org/2000/svg"
   xmlns:sodipodi="http://sodipodi.sourceforge.net/DTD/sodipodi-0.dtd"
   xmlns:inkscape="http://www.inkscape.org/namespaces/inkscape"
   width="67.333"
   height="18.718124"
   id="svg4563"
   version="1.1"
   inkscape:version="0.48.4 r9939"
   sodipodi:docname="textPageNext.svg">
  <defs
     id="defs4565" />
  <sodipodi:namedview
     id="base"
     pagecolor="#ffffff"
     bordercolor="#666666"
     borderopacity="1.0"
     inkscape:pageopacity="0.0"
     inkscape:pageshadow="2"
     inkscape:zoom="15.839192"
     inkscape:cx="36.345161"
     inkscape:cy="1.8438274"
     inkscape:document-units="px"
     inkscape:current-layer="layer1"
     showgrid="false"
     inkscape:window-width="1920"
     inkscape:window-height="1137"
     inkscape:window-x="1676"
     inkscape:window-y="-4"
     inkscape:window-maximized="1"
     fit-margin-top="0"
     fit-margin-left="0"
     fit-margin-right="0"
     fit-margin-bottom="0" />
  <metadata
     id="metadata4568">
    <rdf:RDF>
      <cc:Work
         rdf:about="">
        <dc:format>image/svg+xml</dc:format>
        <dc:type
           rdf:resource="http://purl.org/dc/dcmitype/StillImage" />
        <dc:title />
      </cc:Work>
    </rdf:RDF>
  </metadata>
  <g
     inkscape:label="Layer 1"
     inkscape:groupmode="layer"
     id="layer1"
     transform="translate(0.00223,-0.005485)">
    <g
       transform="translate(-121.00223,-760.33839)"
       id="g650"
       style="fill:#000000;fill-opacity:1">
      <path
         style="fill:#000000;fill-opacity:1"
         inkscape:connector-curvature="0"
         d="m 130,763 h -9 v 2 h 9 v -2 z m 6,4 h -15 v 2 h 15 v -2 z m -3,4 h -12 v 2 h 12 v -2 z m -12,6 h 4 v -2 h -4 v 2 z m 5,0 h 11 v -2 h -11 v 2 z m 12,0 h 20 v -2 h -20 v 2 z m 21,0 h 7 v -2 h -7 v 2 z m 8,-2 v 2 h 8.992 l -1.848,-2 H 167 z m -33,-2 h 6 v -2 h -6 v 2 z m 20,0 v -2 h -13 v 2 h 13 z m 11,-2 h -10 v 2 h 10 v -2 z m 5.018,0 H 166 v 2 h 6.069 l -2.051,-2 z M 157,767 h -20 v 2 h 20 v -2 z m 15,1 h -4 l 0.034,-1 H 158 v 2 h 12.869 L 172,768 z m -32,-5 h -9 v 2 h 9 v -2 z m 14,0 h -13 v 2 h 13 v -2 z m 14.705,0 H 155 v 2 h 12.976 l 0.729,-2 z m 16.962,4.906 -3.667,3.774 c 0,0 0,-1.627 0,-3.476 0,-10.882 -13,-9.677 -13,-1.204 0.106,-0.021 4.01,0.108 4,0 0,-2.885 5,-3.824 5,1.233 0,1.876 0,3.446 0,3.446 l -3.667,-3.609 -2.666,2.625 8.333,8.367 8.333,-8.367 -2.666,-2.789 z"
         id="path652" />
    </g>
  </g>
</svg>
