<?xml version="1.0" encoding="UTF-8" standalone="no"?>
<!-- Created with Inkscape (http://www.inkscape.org/) -->

<svg
   xmlns:dc="http://purl.org/dc/elements/1.1/"
   xmlns:cc="http://creativecommons.org/ns#"
   xmlns:rdf="http://www.w3.org/1999/02/22-rdf-syntax-ns#"
   xmlns:svg="http://www.w3.org/2000/svg"
   xmlns="http://www.w3.org/2000/svg"
   xmlns:sodipodi="http://sodipodi.sourceforge.net/DTD/sodipodi-0.dtd"
   xmlns:inkscape="http://www.inkscape.org/namespaces/inkscape"
   width="72.989998"
   height="19.0005"
   id="svg3766"
   version="1.1"
   inkscape:version="0.48.4 r9939"
   sodipodi:docname="textPagePrev.svg">
  <defs
     id="defs3768" />
  <sodipodi:namedview
     id="base"
     pagecolor="#ffffff"
     bordercolor="#666666"
     borderopacity="1.0"
     inkscape:pageopacity="0.0"
     inkscape:pageshadow="2"
     inkscape:zoom="15.839192"
     inkscape:cx="29.337342"
     inkscape:cy="0.39834738"
     inkscape:document-units="px"
     inkscape:current-layer="layer1"
     showgrid="false"
     inkscape:window-width="1920"
     inkscape:window-height="1137"
     inkscape:window-x="1676"
     inkscape:window-y="-4"
     inkscape:window-maximized="1"
     fit-margin-top="0"
     fit-margin-left="0"
     fit-margin-right="0"
     fit-margin-bottom="0" />
  <metadata
     id="metadata3771">
    <rdf:RDF>
      <cc:Work
         rdf:about="">
        <dc:format>image/svg+xml</dc:format>
        <dc:type
           rdf:resource="http://purl.org/dc/dcmitype/StillImage" />
        <dc:title />
      </cc:Work>
    </rdf:RDF>
  </metadata>
  <g
     inkscape:label="Layer 1"
     inkscape:groupmode="layer"
     id="layer1"
     transform="translate(-0.002468,-0.00443)">
    <g
       transform="translate(-19.007532,-759.99507)"
       id="g655"
       style="fill:#000000;fill-opacity:1">
      <path
         style="fill:#000000;fill-opacity:1"
         inkscape:connector-curvature="0"
         d="M 42,767 H 39.035 L 39,768 h -4 l 1.154,1 H 42 v -2 z m -3,6 v -2 h -2.789 l -1.206,2 H 39 z m -8,4 v -1 l -0.428,1 H 31 z m 1,0 h 11 v -2 H 32 v 2 z m 12,0 h 20 v -2 H 44 v 2 z m 21,0 h 7 v -2 h -7 v 2 z m 8,0 h 12 v -2 H 73 v 2 z m -27,-6 h -6 v 2 h 6 v -2 z m 14,2 v -2 H 47 v 2 h 13 z m 11,-2 H 61 v 2 h 10 v -2 z m 10,0 h -9 v 2 h 9 v -2 z m 1,0 v 2 h 10 v -2 H 82 z M 63,767 H 43 v 2 h 20 v -2 z m 22,0 H 64 v 2 h 21 v -2 z m -39,-2 v -2 h -7.324 l 0.37,2 H 46 z m 14,-2 H 47 v 2 h 13 v -2 z m 27,0 H 61 v 2 h 26 v -2 z m -54.239,4.843 -3.601,3.663 c 0,0 0,-1.594 0,-3.498 0,-5.133 4.911,-4.181 4.911,-1.252 -0.01,0.11 3.824,-0.022 3.929,0 0,-8.601 -12.769,-9.824 -12.769,1.223 0,1.876 0,3.527 0,3.527 l -3.602,-3.83 -2.619,2.831 8.185,8.493 8.186,-8.493 -2.62,-2.664 z"
         id="path657" />
    </g>
  </g>
</svg>
