<?xml version="1.0" encoding="iso-8859-1"?>
<!-- Generator: Adobe Illustrator 17.1.0, SVG Export Plug-In . SVG Version: 6.00 Build 0)  -->
<!DOCTYPE svg PUBLIC "-//W3C//DTD SVG 1.1//EN" "http://www.w3.org/Graphics/SVG/1.1/DTD/svg11.dtd">
<svg version="1.1" id="Capa_1" xmlns="http://www.w3.org/2000/svg" xmlns:xlink="http://www.w3.org/1999/xlink" x="0px" y="0px"
	 viewBox="0 0 205.25 205.25" style="enable-background:new 0 0 205.25 205.25;" xml:space="preserve">
<path d="M140.841,200.131c0.26,0.893,0.21,1.866-0.183,2.749c-0.644,1.442-2.075,2.37-3.653,2.37H50.912
	c-1.174,0-2.289-0.516-3.048-1.41c-0.34-0.4-8.32-10.042-8.32-31.65c0-8.972,6.328-19.153,12.447-28.999
	c4.757-7.654,9.676-15.568,9.817-20.519c0.136-4.751-3.612-11.48-7.952-19.273c-5.414-9.721-12.151-21.818-13.816-35.339
	c-2.972-24.15,8.364-63.513,8.848-65.176C49.385,1.175,50.95,0,52.729,0h37.416c1.667,0,3.16,1.034,3.745,2.595
	c0.075,0.199,7.532,19.973,14.403,29.593c3.211,4.496,12.474,9.417,25.414,13.5c5.752,1.814,9.021,7.809,7.443,13.646
	c-0.592,2.186-1.36,4.387-2.285,6.543c-1.888,4.404-5.275,8.499-8.146,11.457c3.875,1.686,9.032,4.381,14.2,8.428
	c9.482,7.425,20.786,20.947,20.786,43.199c0,27.873-16.767,45.585-28.513,54.578c-5.285-5.874-11.615-12.391-17.541-17.157
	c-13.153-10.577-16.98-13.432-17.137-13.548c-1.772-1.318-4.277-0.95-5.596,0.822c-1.318,1.772-0.951,4.277,0.82,5.597
	c0.038,0.028,3.925,2.932,16.898,13.364C124.555,180.591,136.139,194.352,140.841,200.131z"/>
<g>
</g>
<g>
</g>
<g>
</g>
<g>
</g>
<g>
</g>
<g>
</g>
<g>
</g>
<g>
</g>
<g>
</g>
<g>
</g>
<g>
</g>
<g>
</g>
<g>
</g>
<g>
</g>
<g>
</g>
</svg>
