<?xml version="1.0" encoding="UTF-8" standalone="no"?>
<!-- Generator: Adobe Illustrator 17.0.2, SVG Export Plug-In . SVG Version: 6.00 Build 0)  -->

<svg
   xmlns:dc="http://purl.org/dc/elements/1.1/"
   xmlns:cc="http://creativecommons.org/ns#"
   xmlns:rdf="http://www.w3.org/1999/02/22-rdf-syntax-ns#"
   xmlns:svg="http://www.w3.org/2000/svg"
   xmlns="http://www.w3.org/2000/svg"
   xmlns:sodipodi="http://sodipodi.sourceforge.net/DTD/sodipodi-0.dtd"
   xmlns:inkscape="http://www.inkscape.org/namespaces/inkscape"
   version="1.1"
   id="Layer_1"
   x="0px"
   y="0px"
   width="54.919998"
   height="54.921001"
   viewBox="0 0 54.919998 54.921001"
   enable-background="new 0 0 64 64"
   xml:space="preserve"
   inkscape:version="0.48.4 r9939"
   sodipodi:docname="blind-alt.svg"><metadata
   id="metadata3031"><rdf:RDF><cc:Work
       rdf:about=""><dc:format>image/svg+xml</dc:format><dc:type
         rdf:resource="http://purl.org/dc/dcmitype/StillImage" /></cc:Work></rdf:RDF></metadata><defs
   id="defs3029" /><sodipodi:namedview
   pagecolor="#ffffff"
   bordercolor="#666666"
   borderopacity="1"
   objecttolerance="10"
   gridtolerance="10"
   guidetolerance="10"
   inkscape:pageopacity="0"
   inkscape:pageshadow="2"
   inkscape:window-width="1920"
   inkscape:window-height="1137"
   id="namedview3027"
   showgrid="false"
   inkscape:zoom="7.375"
   inkscape:cx="63.138689"
   inkscape:cy="24.223936"
   inkscape:window-x="1676"
   inkscape:window-y="-4"
   inkscape:window-maximized="1"
   inkscape:current-layer="Layer_1"
   fit-margin-top="0"
   fit-margin-left="0"
   fit-margin-right="0"
   fit-margin-bottom="0" />
<path
   d="m 27.46,15.137 c -14.438,0 -22.007,10.638 -22.007,12.324 0,1.687 7.569,12.324 22.007,12.324 14.437,0 22.007,-10.637 22.007,-12.324 0,-1.686 -7.57,-12.324 -22.007,-12.324 z m 0,21.804 c -5.402,0 -9.781,-4.244 -9.781,-9.48 0,-5.236 4.38,-9.48 9.781,-9.48 5.401,0 9.781,4.244 9.781,9.48 0,5.236 -4.379,9.48 -9.781,9.48 z m 4.89,-9.48 c 0,2.618 -2.19,4.741 -4.89,4.741 -2.701,0 -4.89,-2.123 -4.89,-4.741 0,-2.618 2.189,-4.74 4.89,-4.74 1.459,0 -0.896,3.757 0,4.74 0.761,0.835 4.89,-1.202 4.89,0 z"
   id="path3023"
   inkscape:connector-curvature="0"
   style="fill:#010101" />
<path
   stroke-miterlimit="10"
   d="M 27.46,1 C 12.87,1 1,12.871 1,27.461 c 0,14.59 11.87,26.46 26.46,26.46 14.59,0 26.46,-11.87 26.46,-26.46 C 53.92,12.871 42.05,1 27.46,1 z M 7,27.461 C 7,16.179 16.179,7 27.46,7 c 4.56,0 8.762,1.518 12.168,4.051 L 11.05,39.629 C 8.518,36.223 7,32.021 7,27.461 z m 20.46,20.46 c -4.56,0 -8.763,-1.518 -12.168,-4.05 L 43.87,15.293 c 2.532,3.406 4.05,7.608 4.05,12.168 0,11.282 -9.179,20.46 -20.46,20.46 z"
   id="path3025"
   inkscape:connector-curvature="0"
   style="fill:#010101;stroke:#010101;stroke-width:2;stroke-miterlimit:10" />
<path
   style="fill:#010101"
   inkscape:connector-curvature="0"
   id="path3033"
   d="m 27.46,15.137 c -14.438,0 -22.007,10.638 -22.007,12.324 0,1.687 7.569,12.324 22.007,12.324 14.437,0 22.007,-10.637 22.007,-12.324 0,-1.686 -7.57,-12.324 -22.007,-12.324 z m 0,21.804 c -5.402,0 -9.781,-4.244 -9.781,-9.48 0,-5.236 4.38,-9.48 9.781,-9.48 5.401,0 9.781,4.244 9.781,9.48 0,5.236 -4.379,9.48 -9.781,9.48 z m 4.89,-9.48 c 0,2.618 -2.19,4.741 -4.89,4.741 -2.701,0 -4.89,-2.123 -4.89,-4.741 0,-2.618 2.189,-4.74 4.89,-4.74 1.459,0 -0.896,3.757 0,4.74 0.761,0.835 4.89,-1.202 4.89,0 z" /><path
   style="fill:#010101;stroke:#010101;stroke-width:2;stroke-miterlimit:10"
   inkscape:connector-curvature="0"
   id="path3035"
   d="M 27.46,1 C 12.87,1 1,12.871 1,27.461 c 0,14.59 11.87,26.46 26.46,26.46 14.59,0 26.46,-11.87 26.46,-26.46 C 53.92,12.871 42.05,1 27.46,1 z M 7,27.461 C 7,16.179 16.179,7 27.46,7 c 4.56,0 8.762,1.518 12.168,4.051 L 11.05,39.629 C 8.518,36.223 7,32.021 7,27.461 z m 20.46,20.46 c -4.56,0 -8.763,-1.518 -12.168,-4.05 L 43.87,15.293 c 2.532,3.406 4.05,7.608 4.05,12.168 0,11.282 -9.179,20.46 -20.46,20.46 z"
   stroke-miterlimit="10" /></svg>