<?xml version="1.0" encoding="UTF-8" standalone="no"?>
<!-- Generator: Adobe Illustrator 17.0.2, SVG Export Plug-In . SVG Version: 6.00 Build 0)  -->

<svg
   xmlns:dc="http://purl.org/dc/elements/1.1/"
   xmlns:cc="http://creativecommons.org/ns#"
   xmlns:rdf="http://www.w3.org/1999/02/22-rdf-syntax-ns#"
   xmlns:svg="http://www.w3.org/2000/svg"
   xmlns="http://www.w3.org/2000/svg"
   xmlns:sodipodi="http://sodipodi.sourceforge.net/DTD/sodipodi-0.dtd"
   xmlns:inkscape="http://www.inkscape.org/namespaces/inkscape"
   version="1.1"
   id="Layer_1"
   x="0px"
   y="0px"
   width="52.820999"
   height="18.959"
   viewBox="0 0 52.820999 18.959"
   enable-background="new 0 0 64 64"
   xml:space="preserve"
   inkscape:version="0.48.4 r9939"
   sodipodi:docname="blind.svg"><metadata
   id="metadata3009"><rdf:RDF><cc:Work
       rdf:about=""><dc:format>image/svg+xml</dc:format><dc:type
         rdf:resource="http://purl.org/dc/dcmitype/StillImage" /></cc:Work></rdf:RDF></metadata><defs
   id="defs3007" /><sodipodi:namedview
   pagecolor="#ffffff"
   bordercolor="#666666"
   borderopacity="1"
   objecttolerance="10"
   gridtolerance="10"
   guidetolerance="10"
   inkscape:pageopacity="0"
   inkscape:pageshadow="2"
   inkscape:window-width="446"
   inkscape:window-height="423"
   id="namedview3005"
   showgrid="false"
   inkscape:zoom="6.5625"
   inkscape:cx="18.24264"
   inkscape:cy="14.230392"
   inkscape:window-x="2442"
   inkscape:window-y="251"
   inkscape:window-maximized="0"
   inkscape:current-layer="Layer_1"
   fit-margin-top="0"
   fit-margin-left="0"
   fit-margin-right="0"
   fit-margin-bottom="0" />
<g
   id="g2999"
   transform="translate(-5.59,-22.52)">
	<g
   id="g3001">
		<path
   d="m 5.902,24.044 -0.312,0.113 0.015,7.539 c -0.015,0.146 -0.282,3.653 2.296,6.459 2.025,2.205 5.181,3.324 9.379,3.324 4.38,0 7.596,-1.116 9.553,-3.316 2.27,-2.552 1.942,-5.592 1.934,-5.633 l -0.093,-3.126 c 1.291,-0.511 3.112,-1.951 6.51,-0.048 l -0.09,3.087 c -0.016,0.128 -0.343,3.168 1.93,5.72 1.958,2.2 5.174,3.316 9.554,3.316 4.197,0 7.353,-1.119 9.379,-3.324 2.576,-2.806 2.309,-6.313 2.3,-6.384 L 58.27,24.376 58.411,24.28 55.686,23.396 C 53.92,22.994 51.05,22.52 47.291,22.52 c -3.732,0 -7.569,0.471 -11.403,1.399 l -0.66,0.159 -0.012,0.835 c -3.441,-1.475 -4.739,-0.52 -6.573,0.124 L 28.625,24.078 27.964,23.919 C 24.133,22.991 20.296,22.52 16.565,22.52 c -3.521,0 -6.263,0.416 -8.048,0.798"
   id="path3003"
   inkscape:connector-curvature="0"
   style="fill:#010101" />
	</g>
</g>
</svg>