<?xml version="1.0" encoding="utf-8"?>
<!-- Generated by IcoMoon.io -->
<!DOCTYPE svg PUBLIC "-//W3C//DTD SVG 1.1//EN" "http://www.w3.org/Graphics/SVG/1.1/DTD/svg11.dtd">
<svg version="1.1" xmlns="http://www.w3.org/2000/svg" xmlns:xlink="http://www.w3.org/1999/xlink" width="27" height="27" viewBox="0 0 27 27">
	<path d="M0 13.5c0 7.456 6.044 13.5 13.5 13.5 7.456 0 13.5-6.044 13.5-13.5s-6.044-13.5-13.5-13.5c-7.456 0-13.5 6.044-13.5 13.5zM23.625 13.5c0 1.931-0.541 3.736-1.479 5.271l-13.917-13.917c1.535-0.938 3.34-1.479 5.271-1.479 5.592 0 10.125 4.533 10.125 10.125zM3.375 13.5c0-1.931 0.541-3.736 1.479-5.271l13.917 13.917c-1.535 0.938-3.34 1.479-5.271 1.479-5.592 0-10.125-4.533-10.125-10.125z" fill="#ffffff" />
</svg>
