<?xml version="1.0" encoding="iso-8859-1"?>
<!-- Generator: Adobe Illustrator 17.1.0, SVG Export Plug-In . SVG Version: 6.00 Build 0)  -->
<!DOCTYPE svg PUBLIC "-//W3C//DTD SVG 1.1//EN" "http://www.w3.org/Graphics/SVG/1.1/DTD/svg11.dtd">
<svg version="1.1" id="Capa_1" xmlns="http://www.w3.org/2000/svg" xmlns:xlink="http://www.w3.org/1999/xlink" x="0px" y="0px"
	 viewBox="0 0 197.681 197.681" style="enable-background:new 0 0 197.681 197.681;" xml:space="preserve">
<path d="M139.76,133.099c0-8.375,1.941-23.265,4.076-37.12c-5.198,4.505-11.969,7.24-19.371,7.24
	c-10.934,0-20.497-5.959-25.63-14.796c-5.135,8.844-14.693,14.796-25.62,14.796c-7.402,0-14.173-2.735-19.371-7.239
	c2.136,13.854,4.076,28.744,4.076,37.12c0,17.774-11.772,37.911-11.89,38.11c-0.844,1.424-0.723,3.221,0.304,4.519
	c0.402,0.509,10.007,12.521,22.822,17.028c8.677,3.051,20.201,4.312,26.299,4.792c1.125,0.088,2.264,0.133,3.385,0.133
	c1.122,0,2.261-0.045,3.385-0.133c6.097-0.479,17.621-1.74,26.3-4.792c12.814-4.506,22.419-16.519,22.821-17.028
	c1.025-1.297,1.146-3.093,0.306-4.517C151.532,171.01,139.76,150.874,139.76,133.099z M102.84,158.007c0,2.209-1.791,4-4,4
	s-4-1.791-4-4v-0.833c0-2.209,1.791-4,4-4s4,1.791,4,4V158.007z M175.534,68.814c-0.675-2.822-6.863-27.796-15.953-35.588
	c-5.329-4.567-16.851-6.776-27.992-8.913c-5.315-1.019-12.495-2.396-14.505-3.503c-0.96-2.619-1.222-10.417-0.848-16.567
	c0.067-1.101-0.323-2.181-1.079-2.984S113.348,0,112.244,0H85.437c-1.104,0-2.157,0.456-2.914,1.259
	c-0.756,0.804-1.146,1.884-1.078,2.985c0.376,6.145,0.114,13.943-0.848,16.566c-2.01,1.107-9.19,2.484-14.506,3.503
	c-11.142,2.136-22.662,4.345-27.992,8.913c-9.089,7.792-15.277,32.766-15.952,35.588c-0.512,2.137,0.796,4.287,2.93,4.814
	l18.126,4.482c0.249,0.062,0.5,0.09,0.75,0.103c-0.237-1.506-0.362-3.049-0.362-4.62c0-2.209,1.791-4,4-4s4,1.791,4,4
	c0,11.924,9.701,21.625,21.625,21.625S94.84,85.517,94.84,73.593c-0.001-0.01-0.194-7.593-4.228-12.567
	c-1.391-1.716-1.128-4.235,0.588-5.626c1.716-1.391,4.234-1.129,5.627,0.588c0.766,0.945,1.43,1.941,2.013,2.956
	c0.584-1.015,1.247-2.01,2.013-2.956c1.394-1.717,3.911-1.979,5.627-0.588s1.979,3.91,0.588,5.626
	c-4.015,4.951-4.228,12.546-4.229,12.622c0,11.87,9.701,21.571,21.625,21.571s21.625-9.701,21.625-21.625c0-2.209,1.791-4,4-4
	s4,1.791,4,4c0,1.548-0.12,3.068-0.35,4.553c0.583,0.116,1.193,0.107,1.792-0.049l17.126-4.482
	C174.763,73.063,176.041,70.93,175.534,68.814z M70.325,84.981c-0.75,0.75-1.78,1.17-2.83,1.17s-2.08-0.43-2.83-1.17
	c-0.74-0.74-1.17-1.77-1.17-2.83c0-1.05,0.43-2.08,1.17-2.83c0.75-0.74,1.78-1.17,2.83-1.17s2.08,0.43,2.83,1.17
	c0.74,0.75,1.17,1.78,1.17,2.83C71.495,83.201,71.065,84.241,70.325,84.981z M133.015,84.981c-0.75,0.74-1.779,1.17-2.83,1.17
	c-1.05,0-2.09-0.43-2.83-1.17c-0.739-0.74-1.17-1.77-1.17-2.83c0-1.05,0.431-2.08,1.17-2.83c0.74-0.74,1.78-1.17,2.83-1.17
	c1.051,0,2.08,0.43,2.83,1.17c0.74,0.75,1.17,1.78,1.17,2.83C134.185,83.201,133.755,84.231,133.015,84.981z"/>
<g>
</g>
<g>
</g>
<g>
</g>
<g>
</g>
<g>
</g>
<g>
</g>
<g>
</g>
<g>
</g>
<g>
</g>
<g>
</g>
<g>
</g>
<g>
</g>
<g>
</g>
<g>
</g>
<g>
</g>
</svg>
