<?xml version="1.0" encoding="iso-8859-1"?>
<!-- Generator: Adobe Illustrator 16.0.0, SVG Export Plug-In . SVG Version: 6.00 Build 0)  -->
<!DOCTYPE svg PUBLIC "-//W3C//DTD SVG 1.1//EN" "http://www.w3.org/Graphics/SVG/1.1/DTD/svg11.dtd">
<svg version="1.1" id="Capa_1" xmlns="http://www.w3.org/2000/svg" xmlns:xlink="http://www.w3.org/1999/xlink" x="0px" y="0px"
	 width="31.998px" height="31.998px" viewBox="0 0 31.998 31.998" style="enable-background:new 0 0 31.998 31.998;"
	 xml:space="preserve">
<g>
	<path d="M25.055,0c1.297,7.964-1.514,7.64-1.514,7.64L16.06,7.357V7.352L16,7.354l-0.062-0.002v0.005L8.456,7.64
		c0,0-2.811,0.324-1.514-7.64c-9.188,13.009,2.955,11.026,3.136,11.495c0.181,0.469-1.839,3.208-1.693,4.829
		c0.145,1.621,2.973,2.486,3.352,3.566c1.243,3.676-2.703,7.242,0.97,8.166c0.147,0.036,0.302,0.071,0.457,0.104
		c-0.046,0.216-0.07,0.438-0.07,0.667c0,1.748,1.422,3.171,3.171,3.171c1.748,0,3.171-1.423,3.171-3.171
		c0-0.271-0.036-0.532-0.102-0.783c3.602-0.938-0.309-4.492,0.931-8.153c0.379-1.08,3.207-1.945,3.353-3.566
		s-1.874-4.36-1.693-4.829C22.1,11.026,34.244,13.009,25.055,0z M16.262,31.135c-1.271,0-2.308-1.033-2.308-2.306
		c0-0.177,0.024-0.349,0.063-0.513c0.85,0.129,1.631,0.192,1.92,0.216v0.008c0,0,0.024-0.001,0.062-0.004
		c0.035,0.003,0.061,0.004,0.061,0.004v-0.008c0.346-0.025,1.394-0.111,2.422-0.3c0.051,0.189,0.088,0.389,0.088,0.597
		C18.57,30.102,17.534,31.135,16.262,31.135z"/>
</g>
<g>
</g>
<g>
</g>
<g>
</g>
<g>
</g>
<g>
</g>
<g>
</g>
<g>
</g>
<g>
</g>
<g>
</g>
<g>
</g>
<g>
</g>
<g>
</g>
<g>
</g>
<g>
</g>
<g>
</g>
</svg>
