<?xml version="1.0" encoding="UTF-8" standalone="no"?>
<!-- Generator: Adobe Illustrator 17.0.2, SVG Export Plug-In . SVG Version: 6.00 Build 0)  -->

<svg
   xmlns:dc="http://purl.org/dc/elements/1.1/"
   xmlns:cc="http://creativecommons.org/ns#"
   xmlns:rdf="http://www.w3.org/1999/02/22-rdf-syntax-ns#"
   xmlns:svg="http://www.w3.org/2000/svg"
   xmlns="http://www.w3.org/2000/svg"
   xmlns:sodipodi="http://sodipodi.sourceforge.net/DTD/sodipodi-0.dtd"
   xmlns:inkscape="http://www.inkscape.org/namespaces/inkscape"
   version="1.1"
   id="Layer_1"
   x="0px"
   y="0px"
   width="53.703712"
   height="47.872002"
   viewBox="0 0 53.703712 47.872002"
   enable-background="new 0 0 64 64"
   xml:space="preserve"
   inkscape:version="0.48.4 r9939"
   sodipodi:docname="charmed.svg"><metadata
   id="metadata3105"><rdf:RDF><cc:Work
       rdf:about=""><dc:format>image/svg+xml</dc:format><dc:type
         rdf:resource="http://purl.org/dc/dcmitype/StillImage" /></cc:Work></rdf:RDF></metadata><defs
   id="defs3103" /><sodipodi:namedview
   pagecolor="#ffffff"
   bordercolor="#666666"
   borderopacity="1"
   objecttolerance="10"
   gridtolerance="10"
   guidetolerance="10"
   inkscape:pageopacity="0"
   inkscape:pageshadow="2"
   inkscape:window-width="1920"
   inkscape:window-height="1137"
   id="namedview3101"
   showgrid="false"
   inkscape:zoom="2.6074563"
   inkscape:cx="-69.208244"
   inkscape:cy="-20.687893"
   inkscape:window-x="1676"
   inkscape:window-y="-4"
   inkscape:window-maximized="1"
   inkscape:current-layer="Layer_1"
   fit-margin-top="0"
   fit-margin-left="0"
   fit-margin-right="0"
   fit-margin-bottom="0" />
<g
   id="g3083"
   transform="translate(-5.083947,-7.758)">
	<g
   id="g3085">
		<path
   d="M 43.197,11.764 C 41.484,9.513 38.789,8.22 34.954,7.809 34.643,7.777 34.316,7.758 33.979,7.758 c -3.4,0 -6.788,1.595 -8.897,4.13 -2.11,-2.534 -5.497,-4.13 -8.896,-4.13 -0.337,0 -0.663,0.019 -0.98,0.051 -3.83,0.411 -6.524,1.705 -8.238,3.954 -1.7,2.23 -2.253,5.253 -1.645,8.985 0.888,5.414 7.899,12.007 13.531,17.306 l 0.129,0.121 c 1.569,1.478 2.924,2.753 3.806,3.702 0.119,0.134 1.195,1.311 2.372,1.311 1.185,0 2.237,-1.195 2.332,-1.31 0.938,-1.017 2.461,-2.459 3.964,-3.88 5.57,-5.284 12.501,-11.859 13.38,-17.253 0.612,-3.728 0.061,-6.75 -1.64,-8.981 z"
   id="path3087"
   inkscape:connector-curvature="0"
   style="fill:#010101" />
	</g>
</g>
<g
   id="g3089"
   transform="translate(-5.083947,-7.758)">
	<g
   id="g3091">
		<path
   d="m 57.756,34.178 c -0.938,-1.233 -2.415,-1.941 -4.516,-2.167 -0.17,-0.017 -0.349,-0.028 -0.534,-0.028 -1.863,0 -3.719,0.874 -4.874,2.263 -1.156,-1.388 -3.011,-2.263 -4.873,-2.263 -0.185,0 -0.363,0.011 -0.537,0.028 -2.098,0.225 -3.574,0.934 -4.513,2.166 -0.931,1.222 -1.234,2.878 -0.901,4.922 0.486,2.966 4.327,6.578 7.413,9.481 l 0.071,0.066 c 0.859,0.81 1.602,1.508 2.085,2.028 0.065,0.073 0.654,0.718 1.299,0.718 0.649,0 1.225,-0.654 1.278,-0.717 0.514,-0.557 1.348,-1.347 2.172,-2.126 3.051,-2.895 6.849,-6.497 7.33,-9.452 0.334,-2.041 0.032,-3.697 -0.9,-4.919 z"
   id="path3093"
   inkscape:connector-curvature="0"
   style="fill:#010101" />
	</g>
</g>
<g
   id="g3095"
   transform="translate(-5.083947,-7.758)">
	<g
   id="g3097">
		<path
   d="m 38.221,46.187 c -0.515,-0.676 -1.325,-1.065 -2.477,-1.189 -0.093,-0.01 -0.192,-0.015 -0.293,-0.015 -1.022,0 -2.04,0.48 -2.674,1.241 -0.634,-0.762 -1.652,-1.241 -2.673,-1.241 -0.101,0 -0.199,0.006 -0.294,0.015 -1.151,0.124 -1.961,0.512 -2.476,1.188 -0.511,0.67 -0.677,1.579 -0.494,2.7 0.267,1.627 2.374,3.608 4.067,5.201 l 0.039,0.036 c 0.471,0.444 0.879,0.827 1.144,1.113 0.036,0.04 0.359,0.394 0.713,0.394 0.356,0 0.672,-0.359 0.701,-0.394 0.282,-0.306 0.74,-0.739 1.191,-1.166 1.674,-1.588 3.757,-3.564 4.021,-5.185 0.182,-1.119 0.017,-2.027 -0.495,-2.698 z"
   id="path3099"
   inkscape:connector-curvature="0"
   style="fill:#010101" />
	</g>
</g>
</svg>