<?xml version="1.0" encoding="UTF-8" standalone="no"?>
<!-- Generator: Adobe Illustrator 17.0.2, SVG Export Plug-In . SVG Version: 6.00 Build 0)  -->

<svg
   xmlns:dc="http://purl.org/dc/elements/1.1/"
   xmlns:cc="http://creativecommons.org/ns#"
   xmlns:rdf="http://www.w3.org/1999/02/22-rdf-syntax-ns#"
   xmlns:svg="http://www.w3.org/2000/svg"
   xmlns="http://www.w3.org/2000/svg"
   xmlns:sodipodi="http://sodipodi.sourceforge.net/DTD/sodipodi-0.dtd"
   xmlns:inkscape="http://www.inkscape.org/namespaces/inkscape"
   version="1.1"
   id="Layer_1"
   x="0px"
   y="0px"
   width="64px"
   height="64px"
   viewBox="0 0 64 64"
   enable-background="new 0 0 64 64"
   xml:space="preserve"
   inkscape:version="0.48.4 r9939"
   sodipodi:docname="confused.svg"><metadata
   id="metadata3156"><rdf:RDF><cc:Work
       rdf:about=""><dc:format>image/svg+xml</dc:format><dc:type
         rdf:resource="http://purl.org/dc/dcmitype/StillImage" /></cc:Work></rdf:RDF></metadata><defs
   id="defs3154" /><sodipodi:namedview
   pagecolor="#ffffff"
   bordercolor="#666666"
   borderopacity="1"
   objecttolerance="10"
   gridtolerance="10"
   guidetolerance="10"
   inkscape:pageopacity="0"
   inkscape:pageshadow="2"
   inkscape:window-width="1920"
   inkscape:window-height="1027"
   id="namedview3152"
   showgrid="false"
   inkscape:zoom="41.7193"
   inkscape:cx="18.515589"
   inkscape:cy="60.473784"
   inkscape:window-x="-5"
   inkscape:window-y="-5"
   inkscape:window-maximized="1"
   inkscape:current-layer="Layer_1" />
<path
   d="M 43.5,0.025 H 10 c -5.5,0 -10,4.5 -10,10 V 29.9 c 0,5.5 4.5,10 10,10 h 3.5 v 8.5 l 9.917,-8.5 H 43.5 c 5.5,0 10,-4.5 10,-10 V 10.025 c 0,-5.5 -4.5,-10 -10,-10 z M 14.722,33.706 h -4.064 v -4.064 l 4.064,0 v 4.064 z m 4.045,-19.745 c -0.014,0.465 -0.047,0.871 -0.1,1.215 -0.054,0.345 -0.12,0.644 -0.199,0.897 -0.08,0.253 -0.187,0.485 -0.319,0.697 L 15.4,21.473 c -0.186,0.319 -0.345,0.644 -0.478,0.976 -0.133,0.333 -0.199,0.684 -0.199,1.056 v 3.188 l -4.064,0 v -3.706 c 0,-0.584 0.093,-1.142 0.279,-1.673 0.186,-0.531 0.425,-1.049 0.717,-1.554 l 2.551,-4.145 c 0.212,-0.345 0.351,-0.717 0.418,-1.116 0.066,-0.398 0.1,-0.797 0.1,-1.195 v -2.111 c 0,-0.558 -0.193,-1.036 -0.578,-1.435 C 13.761,9.359 13.29,9.16 12.731,9.16 c -0.478,0 -0.943,0.173 -1.394,0.519 -0.452,0.345 -0.677,0.85 -0.677,1.514 v 2.311 H 6.596 V 11.153 C 6.596,10.33 6.755,9.546 7.074,8.802 7.392,8.059 7.831,7.414 8.389,6.869 8.946,6.325 9.597,5.893 10.341,5.573 c 0.744,-0.318 1.541,-0.478 2.391,-0.478 0.982,0 1.879,0.199 2.69,0.598 0.81,0.399 1.48,0.956 2.012,1.673 0.265,0.372 0.484,0.718 0.657,1.036 0.173,0.319 0.312,0.658 0.419,1.016 0.106,0.359 0.179,0.764 0.219,1.215 0.04,0.452 0.06,0.983 0.06,1.594 -0.002,0.692 -0.009,1.271 -0.022,1.734 z m 10.58,19.745 h -4.064 v -4.064 l 4.064,0 v 4.064 z m 4.045,-19.745 c -0.014,0.465 -0.047,0.871 -0.1,1.215 -0.054,0.345 -0.12,0.644 -0.199,0.897 -0.08,0.253 -0.187,0.485 -0.319,0.697 l -2.749,4.702 c -0.186,0.319 -0.345,0.644 -0.478,0.976 -0.133,0.333 -0.199,0.684 -0.199,1.056 v 3.188 l -4.064,0 v -3.706 c 0,-0.584 0.093,-1.142 0.279,-1.673 0.186,-0.531 0.425,-1.049 0.717,-1.554 l 2.551,-4.145 c 0.212,-0.345 0.351,-0.717 0.418,-1.116 0.066,-0.398 0.1,-0.797 0.1,-1.195 v -2.11 c 0,-0.558 -0.193,-1.036 -0.578,-1.435 C 28.386,9.359 27.915,9.16 27.356,9.16 c -0.478,0 -0.943,0.173 -1.394,0.519 -0.452,0.345 -0.677,0.85 -0.677,1.514 v 2.311 h -4.064 v -2.351 c 0,-0.823 0.159,-1.607 0.478,-2.351 0.318,-0.743 0.757,-1.388 1.315,-1.933 0.557,-0.544 1.208,-0.976 1.952,-1.296 0.744,-0.318 1.541,-0.478 2.391,-0.478 0.982,0 1.879,0.199 2.69,0.598 0.81,0.399 1.48,0.956 2.012,1.673 0.265,0.372 0.484,0.718 0.657,1.036 0.173,0.319 0.312,0.658 0.419,1.016 0.106,0.359 0.179,0.764 0.219,1.215 0.04,0.452 0.06,0.983 0.06,1.594 -0.002,0.692 -0.009,1.271 -0.022,1.734 z m 10.58,19.745 h -4.064 v -4.064 l 4.064,0 v 4.064 z m 4.045,-19.745 c -0.014,0.465 -0.047,0.871 -0.1,1.215 -0.054,0.345 -0.12,0.644 -0.199,0.897 -0.08,0.253 -0.187,0.485 -0.319,0.697 l -2.749,4.703 c -0.186,0.319 -0.345,0.644 -0.478,0.976 -0.133,0.333 -0.199,0.684 -0.199,1.056 v 3.188 l -4.064,0 v -3.706 c 0,-0.584 0.093,-1.142 0.279,-1.673 0.186,-0.531 0.425,-1.049 0.717,-1.554 l 2.551,-4.145 c 0.212,-0.345 0.351,-0.717 0.418,-1.116 0.066,-0.398 0.1,-0.797 0.1,-1.195 v -2.111 c 0,-0.558 -0.193,-1.036 -0.578,-1.435 C 43.011,9.359 42.54,9.16 41.981,9.16 c -0.478,0 -0.943,0.173 -1.394,0.519 -0.452,0.345 -0.677,0.85 -0.677,1.514 v 2.311 h -4.064 v -2.351 c 0,-0.823 0.159,-1.607 0.478,-2.351 0.318,-0.743 0.757,-1.388 1.315,-1.933 0.557,-0.544 1.208,-0.976 1.952,-1.296 0.744,-0.318 1.541,-0.478 2.391,-0.478 0.982,0 1.879,0.199 2.69,0.598 0.81,0.399 1.48,0.956 2.012,1.673 0.265,0.372 0.484,0.718 0.657,1.036 0.173,0.319 0.312,0.658 0.419,1.016 0.106,0.359 0.179,0.764 0.219,1.215 0.04,0.452 0.06,0.983 0.06,1.594 -0.002,0.692 -0.009,1.271 -0.022,1.734 z"
   id="path3150"
   inkscape:connector-curvature="0" />
</svg>