<?xml version="1.0" encoding="UTF-8" standalone="no"?>
<!-- Generator: Adobe Illustrator 17.0.2, SVG Export Plug-In . SVG Version: 6.00 Build 0)  -->

<svg
   xmlns:dc="http://purl.org/dc/elements/1.1/"
   xmlns:cc="http://creativecommons.org/ns#"
   xmlns:rdf="http://www.w3.org/1999/02/22-rdf-syntax-ns#"
   xmlns:svg="http://www.w3.org/2000/svg"
   xmlns="http://www.w3.org/2000/svg"
   xmlns:sodipodi="http://sodipodi.sourceforge.net/DTD/sodipodi-0.dtd"
   xmlns:inkscape="http://www.inkscape.org/namespaces/inkscape"
   version="1.1"
   id="Layer_1"
   x="0px"
   y="0px"
   width="53.5"
   height="48.375"
   viewBox="0 0 53.5 48.375"
   enable-background="new 0 0 64 64"
   xml:space="preserve"
   inkscape:version="0.48.4 r9939"
   sodipodi:docname="confused.svg"><metadata
   id="metadata3156"><rdf:RDF><cc:Work
       rdf:about=""><dc:format>image/svg+xml</dc:format><dc:type
         rdf:resource="http://purl.org/dc/dcmitype/StillImage" /></cc:Work></rdf:RDF></metadata><defs
   id="defs3154" /><sodipodi:namedview
   pagecolor="#ffffff"
   bordercolor="#666666"
   borderopacity="1"
   objecttolerance="10"
   gridtolerance="10"
   guidetolerance="10"
   inkscape:pageopacity="0"
   inkscape:pageshadow="2"
   inkscape:window-width="446"
   inkscape:window-height="423"
   id="namedview3152"
   showgrid="false"
   inkscape:zoom="2.6074563"
   inkscape:cx="-0.63639214"
   inkscape:cy="11.658234"
   inkscape:window-x="2527"
   inkscape:window-y="200"
   inkscape:window-maximized="0"
   inkscape:current-layer="Layer_1"
   fit-margin-top="0"
   fit-margin-left="0"
   fit-margin-right="0"
   fit-margin-bottom="0" />
<path
   d="M 43.5,0 H 10 C 4.5,0 0,4.5 0,10 v 19.875 c 0,5.5 4.5,10 10,10 h 3.5 v 8.5 l 9.917,-8.5 H 43.5 c 5.5,0 10,-4.5 10,-10 V 10 C 53.5,4.5 49,0 43.5,0 z M 14.722,33.681 h -4.064 v -4.064 l 4.064,0 v 4.064 z m 4.045,-19.745 c -0.014,0.465 -0.047,0.871 -0.1,1.215 -0.054,0.345 -0.12,0.644 -0.199,0.897 -0.08,0.253 -0.187,0.485 -0.319,0.697 L 15.4,21.448 c -0.186,0.319 -0.345,0.644 -0.478,0.976 -0.133,0.333 -0.199,0.684 -0.199,1.056 v 3.188 l -4.064,0 v -3.706 c 0,-0.584 0.093,-1.142 0.279,-1.673 0.186,-0.531 0.425,-1.049 0.717,-1.554 l 2.551,-4.145 c 0.212,-0.345 0.351,-0.717 0.418,-1.116 0.066,-0.398 0.1,-0.797 0.1,-1.195 v -2.111 c 0,-0.558 -0.193,-1.036 -0.578,-1.435 -0.385,-0.399 -0.856,-0.598 -1.415,-0.598 -0.478,0 -0.943,0.173 -1.394,0.519 -0.452,0.345 -0.677,0.85 -0.677,1.514 v 2.311 H 6.596 V 11.128 C 6.596,10.305 6.755,9.521 7.074,8.777 7.392,8.034 7.831,7.389 8.389,6.844 8.946,6.3 9.597,5.868 10.341,5.548 11.085,5.23 11.882,5.07 12.732,5.07 c 0.982,0 1.879,0.199 2.69,0.598 0.81,0.399 1.48,0.956 2.012,1.673 0.265,0.372 0.484,0.718 0.657,1.036 0.173,0.319 0.312,0.658 0.419,1.016 0.106,0.359 0.179,0.764 0.219,1.215 0.04,0.452 0.06,0.983 0.06,1.594 -0.002,0.692 -0.009,1.271 -0.022,1.734 z m 10.58,19.745 h -4.064 v -4.064 l 4.064,0 v 4.064 z m 4.045,-19.745 c -0.014,0.465 -0.047,0.871 -0.1,1.215 -0.054,0.345 -0.12,0.644 -0.199,0.897 -0.08,0.253 -0.187,0.485 -0.319,0.697 l -2.749,4.702 c -0.186,0.319 -0.345,0.644 -0.478,0.976 -0.133,0.333 -0.199,0.684 -0.199,1.056 v 3.188 l -4.064,0 v -3.706 c 0,-0.584 0.093,-1.142 0.279,-1.673 0.186,-0.531 0.425,-1.049 0.717,-1.554 l 2.551,-4.145 c 0.212,-0.345 0.351,-0.717 0.418,-1.116 0.066,-0.398 0.1,-0.797 0.1,-1.195 v -2.11 c 0,-0.558 -0.193,-1.036 -0.578,-1.435 -0.385,-0.399 -0.856,-0.598 -1.415,-0.598 -0.478,0 -0.943,0.173 -1.394,0.519 -0.452,0.345 -0.677,0.85 -0.677,1.514 v 2.311 h -4.064 v -2.351 c 0,-0.823 0.159,-1.607 0.478,-2.351 C 22.017,8.034 22.456,7.389 23.014,6.844 23.571,6.3 24.222,5.868 24.966,5.548 25.71,5.23 26.507,5.07 27.357,5.07 c 0.982,0 1.879,0.199 2.69,0.598 0.81,0.399 1.48,0.956 2.012,1.673 0.265,0.372 0.484,0.718 0.657,1.036 0.173,0.319 0.312,0.658 0.419,1.016 0.106,0.359 0.179,0.764 0.219,1.215 0.04,0.452 0.06,0.983 0.06,1.594 -0.002,0.692 -0.009,1.271 -0.022,1.734 z m 10.58,19.745 h -4.064 v -4.064 l 4.064,0 v 4.064 z m 4.045,-19.745 c -0.014,0.465 -0.047,0.871 -0.1,1.215 -0.054,0.345 -0.12,0.644 -0.199,0.897 -0.08,0.253 -0.187,0.485 -0.319,0.697 l -2.749,4.703 c -0.186,0.319 -0.345,0.644 -0.478,0.976 -0.133,0.333 -0.199,0.684 -0.199,1.056 v 3.188 l -4.064,0 v -3.706 c 0,-0.584 0.093,-1.142 0.279,-1.673 0.186,-0.531 0.425,-1.049 0.717,-1.554 l 2.551,-4.145 c 0.212,-0.345 0.351,-0.717 0.418,-1.116 0.066,-0.398 0.1,-0.797 0.1,-1.195 v -2.111 c 0,-0.558 -0.193,-1.036 -0.578,-1.435 -0.385,-0.399 -0.856,-0.598 -1.415,-0.598 -0.478,0 -0.943,0.173 -1.394,0.519 -0.452,0.345 -0.677,0.85 -0.677,1.514 v 2.311 h -4.064 v -2.351 c 0,-0.823 0.159,-1.607 0.478,-2.351 C 36.642,8.034 37.081,7.389 37.639,6.844 38.196,6.3 38.847,5.868 39.591,5.548 40.335,5.23 41.132,5.07 41.982,5.07 c 0.982,0 1.879,0.199 2.69,0.598 0.81,0.399 1.48,0.956 2.012,1.673 0.265,0.372 0.484,0.718 0.657,1.036 0.173,0.319 0.312,0.658 0.419,1.016 0.106,0.359 0.179,0.764 0.219,1.215 0.04,0.452 0.06,0.983 0.06,1.594 -0.002,0.692 -0.009,1.271 -0.022,1.734 z"
   id="path3150"
   inkscape:connector-curvature="0" />
</svg>