<?xml version="1.0" encoding="UTF-8" standalone="no"?>
<!-- Generator: Adobe Illustrator 17.0.2, SVG Export Plug-In . SVG Version: 6.00 Build 0)  -->

<svg
   xmlns:dc="http://purl.org/dc/elements/1.1/"
   xmlns:cc="http://creativecommons.org/ns#"
   xmlns:rdf="http://www.w3.org/1999/02/22-rdf-syntax-ns#"
   xmlns:svg="http://www.w3.org/2000/svg"
   xmlns="http://www.w3.org/2000/svg"
   xmlns:sodipodi="http://sodipodi.sourceforge.net/DTD/sodipodi-0.dtd"
   xmlns:inkscape="http://www.inkscape.org/namespaces/inkscape"
   version="1.1"
   id="Layer_1"
   x="0px"
   y="0px"
   width="64px"
   height="64px"
   viewBox="0 0 64 64"
   enable-background="new 0 0 64 64"
   xml:space="preserve"
   inkscape:version="0.48.4 r9939"
   sodipodi:docname="constricted.svg"><metadata
   id="metadata3200"><rdf:RDF><cc:Work
       rdf:about=""><dc:format>image/svg+xml</dc:format><dc:type
         rdf:resource="http://purl.org/dc/dcmitype/StillImage" /></cc:Work></rdf:RDF></metadata><defs
   id="defs3198" /><sodipodi:namedview
   pagecolor="#ffffff"
   bordercolor="#666666"
   borderopacity="1"
   objecttolerance="10"
   gridtolerance="10"
   guidetolerance="10"
   inkscape:pageopacity="0"
   inkscape:pageshadow="2"
   inkscape:window-width="1920"
   inkscape:window-height="1027"
   id="namedview3196"
   showgrid="false"
   inkscape:zoom="41.7193"
   inkscape:cx="30.936248"
   inkscape:cy="58.795853"
   inkscape:window-x="-5"
   inkscape:window-y="-5"
   inkscape:window-maximized="1"
   inkscape:current-layer="Layer_1" />
<path
   clip-rule="evenodd"
   d="m 47.375,14.657 c 1.069,0.901 1.662,1.885 1.662,2.918 0,4.28 -10.119,7.75 -22.602,7.75 -12.483,0 -22.602,-3.47 -22.602,-7.75 0,-1.032 0.594,-2.017 1.662,-2.918 C 2.053,16.641 0,19.126 0,21.825 c 0,6.489 11.835,11.75 26.435,11.75 14.6,0 26.435,-5.261 26.435,-11.75 0,-2.699 -2.053,-5.184 -5.495,-7.168 z"
   id="path3190"
   inkscape:connector-curvature="0"
   style="fill-rule:evenodd" />
<path
   clip-rule="evenodd"
   d="m 47.375,0.032 c 1.069,0.901 1.662,1.885 1.662,2.918 0,4.28 -10.119,7.75 -22.602,7.75 C 13.952,10.7 3.833,7.23 3.833,2.95 3.833,1.918 4.427,0.933 5.495,0.032 2.053,2.016 0,4.501 0,7.2 c 0,6.489 11.835,11.75 26.435,11.75 14.6,0 26.435,-5.261 26.435,-11.75 0,-2.699 -2.053,-5.184 -5.495,-7.168 z"
   id="path3192"
   inkscape:connector-curvature="0"
   style="fill-rule:evenodd" />
<path
   clip-rule="evenodd"
   d="m 47.375,29.282 c 1.069,0.901 1.662,1.885 1.662,2.918 0,4.28 -10.119,7.75 -22.602,7.75 -12.483,0 -22.602,-3.47 -22.602,-7.75 0,-1.032 0.594,-2.017 1.662,-2.918 C 2.053,31.266 0,33.751 0,36.45 0,42.939 11.836,48.2 26.435,48.2 c 14.599,0 26.435,-5.261 26.435,-11.75 0,-2.699 -2.053,-5.184 -5.495,-7.168 z"
   id="path3194"
   inkscape:connector-curvature="0"
   style="fill-rule:evenodd" />
</svg>