<?xml version="1.0" encoding="UTF-8" standalone="no"?>
<!-- Generator: Adobe Illustrator 17.0.2, SVG Export Plug-In . SVG Version: 6.00 Build 0)  -->

<svg
   xmlns:dc="http://purl.org/dc/elements/1.1/"
   xmlns:cc="http://creativecommons.org/ns#"
   xmlns:rdf="http://www.w3.org/1999/02/22-rdf-syntax-ns#"
   xmlns:svg="http://www.w3.org/2000/svg"
   xmlns="http://www.w3.org/2000/svg"
   xmlns:sodipodi="http://sodipodi.sourceforge.net/DTD/sodipodi-0.dtd"
   xmlns:inkscape="http://www.inkscape.org/namespaces/inkscape"
   version="1.1"
   id="Layer_1"
   x="0px"
   y="0px"
   width="52.869999"
   height="48.167999"
   viewBox="0 0 52.869999 48.167999"
   enable-background="new 0 0 64 64"
   xml:space="preserve"
   inkscape:version="0.48.4 r9939"
   sodipodi:docname="constricted.svg"><metadata
   id="metadata3200"><rdf:RDF><cc:Work
       rdf:about=""><dc:format>image/svg+xml</dc:format><dc:type
         rdf:resource="http://purl.org/dc/dcmitype/StillImage" /></cc:Work></rdf:RDF></metadata><defs
   id="defs3198" /><sodipodi:namedview
   pagecolor="#ffffff"
   bordercolor="#666666"
   borderopacity="1"
   objecttolerance="10"
   gridtolerance="10"
   guidetolerance="10"
   inkscape:pageopacity="0"
   inkscape:pageshadow="2"
   inkscape:window-width="1920"
   inkscape:window-height="1137"
   id="namedview3196"
   showgrid="false"
   inkscape:zoom="41.7193"
   inkscape:cx="30.936248"
   inkscape:cy="42.995853"
   inkscape:window-x="1676"
   inkscape:window-y="-4"
   inkscape:window-maximized="1"
   inkscape:current-layer="Layer_1"
   fit-margin-top="0"
   fit-margin-left="0"
   fit-margin-right="0"
   fit-margin-bottom="0" />
<path
   clip-rule="evenodd"
   d="m 47.375,14.625 c 1.069,0.901 1.662,1.885 1.662,2.918 0,4.28 -10.119,7.75 -22.602,7.75 -12.483,0 -22.602,-3.47 -22.602,-7.75 0,-1.032 0.594,-2.017 1.662,-2.918 C 2.053,16.609 0,19.094 0,21.793 c 0,6.489 11.835,11.75 26.435,11.75 14.6,0 26.435,-5.261 26.435,-11.75 0,-2.699 -2.053,-5.184 -5.495,-7.168 z"
   id="path3190"
   inkscape:connector-curvature="0"
   style="fill-rule:evenodd" />
<path
   clip-rule="evenodd"
   d="m 47.375,0 c 1.069,0.901 1.662,1.885 1.662,2.918 0,4.28 -10.119,7.75 -22.602,7.75 C 13.952,10.668 3.833,7.198 3.833,2.918 3.833,1.886 4.427,0.901 5.495,0 2.053,1.984 0,4.469 0,7.168 c 0,6.489 11.835,11.75 26.435,11.75 14.6,0 26.435,-5.261 26.435,-11.75 C 52.87,4.469 50.817,1.984 47.375,0 z"
   id="path3192"
   inkscape:connector-curvature="0"
   style="fill-rule:evenodd" />
<path
   clip-rule="evenodd"
   d="m 47.375,29.25 c 1.069,0.901 1.662,1.885 1.662,2.918 0,4.28 -10.119,7.75 -22.602,7.75 -12.483,0 -22.602,-3.47 -22.602,-7.75 0,-1.032 0.594,-2.017 1.662,-2.918 C 2.053,31.234 0,33.719 0,36.418 c 0,6.489 11.836,11.75 26.435,11.75 14.599,0 26.435,-5.261 26.435,-11.75 0,-2.699 -2.053,-5.184 -5.495,-7.168 z"
   id="path3194"
   inkscape:connector-curvature="0"
   style="fill-rule:evenodd" />
</svg>