<?xml version="1.0" encoding="iso-8859-1"?>
<!-- Generator: Adobe Illustrator 16.0.0, SVG Export Plug-In . SVG Version: 6.00 Build 0)  -->
<!DOCTYPE svg PUBLIC "-//W3C//DTD SVG 1.1//EN" "http://www.w3.org/Graphics/SVG/1.1/DTD/svg11.dtd">
<svg version="1.1" id="Capa_1" xmlns="http://www.w3.org/2000/svg" xmlns:xlink="http://www.w3.org/1999/xlink" x="0px" y="0px"
	 width="695.133px" height="695.133px" viewBox="0 0 695.133 695.133" style="enable-background:new 0 0 695.133 695.133;"
	 xml:space="preserve">
<g>
	<g>
		<path d="M653.241,185.395h-100.08c6.77-13.849,12.311-29.297,16.533-46.208c10.918-43.688,9.406-82.097,9.338-83.71L576.644,0
			l-27.506,48.233c-14.205,24.91-31.686,46.153-51.961,63.133c-16.197,13.567-34.248,24.491-53.637,32.476
			c-12.277,5.053-23.572,8.28-32.965,10.354H284.413c-34.824-7.725-96.158-31.687-138.515-105.963L118.394,0l-2.39,55.477
			c-0.068,1.613-1.572,40.022,9.338,83.71c4.223,16.911,9.764,32.359,16.533,46.208H41.879l-0.316,15.682
			c-0.041,2.025-0.59,50.053,34.701,86.408c21.628,22.28,51.454,35.085,88.818,38.175c-0.014,47.958,7.051,83.271,21.47,107.631
			c26.18,44.217,32.682,175.57,32.977,222.458l0.028,4.03l1.929,3.536c2.259,4.14,8.802,12.125,27.224,19.053
			c22.514,8.466,55.772,12.764,98.856,12.764c43.085,0,76.337-4.291,98.856-12.764c18.422-6.928,24.965-14.913,27.225-19.053
			l1.928-3.536l0.027-4.03c0.289-46.867,6.777-178.2,32.979-222.451c14.426-24.36,21.482-59.673,21.469-107.631
			c37.365-3.09,67.191-15.895,88.818-38.175c35.293-36.355,34.742-84.383,34.701-86.409L653.241,185.395z M178.499,185.395
			c-14.453-22.891-22.109-50.115-26.146-73.603c8.075,8.967,16.678,17.247,25.782,24.807c13.492,11.198,28.089,20.804,43.565,28.721
			c-9.791,5.122-21.092,11.974-30.169,20.076H178.499z M213.872,395.247c-12.167-6.398-15.565-23.887-7.587-39.054
			c7.978-15.174,24.312-22.287,36.472-15.888c12.167,6.399,15.565,23.88,7.587,39.054
			C242.366,394.533,226.039,401.646,213.872,395.247z M443.677,648.396c-3.934,2.354-12.318,6.207-28.385,9.386
			c-8.492-12.62-27.291-29.565-67.032-29.764v-0.008c-0.117,0-0.233,0-0.357,0.008c-0.117,0-0.233-0.008-0.357-0.008v0.008
			c-39.864,0.198-58.656,17.261-67.108,29.887c-16.478-3.199-25.026-7.119-29.016-9.502c-0.124-6.509-0.391-17.104-0.975-30.348
			c23.214-20.33,64.973-69.813,66.511-163.609c2.135-130.166-84.287-149.679-52.278-199.135s67.218-38.786,83.216-38.786
			c16.005,0,51.214-10.669,83.216,38.786c32.008,49.456-54.414,68.969-52.277,199.135c1.523,92.89,42.486,142.311,65.824,163.005
			C444.075,630.971,443.8,641.784,443.677,648.396z M481.954,395.247c-12.166,6.399-28.5-0.714-36.473-15.888
			c-7.977-15.174-4.578-32.662,7.588-39.054c12.166-6.399,28.5,0.714,36.479,15.888C497.521,371.36,494.12,388.849,481.954,395.247z
			 M516.532,185.395h-12.949c-9.092-8.108-20.414-14.968-30.211-20.097c15.463-7.91,30.045-17.515,43.523-28.7
			c9.104-7.56,17.715-15.84,25.781-24.807C538.647,135.28,530.985,162.497,516.532,185.395z"/>
	</g>
</g>
<g>
</g>
<g>
</g>
<g>
</g>
<g>
</g>
<g>
</g>
<g>
</g>
<g>
</g>
<g>
</g>
<g>
</g>
<g>
</g>
<g>
</g>
<g>
</g>
<g>
</g>
<g>
</g>
<g>
</g>
</svg>
