<?xml version="1.0" encoding="UTF-8" standalone="no"?>
<!-- Generator: Adobe Illustrator 17.0.2, SVG Export Plug-In . SVG Version: 6.00 Build 0)  -->

<svg
   xmlns:dc="http://purl.org/dc/elements/1.1/"
   xmlns:cc="http://creativecommons.org/ns#"
   xmlns:rdf="http://www.w3.org/1999/02/22-rdf-syntax-ns#"
   xmlns:svg="http://www.w3.org/2000/svg"
   xmlns="http://www.w3.org/2000/svg"
   xmlns:sodipodi="http://sodipodi.sourceforge.net/DTD/sodipodi-0.dtd"
   xmlns:inkscape="http://www.inkscape.org/namespaces/inkscape"
   version="1.1"
   id="Layer_1"
   x="0px"
   y="0px"
   width="56.940708"
   height="60.5"
   viewBox="0 0 56.940708 60.5"
   enable-background="new 0 0 64 64"
   xml:space="preserve"
   inkscape:version="0.48.4 r9939"
   sodipodi:docname="dizzy_drunk.svg"><metadata
   id="metadata3312"><rdf:RDF><cc:Work
       rdf:about=""><dc:format>image/svg+xml</dc:format><dc:type
         rdf:resource="http://purl.org/dc/dcmitype/StillImage" /></cc:Work></rdf:RDF></metadata><defs
   id="defs3310" /><sodipodi:namedview
   pagecolor="#ffffff"
   bordercolor="#666666"
   borderopacity="1"
   objecttolerance="10"
   gridtolerance="10"
   guidetolerance="10"
   inkscape:pageopacity="0"
   inkscape:pageshadow="2"
   inkscape:window-width="640"
   inkscape:window-height="480"
   id="namedview3308"
   showgrid="false"
   inkscape:zoom="41.7193"
   inkscape:cx="26.9251"
   inkscape:cy="59.611407"
   inkscape:window-x="2171"
   inkscape:window-y="358"
   inkscape:window-maximized="0"
   inkscape:current-layer="Layer_1"
   fit-margin-top="0"
   fit-margin-left="0"
   fit-margin-right="0"
   fit-margin-bottom="0" />
<path
   d="M 26.69071,0 C 15.78571,0 5.6827096,5.907 0.32270957,15.415 c -0.678,1.203 -0.253,2.728 0.95000003,3.405 1.205,0.68 2.728,0.253 3.405,-0.95 C 9.1527096,9.932 17.58771,5 26.69071,5 c 13.922,0 25.25,11.327 25.25,25.25 0,14.631 -9.567,25.25 -22.75,25.25 -8.382,0 -18.125,-6.825 -18.125,-15.625 0,-9.054 6.046,-15.625 14.375,-15.625 3.736,0 8.25,3.123 8.25,7 0,3.229 -1.506,7 -5.75,7 -0.549,0 -1.434,-0.417 -1.767,-0.749 0.089,-0.395 0.393,-0.783 0.517,-0.833 0.126,0 0.24,0.04 0.338,0.119 1.074,0.866 2.648,0.696 3.515,-0.379 0.866,-1.075 0.696,-2.649 -0.379,-3.515 -0.981,-0.79 -2.214,-1.224 -3.474,-1.224 -3.266,0 -5.541,3.184 -5.541,6.041 0,3.382 4.022,5.541 6.791,5.541 6.33,0 10.75,-4.935 10.75,-12 0,-6.868 -6.995,-12 -13.25,-12 -11.045,-0.001 -19.3750004,8.866 -19.3750004,20.624 0,11.805 12.2090004,20.625 23.1250004,20.625 16.08,0 27.75,-12.722 27.75,-30.25 0,-16.68 -13.571,-30.25 -30.25,-30.25 z"
   id="path3306"
   inkscape:connector-curvature="0" />
</svg>