<?xml version="1.0" encoding="UTF-8" standalone="no"?>
<!-- Generator: Adobe Illustrator 17.0.2, SVG Export Plug-In . SVG Version: 6.00 Build 0)  -->

<svg
   xmlns:dc="http://purl.org/dc/elements/1.1/"
   xmlns:cc="http://creativecommons.org/ns#"
   xmlns:rdf="http://www.w3.org/1999/02/22-rdf-syntax-ns#"
   xmlns:svg="http://www.w3.org/2000/svg"
   xmlns="http://www.w3.org/2000/svg"
   xmlns:sodipodi="http://sodipodi.sourceforge.net/DTD/sodipodi-0.dtd"
   xmlns:inkscape="http://www.inkscape.org/namespaces/inkscape"
   version="1.1"
   id="Layer_1"
   x="0px"
   y="0px"
   width="44.474751"
   height="44.472252"
   viewBox="0 0 44.474751 44.472252"
   enable-background="new 0 0 64 64"
   xml:space="preserve"
   inkscape:version="0.48.4 r9939"
   sodipodi:docname="drug-pill.svg"><metadata
   id="metadata3330"><rdf:RDF><cc:Work
       rdf:about=""><dc:format>image/svg+xml</dc:format><dc:type
         rdf:resource="http://purl.org/dc/dcmitype/StillImage" /></cc:Work></rdf:RDF></metadata><defs
   id="defs3328" /><sodipodi:namedview
   pagecolor="#ffffff"
   bordercolor="#666666"
   borderopacity="1"
   objecttolerance="10"
   gridtolerance="10"
   guidetolerance="10"
   inkscape:pageopacity="0"
   inkscape:pageshadow="2"
   inkscape:window-width="446"
   inkscape:window-height="423"
   id="namedview3326"
   showgrid="false"
   inkscape:zoom="1.3037281"
   inkscape:cx="26.992456"
   inkscape:cy="65.380404"
   inkscape:window-x="2548"
   inkscape:window-y="82"
   inkscape:window-maximized="0"
   inkscape:current-layer="Layer_1"
   fit-margin-top="0"
   fit-margin-left="0"
   fit-margin-right="0"
   fit-margin-bottom="0" />
<path
   d="M 3.244,3.2366252 C 1.083,5.3946252 0,8.2266256 0,11.057627 c 0,2.831 1.082,5.663 3.244,7.818 l 11.177,11.18 0,0 11.177,11.177 c 4.314,4.32 11.32,4.32 15.639,-0.003 4.317,-4.314 4.317,-11.32 0,-15.636 l -8.794,-8.797 L 18.886,3.2396252 C 14.564,-1.079375 7.558,-1.079375 3.244,3.2366252 z m 13.259,2.381 11.177,11.1800018 -10.881,10.881 -11.177,-11.18 c -1.453,-1.45 -2.256,-3.383 -2.256,-5.435 0,-2.0550013 0.803,-3.9910018 2.256,-5.4430018 2.997,-3 7.883,-3 10.881,-0.003 z"
   id="path3324"
   inkscape:connector-curvature="0"
   style="fill:#040305" />
</svg>