<?xml version="1.0" encoding="iso-8859-1"?>
<!-- Generator: Adobe Illustrator 16.0.0, SVG Export Plug-In . SVG Version: 6.00 Build 0)  -->
<!DOCTYPE svg PUBLIC "-//W3C//DTD SVG 1.1//EN" "http://www.w3.org/Graphics/SVG/1.1/DTD/svg11.dtd">
<svg version="1.1" id="Capa_1" xmlns="http://www.w3.org/2000/svg" xmlns:xlink="http://www.w3.org/1999/xlink" x="0px" y="0px"
	 width="421.209px" height="421.208px" viewBox="0 0 421.209 421.208" style="enable-background:new 0 0 421.209 421.208;"
	 xml:space="preserve">
<g>
	<g>
		<path d="M231.324,194.352c-8.748,0-16.586,3.863-21.954,9.959c-5.372-6.088-13.207-9.959-21.957-9.959
			c-16.172,0-29.274,13.116-29.274,29.278c0,8.937,4.025,16.928,10.337,22.31h-0.008l41.507,39.509l40.285-39.509h-0.02
			c6.323-5.382,10.347-13.373,10.347-22.31C260.587,207.468,247.494,194.352,231.324,194.352z M232.896,246.613h-17.172v16.819
			h-13.396v-16.819h-16.493v-13.408h16.493v-16.827h13.396v16.827h17.172V246.613z"/>
		<rect x="145.285" width="28.781" height="79.838"/>
		<rect x="181.915" width="28.781" height="79.838"/>
		<path d="M291.805,79.838h28.781V0.449C319.127,0.243,317.681,0,316.17,0h-24.357v79.838H291.805z"/>
		<rect x="108.655" width="28.779" height="79.838"/>
		<rect x="255.177" width="28.777" height="79.838"/>
		<path d="M328.437,2.497v77.35h19.136V31.41C347.572,18.418,339.689,7.271,328.437,2.497z"/>
		<rect x="218.545" width="28.781" height="79.838"/>
		<path d="M100.805,0.433c-15.316,2.085-27.168,15.08-27.168,30.969v48.436h27.168V0.433z"/>
		<path d="M321.997,89.502H99.218v81.088v6.538v117.75v17.02v77.908c0,17.341,14.06,31.402,31.402,31.402h159.975
			c17.34,0,31.402-14.062,31.402-31.402V318.43h0.176V177.128h-0.176V89.502z M306.195,263.48c0,17.341-14.058,31.398-31.402,31.398
			H146.598c-17.342,0-31.402-14.058-31.402-31.398v-54.953c0-17.338,14.06-31.398,31.402-31.398h128.195
			c17.345,0,31.402,14.06,31.402,31.398V263.48z"/>
	</g>
</g>
<g>
</g>
<g>
</g>
<g>
</g>
<g>
</g>
<g>
</g>
<g>
</g>
<g>
</g>
<g>
</g>
<g>
</g>
<g>
</g>
<g>
</g>
<g>
</g>
<g>
</g>
<g>
</g>
<g>
</g>
</svg>
