<?xml version="1.0" encoding="iso-8859-1"?>
<!-- Generator: Adobe Illustrator 16.0.0, SVG Export Plug-In . SVG Version: 6.00 Build 0)  -->
<!DOCTYPE svg PUBLIC "-//W3C//DTD SVG 1.1//EN" "http://www.w3.org/Graphics/SVG/1.1/DTD/svg11.dtd">
<svg version="1.1" id="Capa_1" xmlns="http://www.w3.org/2000/svg" xmlns:xlink="http://www.w3.org/1999/xlink" x="0px" y="0px"
	 width="921px" height="921px" viewBox="0 0 921 921" style="enable-background:new 0 0 921 921;" xml:space="preserve">
<g>
	<g>
		<path d="M120.55,318v573c0,16.6,13.4,30,30,30h619.9c16.6,0,30-13.4,30-30V318c0-10.9-5.9-21-15.5-26.3l-152.701-84.3v-43.8
			h-343.5v43.7l-152.7,84.3C126.45,297,120.55,307,120.55,318z M251.45,542c0-16.6,13.4-30,30-30h111.3V400.8
			c0-16.601,13.4-30,30-30h75.5c16.602,0,30,13.399,30,30V512.1H639.45c16.6,0,30,13.4,30,30v75.5c0,16.6-13.4,30-30,30H528.149
			v112.5c0,16.6-13.4,30-30,30h-75.5c-16.601,0-30-13.4-30-30V647.5h-111.2c-16.6,0-30-13.4-30-30V542z"/>
		<path d="M257.95,98.6c0,16.6,13.4,30,30,30h4.3h336.4h4.301c16.6,0,30-13.4,30-30V30c0-16.6-13.4-30-30-30h-345
			c-16.6,0-30,13.4-30,30V98.6z"/>
	</g>
</g>
<g>
</g>
<g>
</g>
<g>
</g>
<g>
</g>
<g>
</g>
<g>
</g>
<g>
</g>
<g>
</g>
<g>
</g>
<g>
</g>
<g>
</g>
<g>
</g>
<g>
</g>
<g>
</g>
<g>
</g>
</svg>
