<?xml version="1.0" encoding="UTF-8" standalone="no"?>
<!-- Generator: Adobe Illustrator 17.0.2, SVG Export Plug-In . SVG Version: 6.00 Build 0)  -->

<svg
   xmlns:dc="http://purl.org/dc/elements/1.1/"
   xmlns:cc="http://creativecommons.org/ns#"
   xmlns:rdf="http://www.w3.org/1999/02/22-rdf-syntax-ns#"
   xmlns:svg="http://www.w3.org/2000/svg"
   xmlns="http://www.w3.org/2000/svg"
   xmlns:sodipodi="http://sodipodi.sourceforge.net/DTD/sodipodi-0.dtd"
   xmlns:inkscape="http://www.inkscape.org/namespaces/inkscape"
   version="1.1"
   id="Layer_1"
   x="0px"
   y="0px"
   width="50.141506"
   height="50.144505"
   viewBox="0 0 50.141506 50.144505"
   enable-background="new 0 0 64 64"
   xml:space="preserve"
   inkscape:version="0.48.4 r9939"
   sodipodi:docname="drug-vial.svg"><metadata
   id="metadata3348"><rdf:RDF><cc:Work
       rdf:about=""><dc:format>image/svg+xml</dc:format><dc:type
         rdf:resource="http://purl.org/dc/dcmitype/StillImage" /></cc:Work></rdf:RDF></metadata><defs
   id="defs3346" /><sodipodi:namedview
   pagecolor="#ffffff"
   bordercolor="#666666"
   borderopacity="1"
   objecttolerance="10"
   gridtolerance="10"
   guidetolerance="10"
   inkscape:pageopacity="0"
   inkscape:pageshadow="2"
   inkscape:window-width="1920"
   inkscape:window-height="1137"
   id="namedview3344"
   showgrid="false"
   inkscape:zoom="59"
   inkscape:cx="24.823869"
   inkscape:cy="45.632289"
   inkscape:window-x="1676"
   inkscape:window-y="-4"
   inkscape:window-maximized="1"
   inkscape:current-layer="Layer_1"
   fit-margin-top="0"
   fit-margin-left="0"
   fit-margin-right="0"
   fit-margin-bottom="0" />
<path
   d="m 21.240754,1.3737534 -7.706,7.7059984 -4.3310004,-4.331 2.6720004,-2.6719984 c 0.475,-0.475 0.478,-1.24999995 0.006,-1.72199985 -0.475,-0.475 -1.25,-0.472 -1.725,0.003 L 0.35475355,10.15975 c -0.475,0.475 -0.472,1.244 0.003,1.719 0.472,0.472 1.24100005,0.475 1.71600005,0 l 2.672,-2.6719982 4.331,4.3309982 -7.701,7.701 c -0.46300005,0.463 -0.46600005,1.226 -0.003,1.689 0.466,0.466 1.226,0.46 1.689,-0.003 l 6.071,-6.071 23.3150004,23.315 2.069,-2.069 1.992,1.992 c 0,0 0.469,0.736 1.849,-0.015 l 9.71,9.71 c 0.475,0.475 1.244,0.478 1.719,0.003 0.475,-0.475 0.472,-1.244 -0.003,-1.719 l -9.71,-9.71 c 0.754,-1.377 0.015,-1.849 0.015,-1.849 l -1.992,-1.992 2.069,-2.069 -23.316,-23.3139982 6.077,-6.0769984 c 0.463,-0.463 0.463,-1.217 -0.003,-1.683 -0.463,-0.463 -1.22,-0.466 -1.683,-0.003 z m 0.837,25.2269966 -11.346,-11.346 4.515,-4.515 11.346,11.346 -4.515,4.515 z"
   id="path3342"
   inkscape:connector-curvature="0"
   style="fill:#040305" />
</svg>