<?xml version="1.0" encoding="UTF-8" standalone="no"?>
<!-- Generator: Adobe Illustrator 17.0.2, SVG Export Plug-In . SVG Version: 6.00 Build 0)  -->

<svg
   xmlns:dc="http://purl.org/dc/elements/1.1/"
   xmlns:cc="http://creativecommons.org/ns#"
   xmlns:rdf="http://www.w3.org/1999/02/22-rdf-syntax-ns#"
   xmlns:svg="http://www.w3.org/2000/svg"
   xmlns="http://www.w3.org/2000/svg"
   xmlns:sodipodi="http://sodipodi.sourceforge.net/DTD/sodipodi-0.dtd"
   xmlns:inkscape="http://www.inkscape.org/namespaces/inkscape"
   version="1.1"
   id="Layer_1"
   x="0px"
   y="0px"
   width="55.001999"
   height="55.952"
   viewBox="0 0 55.001999 55.952"
   enable-background="new 0 0 64 64"
   xml:space="preserve"
   inkscape:version="0.48.4 r9939"
   sodipodi:docname="haste.svg"><metadata
   id="metadata3390"><rdf:RDF><cc:Work
       rdf:about=""><dc:format>image/svg+xml</dc:format><dc:type
         rdf:resource="http://purl.org/dc/dcmitype/StillImage" /></cc:Work></rdf:RDF></metadata><defs
   id="defs3388" /><sodipodi:namedview
   pagecolor="#ffffff"
   bordercolor="#666666"
   borderopacity="1"
   objecttolerance="10"
   gridtolerance="10"
   guidetolerance="10"
   inkscape:pageopacity="0"
   inkscape:pageshadow="2"
   inkscape:window-width="1920"
   inkscape:window-height="1137"
   id="namedview3386"
   showgrid="false"
   inkscape:zoom="83.4386"
   inkscape:cx="25.823637"
   inkscape:cy="53.617824"
   inkscape:window-x="1676"
   inkscape:window-y="-4"
   inkscape:window-maximized="1"
   inkscape:current-layer="Layer_1"
   fit-margin-top="0"
   fit-margin-left="0"
   fit-margin-right="0"
   fit-margin-bottom="0" />
<g
   id="g3372"
   transform="translate(-4.499,-4.5)">
	<path
   d="m 16.052,44.853 -4.883,5.07 c 1.19,1.381 2.513,2.642 3.952,3.764 l 2.128,-2.21 6.782,6.841 c 0.981,0.297 1.985,0.538 3.009,0.725 l 2.921,-2.937 -3.897,-3.996 0,0 -0.174,0.175 -1.114,-1.124 c -3.443,-1.302 -6.45,-3.491 -8.724,-6.308 z"
   id="path3374"
   inkscape:connector-curvature="0" />
	<path
   d="m 32,13.5 c -1.933,0 -3.5,1.567 -3.5,3.5 v 17.146 l 14.269,7.264 c 0.509,0.259 1.051,0.382 1.585,0.382 1.274,0 2.504,-0.699 3.122,-1.913 0.877,-1.723 0.191,-3.83 -1.531,-4.707 L 35.5,29.854 V 17 c 0,-1.933 -1.567,-3.5 -3.5,-3.5 z"
   id="path3376"
   inkscape:connector-curvature="0" />
	<path
   d="M 32,4.5 C 16.836,4.5 4.499,16.836 4.499,32 c 0,3.144 0.537,6.163 1.513,8.979 l 5.745,-5.892 C 11.603,34.077 11.499,33.052 11.499,32 11.499,20.696 20.695,11.5 32,11.5 c 11.305,0 20.501,9.196 20.501,20.5 0,11.304 -9.196,20.5 -20.501,20.5 -1.022,0 -2.019,-0.1 -3.002,-0.245 l 2.394,2.455 1.375,1.41 -1.389,1.396 -1.856,1.866 C 30.339,59.457 31.164,59.5 32,59.5 47.164,59.5 59.501,47.163 59.501,32 59.501,16.837 47.164,4.5 32,4.5 z"
   id="path3378"
   inkscape:connector-curvature="0" />
	<path
   d="m 9.652,47.997 4.998,-5.126 c -1.048,-1.666 -1.859,-3.488 -2.395,-5.429 l -5.443,5.582 c 0.775,1.761 1.729,3.426 2.84,4.973 z"
   id="path3380"
   inkscape:connector-curvature="0" />
</g>
<polygon
   clip-rule="evenodd"
   points="19.616,34.748 19.616,34.748 17.248,32.32 4.537,45.357 8.604,49.702 17.248,40.727 25.892,49.447 26.078,49.26 26.078,49.26 28.59,46.735 28.59,46.735 29.96,45.357 25.081,40.353 25.081,40.353 "
   id="polygon3382"
   transform="translate(-4.499,-4.5)"
   style="fill-rule:evenodd" />
<polygon
   clip-rule="evenodd"
   points="17.248,43.07 4.537,56.107 8.604,60.452 17.248,51.477 25.892,60.197 29.96,56.107 26.064,52.111 26.064,52.111 "
   id="polygon3384"
   transform="translate(-4.499,-4.5)"
   style="fill-rule:evenodd" />
</svg>