<?xml version="1.0" encoding="iso-8859-1"?>
<!-- Generator: Adobe Illustrator 16.0.0, SVG Export Plug-In . SVG Version: 6.00 Build 0)  -->
<!DOCTYPE svg PUBLIC "-//W3C//DTD SVG 1.1//EN" "http://www.w3.org/Graphics/SVG/1.1/DTD/svg11.dtd">
<svg version="1.1" id="Capa_1" xmlns="http://www.w3.org/2000/svg" xmlns:xlink="http://www.w3.org/1999/xlink" x="0px" y="0px"
	 width="31.537px" height="31.537px" viewBox="0 0 31.537 31.537" style="enable-background:new 0 0 31.537 31.537;"
	 xml:space="preserve">
<g>
	<path d="M24.36,27.178h-0.093v-0.335c0-0.43-0.348-0.778-0.777-0.778h-0.363c-0.046-0.457-0.065-0.912,0.029-1.338
		c0.42-1.89,0.935-3.764,1.521-5.607c0.965-3.032,1.547-6.064,0.587-9.211c-1.072-3.518-3.198-6.014-6.813-7.097
		c-0.251-0.075-0.507-0.308-0.65-0.537C17.287,1.448,16.715,0.689,15.789,0c-0.043,0.409-0.091,0.67-0.093,0.932
		c-0.003,0.388,0.012,0.778,0.046,1.165c0.047,0.537-0.118,0.861-0.714,0.909c-0.333,0.026-0.658,0.151-0.97,0.227
		c0,1.208,0,1.208-1.095,1.653c-0.36,0.146-0.741,0.256-1.073,0.45c-0.268,0.156-0.501,0.391-0.708,0.628
		c-0.48,0.55-0.88,1.18-1.41,1.672c-1.06,0.984-2.168,1.918-3.291,2.831c-0.484,0.394-0.852,0.75-0.611,1.443
		c0.07,0.201-0.026,0.466-0.07,0.698c-0.135,0.714,0.478,1.944,1.137,2.263c1.561,0.756,2.79,0.548,4.026-0.704
		c0.583-0.59,1.222-0.823,2.047-0.538c1.134,0.392,2.293,0.683,3.648,0.365c-0.267,0.281-0.424,0.452-0.587,0.617
		c-1.549,1.575-3.045,3.194-4.179,5.105c-0.901,1.519-1.637,3.115-1.607,4.923c0.008,0.473,0.061,0.946,0.127,1.424h-0.155
		c-0.43,0-0.778,0.349-0.778,0.778v0.335H9.387c-0.486,0-0.881,0.395-0.881,0.881v3.48l16.735-0.003v-3.478
		C25.241,27.572,24.847,27.178,24.36,27.178z"/>
</g>
<g>
</g>
<g>
</g>
<g>
</g>
<g>
</g>
<g>
</g>
<g>
</g>
<g>
</g>
<g>
</g>
<g>
</g>
<g>
</g>
<g>
</g>
<g>
</g>
<g>
</g>
<g>
</g>
<g>
</g>
</svg>
