<?xml version="1.0" encoding="iso-8859-1"?>
<!-- Generator: Adobe Illustrator 16.0.0, SVG Export Plug-In . SVG Version: 6.00 Build 0)  -->
<!DOCTYPE svg PUBLIC "-//W3C//DTD SVG 1.1//EN" "http://www.w3.org/Graphics/SVG/1.1/DTD/svg11.dtd">
<svg version="1.1" id="Capa_1" xmlns="http://www.w3.org/2000/svg" xmlns:xlink="http://www.w3.org/1999/xlink" x="0px" y="0px"
	 width="468.739px" height="468.739px" viewBox="0 0 468.739 468.739" style="enable-background:new 0 0 468.739 468.739;"
	 xml:space="preserve">
<g>
	<g>
		<path d="M115.141,111.422c-80.048,54.417-77.121,63.977-96.819,95.141C6.995,224.472,4.687,239.474,4.765,249.028
			c1.164-0.057,2.426-0.093,3.795-0.093c10.085,0,17.717,1.792,22.742,5.318c2.306-0.445,7.011-2.136,11.231-3.663
			c11.213-4.031,27.879-9.926,49.917-13.08c49.103-22.614,130.055-25.251,141.939-25.52c11.886,0.269,92.844,2.906,141.955,25.527
			c22.024,3.154,38.691,9.049,49.9,13.08c4.224,1.52,8.929,3.21,11.229,3.655c5.021-3.526,12.668-5.318,22.746-5.318
			c1.375,0,2.638,0.028,3.796,0.093c0.076-9.546-2.229-24.542-13.554-42.465c-19.7-31.164-16.774-40.718-96.827-95.141
			c-78.963-53.679-82.204-8.77-119.237-7.536C197.352,102.652,194.109,57.743,115.141,111.422z M289.727,98.268
			c30.789,8.448,55.182,27.575,81.354,44.947c8.403,5.566,0.553,19.174-7.911,13.562c-24.97-16.567-48.221-35.295-77.615-43.369
			C275.805,110.725,279.945,95.577,289.727,98.268z M215.966,132.229c-14.315-6.432-28.022-15.056-44.122-15.601
			c-10.095-0.345-10.127-16.046,0-15.701c19.155,0.651,35.005,10.089,52.048,17.755C233.112,122.83,225.119,136.355,215.966,132.229
			z"/>
		<path d="M460.207,256.778c-6.448,0-14.884,0.821-19.144,4.612c-0.629,0.562-1.526,0.814-2.685,0.814
			c-6.195,0-20.054-7.258-42.034-12.816c-13.593-3.435-30.26-6.211-50.209-6.22c-12.956,0-27.267,1.167-43,4.096
			c-50.253,9.354-66.793,9.935-68.755,9.975c-1.964-0.04-18.502-0.621-68.751-9.975c-15.725-2.929-30.054-4.096-43.006-4.096
			c-19.939,0-36.614,2.777-50.203,6.212c-21.979,5.559-35.836,12.815-42.046,12.815c-1.154,0-2.04-0.252-2.677-0.81
			c-4.27-3.795-12.702-4.616-19.146-4.616c-1.124,0-2.17,0.032-3.144,0.06C2.208,256.962,0,257.231,0,257.231
			c33.035,119.81,194.124,126.386,229.128,126.386c2.334,0,4.098-0.031,5.236-0.052c1.138,0.021,2.913,0.052,5.238,0.052
			c34.992,0,196.096-6.576,229.137-126.386c0,0-2.208-0.269-5.414-0.401C462.375,256.806,461.333,256.778,460.207,256.778z
			 M392.778,291.975c-14.855-6.596-30.364-9.269-46.566-8.472c-12.655,0.621-12.596-19.007,0-19.628
			c19.829-0.974,38.396,3.138,56.465,11.156C414.229,280.154,404.231,297.056,392.778,291.975z"/>
	</g>
</g>
<g>
</g>
<g>
</g>
<g>
</g>
<g>
</g>
<g>
</g>
<g>
</g>
<g>
</g>
<g>
</g>
<g>
</g>
<g>
</g>
<g>
</g>
<g>
</g>
<g>
</g>
<g>
</g>
<g>
</g>
</svg>
