<?xml version="1.0" encoding="iso-8859-1"?>
<!-- Generator: Adobe Illustrator 16.0.0, SVG Export Plug-In . SVG Version: 6.00 Build 0)  -->
<!DOCTYPE svg PUBLIC "-//W3C//DTD SVG 1.1//EN" "http://www.w3.org/Graphics/SVG/1.1/DTD/svg11.dtd">
<svg version="1.1" id="Capa_1" xmlns="http://www.w3.org/2000/svg" xmlns:xlink="http://www.w3.org/1999/xlink" x="0px" y="0px"
	 width="31.943px" height="31.943px" viewBox="0 0 31.943 31.943" style="enable-background:new 0 0 31.943 31.943;"
	 xml:space="preserve">
<g>
	<g>
		<path d="M24.276,3.458c-4.135-0.061-6.323,1.884-8.4,1.884s-2.786-1.763-5.34-1.581C8.417,3.913,5.528,6.278,4.1,7.514
			c0.223,0.113,0.438,0.222,0.681,0.348c0.161,0.083,0.33,0.171,0.498,0.258c4.109,0.226,6.603,1.712,10.597,1.766
			c4.499,0.061,9.312-1.083,11.196-0.693c1.946,0.404,4.526,1.953,4.864,3.565C32.119,11.118,28.41,3.519,24.276,3.458z"/>
		<path d="M5.773,18.123c10.305,1.912,20.245-4.714,19.638-5.565s-7.234-0.122-13.497-1.095C5.651,10.491,2.063,6.417,0.544,7.755
			C-0.977,9.092,0.667,17.176,5.773,18.123z"/>
		<path d="M25.188,17.744c-2.698,1.237-3.737,0.767-9.073,0.778c-2.046,0.53-4.257,0.877-6.512,0.877
			c-1.365,0-2.712-0.122-4.001-0.36c-2.133-0.396-3.726-1.856-4.801-3.592c0.437,3.958,2.49,12.259,12.043,12.998
			C25.43,29.419,31.936,12.76,31.936,12.76S28.106,16.408,25.188,17.744z"/>
	</g>
</g>
<g>
</g>
<g>
</g>
<g>
</g>
<g>
</g>
<g>
</g>
<g>
</g>
<g>
</g>
<g>
</g>
<g>
</g>
<g>
</g>
<g>
</g>
<g>
</g>
<g>
</g>
<g>
</g>
<g>
</g>
</svg>
