<?xml version="1.0" encoding="iso-8859-1"?>
<!-- Generator: Adobe Illustrator 18.0.0, SVG Export Plug-In . SVG Version: 6.00 Build 0)  -->
<!DOCTYPE svg PUBLIC "-//W3C//DTD SVG 1.1//EN" "http://www.w3.org/Graphics/SVG/1.1/DTD/svg11.dtd">
<svg version="1.1" id="Capa_1" xmlns="http://www.w3.org/2000/svg" xmlns:xlink="http://www.w3.org/1999/xlink" x="0px" y="0px"
	 viewBox="0 0 488.103 488.103" style="enable-background:new 0 0 488.103 488.103;" xml:space="preserve">
<path id="XMLID_66_" d="M486.014,228.196c-30.026-45.802-84.923-92.96-139.443-116.216c-18.555-7.928-40.071-4.446-55.183,8.923
	c-15.377,13.605-35.5,29.105-47.335,29.105c-11.829,0-31.958-15.5-47.336-29.105c-15.124-13.386-36.602-16.851-55.176-8.923
	C87.002,135.251,32.093,182.411,2.099,228.196c-3.103,4.73-2.738,10.898,0.916,15.234
	c24.631,29.285,123.192,136.893,241.038,136.893c117.847,0,216.407-107.608,241.043-136.893
	C488.732,239.114,489.11,232.926,486.014,228.196z M333.739,305.244c-0.675,0.362-1.406,0.536-2.13,0.536
	c-1.14,0-2.28-0.444-3.165-1.285c-1.413-1.359-1.771-3.477-0.917-5.25c10.863-22.1,11.892-48.171,2.354-71.429
	c21.057,3.718,37.984,7.864,48.934,10.933c-2.718,22.859-14.239,44.629-34.107,59.517
	C341.158,300.906,337.504,303.217,333.739,305.244z M143.406,298.266c-19.87-14.888-31.39-36.657-34.096-59.533
	c10.98-3.067,27.988-7.277,48.953-10.963c-9.575,23.271-8.559,49.359,2.31,71.49c0.867,1.759,0.489,3.893-0.923,5.254
	c-0.867,0.839-2.006,1.267-3.147,1.267c-0.724,0-1.455-0.174-2.136-0.536C150.589,303.233,146.935,300.906,143.406,298.266z
	 M184.063,262.004c-0.284-11.975,3.352-23.922,10.852-33.934l4.465-5.964c14.109-1.346,29.109-2.185,44.673-2.185
	c15.582,0,30.601,0.839,44.71,2.185l4.429,5.9c7.5,10.029,11.141,21.989,10.857,34.012c-18.388,2.312-38.591,3.94-59.995,3.94
	C222.636,265.959,202.446,264.33,184.063,262.004z"/>
<g>
</g>
<g>
</g>
<g>
</g>
<g>
</g>
<g>
</g>
<g>
</g>
<g>
</g>
<g>
</g>
<g>
</g>
<g>
</g>
<g>
</g>
<g>
</g>
<g>
</g>
<g>
</g>
<g>
</g>
</svg>
