<?xml version="1.0" encoding="iso-8859-1"?>
<!-- Generator: Adobe Illustrator 18.0.0, SVG Export Plug-In . SVG Version: 6.00 Build 0)  -->
<!DOCTYPE svg PUBLIC "-//W3C//DTD SVG 1.1//EN" "http://www.w3.org/Graphics/SVG/1.1/DTD/svg11.dtd">
<svg version="1.1" id="Capa_1" xmlns="http://www.w3.org/2000/svg" xmlns:xlink="http://www.w3.org/1999/xlink" x="0px" y="0px"
	 viewBox="0 0 493.001 493.001" style="enable-background:new 0 0 493.001 493.001;" xml:space="preserve">
<g id="XMLID_199_">
	<path id="XMLID_201_" d="M198.214,201.297l46.951-28.509l29.646,19.644c21.283,13.39,44.48,22.668,69.102,27.782
		c79.15,16.455,148.715,44.946,148.715,44.946S407.267,128.345,368.649,89.702c-38.699-38.687-114.522,22.479-123.484,22.435
		c-8.876-0.033-80.537-60.299-119.48-21.355C86.831,129.683,0.377,266.652,0.377,266.652s70.945-29.459,150.647-46.304
		C167.683,216.829,183.802,210.354,198.214,201.297z"/>
	<path id="XMLID_200_" d="M404.097,243.728c-54.088-12.069-112.025-1.4-158.932,28.095
		c-46.857-29.453-104.951-38.322-158.951-26.346C37.351,256.321,0,266.96,0,266.96s95.873,126.511,146.333,141.006
		c37.809,10.879,162.557,10.879,200.334,0c50.475-14.495,146.334-141.006,146.334-141.006S455.192,255.138,404.097,243.728z"/>
</g>
<g>
</g>
<g>
</g>
<g>
</g>
<g>
</g>
<g>
</g>
<g>
</g>
<g>
</g>
<g>
</g>
<g>
</g>
<g>
</g>
<g>
</g>
<g>
</g>
<g>
</g>
<g>
</g>
<g>
</g>
</svg>
