<?xml version="1.0" encoding="iso-8859-1"?>
<!-- Generator: Adobe Illustrator 16.0.0, SVG Export Plug-In . SVG Version: 6.00 Build 0)  -->
<!DOCTYPE svg PUBLIC "-//W3C//DTD SVG 1.1//EN" "http://www.w3.org/Graphics/SVG/1.1/DTD/svg11.dtd">
<svg version="1.1" id="Capa_1" xmlns="http://www.w3.org/2000/svg" xmlns:xlink="http://www.w3.org/1999/xlink" x="0px" y="0px"
	 width="265.573px" height="265.573px" viewBox="0 0 265.573 265.573" style="enable-background:new 0 0 265.573 265.573;"
	 xml:space="preserve">
<g>
	<g>
		<path d="M248.766,149.047c10.568-15.287,16.808-33.804,16.808-53.754c0-52.266-42.52-94.78-94.779-94.78
			c-19.954,0-38.476,6.227-53.761,16.799l-0.811-0.808c-5.173-5.17-13.541-5.17-18.705,0c-5.167,5.167-5.167,13.528,0,18.698
			l0.018,0.021c-13.454,16.36-21.527,37.281-21.527,60.069c0,21.101,7.011,40.55,18.723,56.325L3.875,242.477
			c-5.167,5.17-5.167,13.534,0,18.698c2.588,2.588,5.969,3.886,9.353,3.886c3.387,0,6.776-1.298,9.353-3.886l90.721-90.708
			c15.97,12.243,35.857,19.605,57.505,19.605c22.836,0,43.816-8.125,60.204-21.629c2.479,2.161,5.506,3.387,8.604,3.387
			c3.387,0,6.773-1.298,9.355-3.88c5.164-5.17,5.164-13.534,0-18.698L248.766,149.047z"/>
	</g>
</g>
<g>
</g>
<g>
</g>
<g>
</g>
<g>
</g>
<g>
</g>
<g>
</g>
<g>
</g>
<g>
</g>
<g>
</g>
<g>
</g>
<g>
</g>
<g>
</g>
<g>
</g>
<g>
</g>
<g>
</g>
</svg>
