<?xml version="1.0" encoding="UTF-8" standalone="no"?>
<!-- Generator: Adobe Illustrator 17.0.2, SVG Export Plug-In . SVG Version: 6.00 Build 0)  -->

<svg
   xmlns:dc="http://purl.org/dc/elements/1.1/"
   xmlns:cc="http://creativecommons.org/ns#"
   xmlns:rdf="http://www.w3.org/1999/02/22-rdf-syntax-ns#"
   xmlns:svg="http://www.w3.org/2000/svg"
   xmlns="http://www.w3.org/2000/svg"
   xmlns:sodipodi="http://sodipodi.sourceforge.net/DTD/sodipodi-0.dtd"
   xmlns:inkscape="http://www.inkscape.org/namespaces/inkscape"
   version="1.1"
   id="Layer_1"
   x="0px"
   y="0px"
   width="55.915138"
   height="53.219002"
   viewBox="0 0 55.915138 53.219002"
   enable-background="new 0 0 64 64"
   xml:space="preserve"
   inkscape:version="0.48.4 r9939"
   sodipodi:docname="lust-up.svg"><metadata
   id="metadata3458"><rdf:RDF><cc:Work
       rdf:about=""><dc:format>image/svg+xml</dc:format><dc:type
         rdf:resource="http://purl.org/dc/dcmitype/StillImage" /></cc:Work></rdf:RDF></metadata><defs
   id="defs3456" /><sodipodi:namedview
   pagecolor="#ffffff"
   bordercolor="#666666"
   borderopacity="1"
   objecttolerance="10"
   gridtolerance="10"
   guidetolerance="10"
   inkscape:pageopacity="0"
   inkscape:pageshadow="2"
   inkscape:window-width="640"
   inkscape:window-height="480"
   id="namedview3454"
   showgrid="false"
   inkscape:zoom="41.7193"
   inkscape:cx="41.195963"
   inkscape:cy="51.189771"
   inkscape:window-x="1954"
   inkscape:window-y="399"
   inkscape:window-maximized="0"
   inkscape:current-layer="Layer_1"
   fit-margin-top="0"
   fit-margin-left="0"
   fit-margin-right="0"
   fit-margin-bottom="0" />
<g
   id="g3444"
   transform="translate(-4.0429378,-7.234)">
	<path
   d="m 15.741,42.292 1.507,-1.565 8.644,8.719 0.185,-0.186 2.012,-2.023 c -0.364,-0.344 -0.73,-0.689 -1.114,-1.051 L 26.901,46.116 26.704,45.93 C 23.212,42.644 18.769,38.462 15.237,34.381 l -3.509,3.599 c 1.264,1.449 2.616,2.892 4.013,4.312 z"
   id="path3446"
   inkscape:connector-curvature="0"
   style="fill:#010101" />
	<path
   d="M 57.327,12.834 C 54.933,9.688 51.165,7.88 45.802,7.305 45.368,7.261 44.91,7.234 44.438,7.234 c -4.754,0 -9.49,2.231 -12.439,5.774 -2.95,-3.543 -7.685,-5.774 -12.437,-5.774 -0.471,0 -0.927,0.027 -1.37,0.071 -5.352,0.575 -9.119,2.384 -11.515,5.528 -2.376,3.118 -3.15,7.344 -2.3,12.561 0.566,3.451 2.921,7.246 6.053,11.055 l 3.518,-3.608 C 11.89,30.3 10.279,27.847 9.595,25.734 12.449,24.306 13.942,21.5 20.167,21.5 c 7.875,0 13.374,8.885 20.347,8.885 5.923,0 9.333,-5.677 13.961,-4.94 -1.678,5.891 -10.832,14.586 -16.996,20.433 -1.857,1.756 -3.942,3.727 -5.395,5.255 -0.716,-0.748 -1.583,-1.596 -2.544,-2.517 l -2.044,2.055 -0.021,0.022 0.021,0.022 3.897,3.996 1.375,1.41 -0.64,0.644 c 1.65,-0.01 3.113,-1.669 3.245,-1.829 1.312,-1.422 3.44,-3.437 5.542,-5.424 7.787,-7.387 17.478,-16.58 18.707,-24.12 0.852,-5.214 0.083,-9.438 -2.295,-12.558 z"
   id="path3448"
   inkscape:connector-curvature="0"
   style="fill:#010101" />
	<path
   d="m 17.248,43.07 -0.362,0.371 c 2.143,2.131 4.341,4.202 6.408,6.147 l 0.18,0.17 c 2.193,2.066 4.087,3.849 5.321,5.176 0.051,0.058 0.241,0.26 0.511,0.503 L 26.063,52.111 17.248,43.07 z"
   id="path3450"
   inkscape:connector-curvature="0"
   style="fill:#010101" />
</g>
<path
   clip-rule="evenodd"
   d="m 15.573062,27.514 5.466,5.605 0,0 4.879,5.004 -1.37,1.378 0,0 -2.512,2.526 0,0 -0.185,0.186 -8.644,-8.719 -8.6439998,8.975 -4.06799994,-4.346 12.70999974,-13.037 2.368,2.428 0,0 z m 6.448,17.363 -8.815,-9.04 -12.71199974,13.036 4.06799994,4.346 8.6439998,-8.975 8.644,8.719 4.068,-4.09 -3.897,-3.996 0,0 z"
   id="path3452"
   inkscape:connector-curvature="0"
   style="fill-rule:evenodd" />
</svg>