<?xml version="1.0" encoding="iso-8859-1"?>
<!-- Generator: Adobe Illustrator 16.0.0, SVG Export Plug-In . SVG Version: 6.00 Build 0)  -->
<!DOCTYPE svg PUBLIC "-//W3C//DTD SVG 1.1//EN" "http://www.w3.org/Graphics/SVG/1.1/DTD/svg11.dtd">
<svg version="1.1" id="Capa_1" xmlns="http://www.w3.org/2000/svg" xmlns:xlink="http://www.w3.org/1999/xlink" x="0px" y="0px"
	 width="410.231px" height="410.231px" viewBox="0 0 410.231 410.231" style="enable-background:new 0 0 410.231 410.231;"
	 xml:space="preserve">
<g>
	<g>
		<path d="M312.603,114.047c0.016,0.004,0.031,0.008,0.049,0.013l-49.536-45.299V36.255c0-7.033-4.886-13.121-11.751-14.644
			L151.03,0.355c-4.443-0.984-9.089,0.098-12.637,2.945c-3.548,2.847-5.612,7.15-5.612,11.699v31.757L93.454,133.47
			c-0.112,0.247-1.339,2.619-1.339,6.196v226c0,6.585,4.295,12.4,10.589,14.337l98.246,30.229v-85.272
			c0-5.685,4.609-10.294,10.294-10.294c5.687,0,10.295,4.609,10.295,10.294v84.265l88.285-44.143
			c5.082-2.541,8.292-7.734,8.292-13.417v-226C318.115,121.128,316.064,116.874,312.603,114.047z M202.137,153.208l-74.322-22.867
			l28.448-62.725l71.788,20.154L202.137,153.208z M238.982,140.961l15.244-39.676l22.662,20.723L238.982,140.961z"/>
	</g>
</g>
<g>
</g>
<g>
</g>
<g>
</g>
<g>
</g>
<g>
</g>
<g>
</g>
<g>
</g>
<g>
</g>
<g>
</g>
<g>
</g>
<g>
</g>
<g>
</g>
<g>
</g>
<g>
</g>
<g>
</g>
</svg>
