<?xml version="1.0" encoding="UTF-8" standalone="no"?>
<!-- Generator: Adobe Illustrator 17.0.2, SVG Export Plug-In . SVG Version: 6.00 Build 0)  -->

<svg
   xmlns:dc="http://purl.org/dc/elements/1.1/"
   xmlns:cc="http://creativecommons.org/ns#"
   xmlns:rdf="http://www.w3.org/1999/02/22-rdf-syntax-ns#"
   xmlns:svg="http://www.w3.org/2000/svg"
   xmlns="http://www.w3.org/2000/svg"
   xmlns:sodipodi="http://sodipodi.sourceforge.net/DTD/sodipodi-0.dtd"
   xmlns:inkscape="http://www.inkscape.org/namespaces/inkscape"
   version="1.1"
   id="Layer_1"
   x="0px"
   y="0px"
   width="44.007042"
   height="55.786728"
   viewBox="0 0 44.007042 55.786728"
   enable-background="new 0 0 64 64"
   xml:space="preserve"
   inkscape:version="0.48.4 r9939"
   sodipodi:docname="mindcontrolled_mindbroke.svg"><metadata
   id="metadata3504"><rdf:RDF><cc:Work
       rdf:about=""><dc:format>image/svg+xml</dc:format><dc:type
         rdf:resource="http://purl.org/dc/dcmitype/StillImage" /></cc:Work></rdf:RDF></metadata><defs
   id="defs3502" /><sodipodi:namedview
   pagecolor="#ffffff"
   bordercolor="#666666"
   borderopacity="1"
   objecttolerance="10"
   gridtolerance="10"
   guidetolerance="10"
   inkscape:pageopacity="0"
   inkscape:pageshadow="2"
   inkscape:window-width="640"
   inkscape:window-height="480"
   id="namedview3500"
   showgrid="false"
   inkscape:zoom="29.5"
   inkscape:cx="24.345609"
   inkscape:cy="54.144835"
   inkscape:window-x="2399"
   inkscape:window-y="469"
   inkscape:window-maximized="0"
   inkscape:current-layer="Layer_1"
   fit-margin-top="0"
   fit-margin-left="0"
   fit-margin-right="0"
   fit-margin-bottom="0" />
<g
   id="g3494"
   transform="translate(-9.9964881,-4.1072713)">
	<path
   d="M 48.756,10.906 C 45.634,7.42 41.502,4.183 31.296,4.108 27.308,4.077 21.223,5.019 16.488,10.028 c -2.865,3.026 -4.98,6.845 -4.374,13.091 0.131,1.355 2.065,2.922 0.704,5.541 0,0 -2.919,5.137 -2.819,5.995 0,0 -0.052,1.563 2.367,1.613 0,0 0.604,0.077 0.431,1.409 l -0.027,1.942 c 0,0 0.075,0.581 1.134,0.931 0,0 0.2,0.2 -0.1,0.583 0,0 -0.559,0.621 0.4,1.963 0.356,0.492 0.931,1.109 0.579,2.367 0,0 -0.452,2.444 0.504,3.022 0,0 1.088,1.292 5.466,0.754 1.529,-0.188 4.359,-0.929 6.045,1.186 0,0 4.028,7.654 4.334,9.469 0,0 6.879,-12.24 15.266,-14.13 0,0 -2.042,-4.609 2.117,-10.58 0,0 5.21,-6.875 5.366,-10.655 10e-4,-0.003 1.378,-6.369 -5.125,-13.623 z m -6.81,22.814 c -3.543,0.119 -3.72,-2.246 -5.383,-4.086 -0.244,0.017 -0.479,0.04 -0.729,0.048 -4.159,0.119 -3.393,-4.297 -5.014,-5.501 -3.886,-2.888 -9.363,-0.379 -12.222,-3.299 -0.923,-0.942 -1.713,-1.838 -1.834,-3.057 -0.292,-2.953 0.392,-4.234 1.855,-5.781 3.911,-4.134 8.948,-5.003 12.49,-5.003 9.531,0.069 12.855,2.915 15.462,5.822 4.295,4.795 4.561,8.927 4.495,10.417 0.008,0.181 0.046,0.352 0.046,0.536 10e-4,5.467 -4.105,9.731 -9.166,9.904 z"
   id="path3496"
   inkscape:connector-curvature="0"
   style="fill:#010101" />
</g>
<path
   d="m 32.323512,13.082729 h -0.789 -2.792 -5.098 v -2.337 c 0,-0.566 0.197,-1.0520003 0.592,-1.4570003 0.395,-0.405 0.885,-0.607 1.472,-0.607 0.587,0 1.077,0.202 1.472,0.607 0.394,0.405 0.592,0.8900003 0.592,1.4570003 0,0.283 0.142,0.425 0.425,0.425 h 2.124 0.03 c 0.263,0 0.394,-0.142 0.394,-0.425 v -0.091 c -0.02,-0.6880003 -0.162,-1.3300003 -0.425,-1.9270003 -0.263,-0.597 -0.622,-1.118 -1.077,-1.563 -0.455,-0.445 -0.986,-0.799 -1.593,-1.062 -0.607,-0.263 -1.254,-0.394 -1.942,-0.394 -0.688,0 -1.34,0.131 -1.957,0.394 -0.617,0.263 -1.153,0.622 -1.608,1.077 -0.455,0.455 -0.814,0.991 -1.077,1.608 -0.263,0.617 -0.394,1.2690003 -0.394,1.9570003 v 2.337 h -1.183 -0.789 c -0.162,0 -0.298,0.051 -0.41,0.152 -0.111,0.101 -0.167,0.233 -0.167,0.394 v 8.193 c 0,0.162 0.056,0.298 0.167,0.41 0.111,0.111 0.248,0.167 0.41,0.167 h 13.623 c 0.162,0 0.293,-0.056 0.394,-0.167 0.101,-0.111 0.152,-0.248 0.152,-0.41 v -8.193 c 0,-0.162 -0.051,-0.293 -0.152,-0.394 -0.101,-0.101 -0.232,-0.151 -0.394,-0.151 z"
   id="path3498"
   inkscape:connector-curvature="0"
   style="fill:#010101" />
</svg>