<?xml version="1.0" encoding="utf-8"?>
<!DOCTYPE svg PUBLIC "-//W3C//DTD SVG 1.1//EN" "http://www.w3.org/Graphics/SVG/1.1/DTD/svg11.dtd">
<svg version="1.1" id="Capa_1" xmlns="http://www.w3.org/2000/svg" xmlns:xlink="http://www.w3.org/1999/xlink" x="0px" y="0px">
<g>
	<path d="M116.639,99.07H97.086c-0.868,0-1.629,0.328-2.281,0.979c-0.652,0.652-0.978,1.412-0.978,2.281v19.554
		c0,0.869,0.327,1.63,0.978,2.281c0.652,0.651,1.412,0.978,2.281,0.978h19.553c0.869,0,1.631-0.326,2.281-0.978
		c0.653-0.651,0.979-1.412,0.979-2.281V102.33c0-0.869-0.325-1.629-0.979-2.281C118.27,99.396,117.508,99.07,116.639,99.07z"/>
	<path d="M142.305,40.535c-2.227-4.103-5.105-7.564-8.636-10.389c-3.53-2.824-7.497-5.079-11.896-6.762
		c-4.399-1.683-8.771-2.525-13.117-2.525c-16.511,0-29.112,7.224-37.803,21.672c-0.434,0.706-0.584,1.466-0.448,2.281
		c0.136,0.814,0.557,1.493,1.263,2.036L85.03,57.033c0.706,0.434,1.385,0.651,2.037,0.651c0.978,0,1.819-0.435,2.526-1.304
		c3.91-4.888,6.816-8.011,8.717-9.369c2.336-1.575,5.268-2.362,8.799-2.362c3.313,0,6.232,0.869,8.758,2.606
		c2.525,1.738,3.787,3.748,3.787,6.029c0,2.552-0.678,4.617-2.036,6.192c-1.358,1.575-3.64,3.095-6.845,4.562
		c-4.235,1.901-8.12,4.848-11.649,8.84c-3.531,3.992-5.296,8.242-5.296,12.75v3.667c0,1.032,0.284,2.05,0.855,3.055
		c0.571,1.006,1.263,1.508,2.078,1.508h19.553c0.869,0,1.629-0.42,2.281-1.264c0.651-0.841,0.978-1.723,0.978-2.646
		c0-1.357,0.747-3.178,2.239-5.459c1.494-2.281,3.354-4.047,5.582-5.297c2.117-1.194,3.773-2.158,4.969-2.892
		c1.197-0.732,2.758-1.915,4.687-3.544c1.927-1.63,3.421-3.246,4.479-4.848c1.06-1.602,2.011-3.68,2.853-6.233
		c0.843-2.553,1.263-5.296,1.263-8.229C145.645,48.938,144.531,44.634,142.305,40.535z"/>
</g>
</svg>
