<?xml version="1.0" encoding="UTF-8" standalone="no"?>
<!-- Generator: Adobe Illustrator 17.0.2, SVG Export Plug-In . SVG Version: 6.00 Build 0)  -->

<svg
   xmlns:dc="http://purl.org/dc/elements/1.1/"
   xmlns:cc="http://creativecommons.org/ns#"
   xmlns:rdf="http://www.w3.org/1999/02/22-rdf-syntax-ns#"
   xmlns:svg="http://www.w3.org/2000/svg"
   xmlns="http://www.w3.org/2000/svg"
   xmlns:sodipodi="http://sodipodi.sourceforge.net/DTD/sodipodi-0.dtd"
   xmlns:inkscape="http://www.inkscape.org/namespaces/inkscape"
   version="1.1"
   id="Layer_1"
   x="0px"
   y="0px"
   width="55.774017"
   height="56.905998"
   viewBox="0 0 55.774017 56.905998"
   enable-background="new 0 0 64 64"
   xml:space="preserve"
   inkscape:version="0.48.4 r9939"
   sodipodi:docname="off-up.svg"><metadata
   id="metadata3606"><rdf:RDF><cc:Work
       rdf:about=""><dc:format>image/svg+xml</dc:format><dc:type
         rdf:resource="http://purl.org/dc/dcmitype/StillImage" /></cc:Work></rdf:RDF></metadata><defs
   id="defs3604" /><sodipodi:namedview
   pagecolor="#ffffff"
   bordercolor="#666666"
   borderopacity="1"
   objecttolerance="10"
   gridtolerance="10"
   guidetolerance="10"
   inkscape:pageopacity="0"
   inkscape:pageshadow="2"
   inkscape:window-width="640"
   inkscape:window-height="480"
   id="namedview3602"
   showgrid="false"
   inkscape:zoom="83.4386"
   inkscape:cx="2.5857864"
   inkscape:cy="56.929261"
   inkscape:window-x="2303"
   inkscape:window-y="427"
   inkscape:window-maximized="0"
   inkscape:current-layer="Layer_1"
   fit-margin-top="0"
   fit-margin-left="0"
   fit-margin-right="0"
   fit-margin-bottom="0" />
<g
   id="g3590"
   transform="translate(-4.113,-3.547)">
	<path
   d="m 52.986,28.651 0.143,0.428 C 53.107,28.93 53.058,28.787 52.986,28.651 z"
   id="path3592"
   inkscape:connector-curvature="0"
   style="fill:#ed1c24" />
	<path
   d="m 50.616,28.613 0.064,-0.106 c -0.024,0.034 -0.043,0.07 -0.064,0.106 z"
   id="path3594"
   inkscape:connector-curvature="0"
   style="fill:#ed1c24" />
	<path
   d="M 29.615,52.554 29.282,52.443 C 29.144,52.378 29.014,52.294 28.9,52.18 c -0.53,-0.53 -0.53,-1.389 0,-1.919 0.061,-0.061 0.126,-0.112 0.194,-0.159 l 0.073,-0.044 7.286,-4.372 -31.36,-27.439 -0.98,-14.7 14.7,0.98 27.439,31.359 4.364,-7.274 0.064,-0.106 c 0.045,-0.065 0.094,-0.128 0.152,-0.186 0.53,-0.53 1.389,-0.53 1.919,0 0.099,0.099 0.173,0.212 0.235,0.33 l 0.143,0.428 c 0,0 2.013,6.814 -3.61,15.301 l 7.84,7.84 c 0,0 4.355,3.484 1.633,6.207 -2.722,2.722 -6.207,-1.633 -6.207,-1.633 l -7.84,-7.84 c -8.711,5.446 -15.33,3.601 -15.33,3.601 z"
   id="path3596"
   inkscape:connector-curvature="0" />
</g>
<path
   clip-rule="evenodd"
   d="M 21.779,56.65 25.847,52.56 13.135,39.523 0.424,52.56 l 4.068,4.346 8.644,-8.975 8.643,8.719 z"
   id="path3598"
   inkscape:connector-curvature="0"
   style="fill-rule:evenodd" />
<path
   clip-rule="evenodd"
   d="M 21.779,45.9 25.847,41.81 13.135,28.773 0.424,41.81 l 4.068,4.346 8.644,-8.975 8.643,8.719 z"
   id="path3600"
   inkscape:connector-curvature="0"
   style="fill-rule:evenodd" />
</svg>