<?xml version="1.0" encoding="UTF-8" standalone="no"?>
<!-- Generator: Adobe Illustrator 17.0.2, SVG Export Plug-In . SVG Version: 6.00 Build 0)  -->

<svg
   xmlns:dc="http://purl.org/dc/elements/1.1/"
   xmlns:cc="http://creativecommons.org/ns#"
   xmlns:rdf="http://www.w3.org/1999/02/22-rdf-syntax-ns#"
   xmlns:svg="http://www.w3.org/2000/svg"
   xmlns="http://www.w3.org/2000/svg"
   xmlns:sodipodi="http://sodipodi.sourceforge.net/DTD/sodipodi-0.dtd"
   xmlns:inkscape="http://www.inkscape.org/namespaces/inkscape"
   version="1.1"
   id="Layer_1"
   x="0px"
   y="0px"
   width="55.773872"
   height="56.903999"
   viewBox="0 0 55.773872 56.903999"
   enable-background="new 0 0 64 64"
   xml:space="preserve"
   inkscape:version="0.48.4 r9939"
   sodipodi:docname="off-down.svg"><metadata
   id="metadata3568"><rdf:RDF><cc:Work
       rdf:about=""><dc:format>image/svg+xml</dc:format><dc:type
         rdf:resource="http://purl.org/dc/dcmitype/StillImage" /></cc:Work></rdf:RDF></metadata><defs
   id="defs3566" /><sodipodi:namedview
   pagecolor="#ffffff"
   bordercolor="#666666"
   borderopacity="1"
   objecttolerance="10"
   gridtolerance="10"
   guidetolerance="10"
   inkscape:pageopacity="0"
   inkscape:pageshadow="2"
   inkscape:window-width="640"
   inkscape:window-height="480"
   id="namedview3564"
   showgrid="false"
   inkscape:zoom="166.8772"
   inkscape:cx="1.4666434"
   inkscape:cy="56.747419"
   inkscape:window-x="0"
   inkscape:window-y="0"
   inkscape:window-maximized="0"
   inkscape:current-layer="Layer_1"
   fit-margin-top="0"
   fit-margin-left="0"
   fit-margin-right="0"
   fit-margin-bottom="0" />
<g
   id="g3552"
   transform="translate(-4.113,-3.548)">
	<path
   d="m 52.986,28.651 0.143,0.428 C 53.107,28.93 53.058,28.787 52.986,28.651 z"
   id="path3554"
   inkscape:connector-curvature="0"
   style="fill:#ed1c24" />
	<path
   d="m 50.616,28.613 0.064,-0.106 c -0.024,0.034 -0.043,0.07 -0.064,0.106 z"
   id="path3556"
   inkscape:connector-curvature="0"
   style="fill:#ed1c24" />
</g>
<path
   d="m 53.245,48.671 -7.84,-7.84 C 51.029,32.344 49.016,25.53 49.016,25.53 l -0.143,-0.428 c -0.062,-0.118 -0.136,-0.231 -0.235,-0.33 -0.53,-0.53 -1.389,-0.53 -1.919,0 -0.058,0.058 -0.107,0.121 -0.152,0.186 L 46.503,25.064 42.139,32.338 14.7,0.98 0,0 l 0.98,14.7 17.136,14.994 2.223,-2.308 1.461,-1.517 1.439,1.538 4.068,4.346 1.306,1.395 -1.334,1.368 -1.682,1.725 6.742,5.899 -7.286,4.372 -0.073,0.044 c -0.068,0.047 -0.134,0.098 -0.194,0.159 -0.53,0.53 -0.53,1.389 0,1.919 0.114,0.114 0.245,0.198 0.382,0.263 l 0.333,0.111 c 0,0 6.619,1.846 15.331,-3.601 l 7.84,7.84 c 0,0 3.484,4.355 6.207,1.633 2.722,-2.724 -1.634,-6.209 -1.634,-6.209 z"
   id="path3558"
   inkscape:connector-curvature="0" />
<path
   clip-rule="evenodd"
   d="M 4.492,39.778 0.424,43.868 13.136,56.904 25.847,43.868 21.779,39.522 13.135,48.497 4.492,39.778 z"
   id="path3560"
   inkscape:connector-curvature="0"
   style="fill-rule:evenodd" />
<path
   clip-rule="evenodd"
   d="M 4.492,29.028 0.424,33.118 13.136,46.154 25.847,33.118 21.779,28.772 13.135,37.747 4.492,29.028 z"
   id="path3562"
   inkscape:connector-curvature="0"
   style="fill-rule:evenodd" />
</svg>