<?xml version="1.0" encoding="iso-8859-1"?>
<!-- Generator: Adobe Illustrator 18.0.0, SVG Export Plug-In . SVG Version: 6.00 Build 0)  -->
<!DOCTYPE svg PUBLIC "-//W3C//DTD SVG 1.1//EN" "http://www.w3.org/Graphics/SVG/1.1/DTD/svg11.dtd">
<svg version="1.1" id="Capa_1" xmlns="http://www.w3.org/2000/svg" xmlns:xlink="http://www.w3.org/1999/xlink" x="0px" y="0px"
	 viewBox="0 0 299.858 299.858" style="enable-background:new 0 0 299.858 299.858;" xml:space="preserve">
<g>
	<path d="M260.501,160.07c-15.651-8.662-28.765-20.962-38.375-35.663v38.206c0,9.194-4.45,17.367-11.308,22.481
		c6.858,5.115,11.308,13.288,11.308,22.482v9.126c0,30.02-18.744,55.728-45.135,66.083c12.893,10.663,29.433,17.073,47.471,17.073
		c41.163,0,74.532-33.369,74.532-74.532C298.994,197.235,283.454,172.773,260.501,160.07z"/>
	<path d="M80.177,216.702v-9.126c0-9.194,4.45-17.367,11.308-22.482c-6.858-5.114-11.308-13.288-11.308-22.481v-40.251
		c-9.884,15.529-23.637,28.433-40.118,37.325c-23.337,12.59-39.195,37.263-39.195,65.639c0,41.163,33.369,74.532,74.533,74.532
		c18.402,0,35.235-6.683,48.236-17.736C98.125,271.353,80.177,246.085,80.177,216.702z"/>
	<path d="M108.207,175.643h85.889c7.196,0,13.03-5.834,13.03-13.03V55.975C207.126,25.06,182.065,0,151.152,0
		c-30.914,0-55.974,25.06-55.974,55.975v106.638C95.177,169.809,101.011,175.643,108.207,175.643z M111.258,75.139
		c0-4.143,3.357-7.5,7.5-7.5c4.143,0,7.5,3.357,7.5,7.5v52.715c0,4.143-3.357,7.5-7.5,7.5c-4.143,0-7.5-3.357-7.5-7.5V75.139z
		 M118.757,144.297c4.142,0,7.5,3.358,7.5,7.5c0,4.142-3.358,7.5-7.5,7.5c-4.142,0-7.5-3.358-7.5-7.5
		C111.257,147.655,114.615,144.297,118.757,144.297z"/>
	<path d="M207.126,216.702v-9.126c0-7.196-5.834-13.03-13.03-13.03h-85.889c-7.196,0-13.03,5.834-13.03,13.03v9.126
		c0,28.369,21.109,51.792,48.474,55.46v-38.551c0-4.143,3.357-7.5,7.5-7.5s7.5,3.357,7.5,7.5v38.551
		C186.016,268.495,207.126,245.071,207.126,216.702z"/>
</g>
<g>
</g>
<g>
</g>
<g>
</g>
<g>
</g>
<g>
</g>
<g>
</g>
<g>
</g>
<g>
</g>
<g>
</g>
<g>
</g>
<g>
</g>
<g>
</g>
<g>
</g>
<g>
</g>
<g>
</g>
</svg>
