<?xml version="1.0" encoding="iso-8859-1"?>
<!-- Generator: Adobe Illustrator 16.0.0, SVG Export Plug-In . SVG Version: 6.00 Build 0)  -->
<!DOCTYPE svg PUBLIC "-//W3C//DTD SVG 1.1//EN" "http://www.w3.org/Graphics/SVG/1.1/DTD/svg11.dtd">
<svg version="1.1" id="Capa_1" xmlns="http://www.w3.org/2000/svg" xmlns:xlink="http://www.w3.org/1999/xlink" x="0px" y="0px"
	 width="326.668px" height="326.668px" viewBox="0 0 326.668 326.668" style="enable-background:new 0 0 326.668 326.668;"
	 xml:space="preserve">
<g>
	<g>
		<path d="M143.622,125.236c-0.586-0.18-1.763-0.52-2.638-0.52c-12.875,0-36.573,0-51.125,0c-0.931,0-2.863,0.409-3.759,0.635
			c-23.513,5.933-42.173,21.453-57.702,40.372C12.044,185.646,0,219.282,0,245.022c0,29.018,10.924,48.922,33.393,60.852
			c17.973,9.543,43.313,13.986,79.749,13.986s61.777-4.443,79.749-13.986c22.471-11.93,33.394-31.834,33.394-60.852
			C226.283,195.771,191.021,139.785,143.622,125.236z M184.441,234.972c0,5.5-4.5,10-10,10h-124c-5.5,0-10-4.5-10-10v-26.666
			c0-5.5,4.5-10,10-10h124c5.5,0,10,4.5,10,10V234.972z"/>
		<path d="M304.993,27.277c-14.794-13.393-36.209-20.47-61.931-20.47c-31.174,0-61.199,17.062-76.322,27.233
			c-2.355,1.585-12.402,6.491-21.657,15.006c-0.495,0.455-1.478,0.944-1.478,3.194v53.167c0,1.833,1.332,3.146,2.006,3.764
			c8.678,7.937,17.997,12.271,21.263,14.411c14.897,9.765,44.606,26.145,76.188,26.145c25.723,0,47.138-7.079,61.93-20.47
			c14.181-12.836,21.676-30.469,21.676-50.99C326.668,57.748,319.173,40.115,304.993,27.277z"/>
		<path d="M129.859,48.878c-7.737-4.255-16.553-6.06-27.906-6.06c-24.003,0-26.03,11.613-26.03,25.937
			c0,13.819,2.11,25.105,23.6,25.885c0.349,0.012,1.063,0.069,1.063,1.761l-0.178,15.75c0,0,0.068,1.566,1.203,1.566h28.999
			c1.996,0,1.996-2.434,1.996-2.434V52.909C132.605,50.409,130.768,49.377,129.859,48.878z M87.441,83.708
			c-4.604,0-5.508-6.417-5.508-14.333s1.154-14.334,5.508-14.334c2.375,0,4.301,6.418,4.301,14.334S89.816,83.708,87.441,83.708z"/>
	</g>
</g>
<g>
</g>
<g>
</g>
<g>
</g>
<g>
</g>
<g>
</g>
<g>
</g>
<g>
</g>
<g>
</g>
<g>
</g>
<g>
</g>
<g>
</g>
<g>
</g>
<g>
</g>
<g>
</g>
<g>
</g>
</svg>
