<?xml version="1.0" encoding="UTF-8" standalone="no"?>
<!-- Generator: Adobe Illustrator 17.0.2, SVG Export Plug-In . SVG Version: 6.00 Build 0)  -->

<svg
   xmlns:dc="http://purl.org/dc/elements/1.1/"
   xmlns:cc="http://creativecommons.org/ns#"
   xmlns:rdf="http://www.w3.org/1999/02/22-rdf-syntax-ns#"
   xmlns:svg="http://www.w3.org/2000/svg"
   xmlns="http://www.w3.org/2000/svg"
   xmlns:sodipodi="http://sodipodi.sourceforge.net/DTD/sodipodi-0.dtd"
   xmlns:inkscape="http://www.inkscape.org/namespaces/inkscape"
   version="1.1"
   id="Layer_1"
   x="0px"
   y="0px"
   width="41.321999"
   height="47.027"
   viewBox="0 0 41.321999 47.027"
   enable-background="new 0 0 64 64"
   xml:space="preserve"
   inkscape:version="0.48.4 r9939"
   sodipodi:docname="poison.svg"><metadata
   id="metadata3658"><rdf:RDF><cc:Work
       rdf:about=""><dc:format>image/svg+xml</dc:format><dc:type
         rdf:resource="http://purl.org/dc/dcmitype/StillImage" /></cc:Work></rdf:RDF></metadata><defs
   id="defs3656" /><sodipodi:namedview
   pagecolor="#ffffff"
   bordercolor="#666666"
   borderopacity="1"
   objecttolerance="10"
   gridtolerance="10"
   guidetolerance="10"
   inkscape:pageopacity="0"
   inkscape:pageshadow="2"
   inkscape:window-width="640"
   inkscape:window-height="480"
   id="namedview3654"
   showgrid="false"
   inkscape:zoom="41.7193"
   inkscape:cx="27.744688"
   inkscape:cy="45.248572"
   inkscape:window-x="0"
   inkscape:window-y="0"
   inkscape:window-maximized="0"
   inkscape:current-layer="Layer_1"
   fit-margin-top="0"
   fit-margin-left="0"
   fit-margin-right="0"
   fit-margin-bottom="0" />
<path
   d="m 27.489,0 c -7.64,0 -13.833,6.193 -13.833,13.833 0,7.64 6.193,13.833 13.833,13.833 7.64,0 13.833,-6.193 13.833,-13.833 C 41.322,6.193 35.129,0 27.489,0 z m -4,14.72 c -3.251,0 -5.887,-2.636 -5.887,-5.887 0,-3.251 2.636,-5.887 5.887,-5.887 3.251,0 5.887,2.636 5.887,5.887 0,3.251 -2.636,5.887 -5.887,5.887 z"
   id="path3648"
   inkscape:connector-curvature="0" />
<path
   d="M 9.181,20.79 C 4.11,20.79 0,24.901 0,29.971 c 0,5.07 4.111,9.181 9.181,9.181 5.07,0 9.181,-4.111 9.181,-9.181 0,-5.07 -4.111,-9.181 -9.181,-9.181 z m -2.655,9.77 c -2.158,0 -3.907,-1.749 -3.907,-3.907 0,-2.158 1.749,-3.907 3.907,-3.907 2.158,0 3.907,1.749 3.907,3.907 0,2.158 -1.749,3.907 -3.907,3.907 z"
   id="path3650"
   inkscape:connector-curvature="0" />
<path
   d="m 24.85,36.471 c -2.915,0 -5.278,2.363 -5.278,5.278 0,2.915 2.363,5.278 5.278,5.278 2.915,0 5.278,-2.363 5.278,-5.278 0,-2.915 -2.364,-5.278 -5.278,-5.278 z m -1.526,5.616 c -1.24,0 -2.246,-1.006 -2.246,-2.246 0,-1.24 1.006,-2.246 2.246,-2.246 1.24,0 2.246,1.006 2.246,2.246 0,1.24 -1.006,2.246 -2.246,2.246 z"
   id="path3652"
   inkscape:connector-curvature="0" />
</svg>