<?xml version="1.0" encoding="UTF-8" standalone="no"?>
<!-- Generator: Adobe Illustrator 17.0.0, SVG Export Plug-In . SVG Version: 6.00 Build 0)  -->

<svg
   xmlns:dc="http://purl.org/dc/elements/1.1/"
   xmlns:cc="http://creativecommons.org/ns#"
   xmlns:rdf="http://www.w3.org/1999/02/22-rdf-syntax-ns#"
   xmlns:svg="http://www.w3.org/2000/svg"
   xmlns="http://www.w3.org/2000/svg"
   xmlns:sodipodi="http://sodipodi.sourceforge.net/DTD/sodipodi-0.dtd"
   xmlns:inkscape="http://www.inkscape.org/namespaces/inkscape"
   version="1.1"
   id="Layer_1"
   inkscape:version="0.48.4 r9939"
   width="24"
   height="17.815632"
   sodipodi:docname="radiosignal.svg">
  <metadata
     id="metadata9">
    <rdf:RDF>
      <cc:Work
         rdf:about="">
        <dc:format>image/svg+xml</dc:format>
        <dc:type
           rdf:resource="http://purl.org/dc/dcmitype/StillImage" />
      </cc:Work>
    </rdf:RDF>
  </metadata>
  <defs
     id="defs7" />
  <sodipodi:namedview
     pagecolor="#ffffff"
     bordercolor="#666666"
     borderopacity="1"
     objecttolerance="10"
     gridtolerance="10"
     guidetolerance="10"
     inkscape:pageopacity="0"
     inkscape:pageshadow="2"
     inkscape:window-width="1920"
     inkscape:window-height="1137"
     id="namedview5"
     showgrid="false"
     inkscape:zoom="40.594924"
     inkscape:cx="9.2396561"
     inkscape:cy="7.9280209"
     inkscape:window-x="1676"
     inkscape:window-y="-4"
     inkscape:window-maximized="1"
     inkscape:current-layer="Layer_1"
     fit-margin-top="0"
     fit-margin-left="0"
     fit-margin-right="0"
     fit-margin-bottom="0" />
  <path
     d="m 19,8.9076287 c 0,1.9710033 -0.838,3.8620033 -2.3,5.1880033 -0.287,0.261 -0.647,0.39 -1.008,0.39 -0.408,0 -0.814,-0.166 -1.11,-0.492 -0.557,-0.613 -0.511,-1.562 0.103,-2.118 0.836,-0.76 1.315,-1.841001 1.315,-2.9680033 0,-1.13 -0.478,-2.21 -1.31,-2.965 -0.614,-0.556 -0.661,-1.505 -0.104,-2.119 0.556,-0.615 1.504,-0.661 2.118,-0.104 1.459,1.322 2.296,3.213 2.296,5.188 z m 1.514,-8.46599978 c -0.584,-0.587 -1.535,-0.589 -2.121,-0.005 -0.588,0.58399978 -0.59,1.53399978 -0.006,2.12199978 1.685,1.692 2.613,3.947 2.613,6.349 0,2.3960033 -0.93,4.6490033 -2.618,6.3470033 -0.584,0.587 -0.582,1.537 0.006,2.121 0.292,0.291 0.675,0.437 1.058,0.437 0.385,0 0.771,-0.147 1.063,-0.442 2.251,-2.264 3.491,-5.269 3.491,-8.4630033 0,-3.2 -1.238,-6.207 -3.486,-8.46599978 z M 12,7.0946287 c -1.003,0 -1.812,0.809 -1.812,1.813 0,1.0000009 0.81,1.8130033 1.813,1.8130033 1.003,0 1.812,-0.8130024 1.812,-1.8130033 0,-1.004 -0.81,-1.813 -1.813,-1.813 z m -2.581,-3.273 c -0.557,-0.614 -1.505,-0.66 -2.119,-0.103 -1.462,1.326 -2.3,3.218 -2.3,5.189 0,1.9770033 0.837,3.8670033 2.297,5.1880033 0.287,0.26 0.647,0.388 1.006,0.388 0.409,0 0.816,-0.166 1.113,-0.493 0.556,-0.614 0.508,-1.563 -0.106,-2.119 C 8.478,11.118632 8,10.038631 8,8.9076287 c 0,-1.127 0.479,-2.208 1.316,-2.967 0.614,-0.557 0.66,-1.506 0.103,-2.119 z M 3,8.9076287 c 0,-2.396 0.93,-4.649 2.618,-6.346 0.584,-0.587 0.583,-1.537 -0.005,-2.12099978 -0.586,-0.585 -1.536,-0.582 -2.121,0.005 C 1.24,2.7076287 0,5.7136287 0,8.9076287 c 0,3.1990033 1.238,6.2060033 3.486,8.4660033 0.293,0.295 0.678,0.442 1.063,0.442 0.383,0 0.765,-0.146 1.058,-0.437 0.587,-0.584 0.589,-1.534 0.005,-2.121 C 3.928,13.563632 3,11.308632 3,8.9076287 z"
     id="path3"
     inkscape:connector-curvature="0" />
</svg>
