<?xml version="1.0" encoding="iso-8859-1"?>
<!-- Generator: Adobe Illustrator 16.0.0, SVG Export Plug-In . SVG Version: 6.00 Build 0)  -->
<svg version="1.1" id="Capa_1" xmlns="http://www.w3.org/2000/svg" xmlns:xlink="http://www.w3.org/1999/xlink" x="0px" y="0px"
	 width="410.823px" height="410.823px" viewBox="0 0 410.823 410.823" style="enable-background:new 0 0 410.823 410.823;"
	 xml:space="preserve">
<g>
	<g>
		<path d="M5.595,254.875c-17.185,46.513,6.539,98.118,53.048,115.317c46.474,17.203,98.103-6.577,115.312-53.046
			c17.175-46.468-31.479-173.544-31.479-173.544S22.821,208.372,5.595,254.875z M35.054,273.141
			c5.685,50.553,34.358,67.908,34.358,67.908C18.311,325.793,35.054,273.141,35.054,273.141z"/>
		<path d="M395.391,259.702c0,0-52.531,28.454-60.083,48.864c-7.54,20.411,2.873,43.066,23.285,50.616
			c20.399,7.535,43.06-2.884,50.614-23.278C416.761,315.505,395.391,259.702,395.391,259.702z M348.232,316.572
			c2.503,22.202,15.086,29.817,15.086,29.817C340.889,339.719,348.232,316.572,348.232,316.572z"/>
		<path d="M368.837,177.115c14.061-38.057-25.778-142.083-25.778-142.083s-97.944,53.086-112.03,91.106
			c-14.074,38.028,5.364,80.34,43.398,94.384C312.473,234.624,354.746,215.17,368.837,177.115z M255.121,141.088
			c4.663,41.38,28.137,55.596,28.137,55.596C241.416,184.205,255.121,141.088,255.121,141.088z"/>
	</g>
</g>
<g>
</g>
<g>
</g>
<g>
</g>
<g>
</g>
<g>
</g>
<g>
</g>
<g>
</g>
<g>
</g>
<g>
</g>
<g>
</g>
<g>
</g>
<g>
</g>
<g>
</g>
<g>
</g>
<g>
</g>
</svg>
