<svg xmlns="http://www.w3.org/2000/svg" width="367" height="367" viewBox="0 0 366.7 366.7"><path d="M316.4 19.6l-91.1 24.4 24.4 91.1 14.1-24.3c30.7 33.9 37.5 85 13.4 126.8 -26 45.1-79.6 64.4-127.2 48.9l13.1 48.8 -55.8 14.9c85 38.9 187.2 7.4 234.9-75.1 44.9-77.8 26.3-174.9-39.8-231.1L316.4 19.6z"/><path d="M141.4 322.7l-24.4-91.1 -14.1 24.3c-30.7-33.9-37.5-85-13.4-126.8 26-45.1 79.6-64.4 127.2-48.9l-13.1-48.8 55.8-14.9c-85-38.9-187.2-7.4-234.9 75.1 -44.9 77.8-26.3 174.9 39.8 231.1L50.3 347.1 141.4 322.7z"/></svg>