<?xml version="1.0" encoding="UTF-8" standalone="no"?>
<!-- Generator: Adobe Illustrator 17.0.2, SVG Export Plug-In . SVG Version: 6.00 Build 0)  -->

<svg
   xmlns:dc="http://purl.org/dc/elements/1.1/"
   xmlns:cc="http://creativecommons.org/ns#"
   xmlns:rdf="http://www.w3.org/1999/02/22-rdf-syntax-ns#"
   xmlns:svg="http://www.w3.org/2000/svg"
   xmlns="http://www.w3.org/2000/svg"
   xmlns:sodipodi="http://sodipodi.sourceforge.net/DTD/sodipodi-0.dtd"
   xmlns:inkscape="http://www.inkscape.org/namespaces/inkscape"
   version="1.1"
   id="Layer_1"
   x="0px"
   y="0px"
   width="53.5"
   height="37.75"
   viewBox="0 0 53.5 37.75"
   enable-background="new 0 0 64 64"
   xml:space="preserve"
   inkscape:version="0.48.4 r9939"
   sodipodi:docname="silence.svg"><metadata
   id="metadata3681"><rdf:RDF><cc:Work
       rdf:about=""><dc:format>image/svg+xml</dc:format><dc:type
         rdf:resource="http://purl.org/dc/dcmitype/StillImage" /></cc:Work></rdf:RDF></metadata><defs
   id="defs3679" /><sodipodi:namedview
   pagecolor="#ffffff"
   bordercolor="#666666"
   borderopacity="1"
   objecttolerance="10"
   gridtolerance="10"
   guidetolerance="10"
   inkscape:pageopacity="0"
   inkscape:pageshadow="2"
   inkscape:window-width="640"
   inkscape:window-height="480"
   id="namedview3677"
   showgrid="false"
   inkscape:zoom="20.85965"
   inkscape:cx="21.10573"
   inkscape:cy="32.451205"
   inkscape:window-x="2366"
   inkscape:window-y="414"
   inkscape:window-maximized="0"
   inkscape:current-layer="Layer_1"
   fit-margin-top="0"
   fit-margin-left="0"
   fit-margin-right="0"
   fit-margin-bottom="0" />
<path
   d="M 43.5,0 H 10 C 4.5,0 0,4.5 0,10 v 9.25 c 0,5.5 4.5,10 10,10 h 3.5 v 8.5 l 9.917,-8.5 H 43.5 c 5.5,0 10,-4.5 10,-10 V 10 C 53.5,4.5 49,0 43.5,0 z M 13.25,19.583 c -2.83,0 -5.125,-2.295 -5.125,-5.125 0,-2.83 2.295,-5.125 5.125,-5.125 2.83,0 5.125,2.295 5.125,5.125 0,2.83 -2.295,5.125 -5.125,5.125 z m 13.5,0 c -2.83,0 -5.125,-2.295 -5.125,-5.125 0,-2.83 2.295,-5.125 5.125,-5.125 2.83,0 5.125,2.295 5.125,5.125 0,2.83 -2.295,5.125 -5.125,5.125 z m 13.5,0 c -2.83,0 -5.125,-2.295 -5.125,-5.125 0,-2.83 2.295,-5.125 5.125,-5.125 2.83,0 5.125,2.295 5.125,5.125 0,2.83 -2.295,5.125 -5.125,5.125 z"
   id="path3675"
   inkscape:connector-curvature="0" />
</svg>