<?xml version="1.0" encoding="UTF-8" standalone="no"?>
<!-- Generator: Adobe Illustrator 17.0.2, SVG Export Plug-In . SVG Version: 6.00 Build 0)  -->

<svg
   xmlns:dc="http://purl.org/dc/elements/1.1/"
   xmlns:cc="http://creativecommons.org/ns#"
   xmlns:rdf="http://www.w3.org/1999/02/22-rdf-syntax-ns#"
   xmlns:svg="http://www.w3.org/2000/svg"
   xmlns="http://www.w3.org/2000/svg"
   xmlns:sodipodi="http://sodipodi.sourceforge.net/DTD/sodipodi-0.dtd"
   xmlns:inkscape="http://www.inkscape.org/namespaces/inkscape"
   version="1.1"
   id="Layer_1"
   x="0px"
   y="0px"
   width="55.001999"
   height="55.952"
   viewBox="0 0 55.001999 55.952"
   enable-background="new 0 0 64 64"
   xml:space="preserve"
   inkscape:version="0.48.4 r9939"
   sodipodi:docname="slow.svg"><metadata
   id="metadata3723"><rdf:RDF><cc:Work
       rdf:about=""><dc:format>image/svg+xml</dc:format><dc:type
         rdf:resource="http://purl.org/dc/dcmitype/StillImage" /></cc:Work></rdf:RDF></metadata><defs
   id="defs3721" /><sodipodi:namedview
   pagecolor="#ffffff"
   bordercolor="#666666"
   borderopacity="1"
   objecttolerance="10"
   gridtolerance="10"
   guidetolerance="10"
   inkscape:pageopacity="0"
   inkscape:pageshadow="2"
   inkscape:window-width="640"
   inkscape:window-height="480"
   id="namedview3719"
   showgrid="false"
   inkscape:zoom="29.5"
   inkscape:cx="25.509048"
   inkscape:cy="53.273356"
   inkscape:window-x="0"
   inkscape:window-y="0"
   inkscape:window-maximized="0"
   inkscape:current-layer="Layer_1"
   fit-margin-top="0"
   fit-margin-left="0"
   fit-margin-right="0"
   fit-margin-bottom="0"
   showguides="true"
   inkscape:guide-bbox="true" />
<g
   id="g3705"
   transform="translate(-4.499,-4.5)">
	<path
   d="m 32,13.5 c -1.933,0 -3.5,1.567 -3.5,3.5 v 15.18 l 2.92,3.12 0.595,0.636 10.753,5.474 c 0.509,0.259 1.051,0.382 1.585,0.382 1.274,0 2.504,-0.699 3.122,-1.913 0.877,-1.723 0.191,-3.83 -1.531,-4.707 L 35.5,29.854 V 17 c 0,-1.933 -1.567,-3.5 -3.5,-3.5 z"
   id="path3707"
   inkscape:connector-curvature="0" />
	<path
   d="M 32,4.5 C 16.836,4.5 4.499,16.836 4.499,32 c 0,0.606 0.027,1.206 0.065,1.802 l 2.622,-2.636 1.42,-1.428 1.418,1.43 1.509,1.522 C 11.525,32.459 11.498,32.233 11.498,32 c 0,-11.304 9.196,-20.5 20.501,-20.5 11.305,0 20.502,9.196 20.502,20.5 0,11.304 -9.196,20.5 -20.501,20.5 -1.314,0 -2.595,-0.136 -3.84,-0.373 l -5.571,5.714 c 2.937,1.073 6.107,1.66 9.411,1.66 15.164,0 27.501,-12.337 27.501,-27.5 C 59.501,16.838 47.164,4.5 32,4.5 z"
   id="path3709"
   inkscape:connector-curvature="0" />
	<path
   d="m 20.663,49.066 -1.982,2.033 -1.432,1.469 -3.79,-0.277 c 2.106,1.926 4.515,3.524 7.141,4.726 l 5.305,-5.441 c -1.878,-0.587 -3.638,-1.441 -5.242,-2.51 z"
   id="path3711"
   inkscape:connector-curvature="0" />
	<path
   d="m 4.847,36.354 c 0.041,0.259 0.09,0.516 0.138,0.772 l 3.448,3.536 0.174,-0.174 1.418,1.43 7.203,7.266 1.516,-1.574 C 15.259,44.646 12.777,40.544 11.879,35.878 L 8.605,32.576 4.847,36.354 z"
   id="path3713"
   inkscape:connector-curvature="0" />
</g>
<path
   clip-rule="evenodd"
   d="M 4.106,38.826 0.038,42.916 12.75,55.952 25.461,42.916 21.393,38.57 12.749,47.545 4.106,38.826 z"
   id="path3715"
   inkscape:connector-curvature="0"
   style="fill-rule:evenodd" />
<path
   clip-rule="evenodd"
   d="M 4.106,28.076 0.038,32.166 12.75,45.202 25.461,32.166 21.393,27.82 12.749,36.795 4.106,28.076 z"
   id="path3717"
   inkscape:connector-curvature="0"
   style="fill-rule:evenodd" />
</svg>