<?xml version="1.0" encoding="UTF-8" standalone="no"?>
<!-- Generator: Adobe Illustrator 17.0.2, SVG Export Plug-In . SVG Version: 6.00 Build 0)  -->

<svg
   xmlns:dc="http://purl.org/dc/elements/1.1/"
   xmlns:cc="http://creativecommons.org/ns#"
   xmlns:rdf="http://www.w3.org/1999/02/22-rdf-syntax-ns#"
   xmlns:svg="http://www.w3.org/2000/svg"
   xmlns="http://www.w3.org/2000/svg"
   xmlns:sodipodi="http://sodipodi.sourceforge.net/DTD/sodipodi-0.dtd"
   xmlns:inkscape="http://www.inkscape.org/namespaces/inkscape"
   version="1.1"
   id="Layer_1"
   x="0px"
   y="0px"
   width="48.584"
   height="49.334"
   viewBox="0 0 48.584 49.334"
   enable-background="new 0 0 64 64"
   xml:space="preserve"
   inkscape:version="0.48.4 r9939"
   sodipodi:docname="smelly.svg"><metadata
   id="metadata3773"><rdf:RDF><cc:Work
       rdf:about=""><dc:format>image/svg+xml</dc:format><dc:type
         rdf:resource="http://purl.org/dc/dcmitype/StillImage" /></cc:Work></rdf:RDF></metadata><defs
   id="defs3771" /><sodipodi:namedview
   pagecolor="#ffffff"
   bordercolor="#666666"
   borderopacity="1"
   objecttolerance="10"
   gridtolerance="10"
   guidetolerance="10"
   inkscape:pageopacity="0"
   inkscape:pageshadow="2"
   inkscape:window-width="640"
   inkscape:window-height="480"
   id="namedview3769"
   showgrid="false"
   inkscape:zoom="59"
   inkscape:cx="29.54857"
   inkscape:cy="47.652625"
   inkscape:window-x="2131"
   inkscape:window-y="382"
   inkscape:window-maximized="0"
   inkscape:current-layer="Layer_1"
   fit-margin-top="0"
   fit-margin-left="0"
   fit-margin-right="0"
   fit-margin-bottom="0" />
<g
   id="g3759"
   transform="translate(-7.708,-7.333)">
	<path
   stroke-miterlimit="10"
   d="m 13.208,9.333 c 0,0 3.5,7.584 3.5,14.334 0,6.75 -7,10 -7,17.25 0,7.25 3.5,13.75 3.5,13.75"
   id="path3761"
   inkscape:connector-curvature="0"
   style="fill:none;stroke:#010101;stroke-width:4;stroke-linecap:round;stroke-miterlimit:10" />
	<path
   stroke-miterlimit="10"
   d="m 25.736,9.333 c 0,0 3.5,7.584 3.5,14.334 0,6.75 -7,10 -7,17.25 0,7.25 3.5,13.75 3.5,13.75"
   id="path3763"
   inkscape:connector-curvature="0"
   style="fill:none;stroke:#010101;stroke-width:4;stroke-linecap:round;stroke-miterlimit:10" />
	<path
   stroke-miterlimit="10"
   d="m 38.264,9.333 c 0,0 3.5,7.584 3.5,14.334 0,6.75 -7,10 -7,17.25 0,7.25 3.5,13.75 3.5,13.75"
   id="path3765"
   inkscape:connector-curvature="0"
   style="fill:none;stroke:#010101;stroke-width:4;stroke-linecap:round;stroke-miterlimit:10" />
	<path
   stroke-miterlimit="10"
   d="m 50.792,9.333 c 0,0 3.5,7.584 3.5,14.334 0,6.75 -7,10 -7,17.25 0,7.25 3.5,13.75 3.5,13.75"
   id="path3767"
   inkscape:connector-curvature="0"
   style="fill:none;stroke:#010101;stroke-width:4;stroke-linecap:round;stroke-miterlimit:10" />
</g>
</svg>