<?xml version="1.0" encoding="UTF-8" standalone="no"?>
<svg
   xmlns:dc="http://purl.org/dc/elements/1.1/"
   xmlns:cc="http://creativecommons.org/ns#"
   xmlns:rdf="http://www.w3.org/1999/02/22-rdf-syntax-ns#"
   xmlns:svg="http://www.w3.org/2000/svg"
   xmlns="http://www.w3.org/2000/svg"
   xmlns:sodipodi="http://sodipodi.sourceforge.net/DTD/sodipodi-0.dtd"
   xmlns:inkscape="http://www.inkscape.org/namespaces/inkscape"
   enable-background="new 0 0 128 128"
   height="91.445999"
   version="1.1"
   viewBox="0 0 80.048714 91.445999"
   width="80.048714"
   xml:space="preserve"
   id="svg3104"
   inkscape:version="0.48.4 r"
   sodipodi:docname="snowflake.svg"><metadata
     id="metadata3114"><rdf:RDF><cc:Work
         rdf:about=""><dc:format>image/svg+xml</dc:format><dc:type
           rdf:resource="http://purl.org/dc/dcmitype/StillImage" /></cc:Work></rdf:RDF></metadata><defs
     id="defs3112" /><sodipodi:namedview
     pagecolor="#ffffff"
     bordercolor="#666666"
     borderopacity="1"
     objecttolerance="10"
     gridtolerance="10"
     guidetolerance="10"
     inkscape:pageopacity="0"
     inkscape:pageshadow="2"
     inkscape:window-width="1920"
     inkscape:window-height="1137"
     id="namedview3110"
     showgrid="false"
     fit-margin-top="0"
     fit-margin-left="0"
     fit-margin-right="0"
     fit-margin-bottom="0"
     inkscape:zoom="5.2149125"
     inkscape:cx="105.24498"
     inkscape:cy="41.454494"
     inkscape:window-x="-4"
     inkscape:window-y="-4"
     inkscape:window-maximized="1"
     inkscape:current-layer="svg3104" /><g
     id="Layer_2"
     transform="translate(-23.975711,-18.277)" /><g
     id="Layer_1"
     transform="translate(-23.975711,-18.277)"><path
       d="m 102.656,82.955 -11.392,-6.532 9.901,-4.35 c 1.379,-0.606 2.014,-2.22 1.41,-3.604 -0.592,-1.339 -2.255,-1.996 -3.605,-1.406 L 85.364,73.04 69.499,63.942 85.288,54.828 99.048,60.82 c 1.397,0.602 3.014,-0.087 3.591,-1.42 0.599,-1.384 -0.037,-2.996 -1.416,-3.594 l -10.05,-4.376 11.45,-6.61 c 0.632,-0.365 1.084,-0.955 1.272,-1.661 0.188,-0.706 0.091,-1.442 -0.275,-2.074 -0.728,-1.252 -2.472,-1.728 -3.734,-1.001 l -11.373,6.565 1.218,-10.746 c 0.084,-0.729 -0.122,-1.446 -0.579,-2.02 -0.455,-0.57 -1.104,-0.928 -1.823,-1.007 -1.53,-0.181 -2.87,0.925 -3.027,2.416 L 82.757,50.053 67,59.22 V 41.017 l 11.925,-8.912 c 0.564,-0.414 0.933,-1.026 1.039,-1.724 0.11,-0.729 -0.084,-1.493 -0.53,-2.097 -0.871,-1.181 -2.535,-1.452 -3.729,-0.573 L 67,34.204 V 21.009 c 0,-1.61 -1.585,-2.732 -3.008,-2.732 -1.415,0 -2.992,1.122 -2.992,2.732 V 34.124 L 52.427,27.71 c -1.173,-0.871 -2.883,-0.607 -3.756,0.573 -0.457,0.616 -0.654,1.392 -0.543,2.127 0.104,0.687 0.468,1.288 1.017,1.689 L 61,40.933 V 59.211 L 45.479,50.245 43.826,35.474 c -0.165,-1.378 -1.313,-2.417 -2.673,-2.417 -0.109,0 -0.222,0.006 -0.326,0.02 -1.476,0.169 -2.549,1.524 -2.391,3.033 l 1.262,10.748 -11.641,-6.677 c -0.412,-0.235 -0.88,-0.36 -1.353,-0.36 -0.978,0 -1.886,0.526 -2.37,1.374 -0.743,1.295 -0.294,2.967 1.01,3.731 l 11.715,6.718 -10.033,4.406 c -0.67,0.294 -1.185,0.83 -1.448,1.509 -0.265,0.68 -0.248,1.423 0.045,2.088 0.576,1.328 2.187,2.006 3.599,1.412 l 13.738,-6.032 15.575,8.93 -15.608,9.011 -13.621,-5.933 c -1.353,-0.587 -3.011,0.072 -3.595,1.415 -0.604,1.379 0.03,2.994 1.414,3.602 l 9.912,4.316 -11.622,6.71 c -1.297,0.76 -1.743,2.435 -0.994,3.734 0.486,0.842 1.396,1.365 2.37,1.365 0.485,0 0.959,-0.129 1.362,-0.366 l 11.7,-6.755 -1.241,10.902 c -0.08,0.727 0.127,1.441 0.585,2.013 0.456,0.569 1.106,0.928 1.806,1.004 0.107,0.015 0.222,0.018 0.336,0.018 1.39,0 2.556,-1.042 2.713,-2.432 L 45.616,77.653 61,68.706 v 18.16 l -10.564,8.837 c -1.128,0.945 -1.256,2.67 -0.294,3.833 0.506,0.627 1.307,1.001 2.143,1.001 0.755,0 1.262,-0.324 1.641,-0.625 L 61,93.979 v 13.012 c 0,1.61 1.577,2.732 2.992,2.732 1.423,0 3.008,-1.122 3.008,-2.732 v -13.1 l 7.183,6.033 c 1.196,0.963 2.814,0.735 3.731,-0.376 0.46,-0.553 0.703,-1.24 0.683,-1.937 C 78.576,96.854 78.248,96.175 77.678,95.7 L 67,86.776 V 68.663 l 15.708,9.076 1.666,14.91 c 0.165,1.375 1.316,2.412 2.679,2.412 0.129,0 0.209,-0.007 0.297,-0.02 0.72,-0.079 1.366,-0.437 1.819,-1.005 0.458,-0.574 0.664,-1.293 0.579,-2.024 l -1.269,-10.887 11.459,6.571 c 0.411,0.237 0.881,0.362 1.359,0.362 0.979,0 1.887,-0.527 2.368,-1.375 0.745,-1.3 0.295,-2.973 -1.009,-3.728 z"
       id="path3108"
       inkscape:connector-curvature="0"
       style="fill:#231f20" /></g></svg>