<?xml version="1.0" encoding="iso-8859-1"?>
<!-- Generator: Adobe Illustrator 17.1.0, SVG Export Plug-In . SVG Version: 6.00 Build 0)  -->
<!DOCTYPE svg PUBLIC "-//W3C//DTD SVG 1.1//EN" "http://www.w3.org/Graphics/SVG/1.1/DTD/svg11.dtd">
<svg version="1.1" id="Capa_1" xmlns="http://www.w3.org/2000/svg" xmlns:xlink="http://www.w3.org/1999/xlink" x="0px" y="0px"
	 viewBox="0 0 219.837 219.837" style="enable-background:new 0 0 219.837 219.837;" xml:space="preserve">
<path d="M96.949,140.329c-8.973-1.552-14.762-2.192-20.535,3.922c-6.452,6.831-6.503,11.236-6.566,16.814
	c-0.071,6.247-0.16,14.021-9.107,24.152c-13.724,15.538-32.871,24.55-33.68,24.926c-0.682,0.317-1.399,0.467-2.105,0.467
	c-1.885,0-3.689-1.07-4.536-2.892c-1.165-2.504-0.079-5.478,2.425-6.643c0.176-0.082,18.095-8.544,30.4-22.479
	c6.486-7.344,6.538-11.89,6.604-17.646c0.074-6.512,0.158-13.893,9.296-23.566c9.754-10.326,20.71-8.431,29.509-6.909
	c8.707,1.505,13.88,2.098,18.953-3.264c6.358-6.72,4.555-11.329,1.824-18.305c-2.173-5.55-4.635-11.841-1.683-18.983
	c2.678-6.481,6.782-10.413,10.698-12.805c-2.074-3.313-3.163-7.35-3.163-11.903c0-11.79,7.037-25.779,18.822-37.421
	c11.77-11.626,25.899-18.567,37.796-18.567c6.243,0,11.541,1.974,15.32,5.708c3.797,3.75,5.804,9.013,5.804,15.22
	c0,11.79-7.036,25.779-18.822,37.421c-11.77,11.626-25.898,18.567-37.796,18.567c-3.602,0-6.875-0.677-9.738-1.95
	c-2.961,1.076-7.225,3.612-9.678,9.549c-1.348,3.26-0.212,6.501,1.752,11.519c2.89,7.383,6.848,17.494-3.872,28.823
	C115.865,143.602,105.379,141.788,96.949,140.329z M27.951,137.972c5.817-6.717,5.735-12.16,5.677-16.135
	c-0.051-3.346-0.08-5.366,3.176-8.869c2.549-2.742,4.914-2.575,10.539-1.447c5.369,1.077,12.718,2.55,18.869-4.058
	c7.244-7.779,4.284-15.021,2.326-19.813c-1.11-2.716-1.766-4.448-1.26-5.758c0.919-2.38,2.433-3.58,3.7-4.19
	c1.864,0.726,3.946,1.104,6.197,1.104c7.943,0,17.292-4.606,25.007-12.322c5.539-5.539,9.563-12.037,11.332-18.298
	c2.054-7.271,0.925-13.536-3.179-17.639c-2.727-2.727-6.506-4.168-10.93-4.168c-7.942,0-17.29,4.606-25.006,12.322
	C63.887,49.214,59.73,62.2,63.511,70.642c-2.198,1.725-4.224,4.185-5.561,7.648c-1.964,5.083-0.137,9.552,1.331,13.144
	c1.856,4.543,2.359,6.265-0.388,9.214c-2.143,2.302-4.331,2.121-9.585,1.067c-5.586-1.119-13.232-2.65-19.829,4.444
	c-5.991,6.445-5.913,11.646-5.851,15.826c0.05,3.375,0.083,5.605-3.236,9.439c-6.956,8.032-17.346,12.802-17.443,12.846
	c-2.519,1.134-3.641,4.094-2.507,6.612c0.834,1.852,2.655,2.949,4.563,2.949c0.687,0,1.384-0.143,2.05-0.442
	C7.559,153.161,19.519,147.708,27.951,137.972z M215.956,84.561c-2.514-2.514-5.984-3.842-10.038-3.842
	c-7.142,0-15.522,4.117-22.418,11.013c-4.942,4.942-8.536,10.75-10.119,16.354c-1.614,5.712-1.048,10.754,1.563,14.451
	c-0.974,1.504-2.583,3.242-5.231,4.537c-1.521,0.743-2.711,0.496-5.728-0.401c-4.552-1.355-11.429-3.401-19.646,4.374
	c-6.863,6.494-6.33,13.525-5.94,18.658c0.362,4.768,0.602,7.918-3.347,11.648c-4.379,4.139-6.789,4.408-10.125,4.781
	c-4.07,0.455-9.136,1.021-16.218,7.356c-10.592,9.474-17.437,21.905-17.724,22.43c-1.322,2.424-0.43,5.461,1.995,6.784
	c0.76,0.415,1.581,0.612,2.39,0.612c1.771,0,3.486-0.942,4.395-2.606c0.062-0.114,6.291-11.43,15.61-19.767
	c4.702-4.205,7.332-4.499,10.662-4.871c4.042-0.452,9.071-1.014,15.884-7.45c7.411-7.003,6.855-14.326,6.449-19.673
	c-0.38-5.009-0.418-7.554,2.842-10.638c4.024-3.808,5.994-3.222,9.921-2.053c3.296,0.981,7.812,2.323,12.971-0.199
	c4.46-2.18,7.438-5.287,9.343-8.274c0.934,0.163,1.909,0.246,2.921,0.246c7.142,0,15.521-4.117,22.417-11.013
	C220.081,105.722,223.164,91.769,215.956,84.561z"/>
<g>
</g>
<g>
</g>
<g>
</g>
<g>
</g>
<g>
</g>
<g>
</g>
<g>
</g>
<g>
</g>
<g>
</g>
<g>
</g>
<g>
</g>
<g>
</g>
<g>
</g>
<g>
</g>
<g>
</g>
</svg>
