<?xml version="1.0" encoding="iso-8859-1"?>
<!-- Generator: Adobe Illustrator 16.0.0, SVG Export Plug-In . SVG Version: 6.00 Build 0)  -->
<!DOCTYPE svg PUBLIC "-//W3C//DTD SVG 1.1//EN" "http://www.w3.org/Graphics/SVG/1.1/DTD/svg11.dtd">
<svg version="1.1" id="Capa_1" xmlns="http://www.w3.org/2000/svg" xmlns:xlink="http://www.w3.org/1999/xlink" x="0px" y="0px"
	 width="875.833px" height="875.833px" viewBox="0 0 875.833 875.833" style="enable-background:new 0 0 875.833 875.833;"
	 xml:space="preserve">
<g>
	<g>
		<path d="M15.058,847.899c43.4,23,130.4,54.101,205.8-11.1c104.5-90.4,82.7-158,139.1-225.3L246.458,498
			c-24.1,28.5-48.6,72.8-55.3,138.6c-12.8,125.601-82.9,182.4-172.6,192.601C8.758,830.3,6.358,843.3,15.058,847.899z"/>
		<path d="M258.658,460.6l12.699,12.7l113.301,113.3l17.699,17.7c5.801,5.8,13.5,8.8,21.2,8.8c6.2,0,12.4-1.899,17.701-5.8
			l40.6-29.6c14.801,2.5,29.9,3.8,45.199,3.8c82.102,0,169.701-35.8,237.9-105.2c121.5-123.7,135.6-307,31.301-409.4
			C750.557,21.9,689.557,0,625.358,0c-82.199,0-169.699,35.9-237.9,105.3c-76.101,77.4-110,178.2-99.2,267.9l-33.3,49.399
			C246.958,434.6,248.458,450.5,258.658,460.6z"/>
	</g>
</g>
<g>
</g>
<g>
</g>
<g>
</g>
<g>
</g>
<g>
</g>
<g>
</g>
<g>
</g>
<g>
</g>
<g>
</g>
<g>
</g>
<g>
</g>
<g>
</g>
<g>
</g>
<g>
</g>
<g>
</g>
</svg>
