<?xml version="1.0" encoding="iso-8859-1"?>
<!-- Generator: Adobe Illustrator 16.0.0, SVG Export Plug-In . SVG Version: 6.00 Build 0)  -->
<!DOCTYPE svg PUBLIC "-//W3C//DTD SVG 1.1//EN" "http://www.w3.org/Graphics/SVG/1.1/DTD/svg11.dtd">
<svg version="1.1" id="Capa_1" xmlns="http://www.w3.org/2000/svg" xmlns:xlink="http://www.w3.org/1999/xlink" x="0px" y="0px"
	 width="199.358px" height="199.358px" viewBox="0 0 199.358 199.358" style="enable-background:new 0 0 199.358 199.358;"
	 xml:space="preserve">
<g>
	<g>
		<path d="M85.191,123.5c-0.815-6.225,13.82-15.972,19.231-24.784c3.576-5.822,5.267-14.476,0.408-24.453
			c18.068-16.352,37.646-39.874,35.423-61.271C139.148,2.22,134.331,0,127.433,0c-9.044,0-20.83,4.918-28.688,11.97l-8.686,7.784
			l-8.686-7.784C73.515,4.924,61.732,0,52.694,0c-6.892,0-11.718,2.22-12.83,12.986C37.74,33.44,55.366,55.712,72.658,71.893
			l-0.018,0.012c0,0,17.401,15.906,14.978,23.974c-2.438,8.139-17.69,17.064-17.69,28.72c0,17.591,41.522,16.516,45.584,39
			C115.529,140.032,86.669,134.813,85.191,123.5z"/>
		<path d="M66.652,83.906c-0.659-6.369-3.511-7.681-7.578-7.681c-5.343,0-12.318,2.905-16.961,7.075l-5.136,4.613l-5.14-4.613
			c-4.643-4.164-11.609-7.075-16.952-7.075c-4.076,0-6.925,1.312-7.587,7.681C6.041,96,16.464,109.172,26.687,118.735l-0.006,0.012
			c0,0,10.284,9.393,8.854,14.181c-1.439,4.806-10.465,10.083-10.465,16.97c0,10.414,24.556,9.776,26.953,23.063
			c0-13.938-17.062-17.022-17.927-23.69c-0.491-3.688,8.166-9.463,11.366-14.67c2.119-3.44,3.112-8.559,0.242-14.452
			C56.394,110.473,67.964,96.556,66.652,83.906z"/>
		<path d="M150.597,169.202c-0.614-4.705,10.392-12.041,14.464-18.666c2.695-4.393,3.966-10.9,0.312-18.406
			c13.607-12.312,28.337-30.027,26.658-46.11c-0.834-8.124-4.463-9.794-9.646-9.794c-6.804,0-15.682,3.718-21.586,9.02l-6.531,5.857
			l-6.537-5.857c-5.911-5.302-14.789-9.02-21.587-9.02c-5.184,0-8.818,1.67-9.652,9.776c-1.596,15.403,11.668,32.166,24.678,44.331
			l-0.006,0.012c0,0,13.099,11.969,11.266,18.039c-1.826,6.136-13.311,12.838-13.311,21.604c0,13.245,31.25,12.454,34.312,29.37
			C173.43,181.62,151.708,177.701,150.597,169.202z"/>
	</g>
</g>
<g>
</g>
<g>
</g>
<g>
</g>
<g>
</g>
<g>
</g>
<g>
</g>
<g>
</g>
<g>
</g>
<g>
</g>
<g>
</g>
<g>
</g>
<g>
</g>
<g>
</g>
<g>
</g>
<g>
</g>
</svg>
