<svg id="spiderweb" xmlns="http://www.w3.org/2000/svg" width="413" height="361" viewBox="0 0 413.2 360.5"><g><path d="M10 190.3c-5.5 0-10-4.5-10-10l0 0c0-5.5 4.5-10 10-10l0 0h393.2c5.5 0 10 4.5 10 10l0 0c0 5.5-4.5 10-10 10l0 0H10L10 190.3z"/><path d="M103.3 359.2c-4.8-2.8-6.4-8.9-3.7-13.7l0 0L296.3 5c2.8-4.8 8.9-6.4 13.7-3.7l0 0c4.8 2.8 6.4 8.9 3.7 13.7l0 0L117 355.5c-1.9 3.2-5.2 5-8.7 5l0 0C106.6 360.5 104.9 360.1 103.3 359.2L103.3 359.2z"/><path d="M296.3 355.5L99.6 15c-2.8-4.8-1.1-10.9 3.7-13.7l0 0c4.8-2.8 10.9-1.1 13.7 3.7l0 0L313.6 345.5c2.8 4.8 1.1 10.9-3.7 13.7l0 0c-1.6 0.9-3.3 1.3-5 1.3l0 0C301.5 360.5 298.1 358.7 296.3 355.5L296.3 355.5z"/><path d="M110.2 27.6v0c-5.4-1.3-8.7-6.7-7.4-12.1l0 0c1.3-5.4 6.7-8.7 12.1-7.4l0 0c0 0 0.7 0.2 2.1 0.5l0 0c1.4 0.3 3.5 0.8 6.2 1.4l0 0c5.3 1.1 12.9 2.6 21.8 4.1l0 0c17.8 3 40.8 6 61.3 6l0 0c36 0 79.3-9.4 89.3-11.7l0 0c1.4-0.3 2.1-0.5 2.1-0.5l0 0c5.4-1.3 10.8 2 12.1 7.3l0 0c1.3 5.4-2 10.8-7.3 12.1l0 0c-0.4 0.1-51.5 12.7-96.2 12.8l0 0C161.7 40.1 110.6 27.6 110.2 27.6L110.2 27.6z"/><path d="M103.3 345.3c-1.3-5.4 2-10.8 7.3-12.1l0 0c0.4-0.1 51.5-12.7 96.2-12.8l0 0c44.7 0.1 95.8 12.5 96.2 12.6l0 0h0c5.4 1.3 8.7 6.7 7.4 12.1l0 0c-1.3 5.4-6.7 8.7-12.1 7.4l0 0c0 0-0.7-0.2-2.1-0.5l0 0c-1.4-0.3-3.5-0.8-6.2-1.4l0 0c-5.3-1.1-12.9-2.6-21.8-4.1l0 0c-17.8-3-40.8-6-61.3-6l0 0c-36 0-79.3 9.4-89.3 11.7l0 0c-1.4 0.3-2.1 0.5-2.1 0.5l0 0c-0.8 0.2-1.6 0.3-2.4 0.3l0 0C108.5 352.9 104.4 349.9 103.3 345.3L103.3 345.3z"/><path d="M12 187.7c-4-3.8-4.2-10.1-0.4-14.1l0 0c0 0 0.1-0.1 0.4-0.4l0 0c0.3-0.3 0.6-0.7 1.1-1.2l0 0c1-1.1 2.5-2.7 4.3-4.7l0 0c3.6-4.1 8.7-9.9 14.5-16.8l0 0c11.5-13.9 25.6-32.3 35.9-50.1l0 0C85.9 69.2 99.4 27 102.3 17.2l0 0c0.4-1.4 0.6-2.1 0.6-2.1l0 0c1.5-5.3 7.1-8.4 12.4-6.8l0 0c5.3 1.5 8.4 7.1 6.8 12.4l0 0c0 0.2-3.8 12.9-10.2 30.5l0 0c-6.5 17.6-15.6 39.8-26.8 59.2l0 0c-22.4 38.7-58.7 76.7-59 77l0 0h0c-2 2.1-4.6 3.1-7.2 3.1l0 0C16.5 190.5 14 189.6 12 187.7L12 187.7z"/><path d="M297.8 352.3c-5.3-1.5-8.4-7.1-6.8-12.4l0 0c0-0.2 3.8-12.9 10.2-30.5l0 0c6.5-17.5 15.6-39.8 26.8-59.2l0 0c22.4-38.7 58.7-76.7 59-77l0 0h0c3.8-4 10.1-4.2 14.1-0.4l0 0c4 3.8 4.2 10.1 0.4 14.1l0 0c0 0-0.1 0.1-0.4 0.4l0 0c-0.3 0.3-0.6 0.7-1.1 1.2l0 0c-1 1.1-2.5 2.7-4.3 4.7l0 0c-3.6 4.1-8.7 9.9-14.5 16.8l0 0c-11.5 13.9-25.6 32.3-35.9 50.1l0 0c-18 31.1-31.6 73.4-34.5 83.2l0 0c-0.4 1.4-0.6 2.1-0.6 2.1l0 0c-1.3 4.4-5.3 7.2-9.6 7.2l0 0C299.7 352.7 298.8 352.6 297.8 352.3L297.8 352.3z"/><path d="M103.4 345.7c0 0-0.2-0.7-0.6-2.1l0 0c-0.4-1.4-1.1-3.5-1.9-6.1l0 0c-1.7-5.2-4.2-12.5-7.3-21l0 0c-6.3-16.9-15.2-38.4-25.5-56.1l0 0c-19.2-33.4-52.1-68.7-55.9-72.7l0 0c-0.3-0.3-0.4-0.4-0.4-0.4l0 0c-3.8-4-3.7-10.3 0.3-14.1l0 0c4-3.8 10.3-3.7 14.1 0.3l0 0c0.2 0.3 36.8 38.2 59.2 76.9l0 0c11.2 19.4 20.4 41.6 26.9 59.2l0 0c6.5 17.5 10.3 30.3 10.3 30.4l0 0c1.6 5.3-1.5 10.9-6.8 12.4l0 0c-0.9 0.3-1.9 0.4-2.8 0.4l0 0C108.6 352.9 104.7 350.1 103.4 345.7L103.4 345.7z"/><path d="M387.1 187c-0.2-0.3-36.8-38.2-59.2-76.9l0 0c-11.2-19.4-20.4-41.6-26.9-59.2l0 0c-6.5-17.5-10.3-30.3-10.3-30.4l0 0c-1.6-5.3 1.5-10.9 6.8-12.4l0 0c5.3-1.6 10.9 1.5 12.4 6.8l0 0c0 0 0.2 0.7 0.6 2.1l0 0c0.4 1.4 1.1 3.5 1.9 6.1l0 0c1.7 5.2 4.2 12.5 7.3 21l0 0c6.3 16.9 15.2 38.4 25.5 56.1l0 0c19.2 33.4 52.1 68.7 55.9 72.7l0 0c0.3 0.3 0.4 0.4 0.4 0.4l0 0c3.8 4 3.7 10.3-0.3 14.1l0 0c-1.9 1.9-4.4 2.8-6.9 2.8l0 0C391.6 190 389 189 387.1 187L387.1 187z"/><path d="M139.9 78.8c-5.4-1.3-8.7-6.7-7.4-12.1l0 0c1.3-5.4 6.7-8.7 12.1-7.4l0 0c0 0 0.5 0.1 1.4 0.3l0 0c1 0.2 2.4 0.5 4.2 0.9l0 0c3.6 0.8 8.8 1.8 14.8 2.8l0 0c12.1 2.1 27.7 4.1 41.5 4.1l0 0c24.1 0 53.7-6.4 60.4-7.9l0 0c1-0.2 1.4-0.3 1.4-0.3l0 0c5.4-1.3 10.8 2 12.1 7.3l0 0c1.3 5.4-2 10.8-7.3 12.1l0 0c-0.4 0.1-35.4 8.8-66.6 8.8l0 0C175.3 87.4 140.3 78.9 139.9 78.8L139.9 78.8z"/><path d="M132.8 294c-1.3-5.4 2-10.8 7.3-12.1l0 0c0.4-0.1 35.4-8.8 66.6-8.8l0 0c31.1 0.1 66.2 8.6 66.6 8.7l0 0v0c5.4 1.3 8.7 6.7 7.4 12.1l0 0c-1.3 5.4-6.7 8.7-12.1 7.4l0 0c0 0-0.5-0.1-1.4-0.3l0 0c-1-0.2-2.4-0.5-4.2-0.9l0 0c-3.6-0.8-8.8-1.8-14.8-2.8l0 0c-12.1-2.1-27.7-4.1-41.5-4.1l0 0c-24.1 0-53.7 6.4-60.4 7.9l0 0c-1 0.2-1.4 0.3-1.4 0.3l0 0c-0.8 0.2-1.6 0.3-2.4 0.3l0 0C138 301.6 133.9 298.6 132.8 294L132.8 294z"/><path d="M71.2 187.7c-4-3.8-4.2-10.1-0.4-14.1l0 0c0 0 0.1-0.1 0.2-0.3l0 0c0.2-0.2 0.4-0.5 0.8-0.8l0 0c0.7-0.7 1.7-1.8 2.9-3.2l0 0c2.5-2.7 5.9-6.7 9.8-11.4l0 0c7.8-9.4 17.4-22 24.3-33.9l0 0c12.1-20.9 21.4-49.7 23.3-56.3l0 0c0.3-0.9 0.4-1.4 0.4-1.4l0 0c1.5-5.3 7.1-8.4 12.4-6.8l0 0c5.3 1.5 8.4 7.1 6.8 12.4l0 0c0 0.2-2.6 9-7.1 21.1l0 0c-4.5 12.1-10.8 27.5-18.6 41l0 0c-15.6 26.9-40.6 53-40.8 53.3l0 0v0c-2 2.1-4.6 3.1-7.2 3.1l0 0C75.6 190.4 73.2 189.5 71.2 187.7L71.2 187.7z"/><path d="M268.2 301.1c-5.3-1.5-8.4-7.1-6.8-12.4l0 0c0-0.2 2.6-9 7.1-21.1l0 0c4.5-12.1 10.8-27.5 18.6-41l0 0c15.6-26.9 40.6-53 40.8-53.3l0 0 0 0c3.8-4 10.1-4.2 14.1-0.4l0 0c4 3.8 4.2 10.1 0.4 14.1l0 0c0 0-0.1 0.1-0.2 0.3l0 0c-0.2 0.2-0.4 0.5-0.8 0.8l0 0c-0.7 0.7-1.7 1.8-2.9 3.2l0 0c-2.5 2.8-5.9 6.7-9.8 11.4l0 0c-7.8 9.4-17.4 22-24.3 33.9l0 0c-12.1 20.9-21.4 49.7-23.3 56.3l0 0c-0.3 0.9-0.4 1.4-0.4 1.4l0 0c-1.3 4.4-5.3 7.2-9.6 7.2l0 0C270.1 301.5 269.1 301.3 268.2 301.1L268.2 301.1z"/><path d="M132.9 294.5c0 0-0.1-0.5-0.4-1.4l0 0c-0.3-0.9-0.7-2.3-1.3-4.1l0 0c-1.1-3.5-2.8-8.5-5-14.2l0 0c-4.2-11.5-10.3-26-17.2-38l0 0c-12.9-22.4-35.3-46.5-37.9-49.2l0 0c-0.2-0.2-0.2-0.2-0.2-0.2l0 0c-3.8-4-3.7-10.3 0.3-14.1l0 0c4-3.8 10.3-3.7 14.1 0.3l0 0c0.2 0.3 25.3 26.3 41 53.3l0 0c7.8 13.5 14.1 28.9 18.6 41l0 0c4.5 12.1 7.1 20.9 7.1 21l0 0c1.6 5.3-1.5 10.9-6.8 12.4l0 0c-0.9 0.3-1.9 0.4-2.8 0.4l0 0C138.2 301.6 134.2 298.8 132.9 294.5L132.9 294.5z"/><path d="M327.9 187c-0.2-0.3-25.3-26.3-41-53.3l0 0c-7.8-13.5-14.1-28.9-18.6-41l0 0c-4.5-12.1-7.1-20.9-7.1-21l0 0c-1.6-5.3 1.5-10.9 6.8-12.4l0 0c5.3-1.6 10.9 1.5 12.4 6.8l0 0c0 0 0.1 0.5 0.4 1.4l0 0c0.3 0.9 0.7 2.3 1.3 4.1l0 0c1.1 3.5 2.8 8.5 5 14.2l0 0c4.3 11.5 10.3 26 17.2 38l0 0c12.9 22.4 35.3 46.5 37.8 49.2l0 0c0.2 0.2 0.2 0.3 0.2 0.3l0 0c3.8 4 3.7 10.3-0.3 14.1l0 0c-1.9 1.9-4.4 2.8-6.9 2.8l0 0C332.5 190.1 329.8 189.1 327.9 187L327.9 187z"/><path d="M169.5 130c-5.4-1.3-8.7-6.7-7.4-12.1l0 0c1.3-5.4 6.7-8.7 12.1-7.4l0 0c0 0 0.2 0.1 0.7 0.2l0 0c0.5 0.1 1.2 0.3 2.2 0.5l0 0c1.9 0.4 4.6 0.9 7.8 1.5l0 0c6.3 1.1 14.6 2.1 21.6 2.1l0 0c12.3 0 28.1-3.3 31.6-4.2l0 0c0.5-0.1 0.7-0.2 0.7-0.2l0 0c5.4-1.3 10.8 2 12.1 7.3l0 0c1.3 5.4-2 10.8-7.3 12.1l0 0c-0.4 0.1-19.4 4.9-37 4.9l0 0C188.9 134.8 169.9 130.1 169.5 130L169.5 130z"/><path d="M162.3 242.7c-1.3-5.4 2-10.8 7.3-12.1l0 0c0.4-0.1 19.4-4.8 37-4.9l0 0c17.6 0.1 36.6 4.8 37 4.8l0 0h0c5.4 1.3 8.7 6.7 7.4 12.1l0 0c-1.3 5.4-6.7 8.7-12.1 7.4l0 0c0 0-0.2-0.1-0.7-0.2l0 0c-0.5-0.1-1.2-0.3-2.2-0.5l0 0c-1.9-0.4-4.6-0.9-7.8-1.5l0 0c-6.3-1.1-14.6-2.1-21.6-2.1l0 0c-12.3 0-28.1 3.3-31.6 4.2l0 0c-0.5 0.1-0.7 0.2-0.7 0.2l0 0c-0.8 0.2-1.6 0.3-2.4 0.3l0 0C167.5 250.3 163.4 247.3 162.3 242.7L162.3 242.7z"/><path d="M130.4 187.6c-4-3.8-4.2-10.1-0.4-14.1l0 0c0 0 0 0 0.1-0.1l0 0c0.1-0.1 0.2-0.2 0.4-0.4l0 0c0.3-0.4 0.9-0.9 1.5-1.7l0 0c1.3-1.4 3.1-3.5 5.2-6l0 0c4.1-5 9.2-11.6 12.6-17.6l0 0c6.2-10.6 11.2-26 12.2-29.4l0 0c0.1-0.5 0.2-0.7 0.2-0.7l0 0c1.5-5.3 7.1-8.4 12.4-6.8l0 0c5.3 1.5 8.4 7.1 6.8 12.4l0 0c0 0.2-1.5 5-3.9 11.7l0 0c-2.5 6.7-5.9 15.2-10.4 22.9l0 0c-8.8 15.2-22.4 29.3-22.7 29.6l0 0c-2 2.1-4.6 3.1-7.2 3.1l0 0C134.8 190.4 132.3 189.4 130.4 187.6L130.4 187.6z"/><path d="M238.5 249.9c-5.3-1.5-8.4-7.1-6.8-12.4l0 0c0-0.2 1.5-5 3.9-11.7l0 0c2.5-6.7 5.9-15.2 10.4-22.9l0 0c8.8-15.2 22.4-29.3 22.7-29.6l0 0c3.8-4 10.1-4.2 14.1-0.4l0 0c4 3.8 4.2 10.1 0.4 14.1l0 0c0 0 0 0-0.1 0.1l0 0c-0.1 0.1-0.2 0.2-0.4 0.4l0 0c-0.3 0.4-0.9 0.9-1.5 1.7l0 0c-1.3 1.4-3.1 3.5-5.2 6l0 0c-4.1 5-9.2 11.6-12.6 17.6l0 0c-6.2 10.6-11.2 26-12.2 29.4l0 0c-0.1 0.5-0.2 0.7-0.2 0.7l0 0c-1.3 4.4-5.3 7.2-9.6 7.2l0 0C240.4 250.3 239.5 250.1 238.5 249.9L238.5 249.9z"/><path d="M162.4 243.2c0 0-0.1-0.2-0.2-0.7l0 0c-0.2-0.5-0.4-1.2-0.7-2.1l0 0c-0.6-1.8-1.5-4.5-2.6-7.5l0 0c-2.2-6-5.5-13.7-9-19.8l0 0c-6.5-11.4-18.5-24.4-19.8-25.7l0 0c-0.1-0.1-0.1-0.1-0.1-0.1l0 0c-3.8-4-3.7-10.3 0.3-14.1l0 0c4-3.8 10.3-3.7 14.1 0.3l0 0c0.2 0.3 13.9 14.4 22.8 29.6l0 0c4.4 7.7 7.9 16.1 10.4 22.8l0 0c2.5 6.7 3.9 11.5 3.9 11.6l0 0h0c1.6 5.3-1.5 10.9-6.8 12.4l0 0c-0.9 0.3-1.9 0.4-2.8 0.4l0 0C167.7 250.3 163.7 247.5 162.4 243.2L162.4 243.2z"/><path d="M268.7 187.1c-0.2-0.3-13.9-14.4-22.8-29.6l0 0c-4.4-7.7-7.9-16.1-10.4-22.8l0 0c-2.5-6.7-3.9-11.5-3.9-11.6l0 0h0c-1.6-5.3 1.5-10.9 6.8-12.4l0 0c5.3-1.6 10.9 1.5 12.4 6.8l0 0c0 0 0.1 0.2 0.2 0.7l0 0c0.2 0.5 0.4 1.2 0.7 2.1l0 0c0.6 1.8 1.5 4.5 2.6 7.5l0 0c2.2 6 5.5 13.7 9 19.8l0 0c6.5 11.4 18.5 24.4 19.8 25.7l0 0c0.1 0.1 0.1 0.1 0.1 0.1l0 0c3.8 4 3.7 10.3-0.3 14.1l0 0c-1.9 1.9-4.4 2.8-6.9 2.8l0 0C273.3 190.2 270.7 189.2 268.7 187.1L268.7 187.1z"/></g></svg>