<?xml version="1.0" encoding="UTF-8" standalone="no"?>
<!-- Generator: Adobe Illustrator 17.0.2, SVG Export Plug-In . SVG Version: 6.00 Build 0)  -->

<svg
   xmlns:dc="http://purl.org/dc/elements/1.1/"
   xmlns:cc="http://creativecommons.org/ns#"
   xmlns:rdf="http://www.w3.org/1999/02/22-rdf-syntax-ns#"
   xmlns:svg="http://www.w3.org/2000/svg"
   xmlns="http://www.w3.org/2000/svg"
   xmlns:sodipodi="http://sodipodi.sourceforge.net/DTD/sodipodi-0.dtd"
   xmlns:inkscape="http://www.inkscape.org/namespaces/inkscape"
   version="1.1"
   id="Layer_1"
   x="0px"
   y="0px"
   width="23.326"
   height="54.735001"
   viewBox="0 0 23.326 54.735001"
   enable-background="new 0 0 64 64"
   xml:space="preserve"
   inkscape:version="0.48.4 r9939"
   sodipodi:docname="unknown.svg"><metadata
   id="metadata3795"><rdf:RDF><cc:Work
       rdf:about=""><dc:format>image/svg+xml</dc:format><dc:type
         rdf:resource="http://purl.org/dc/dcmitype/StillImage" /></cc:Work></rdf:RDF></metadata><defs
   id="defs3793" /><sodipodi:namedview
   pagecolor="#ffffff"
   bordercolor="#666666"
   borderopacity="1"
   objecttolerance="10"
   gridtolerance="10"
   guidetolerance="10"
   inkscape:pageopacity="0"
   inkscape:pageshadow="2"
   inkscape:window-width="640"
   inkscape:window-height="480"
   id="namedview3791"
   showgrid="false"
   inkscape:zoom="29.5"
   inkscape:cx="12.101736"
   inkscape:cy="52.029842"
   inkscape:window-x="2404"
   inkscape:window-y="371"
   inkscape:window-maximized="0"
   inkscape:current-layer="Layer_1"
   fit-margin-top="0"
   fit-margin-left="0"
   fit-margin-right="0"
   fit-margin-bottom="0" />
<g
   id="g3787"
   transform="translate(-20.337,-4.632)">
	<path
   d="m 20.337,16.22 c 0,-1.574 0.304,-3.073 0.915,-4.497 0.609,-1.422 1.448,-2.655 2.516,-3.697 1.067,-1.041 2.311,-1.868 3.734,-2.479 1.423,-0.609 2.947,-0.915 4.574,-0.915 1.879,0 3.595,0.381 5.146,1.144 1.55,0.763 2.831,1.829 3.849,3.201 0.507,0.712 0.926,1.373 1.257,1.983 0.331,0.611 0.598,1.259 0.801,1.944 0.202,0.687 0.343,1.462 0.419,2.325 0.077,0.864 0.115,1.881 0.115,3.049 0,1.322 -0.013,2.428 -0.037,3.316 -0.027,0.89 -0.09,1.666 -0.191,2.325 -0.103,0.661 -0.229,1.233 -0.381,1.716 -0.153,0.483 -0.357,0.927 -0.611,1.333 l -5.26,8.995 c -0.356,0.611 -0.661,1.233 -0.915,1.868 -0.255,0.636 -0.381,1.309 -0.381,2.02 v 6.1 l -7.775,0 v -7.09 c 0,-1.117 0.178,-2.185 0.533,-3.201 0.356,-1.016 0.813,-2.007 1.372,-2.973 l 4.88,-7.929 c 0.406,-0.659 0.672,-1.372 0.8,-2.134 0.126,-0.761 0.191,-1.524 0.191,-2.286 v -4.04 c 0,-1.068 -0.37,-1.983 -1.105,-2.745 -0.737,-0.763 -1.638,-1.144 -2.706,-1.144 -0.915,0 -1.805,0.331 -2.668,0.992 -0.864,0.661 -1.296,1.627 -1.296,2.897 v 4.421 l -7.775,0 V 16.22 z m 7.775,35.372 7.775,0 v 7.775 l -7.775,0 v -7.775 z"
   id="path3789"
   inkscape:connector-curvature="0" />
</g>
</svg>