<?xml version="1.0" encoding="iso-8859-1"?>
<!-- Generator: Adobe Illustrator 17.1.0, SVG Export Plug-In . SVG Version: 6.00 Build 0)  -->
<!DOCTYPE svg PUBLIC "-//W3C//DTD SVG 1.1//EN" "http://www.w3.org/Graphics/SVG/1.1/DTD/svg11.dtd">
<svg version="1.1" id="Capa_1" xmlns="http://www.w3.org/2000/svg" xmlns:xlink="http://www.w3.org/1999/xlink" x="0px" y="0px"
	 viewBox="0 0 216.118 216.118" style="enable-background:new 0 0 216.118 216.118;" xml:space="preserve">
<path d="M215.741,65.559c-0.949-5.232-3.544-9.226-7.503-11.549c-7.21-4.231-16.979-0.594-27.324,3.255
	c-4.39,1.634-8.929,3.323-13.064,4.289c-5.921,1.384-11.652-2.418-15.575-6.067c0.434-10.146-1.424-19.598-13.553-25.041
	c-13.016-5.841-29.948-5.909-30.662-5.909s-17.647,0.067-30.663,5.909C65.268,35.889,63.41,45.342,63.844,55.487
	c-3.923,3.648-9.652,7.448-15.575,6.067c-4.136-0.966-8.675-2.656-13.065-4.289C24.86,53.416,15.09,49.781,7.88,54.01
	c-3.958,2.323-6.553,6.316-7.503,11.549c-1.195,6.581,0.527,14.554,4.095,18.959c2.938,3.628,5.368,5.549,7.029,6.561
	c-0.359,1.232-0.57,2.512-0.57,3.836c0,8.931,8.662,16.197,19.31,16.197c9.45,0,17.321-5.727,18.976-13.258
	c4.699-0.692,13.142-2.415,18.565-6.333c2.004-1.447,3.684-2.829,5.084-4.08c0.889,2.594,1.664,5.759,2.2,10.004
	c1.697,13.435,4.024,18.657,6.488,24.185c0.979,2.196,1.991,4.467,2.981,7.383c1.741,5.129,2.122,13.071,2.458,20.078
	c0.309,6.443,0.576,12.008,1.777,15.767c2.147,6.724,3.292,22.841,3.303,23.003c0.146,2.096,1.889,3.722,3.99,3.722h23.994
	c2.102,0,3.845-1.626,3.99-3.722c0.313-4.504,1.519-17.417,3.303-23.002c1.2-3.758,1.468-9.324,1.776-15.768
	c0.336-7.006,0.717-14.948,2.458-20.077c0.989-2.916,2.002-5.186,2.98-7.382c2.464-5.528,4.791-10.75,6.488-24.185
	c0.536-4.246,1.31-7.41,2.2-10.004c1.4,1.251,3.081,2.633,5.084,4.081c5.431,3.923,13.891,5.646,18.587,6.336
	c1.715,7.537,9.62,13.255,19.098,13.255c10.727,0,19.455-7.32,19.455-16.318c0-1.342-0.216-2.64-0.581-3.888
	c1.649-1.053,3.972-2.956,6.751-6.387C215.214,80.113,216.937,72.139,215.741,65.559z M8.248,66.988
	c0.364-2.001,1.297-4.68,3.681-6.079c3.931-2.305,12.346,0.825,20.485,3.854c4.624,1.721,9.405,3.5,14.035,4.582
	c6.942,1.624,13.266-0.89,18.232-4.302c0.823,6.942,2.76,10.952,4.697,14.698c-1.41,1.41-3.471,3.266-6.281,5.295
	c-3.616,2.612-10.131,4.114-14.526,4.815c-2.542-6.456-9.792-11.133-18.33-11.133c-5.791,0-10.981,2.16-14.523,5.557
	c-0.78-0.47-2.568-1.754-5.029-4.792C8.838,77.199,7.38,71.772,8.248,66.988z M205.43,79.483c-2.203,2.721-3.865,4.032-4.749,4.615
	c-3.569-3.437-8.81-5.623-14.658-5.623c-8.669,0-16.026,4.783-18.532,11.367c-4.395-0.705-10.87-2.207-14.47-4.806
	c-2.81-2.03-4.871-3.886-6.28-5.295c1.938-3.746,3.875-7.757,4.698-14.701c4.966,3.412,11.289,5.927,18.231,4.304
	c4.63-1.082,9.41-2.861,14.034-4.581c8.138-3.028,16.555-6.161,20.485-3.854c2.384,1.399,3.317,4.078,3.681,6.079
	C208.739,71.772,207.28,77.199,205.43,79.483z"/>
<g>
</g>
<g>
</g>
<g>
</g>
<g>
</g>
<g>
</g>
<g>
</g>
<g>
</g>
<g>
</g>
<g>
</g>
<g>
</g>
<g>
</g>
<g>
</g>
<g>
</g>
<g>
</g>
<g>
</g>
</svg>
