<?xml version="1.0" encoding="iso-8859-1"?>
<!-- Generator: Adobe Illustrator 18.0.0, SVG Export Plug-In . SVG Version: 6.00 Build 0)  -->
<!DOCTYPE svg PUBLIC "-//W3C//DTD SVG 1.1//EN" "http://www.w3.org/Graphics/SVG/1.1/DTD/svg11.dtd">
<svg version="1.1" id="Capa_1" xmlns="http://www.w3.org/2000/svg" xmlns:xlink="http://www.w3.org/1999/xlink" x="0px" y="0px"
	 viewBox="0 0 60 60" style="enable-background:new 0 0 60 60;" xml:space="preserve">
<g>
	<path d="M29.999,41.499c1.772,0,3.401,0.762,4.609,2.049c0.004-0.13,0.017-0.258,0.017-0.388V37c0-1.428-1.146-2.59-2.555-2.59
		h-4.141c-1.409,0-2.555,1.162-2.555,2.59v6.159c0,0.13,0.013,0.259,0.017,0.388C26.597,42.261,28.227,41.499,29.999,41.499z"/>
	<path d="M30.012,18.948c-2.289,2.496-9.451,11.17-9.376,21.825c0.048,6.847,3.06,13.304,8.94,19.216C29.718,59.991,29.858,60,30,60
		c0.15,0,0.298-0.009,0.447-0.011c5.884-5.916,8.895-12.378,8.939-19.231C39.455,30.091,32.3,21.439,30.012,18.948z M36.266,46.387
		l-0.07,0.29c-0.002,0.009-0.006,0.017-0.008,0.026c-0.257,1.055-0.629,2.077-1.107,3.051c-0.04,0.083-0.084,0.164-0.126,0.246
		c-0.197,0.383-0.41,0.757-0.64,1.123c-0.063,0.101-0.123,0.203-0.189,0.302c-0.285,0.43-0.584,0.85-0.914,1.249l-1.076,1.304
		c-0.53,0.642-1.309,1.01-2.138,1.01s-1.608-0.368-2.138-1.011l-1.076-1.303c-0.329-0.398-0.628-0.817-0.912-1.246
		c-0.067-0.102-0.129-0.207-0.194-0.31c-0.228-0.363-0.439-0.734-0.635-1.114c-0.043-0.084-0.087-0.167-0.129-0.252
		c-0.477-0.972-0.848-1.992-1.105-3.045c-0.002-0.01-0.007-0.019-0.009-0.029l-0.07-0.291l0.006-0.015
		c-0.231-1.05-0.363-2.125-0.363-3.212V37c0-2.531,2.043-4.59,4.555-4.59h4.141c2.511,0,4.555,2.059,4.555,4.59v6.159
		c0,1.087-0.132,2.163-0.364,3.213L36.266,46.387z"/>
	<path d="M33.121,0.163c3.286,4.055,8.68,12.303,8.231,22.284c1.075,1.595,2.117,3.242,3.032,4.868
		c0.654,1.162,0.872,2.451,0.614,3.632c-0.375,1.709,0.094,3.529,1.193,4.638c1.092,1.102,1.691,2.469,1.685,3.851
		c-0.001,0.161-0.003,0.323-0.008,0.483c-0.042,1.43-0.75,2.827-1.993,3.935c-1.102,0.981-1.658,2.63-1.451,4.303
		c0.17,1.379-0.254,2.848-1.163,4.029c-1.962,2.551-4.586,4.995-7.805,7.309C49.4,56.92,60,44.679,60,30
		C60,14.512,48.202,1.729,33.121,0.163z"/>
	<path d="M30,0c-0.108,0-0.215,0.007-0.323,0.008c-2.406,2.71-8.278,10.204-8.971,19.508c0.054-0.075,0.114-0.152,0.168-0.227
		c0.511-0.703,1.015-1.382,1.506-2.028c0.089-0.117,0.181-0.236,0.272-0.354c0.597-0.781,1.175-1.523,1.703-2.185
		c0.31-0.39,0.659-0.736,1.031-1.048c-0.566-0.886-0.875-1.914-0.875-2.988c0-3.058,2.467-5.545,5.5-5.545
		c3.033,0,5.5,2.487,5.5,5.545c0,1.078-0.31,2.108-0.878,2.995c0.371,0.312,0.718,0.657,1.027,1.045
		c0.521,0.655,1.093,1.39,1.683,2.162c0.101,0.133,0.205,0.266,0.305,0.398c0.473,0.623,0.959,1.279,1.452,1.955
		c0.07,0.096,0.147,0.195,0.216,0.291c-0.687-9.31-6.563-16.811-8.971-19.523C30.231,0.007,30.116,0,30,0z"/>
	<path d="M17.351,52.918c-0.97-1.179-1.369-2.728-1.094-4.25c0.355-1.974-0.374-3.952-1.816-4.922
		c-1.427-0.962-2.306-2.697-2.294-4.531l0.003-0.218c0.023-1.347,0.583-2.644,1.534-3.552c1.093-1.044,1.6-2.742,1.321-4.432
		c-0.212-1.294-0.023-2.521,0.548-3.548c0.936-1.682,2.008-3.386,3.116-5.033c-0.444-9.977,4.95-18.222,8.234-22.274
		C11.811,1.714,0,14.503,0,30c0,14.686,10.611,26.933,24.567,29.498C21.658,57.406,19.235,55.206,17.351,52.918z"/>
</g>
<g>
</g>
<g>
</g>
<g>
</g>
<g>
</g>
<g>
</g>
<g>
</g>
<g>
</g>
<g>
</g>
<g>
</g>
<g>
</g>
<g>
</g>
<g>
</g>
<g>
</g>
<g>
</g>
<g>
</g>
</svg>
