<?xml version="1.0" encoding="iso-8859-1"?>
<!-- Generator: Adobe Illustrator 16.0.0, SVG Export Plug-In . SVG Version: 6.00 Build 0)  -->
<!DOCTYPE svg PUBLIC "-//W3C//DTD SVG 1.1//EN" "http://www.w3.org/Graphics/SVG/1.1/DTD/svg11.dtd">
<svg version="1.1" id="Capa_1" xmlns="http://www.w3.org/2000/svg" xmlns:xlink="http://www.w3.org/1999/xlink" x="0px" y="0px"
	 width="45px" height="45px" viewBox="0 0 45 45" style="enable-background:new 0 0 45 45;" xml:space="preserve">
<g>
	<g>
		<path d="M24.489,44.973c-0.416-0.082-1.479-0.313-1.159-2.146c0.319-1.831,0.265-2.623,0.188-3.822
			c-0.078-1.2-0.259-20.679-0.215-21.587c0.045-0.907-0.269-2.107,2.325-5.712c1.063-1.482,0.765-2.106,0.922-3.751
			c0.101-1.038,0.134-4.178,0.125-5.101h-0.024c-0.18-0.22-0.226-1.076,0.021-1.367h0.033c0.016-0.394-0.016-0.769-0.016-0.934
			C26.69,0.355,26.899,0,27.21,0h3.261c0.312,0,0.521,0.355,0.521,0.553c0,0.165-0.029,0.541-0.016,0.934h0.033
			c0.248,0.291,0.202,1.146,0.021,1.367h-0.023C31,3.777,31.033,6.917,31.133,7.955c0.156,1.645-0.145,2.269,0.922,3.751
			c2.594,3.604,2.281,4.805,2.326,5.712c0.043,0.909-0.137,20.387-0.215,21.587c-0.076,1.199-0.133,1.991,0.188,3.822
			c0.32,1.83-0.742,2.063-1.16,2.146H24.489z"/>
		<path d="M16.375,37.309c2.557-0.365,4.539-3.041,4.539-9.203H10.586c0,6.162,1.982,8.838,4.539,9.203v6.911h-2.588V45h6.424v-0.78
			h-2.588L16.375,37.309L16.375,37.309z"/>
	</g>
</g>
<g>
</g>
<g>
</g>
<g>
</g>
<g>
</g>
<g>
</g>
<g>
</g>
<g>
</g>
<g>
</g>
<g>
</g>
<g>
</g>
<g>
</g>
<g>
</g>
<g>
</g>
<g>
</g>
<g>
</g>
</svg>
