<?xml version="1.0" encoding="utf-8"?>
<!-- Generator: Adobe Illustrator 17.0.1, SVG Export Plug-In . SVG Version: 6.00 Build 0)  -->
<!DOCTYPE svg PUBLIC "-//W3C//DTD SVG 1.1//EN" "http://www.w3.org/Graphics/SVG/1.1/DTD/svg11.dtd">
<svg version="1.1" id="Layer_1" xmlns="http://www.w3.org/2000/svg" xmlns:xlink="http://www.w3.org/1999/xlink" x="0px" y="0px"
	 width="82.583px" height="40px" viewBox="0 0 82.583 40" enable-background="new 0 0 82.583 40" xml:space="preserve">
<g>
	<path fill="#2E3E52" d="M29.053,20.627V17.43c0-0.675-0.547-1.221-1.221-1.221H7.678c-0.674,0-1.221,0.547-1.221,1.221v3.664
		c0,0.675,0.547,1.221,1.221,1.221h19.287c0.132,0.709,0.751,1.247,1.499,1.247c0.843,0,1.527-0.684,1.527-1.527
		C29.99,21.401,29.603,20.858,29.053,20.627z"/>
</g>
<g>
	<path fill="#854C9E" d="M29.053,31.44v-3.198c0-0.675-0.547-1.221-1.221-1.221H7.678c-0.674,0-1.221,0.547-1.221,1.221v3.664
		c0,0.675,0.547,1.221,1.221,1.221h19.287c0.132,0.709,0.751,1.247,1.499,1.247c0.843,0,1.527-0.684,1.527-1.527
		C29.99,32.214,29.603,31.67,29.053,31.44z"/>
</g>
<g id="Rounded_Rectangle_4_copy_4_">
	<g>
		<path fill="#2E3E52" d="M27.831,5.625H7.678c-0.674,0-1.221,0.547-1.221,1.221v3.664c0,0.674,0.547,1.221,1.221,1.221h20.154
			c0.675,0,1.221-0.547,1.221-1.221V6.846C29.053,6.172,28.506,5.625,27.831,5.625z"/>
	</g>
</g>
<g>
	<circle fill="#2E3E52" cx="28.463" cy="11.452" r="1.527"/>
</g>
<text transform="matrix(1 0 0 1 27.9963 12.3805)" fill="#355477" font-family="'Univers-UltraCondensed'" font-size="2.4429">5</text>
<path fill="#2E3E52" d="M58.616,10.044c0,0,0.001,0,0.002,0.001V6.847c0-0.675-0.547-1.222-1.222-1.222H37.24
	c-0.675,0-1.222,0.547-1.222,1.222v3.665c0,0.675,0.547,1.222,1.222,1.222h19.288l0,0c0.132,0.709,0.753,1.247,1.5,1.247
	c0.843,0,1.527-0.684,1.527-1.527C59.555,10.818,59.167,10.274,58.616,10.044z M58.333,9.957c-0.009-0.002-0.018-0.003-0.027-0.004
	C58.315,9.954,58.324,9.955,58.333,9.957z M58.183,9.934c-0.051-0.005-0.103-0.008-0.155-0.008
	C58.08,9.926,58.132,9.929,58.183,9.934z M56.501,11.453c0,0.048,0.003,0.096,0.007,0.143
	C56.504,11.549,56.501,11.501,56.501,11.453z M58.028,12.522c-0.589,0-1.069-0.479-1.069-1.069c0-0.589,0.479-1.069,1.069-1.069
	c0.589,0,1.069,0.479,1.069,1.069C59.097,12.042,58.617,12.522,58.028,12.522z"/>
<path fill="#2E3E52" d="M58.616,20.741c0,0,0.001,0,0.002,0.001v-3.198c0-0.675-0.547-1.222-1.222-1.222H37.24
	c-0.675,0-1.222,0.547-1.222,1.222v3.665c0,0.675,0.547,1.222,1.222,1.222h19.288l0,0c0.132,0.709,0.753,1.247,1.5,1.247
	c0.843,0,1.527-0.684,1.527-1.527C59.555,21.516,59.167,20.971,58.616,20.741z M58.333,20.654c-0.009-0.002-0.018-0.003-0.027-0.004
	C58.315,20.652,58.324,20.652,58.333,20.654z M58.183,20.631c-0.051-0.005-0.103-0.008-0.155-0.008
	C58.08,20.624,58.132,20.626,58.183,20.631z M56.501,22.15c0,0.048,0.003,0.096,0.007,0.143
	C56.504,22.246,56.501,22.199,56.501,22.15z M58.028,23.219c-0.589,0-1.069-0.479-1.069-1.069s0.479-1.069,1.069-1.069
	c0.589,0,1.069,0.479,1.069,1.069S58.617,23.219,58.028,23.219z"/>
<path fill="#854C9E" d="M58.616,31.439c0,0,0.001,0,0.002,0.001v-3.198c0-0.675-0.547-1.222-1.222-1.222H37.24
	c-0.675,0-1.222,0.547-1.222,1.222v3.665c0,0.675,0.547,1.222,1.222,1.222h19.288l0,0c0.132,0.709,0.753,1.247,1.5,1.247
	c0.843,0,1.527-0.684,1.527-1.527C59.555,32.213,59.167,31.669,58.616,31.439z M58.333,31.352c-0.009-0.002-0.018-0.003-0.027-0.004
	C58.315,31.35,58.324,31.35,58.333,31.352z M58.183,31.329c-0.051-0.005-0.103-0.008-0.155-0.008
	C58.08,31.321,58.132,31.324,58.183,31.329z M56.501,32.848c0,0.048,0.003,0.096,0.007,0.143
	C56.504,32.944,56.501,32.897,56.501,32.848z M58.028,33.917c-0.589,0-1.069-0.479-1.069-1.069c0-0.589,0.479-1.069,1.069-1.069
	c0.589,0,1.069,0.479,1.069,1.069C59.097,33.438,58.617,33.917,58.028,33.917z"/>
<text transform="matrix(1 0 0 1 57.618 12.229)" fill="#2E3E52" font-family="'Univers-UltraCondensed'" font-size="2.1377">5</text>
</svg>
