<?xml version="1.0" encoding="utf-8"?>
<!-- Generator: Adobe Illustrator 17.0.1, SVG Export Plug-In . SVG Version: 6.00 Build 0)  -->
<!DOCTYPE svg PUBLIC "-//W3C//DTD SVG 1.1//EN" "http://www.w3.org/Graphics/SVG/1.1/DTD/svg11.dtd">
<svg version="1.1" xmlns="http://www.w3.org/2000/svg" xmlns:xlink="http://www.w3.org/1999/xlink" x="0px" y="0px" width="500px"
	 height="500px" viewBox="0 0 500 500" enable-background="new 0 0 500 500" xml:space="preserve">
<g id="Layer_2">
	<rect fill="#355477" width="500" height="500"/>
</g>
<g id="Layer_1">
	<path fill="#2E3E52" d="M143.098,98.906c0,2.209-1.791,4-4,4h-27c-2.209,0-4-1.791-4-4v-27c0-2.209,1.791-4,4-4h27
		c2.209,0,4,1.791,4,4V98.906z"/>
	<path fill="#2E3E52" d="M189.098,98.906c0,2.209-1.791,4-4,4h-27c-2.209,0-4-1.791-4-4v-27c0-2.209,1.791-4,4-4h27
		c2.209,0,4,1.791,4,4V98.906z"/>
	<path fill="#854C9E" d="M235.098,98.906c0,2.209-1.791,4-4,4h-27c-2.209,0-4-1.791-4-4v-27c0-2.209,1.791-4,4-4h27
		c2.209,0,4,1.791,4,4V98.906z"/>
	<path fill="#2E3E52" d="M281.098,98.953c0,2.209-1.791,4-4,4h-27c-2.209,0-4-1.791-4-4v-27c0-2.209,1.791-4,4-4h27
		c2.209,0,4,1.791,4,4V98.953z"/>
	<path fill="#2E3E52" d="M143.098,146.035c0,2.209-1.791,4-4,4h-27c-2.209,0-4-1.791-4-4v-27c0-2.209,1.791-4,4-4h27
		c2.209,0,4,1.791,4,4V146.035z"/>
	<path fill="#2E3E52" d="M189.098,146.035c0,2.209-1.791,4-4,4h-27c-2.209,0-4-1.791-4-4v-27c0-2.209,1.791-4,4-4h27
		c2.209,0,4,1.791,4,4V146.035z"/>
	<path fill="#2E3E52" d="M235.098,146.035c0,2.209-1.791,4-4,4h-27c-2.209,0-4-1.791-4-4v-27c0-2.209,1.791-4,4-4h27
		c2.209,0,4,1.791,4,4V146.035z"/>
	<path fill="#2E3E52" d="M281.098,146.035c0,2.209-1.791,4-4,4h-27c-2.209,0-4-1.791-4-4v-27c0-2.209,1.791-4,4-4h27
		c2.209,0,4,1.791,4,4V146.035z"/>
	<path fill="#2E3E52" d="M327.098,146.035c0,2.209-1.791,4-4,4h-27c-2.209,0-4-1.791-4-4v-27c0-2.209,1.791-4,4-4h27
		c2.209,0,4,1.791,4,4V146.035z"/>
	<path fill="#2E3E52" d="M143.098,194.035c0,2.209-1.791,4-4,4h-27c-2.209,0-4-1.791-4-4v-27c0-2.209,1.791-4,4-4h27
		c2.209,0,4,1.791,4,4V194.035z"/>
	<path fill="#2E3E52" d="M189.098,194.035c0,2.209-1.791,4-4,4h-27c-2.209,0-4-1.791-4-4v-27c0-2.209,1.791-4,4-4h27
		c2.209,0,4,1.791,4,4V194.035z"/>
	<path fill="#2E3E52" d="M235.098,194.035c0,2.209-1.791,4-4,4h-27c-2.209,0-4-1.791-4-4v-27c0-2.209,1.791-4,4-4h27
		c2.209,0,4,1.791,4,4V194.035z"/>
	<path fill="#2E3E52" d="M281.098,194.035c0,2.209-1.791,4-4,4h-27c-2.209,0-4-1.791-4-4v-27c0-2.209,1.791-4,4-4h27
		c2.209,0,4,1.791,4,4V194.035z"/>
	<path fill="#2E3E52" d="M327.098,194.035c0,2.209-1.791,4-4,4h-27c-2.209,0-4-1.791-4-4v-27c0-2.209,1.791-4,4-4h27
		c2.209,0,4,1.791,4,4V194.035z"/>
	<path fill="#2E3E52" d="M143.098,241.035c0,2.209-1.791,4-4,4h-27c-2.209,0-4-1.791-4-4v-27c0-2.209,1.791-4,4-4h27
		c2.209,0,4,1.791,4,4V241.035z"/>
	<path fill="#2E3E52" d="M189.098,241.035c0,2.209-1.791,4-4,4h-27c-2.209,0-4-1.791-4-4v-27c0-2.209,1.791-4,4-4h27
		c2.209,0,4,1.791,4,4V241.035z"/>
	<path fill="#2E3E52" d="M235.098,241.035c0,2.209-1.791,4-4,4h-27c-2.209,0-4-1.791-4-4v-27c0-2.209,1.791-4,4-4h27
		c2.209,0,4,1.791,4,4V241.035z"/>
	<path fill="#2E3E52" d="M281.098,241.035c0,2.209-1.791,4-4,4h-27c-2.209,0-4-1.791-4-4v-27c0-2.209,1.791-4,4-4h27
		c2.209,0,4,1.791,4,4V241.035z"/>
	<path fill="#2E3E52" d="M327.098,241.035c0,2.209-1.791,4-4,4h-27c-2.209,0-4-1.791-4-4v-27c0-2.209,1.791-4,4-4h27
		c2.209,0,4,1.791,4,4V241.035z"/>
	<rect x="144.598" y="84.19" fill="#2E3E52" width="8" height="2.431"/>
	<rect x="144.598" y="16.569" fill="#2E3E52" width="8" height="2.431"/>
	<rect x="144.598" y="131.319" fill="#2E3E52" width="8" height="2.431"/>
	<rect x="236.598" y="131.319" fill="#2E3E52" width="8" height="2.431"/>
	<rect x="124.383" y="104.97" fill="#2E3E52" width="2.431" height="8"/>
	<rect x="170.383" y="104.97" fill="#2E3E52" width="2.431" height="8"/>
	<rect x="308.383" y="104.97" fill="#2E3E52" width="2.431" height="8"/>
	<rect x="282.598" y="84.19" fill="#2E3E52" width="8" height="2.431"/>
	<path fill-rule="evenodd" clip-rule="evenodd" fill="#2E3E52" d="M190.73,89.369l1.875,1.865l5.977-5.829l-5.977-5.829
		l-1.993,1.865l4.115,3.963L190.73,89.369z"/>
	<path fill-rule="evenodd" clip-rule="evenodd" fill="#2E3E52" d="M190.73,20.533l1.875,1.865l5.977-5.829l-5.977-5.829
		l-1.993,1.865l4.115,3.963L190.73,20.533z"/>
	<path fill-rule="evenodd" clip-rule="evenodd" fill="#2E3E52" d="M221.599,112.602l1.865-1.875l-5.829-5.977l-5.829,5.977
		l1.865,1.993l3.963-4.115L221.599,112.602z"/>
	<g>
		<g>
			<g>
				<path fill-rule="evenodd" clip-rule="evenodd" fill="#2E3E52" d="M243.521,84.321h-0.291c0-2.18-1.178-3.947-2.631-3.947
					c-1.453,0-2.631,1.767-2.631,3.947h-0.291c-0.63,0.699-1.024,1.616-1.024,2.631c0,2.18,1.767,3.947,3.947,3.947
					c2.18,0,3.947-1.767,3.947-3.947C244.545,85.937,244.151,85.02,243.521,84.321z"/>
			</g>
		</g>
		<path fill-rule="evenodd" clip-rule="evenodd" fill="#355477" d="M240.598,82.347c-0.534,0-0.968,0.65-0.968,1.452
			c0,0.171,0.023,0.332,0.059,0.484l1.817,0c0.036-0.152,0.059-0.313,0.059-0.484C241.566,82.997,241.133,82.347,240.598,82.347z"/>
	</g>
	<g>
		<g>
			<g>
				<path fill-rule="evenodd" clip-rule="evenodd" fill="#2E3E52" d="M243.521,15.254h-0.291c0-2.18-1.178-3.947-2.631-3.947
					c-1.453,0-2.631,1.767-2.631,3.947h-0.291c-0.63,0.699-1.024,1.616-1.024,2.631c0,2.18,1.767,3.947,3.947,3.947
					c2.18,0,3.947-1.767,3.947-3.947C244.545,16.87,244.151,15.953,243.521,15.254z"/>
			</g>
		</g>
		<path fill-rule="evenodd" clip-rule="evenodd" fill="#355477" d="M240.598,13.28c-0.534,0-0.968,0.65-0.968,1.452
			c0,0.171,0.023,0.332,0.059,0.484l1.817,0c0.036-0.152,0.059-0.313,0.059-0.484C241.566,13.93,241.133,13.28,240.598,13.28z"/>
	</g>
	<path fill="#FFFFFF" d="M273.098,94.451h-1c0,0-1,0-1-1v-2.498c0-0.277-0.225-0.5-0.5-0.5c-0.275,0-0.5,0.222-0.5,0.5l-0.008,4.295
		c0,0.61-2.01,2.205-6.492,2.205c-4.482,0-6.492-1.596-6.492-2.205l-0.008-4.295c0-0.277-0.224-0.5-0.5-0.5s-0.5,0.222-0.5,0.5
		v2.498c0,1-1,1-1,1h-1c0,0-1,0-1-1v-4.248c0-2.922,2.892-5.401,6.93-6.341c0,0,1.234,1.107,3.57,1.107
		c2.336,0,3.57-1.107,3.57-1.107c4.037,0.94,6.93,3.419,6.93,6.341v4.248C274.098,94.451,273.098,94.451,273.098,94.451z
		 M263.575,82.453c-2.485,0-4.5-2.015-4.5-4.5c0-2.485,2.014-4.5,4.5-4.5c2.486,0,4.5,2.015,4.5,4.5
		C268.075,80.438,266.06,82.453,263.575,82.453z"/>
	<g>
		<polygon fill="#2E3E52" points="327.098,96.186 327.098,91.784 315.977,102.906 320.378,102.906 		"/>
		<polygon fill="#2E3E52" points="302.558,67.906 298.156,67.906 292.098,73.964 292.098,78.365 		"/>
		<path fill="#2E3E52" d="M324.348,68.125l-32.031,32.031c0.342,1.035,1.086,1.878,2.056,2.345l32.319-32.319
			C326.226,69.21,325.382,68.467,324.348,68.125z"/>
		<polygon fill="#2E3E52" points="311.361,67.906 306.96,67.906 292.098,82.767 292.098,87.169 		"/>
		<polygon fill="#2E3E52" points="327.098,87.383 327.098,82.981 307.173,102.906 311.575,102.906 		"/>
		<polygon fill="#2E3E52" points="327.098,78.579 327.098,74.177 298.37,102.906 302.772,102.906 		"/>
		<polygon fill="#2E3E52" points="320.165,67.906 315.763,67.906 292.098,91.57 292.098,95.972 		"/>
	</g>
	<path fill="#FFFFFF" d="M129.558,73.453v8.16h-7.92v7.92h-7.92v7.92h7.92h7.92h7.92v-24H129.558z M129.66,81.863l6.815,6.989
		l-2.181,2.193l-4.634-4.675l-4.634,4.812l-2.181-2.33L129.66,81.863z M134.294,96.74l-4.634-4.675l-4.634,4.812l-2.181-2.33
		l6.815-6.989l6.815,6.989L134.294,96.74z"/>
	<path fill="#FFFFFF" d="M175.558,88.401v-7.92h-7.92v-8.16h-7.92v24h7.92h7.92h7.92v-7.92H175.558z M167.537,95.745l-6.815-6.989
		l2.181-2.33l4.634,4.812l4.634-4.675l2.181,2.193L167.537,95.745z M167.537,90.05l-6.815-6.989l2.181-2.33l4.634,4.812l4.634-4.675
		l2.181,2.193L167.537,90.05z"/>
	<path fill="#FFFFFF" d="M222.098,74.953l-7.5,7.5h-4.5l-4.5,6c0,0,4.768-1.328,7.548-0.705l-7.548,9.705l9.888-7.691
		c1.379,3.156-0.888,7.691-0.888,7.691l6-4.5v-4.5l7.5-7.5l1.5-7.5L222.098,74.953z"/>
	<path fill-rule="evenodd" clip-rule="evenodd" fill="#2E3E52" d="M282.73,136.498l1.875,1.865l5.977-5.829l-5.977-5.829
		l-1.993,1.865l4.115,3.963L282.73,136.498z"/>
	<g>
		<path fill="#FFFFFF" d="M134.856,119.035h-18.514c-2.34,0-4.243,1.903-4.243,4.243v18.515c0,2.339,1.903,4.243,4.243,4.243h18.514
			c2.339,0,4.243-1.903,4.243-4.243v-18.515C139.098,120.938,137.195,119.035,134.856,119.035z M136.098,141.792
			c0,0.685-0.558,1.243-1.243,1.243h-18.514c-0.686,0-1.243-0.558-1.243-1.243v-18.515c0-0.685,0.558-1.243,1.243-1.243h18.514
			c0.685,0,1.243,0.558,1.243,1.243V141.792z"/>
		<polygon fill="#FFFFFF" points="129.625,123.819 121.572,123.819 121.572,128.508 116.883,128.508 116.883,136.561 
			121.572,136.561 121.572,141.25 129.625,141.25 129.625,136.561 134.314,136.561 134.314,128.508 129.625,128.508 		"/>
	</g>
	<g>
		<rect x="167.848" y="120.535" fill="#FFFFFF" width="7.5" height="13.5"/>
		<rect x="167.848" y="138.535" fill="#FFFFFF" width="7.5" height="6"/>
	</g>
	<path fill-rule="evenodd" clip-rule="evenodd" fill="#FFFFFF" d="M217.635,120.535l4.202,7.542l8.547,1.625l-5.95,6.286l1.08,8.546
		l-7.879-3.657l-7.879,3.657l1.08-8.546l-5.949-6.286l8.547-1.625L217.635,120.535"/>
	<g>
		<path fill="#FFFFFF" d="M271.906,124.535h-16.615c-2.036,0-3.692,1.656-3.692,3.692v8.615c0,2.036,1.656,3.692,3.692,3.692h16.615
			c2.036,0,3.692-1.656,3.692-3.692v-8.615C275.598,126.191,273.942,124.535,271.906,124.535z M255.291,126.996h16.615
			c0.678,0,1.231,0.552,1.231,1.231v0.594H254.06v-0.594C254.06,127.548,254.612,126.996,255.291,126.996z M271.906,138.073h-16.615
			c-0.679,0-1.231-0.552-1.231-1.231v-4.923h19.077v4.923C273.137,137.521,272.584,138.073,271.906,138.073z"/>
		<rect x="264.256" y="133.334" fill="#FFFFFF" width="8.308" height="1.231"/>
		<rect x="264.256" y="135.18" fill="#FFFFFF" width="8.308" height="1.231"/>
	</g>
	<path fill="#FFFFFF" d="M316.172,124.535h-0.667v-1.333c0-1.472-1.195-2.667-2.667-2.667h-12c-1.472,0-2.667,1.195-2.667,2.667
		v17.333c0,2.208,1.792,4,4,4h9.333c2.208,0,4-1.792,4-4h0.667c2.573,0,4.667-2.093,4.667-4.667v-6.667
		C320.838,126.628,318.745,124.535,316.172,124.535z M312.838,125.535h-2.562c-0.772,0.93-1.236,1.382-2.443,1.382
		c-0.48,0-1-0.211-1.268-0.731c-0.298,1.285-1.449,2.244-2.825,2.244c-1.602,0-2.901-1.299-2.901-2.901
		c0-0.06,0.002-0.12,0.006-0.179c-0.004-0.049-0.006-0.097-0.006-0.147v-0.667v-1.333h12V125.535z M318.172,135.868
		c0,1.103-0.897,2-2,2h-0.656v-10.667h0.656c1.103,0,2,0.897,2,2V135.868z"/>
	<text transform="matrix(1 0 0 1 99.6488 64.2215)" fill="#FFFFFF" font-family="'Lato-Bold'" font-size="10">Stairs Up</text>
	<text transform="matrix(1 0 0 1 131.2085 35.2215)" fill="#FFFFFF" font-family="'Lato-Bold'" font-size="10">Passage</text>
	<text transform="matrix(1 0 0 1 173.3736 35.2215)" fill="#FFFFFF" font-family="'Lato-Bold'" font-size="10">One-Way</text>
	<text transform="matrix(1 0 0 1 225.0413 35.2215)" fill="#FFFFFF" font-family="'Lato-Bold'" font-size="10">Locked</text>
	<text transform="matrix(1 0 0 1 107.0985 159.3215)" fill="#FFFFFF" font-family="'Lato-Bold'" font-size="10">Medical</text>
	<text transform="matrix(1 0 0 1 157.1506 159.3215)" fill="#FFFFFF" font-family="'Lato-Bold'" font-size="10">Quest</text>
	<text transform="matrix(1 0 0 1 196.5555 159.3215)" fill="#FFFFFF" font-family="'Lato-Bold'" font-size="10">Objective</text>
	<text transform="matrix(1 0 0 1 242.5785 159.3215)" fill="#FFFFFF" font-family="'Lato-Bold'" font-size="10">Commerce</text>
	<text transform="matrix(1 0 0 1 300.6657 159.3215)" fill="#FFFFFF" font-family="'Lato-Bold'" font-size="10">Bar</text>
	<text transform="matrix(1 0 0 1 149.1892 64.2212)" fill="#FFFFFF" font-family="'Lato-Bold'" font-size="10">Stairs Down</text>
	<text transform="matrix(1 0 0 1 208.2281 64.2212)" fill="#FFFFFF" font-family="'Lato-Bold'" font-size="10">Ship</text>
	<text transform="matrix(1 0 0 1 254.1983 64.221)" fill="#FFFFFF" font-family="'Lato-Bold'" font-size="10">NPC</text>
	<text transform="matrix(1 0 0 1 289.4089 54.2215)"><tspan x="0" y="0" fill="#FFFFFF" font-family="'Lato-Bold'" font-size="10">Hazardous</tspan><tspan x="12.743" y="12" fill="#FFFFFF" font-family="'Lato-Bold'" font-size="10">Area</tspan></text>
</g>
</svg>
