<?xml version="1.0" encoding="utf-8"?>
<!-- Generator: Adobe Illustrator 17.0.1, SVG Export Plug-In . SVG Version: 6.00 Build 0)  -->
<!DOCTYPE svg PUBLIC "-//W3C//DTD SVG 1.1//EN" "http://www.w3.org/Graphics/SVG/1.1/DTD/svg11.dtd">
<svg version="1.1" xmlns="http://www.w3.org/2000/svg" xmlns:xlink="http://www.w3.org/1999/xlink" x="0px" y="0px" width="1200px"
	 height="800px" viewBox="0 0 1200 800" enable-background="new 0 0 1200 800" xml:space="preserve">
<g id="TiTS_game_blank_xA0_Image_1_">
	<image overflow="visible" width="1200" height="800" id="TiTS_game_blank_xA0_Image" xlink:href="62BB5ECD.jpg" >
	</image>
	<rect x="200" fill="#345473" width="800" height="640"/>
</g>
<g id="Level_Up">
	<text transform="matrix(1 0 0 1 419.2979 241.1855)"><tspan x="0" y="0" fill="#2C3E50" font-family="'Univers-UltraCondensed'" font-size="141.7085" letter-spacing="-5">L</tspan><tspan x="38.961" y="0" fill="#2C3E50" font-family="'Univers-UltraCondensed'" font-size="141.7085">E</tspan><tspan x="83.591" y="0" fill="#2C3E50" font-family="'Univers-UltraCondensed'" font-size="141.7085" letter-spacing="-2">VEL</tspan><tspan x="224.686" y="0" fill="#2C3E50" font-family="'Univers-UltraCondensed'" font-size="141.7085" letter-spacing="-11"> </tspan><tspan x="239.711" y="0" fill="#2C3E50" font-family="'Univers-UltraCondensed'" font-size="141.7085" letter-spacing="-5">U</tspan><tspan x="291.682" y="0" fill="#2C3E50" font-family="'Univers-UltraCondensed'" font-size="141.7085" letter-spacing="-2">P</tspan></text>
	<text transform="matrix(1 0 0 1 793.8252 71.1997)" fill="#2C3E50" font-family="'Lato-Bold'" font-size="35.4964">LEVEL</text>
	<g>
		<path fill="#FFFFFF" d="M796.468,112.676h-0.443c-4.66,6.213-8.876,10.207-17.307,16.642V108.46
			c5.104-3.772,17.085-18.86,19.969-25.96h18.64v160.202h-20.858V112.676z"/>
		<path fill="#FFFFFF" d="M825.09,120.664c0-28.846,6.657-39.496,33.062-39.496s33.061,10.65,33.061,39.496v83.872
			c0,28.845-6.656,39.496-33.061,39.496s-33.062-10.65-33.062-39.496V120.664z M845.947,208.087c0,9.985,0,19.97,12.204,19.97
			s12.204-9.985,12.204-19.97v-90.973c0-9.985,0-19.97-12.204-19.97s-12.204,9.985-12.204,19.97V208.087z"/>
	</g>
	<g>
		<polygon fill="#FFFFFF" points="411.767,128.489 366.04,123.685 396.99,90.613 354.202,107.016 365.797,63.751 335.752,97.603 
			325.333,54.056 314.915,97.603 284.87,63.751 296.465,107.016 253.677,90.613 284.627,123.685 238.9,128.489 282.116,143.792 
			243.923,168.703 278.553,164.165 325.454,117.077 372.391,164.201 406.744,168.703 368.551,143.792 		"/>
	</g>
	<g>
		<path fill-rule="evenodd" clip-rule="evenodd" fill="#FFFFFF" d="M304.432,522.195c0-19.76,0-316.301,0-316.301l-38.614,38.019
			l-28.103-27.649l87.782-88.133l87.783,88.133l-28.102,29.377l-38.615-39.746c0,0,0,297.138,0,316.609
			c0,114.619-136.93,101.926-136.93,12.683h42.132C251.766,565.572,304.432,575.457,304.432,522.195z"/>
	</g>
	<g>
		<path fill-rule="evenodd" clip-rule="evenodd" fill="#FFFFFF" d="M304.432,521.195c0-19.76,0-316.301,0-316.301l-38.614,38.019
			l-28.103-27.649l87.782-88.133l87.783,88.133l-28.102,29.377l-38.615-39.746c0,0,0,297.138,0,316.609
			c0,114.619-136.93,101.926-136.93,12.683h42.132C251.766,564.572,304.432,574.457,304.432,521.195z"/>
	</g>
	<g>
		<path fill="#2C3E50" d="M989.334,346.963c0,5.5-4.5,10-10,10h-530c-5.5,0-10-4.5-10-10v-40c0-5.5,4.5-10,10-10h530
			c5.5,0,10,4.5,10,10V346.963z"/>
	</g>
	<g>
		<path fill="#8E44AD" d="M989.334,416c0,5.5-4.5,10-10,10h-530c-5.5,0-10-4.5-10-10v-40c0-5.5,4.5-10,10-10h530c5.5,0,10,4.5,10,10
			V416z"/>
	</g>
	<g>
		<path fill="#8E44AD" d="M989.334,486c0,5.5-4.5,10-10,10h-530c-5.5,0-10-4.5-10-10v-40c0-5.5,4.5-10,10-10h530c5.5,0,10,4.5,10,10
			V486z"/>
	</g>
	<g>
		<path fill="#8E44AD" d="M989.334,556c0,5.5-4.5,10-10,10h-530c-5.5,0-10-4.5-10-10v-40c0-5.5,4.5-10,10-10h530c5.5,0,10,4.5,10,10
			V556z"/>
	</g>
	<g>
		<path fill="#2C3E50" d="M429.334,599.294c0,2.75-2.25,5-5,5H362.92c-2.75,0-5-2.25-5-5V581c0-2.75,2.25-5,5-5h61.414
			c2.75,0,5,2.25,5,5V599.294z"/>
	</g>
	
		<text transform="matrix(1 0 0 1 456.3325 567.1416)" fill="#345473" font-family="'Univers-UltraCondensed'" font-size="84.87" letter-spacing="-1">INTELLIGENCE</text>
	
		<text transform="matrix(1 0 0 1 456.3325 496)" fill="#345473" font-family="'Univers-UltraCondensed'" font-size="84.87" letter-spacing="-1">SPEED</text>
	
		<text transform="matrix(1 0 0 1 456.3325 426)" fill="#345473" font-family="'Univers-UltraCondensed'" font-size="84.87" letter-spacing="-1">TOUGHNESS</text>
	
		<text transform="matrix(1 0 0 1 456.3325 356.9629)" fill="#345473" font-family="'Univers-UltraCondensed'" font-size="84.87" letter-spacing="-1">STRENGTH</text>
	<text transform="matrix(1 0 0 1 851.3525 348.3496)"><tspan x="0" y="0" fill="#FFFFFF" font-family="'Lato-Bold'" font-size="56.465" letter-spacing="-2">M</tspan><tspan x="50.254" y="0" fill="#FFFFFF" font-family="'Lato-Bold'" font-size="56.465">AX</tspan></text>
	<text transform="matrix(1 0 0 1 916.1953 417.3496)" fill="#FFFFFF" font-family="'Lato-Bold'" font-size="56.465">53</text>
	<text transform="matrix(1 0 0 1 916.1953 485.8496)" fill="#FFFFFF" font-family="'Lato-Bold'" font-size="56.465">26</text>
	<text transform="matrix(1 0 0 1 916.1953 556.3496)" fill="#FFFFFF" font-family="'Lato-Bold'" font-size="56.465">78</text>
	<g>
		<g>
			<path fill="#8E44AD" d="M112.167,698.667c0.551,0,1,0.449,1,1v26c0,0.551-0.449,1-1,1h-26c-0.551,0-1-0.449-1-1v-26
				c0-0.551,0.449-1,1-1H112.167 M112.167,695.667h-26c-2.209,0-4,1.791-4,4v26c0,2.209,1.791,4,4,4h26c2.209,0,4-1.791,4-4v-26
				C116.167,697.458,114.376,695.667,112.167,695.667L112.167,695.667z"/>
		</g>
	</g>
	<text transform="matrix(1 0 0 1 359.333 284.6982)" fill="#2C3E50" font-family="'Lato-Bold'" font-size="37.6759">ALLOCATE YOUR POINTS TO SKILLS</text>
	<text transform="matrix(1 0 0 1 370.2354 596.2241)" fill="#FFFFFF" font-family="'Lato-Bold'" font-size="18">Reset</text>
	<g>
		<g>
			<polygon fill="#345473" points="837.586,418.432 851.81,404.215 837.586,390 898.199,390 912.414,404.215 898.199,418.432 			"/>
		</g>
	</g>
	<text transform="matrix(1 0 0 1 856.2451 415.7041)" fill="#8E44AD" font-family="'Lato-Bold'" font-size="32.3373">+2</text>
	<g>
		<g>
			<polygon fill="#345473" points="837.586,485.85 851.81,471.633 837.586,457.418 898.199,457.418 912.414,471.633 898.199,485.85 
							"/>
		</g>
	</g>
	<text transform="matrix(1 0 0 1 856.2451 483.1221)" fill="#8E44AD" font-family="'Lato-Bold'" font-size="32.3373">+1</text>
	<rect x="357" y="458.385" fill="#8E44AD" width="72.334" height="107.615"/>
	<text transform="matrix(1 0 0 1 366.8047 451.4814)"><tspan x="0" y="0" fill="#FFFFFF" font-family="'Univers-UltraCondensed'" font-size="141.7085" letter-spacing="-2">2</tspan><tspan x="5.092" y="47.65" fill="#FFFFFF" font-family="'Univers-UltraCondensed'" font-size="39.7085">PTS</tspan></text>
</g>
<g id="Hotkeys_Hollow" display="none">
	<g display="inline">
		<path fill="#345473" d="M354.833,696.167c-4.687,0-8.5-3.813-8.5-8.5s3.813-8.5,8.5-8.5s8.5,3.813,8.5,8.5
			S359.52,696.167,354.833,696.167z"/>
		<path fill="#2C3E50" d="M354.833,680.667c3.86,0,7,3.14,7,7s-3.14,7-7,7s-7-3.14-7-7S350.973,680.667,354.833,680.667
			 M354.833,677.667c-5.523,0-10,4.477-10,10s4.477,10,10,10s10-4.477,10-10S360.356,677.667,354.833,677.667L354.833,677.667z"/>
	</g>
	
		<text transform="matrix(1 0 0 1 352.1455 692.75)" display="inline" fill="#2C3E50" font-family="'Univers-UltraCondensed'" font-size="14">1</text>
	<g display="inline">
		<path fill="#345473" d="M354.833,746.167c-4.687,0-8.5-3.813-8.5-8.5s3.813-8.5,8.5-8.5s8.5,3.813,8.5,8.5
			S359.52,746.167,354.833,746.167z"/>
		<path fill="#2C3E50" d="M354.833,730.667c3.86,0,7,3.14,7,7s-3.14,7-7,7s-7-3.14-7-7S350.973,730.667,354.833,730.667
			 M354.833,727.667c-5.523,0-10,4.477-10,10s4.477,10,10,10s10-4.477,10-10S360.356,727.667,354.833,727.667L354.833,727.667z"/>
	</g>
	
		<text transform="matrix(1 0 0 1 351.7695 742.75)" display="inline" fill="#2C3E50" font-family="'Univers-UltraCondensed'" font-size="14">Q</text>
	<g display="inline">
		<path fill="#345473" d="M354.833,796.167c-4.687,0-8.5-3.813-8.5-8.5s3.813-8.5,8.5-8.5s8.5,3.813,8.5,8.5
			S359.52,796.167,354.833,796.167z"/>
		<path fill="#8E44AD" d="M354.833,780.667c3.86,0,7,3.14,7,7s-3.14,7-7,7s-7-3.14-7-7S350.973,780.667,354.833,780.667
			 M354.833,777.667c-5.523,0-10,4.477-10,10s4.477,10,10,10s10-4.477,10-10S360.356,777.667,354.833,777.667L354.833,777.667z"/>
	</g>
	
		<text transform="matrix(1 0 0 1 351.6431 792.75)" display="inline" fill="#8E44AD" font-family="'Univers-UltraCondensed'" font-size="14">A</text>
	<g display="inline">
		<path fill="#345473" d="M512.833,696.167c-4.687,0-8.5-3.813-8.5-8.5s3.813-8.5,8.5-8.5s8.5,3.813,8.5,8.5
			S517.52,696.167,512.833,696.167z"/>
		<path fill="#2C3E50" d="M512.833,680.667c3.86,0,7,3.14,7,7s-3.14,7-7,7s-7-3.14-7-7S508.973,680.667,512.833,680.667
			 M512.833,677.667c-5.523,0-10,4.477-10,10s4.477,10,10,10c5.523,0,10-4.477,10-10S518.356,677.667,512.833,677.667
			L512.833,677.667z"/>
	</g>
	
		<text transform="matrix(1 0 0 1 510.1455 692.75)" display="inline" fill="#2C3E50" font-family="'Univers-UltraCondensed'" font-size="14">2</text>
	<g display="inline">
		<path fill="#345473" d="M512.833,746.167c-4.687,0-8.5-3.813-8.5-8.5s3.813-8.5,8.5-8.5s8.5,3.813,8.5,8.5
			S517.52,746.167,512.833,746.167z"/>
		<path fill="#8E44AD" d="M512.833,730.667c3.86,0,7,3.14,7,7s-3.14,7-7,7s-7-3.14-7-7S508.973,730.667,512.833,730.667
			 M512.833,727.667c-5.523,0-10,4.477-10,10s4.477,10,10,10s10-4.477,10-10S518.356,727.667,512.833,727.667L512.833,727.667z"/>
	</g>
	
		<text transform="matrix(1 0 0 1 508.0811 743.1666)" display="inline" fill="#8E44AD" font-family="'Univers-UltraCondensed'" font-size="14">W</text>
	<g display="inline">
		<path fill="#345473" d="M512.833,796.167c-4.687,0-8.5-3.813-8.5-8.5s3.813-8.5,8.5-8.5s8.5,3.813,8.5,8.5
			S517.52,796.167,512.833,796.167z"/>
		<path fill="#8E44AD" d="M512.833,780.667c3.86,0,7,3.14,7,7s-3.14,7-7,7s-7-3.14-7-7S508.973,780.667,512.833,780.667
			 M512.833,777.667c-5.523,0-10,4.477-10,10s4.477,10,10,10s10-4.477,10-10S518.356,777.667,512.833,777.667L512.833,777.667z"/>
	</g>
	
		<text transform="matrix(1 0 0 1 510.1592 792.75)" display="inline" fill="#8E44AD" font-family="'Univers-UltraCondensed'" font-size="14">S</text>
	<g display="inline">
		<path fill="#345473" d="M669.833,696.167c-4.687,0-8.5-3.813-8.5-8.5s3.813-8.5,8.5-8.5s8.5,3.813,8.5,8.5
			S674.52,696.167,669.833,696.167z"/>
		<path fill="#2C3E50" d="M669.833,680.667c3.86,0,7,3.14,7,7s-3.14,7-7,7s-7-3.14-7-7S665.973,680.667,669.833,680.667
			 M669.833,677.667c-5.523,0-10,4.477-10,10s4.477,10,10,10s10-4.477,10-10S675.356,677.667,669.833,677.667L669.833,677.667z"/>
	</g>
	
		<text transform="matrix(1 0 0 1 667.1455 692.75)" display="inline" fill="#2C3E50" font-family="'Univers-UltraCondensed'" font-size="14">3</text>
	<g display="inline">
		<path fill="#345473" d="M669.833,746.167c-4.687,0-8.5-3.813-8.5-8.5s3.813-8.5,8.5-8.5s8.5,3.813,8.5,8.5
			S674.52,746.167,669.833,746.167z"/>
		<path fill="#2C3E50" d="M669.833,730.667c3.86,0,7,3.14,7,7s-3.14,7-7,7s-7-3.14-7-7S665.973,730.667,669.833,730.667
			 M669.833,727.667c-5.523,0-10,4.477-10,10s4.477,10,10,10s10-4.477,10-10S675.356,727.667,669.833,727.667L669.833,727.667z"/>
	</g>
	
		<text transform="matrix(1 0 0 1 667.5454 742.75)" display="inline" fill="#2C3E50" font-family="'Univers-UltraCondensed'" font-size="14">E</text>
	<g display="inline">
		<path fill="#345473" d="M669.791,796.167c-4.687,0-8.5-3.813-8.5-8.5s3.813-8.5,8.5-8.5s8.5,3.813,8.5,8.5
			S674.478,796.167,669.791,796.167z"/>
		<path fill="#8E44AD" d="M669.791,780.667c3.86,0,7,3.14,7,7s-3.14,7-7,7s-7-3.14-7-7S665.932,780.667,669.791,780.667
			 M669.791,777.667c-5.523,0-10,4.477-10,10s4.477,10,10,10s10-4.477,10-10S675.314,777.667,669.791,777.667L669.791,777.667z"/>
	</g>
	
		<text transform="matrix(1 0 0 1 666.9445 792.75)" display="inline" fill="#8E44AD" font-family="'Univers-UltraCondensed'" font-size="14">D</text>
	<g display="inline">
		<path fill="#345473" d="M827.833,696.167c-4.687,0-8.5-3.813-8.5-8.5s3.813-8.5,8.5-8.5s8.5,3.813,8.5,8.5
			S832.52,696.167,827.833,696.167z"/>
		<path fill="#2C3E50" d="M827.833,680.667c3.86,0,7,3.14,7,7s-3.14,7-7,7s-7-3.14-7-7S823.973,680.667,827.833,680.667
			 M827.833,677.667c-5.523,0-10,4.477-10,10s4.477,10,10,10s10-4.477,10-10S833.356,677.667,827.833,677.667L827.833,677.667z"/>
	</g>
	
		<text transform="matrix(1 0 0 1 825.1455 692.75)" display="inline" fill="#2C3E50" font-family="'Univers-UltraCondensed'" font-size="14">4</text>
	<g display="inline">
		<path fill="#345473" d="M827.791,746.167c-4.687,0-8.5-3.813-8.5-8.5s3.813-8.5,8.5-8.5s8.5,3.813,8.5,8.5
			S832.478,746.167,827.791,746.167z"/>
		<path fill="#2C3E50" d="M827.792,730.667c3.86,0,7,3.14,7,7s-3.14,7-7,7s-7-3.14-7-7S823.932,730.667,827.792,730.667
			 M827.792,727.667c-5.523,0-10,4.477-10,10s4.477,10,10,10s10-4.477,10-10S833.314,727.667,827.792,727.667L827.792,727.667z"/>
	</g>
	
		<text transform="matrix(1 0 0 1 825.0674 742.75)" display="inline" fill="#2C3E50" font-family="'Univers-UltraCondensed'" font-size="14">R</text>
	<g display="inline">
		<path fill="#345473" d="M827.833,796.167c-4.687,0-8.5-3.813-8.5-8.5s3.813-8.5,8.5-8.5s8.5,3.813,8.5,8.5
			S832.52,796.167,827.833,796.167z"/>
		<path fill="#2C3E50" d="M827.833,780.667c3.86,0,7,3.14,7,7s-3.14,7-7,7s-7-3.14-7-7S823.973,780.667,827.833,780.667
			 M827.833,777.667c-5.523,0-10,4.477-10,10s4.477,10,10,10s10-4.477,10-10S833.356,777.667,827.833,777.667L827.833,777.667z"/>
	</g>
	
		<text transform="matrix(1 0 0 1 825.5454 792.75)" display="inline" fill="#2C3E50" font-family="'Univers-UltraCondensed'" font-size="14">F</text>
	<g display="inline">
		<path fill="#345473" d="M985.833,696.167c-4.687,0-8.5-3.813-8.5-8.5s3.813-8.5,8.5-8.5s8.5,3.813,8.5,8.5
			S990.52,696.167,985.833,696.167z"/>
		<path fill="#2C3E50" d="M985.833,680.667c3.86,0,7,3.14,7,7s-3.14,7-7,7s-7-3.14-7-7S981.973,680.667,985.833,680.667
			 M985.833,677.667c-5.523,0-10,4.477-10,10s4.477,10,10,10s10-4.477,10-10S991.356,677.667,985.833,677.667L985.833,677.667z"/>
	</g>
	
		<text transform="matrix(1 0 0 1 983.1455 692.75)" display="inline" fill="#2C3E50" font-family="'Univers-UltraCondensed'" font-size="14">5</text>
	<g display="inline">
		<path fill="#345473" d="M985.833,746.167c-4.687,0-8.5-3.813-8.5-8.5s3.813-8.5,8.5-8.5s8.5,3.813,8.5,8.5
			S990.52,746.167,985.833,746.167z"/>
		<path fill="#2C3E50" d="M985.833,730.667c3.86,0,7,3.14,7,7s-3.14,7-7,7s-7-3.14-7-7S981.973,730.667,985.833,730.667
			 M985.833,727.667c-5.523,0-10,4.477-10,10s4.477,10,10,10s10-4.477,10-10S991.356,727.667,985.833,727.667L985.833,727.667z"/>
	</g>
	
		<text transform="matrix(1 0 0 1 983.2856 742.75)" display="inline" fill="#2C3E50" font-family="'Univers-UltraCondensed'" font-size="14">T</text>
	<g display="inline">
		<path fill="#345473" d="M985.833,796.167c-4.687,0-8.5-3.813-8.5-8.5s3.813-8.5,8.5-8.5s8.5,3.813,8.5,8.5
			S990.52,796.167,985.833,796.167z"/>
		<path fill="#2C3E50" d="M985.833,780.667c3.86,0,7,3.14,7,7s-3.14,7-7,7s-7-3.14-7-7S981.973,780.667,985.833,780.667
			 M985.833,777.667c-5.523,0-10,4.477-10,10s4.477,10,10,10s10-4.477,10-10S991.356,777.667,985.833,777.667L985.833,777.667z"/>
	</g>
	
		<text transform="matrix(1 0 0 1 982.9028 792.75)" display="inline" fill="#2C3E50" font-family="'Univers-UltraCondensed'" font-size="14">G</text>
	<g display="inline">
		<path fill="#345473" d="M1086.833,796.167c-4.687,0-8.5-3.813-8.5-8.5s3.813-8.5,8.5-8.5s8.5,3.813,8.5,8.5
			S1091.52,796.167,1086.833,796.167z"/>
		<path fill="#2C3E50" d="M1086.833,780.667c3.86,0,7,3.14,7,7s-3.14,7-7,7s-7-3.14-7-7S1082.973,780.667,1086.833,780.667
			 M1086.833,777.667c-5.523,0-10,4.477-10,10s4.477,10,10,10s10-4.477,10-10S1092.356,777.667,1086.833,777.667L1086.833,777.667z"
			/>
	</g>
	
		<text transform="matrix(1 0 0 1 1084.1455 792.75)" display="inline" fill="#2C3E50" font-family="'Univers-UltraCondensed'" font-size="14">6</text>
	<g display="inline">
		<path fill="#345473" d="M1186,796.167c-4.687,0-8.5-3.813-8.5-8.5s3.813-8.5,8.5-8.5s8.5,3.813,8.5,8.5
			S1190.687,796.167,1186,796.167z"/>
		<path fill="#2C3E50" d="M1186,780.667c3.86,0,7,3.14,7,7s-3.14,7-7,7s-7-3.14-7-7S1182.14,780.667,1186,780.667 M1186,777.667
			c-5.523,0-10,4.477-10,10s4.477,10,10,10s10-4.477,10-10S1191.523,777.667,1186,777.667L1186,777.667z"/>
	</g>
	
		<text transform="matrix(1 0 0 1 1183.0698 792.75)" display="inline" fill="#2C3E50" font-family="'Univers-UltraCondensed'" font-size="14">Y</text>
</g>
<g id="Hotkeys_Solid">
	<g>
		<circle fill="#2C3E50" cx="354.833" cy="687.667" r="10"/>
	</g>
	<text transform="matrix(1 0 0 1 351.7734 693.75)" fill="#345473" font-family="'Univers-UltraCondensed'" font-size="16">1</text>
	<g>
		<circle fill="#2C3E50" cx="354.833" cy="737.667" r="10"/>
	</g>
	<text transform="matrix(1 0 0 1 351.3438 743.75)" fill="#345473" font-family="'Univers-UltraCondensed'" font-size="16">Q</text>
	<g>
		<circle fill="#8E44AD" cx="354.833" cy="787.667" r="10"/>
	</g>
	<text transform="matrix(1 0 0 1 351.1992 793.75)" fill="#345473" font-family="'Univers-UltraCondensed'" font-size="16">A</text>
	<g>
		<circle fill="#2C3E50" cx="512.833" cy="687.667" r="10"/>
	</g>
	<text transform="matrix(1 0 0 1 509.7734 693.75)" fill="#345473" font-family="'Univers-UltraCondensed'" font-size="16">2</text>
	<g>
		<circle fill="#8E44AD" cx="512.833" cy="737.667" r="10"/>
	</g>
	<text transform="matrix(1 0 0 1 507.4141 744.1666)" fill="#345473" font-family="'Univers-UltraCondensed'" font-size="16">W</text>
	<g>
		<circle fill="#8E44AD" cx="512.833" cy="787.667" r="10"/>
	</g>
	<text transform="matrix(1 0 0 1 509.7891 793.75)" fill="#345473" font-family="'Univers-UltraCondensed'" font-size="16">S</text>
	<g>
		<circle fill="#2C3E50" cx="669.833" cy="687.667" r="10"/>
	</g>
	<text transform="matrix(1 0 0 1 666.7734 693.75)" fill="#345473" font-family="'Univers-UltraCondensed'" font-size="16">3</text>
	<g>
		<circle fill="#2C3E50" cx="669.833" cy="737.667" r="10"/>
	</g>
	<text transform="matrix(1 0 0 1 667.2305 743.75)" fill="#345473" font-family="'Univers-UltraCondensed'" font-size="16">E</text>
	<g>
		<circle fill="#8E44AD" cx="669.791" cy="787.667" r="10"/>
	</g>
	<text transform="matrix(1 0 0 1 666.5377 793.75)" fill="#345473" font-family="'Univers-UltraCondensed'" font-size="16">D</text>
	<g>
		<circle fill="#2C3E50" cx="827.833" cy="687.667" r="10"/>
	</g>
	<text transform="matrix(1 0 0 1 824.7734 693.75)" fill="#345473" font-family="'Univers-UltraCondensed'" font-size="16">4</text>
	<g>
		<circle fill="#2C3E50" cx="827.792" cy="737.667" r="10"/>
	</g>
	<text transform="matrix(1 0 0 1 824.6782 743.75)" fill="#345473" font-family="'Univers-UltraCondensed'" font-size="16">R</text>
	<g>
		<circle fill="#2C3E50" cx="827.833" cy="787.667" r="10"/>
	</g>
	<text transform="matrix(1 0 0 1 825.2305 793.75)" fill="#345473" font-family="'Univers-UltraCondensed'" font-size="16">F</text>
	<g>
		<circle fill="#2C3E50" cx="985.833" cy="687.667" r="10"/>
	</g>
	<text transform="matrix(1 0 0 1 982.7734 693.75)" fill="#345473" font-family="'Univers-UltraCondensed'" font-size="16">5</text>
	<g>
		<circle fill="#2C3E50" cx="985.833" cy="737.667" r="10"/>
	</g>
	<text transform="matrix(1 0 0 1 982.9336 743.75)" fill="#345473" font-family="'Univers-UltraCondensed'" font-size="16">T</text>
	<g>
		<circle fill="#2C3E50" cx="985.833" cy="787.667" r="10"/>
	</g>
	<text transform="matrix(1 0 0 1 982.4961 793.75)" fill="#345473" font-family="'Univers-UltraCondensed'" font-size="16">G</text>
	<g>
		<circle fill="#2C3E50" cx="1086.833" cy="787.667" r="10"/>
	</g>
	<text transform="matrix(1 0 0 1 1083.7734 793.75)" fill="#345473" font-family="'Univers-UltraCondensed'" font-size="16">6</text>
	<g>
		<circle fill="#2C3E50" cx="1186" cy="787.667" r="10"/>
	</g>
	<text transform="matrix(1 0 0 1 1182.6631 793.75)" fill="#345473" font-family="'Univers-UltraCondensed'" font-size="16">Y</text>
</g>
</svg>
