<?xml version="1.0" encoding="utf-8"?>
<!-- Generator: Adobe Illustrator 17.0.1, SVG Export Plug-In . SVG Version: 6.00 Build 0)  -->
<!DOCTYPE svg PUBLIC "-//W3C//DTD SVG 1.1//EN" "http://www.w3.org/Graphics/SVG/1.1/DTD/svg11.dtd">
<svg version="1.1" xmlns="http://www.w3.org/2000/svg" xmlns:xlink="http://www.w3.org/1999/xlink" x="0px" y="0px" width="1200px"
	 height="800px" viewBox="0 0 1200 800" enable-background="new 0 0 1200 800" xml:space="preserve">
<g id="Rectangle_4_1_" enable-background="new    ">
	<g id="Rectangle_4">
		<g>
			<rect x="200" fill="#FFFFFF" width="800" height="640"/>
		</g>
	</g>
</g>
<g id="side_panel_1_">
	<g id="Rectangle_1">
		<g>
			<rect fill="#2C3E50" width="200" height="740"/>
		</g>
	</g>
	<g id="Rectangle_1_copy_2">
		<g>
			<rect x="1000" fill="#2C3E50" width="200" height="740"/>
		</g>
	</g>
	<g id="menu_1_">
		<g id="SCENE_BY_ROUGH_N_TUMBLR_UPNCUMMR_1_">
			<text id="SCENE_BY_ROUGH_N_TUMBLR_UPNCUMMR" transform="matrix(1.013 0 0 1 10.9067 655.3535)"><tspan x="0" y="0" fill="#345473" font-family="'Univers-UltraCondensed'" font-size="14.6735">SCENE BY </tspan><tspan x="43.225" y="0" fill="#FFFFFF" font-family="'Univers-UltraCondensed'" font-size="14.6735">ROUGH N TUMBLR UPNCUMMR</tspan></text>
		</g>
		<g id="Rounded_Rectangle_2">
			<g>
				<path fill="#345473" d="M40,660H14c-2.209,0-4,1.791-4,4v26c0,2.209,1.791,4,4,4h26c2.209,0,4-1.791,4-4v-26
					C44,661.791,42.209,660,40,660z"/>
			</g>
		</g>
		<g id="Rounded_Rectangle_2_copy">
			<g>
				<path fill="#345473" d="M76,660H50c-2.209,0-4,1.791-4,4v26c0,2.209,1.791,4,4,4h26c2.209,0,4-1.791,4-4v-26
					C80,661.791,78.209,660,76,660z"/>
			</g>
		</g>
		<g id="Rounded_Rectangle_2_copy_5">
			<g>
				<path fill="#345473" d="M40,696H14c-2.209,0-4,1.791-4,4v26c0,2.209,1.791,4,4,4h26c2.209,0,4-1.791,4-4v-26
					C44,697.791,42.209,696,40,696z"/>
			</g>
		</g>
		<g id="Rounded_Rectangle_2_copy_5_1_">
			<g>
				<path fill="#345473" d="M76,696H50c-2.209,0-4,1.791-4,4v26c0,2.209,1.791,4,4,4h26c2.209,0,4-1.791,4-4v-26
					C80,697.791,78.209,696,76,696z"/>
			</g>
		</g>
		<g id="Rounded_Rectangle_2_copy_2">
			<g>
				<path fill="#345473" d="M112,660H86c-2.209,0-4,1.791-4,4v26c0,2.209,1.791,4,4,4h26c2.209,0,4-1.791,4-4v-26
					C116,661.791,114.209,660,112,660z"/>
			</g>
		</g>
		<g id="Rounded_Rectangle_2_copy_4">
			<g>
				<path fill="#345473" d="M112,696H86c-2.209,0-4,1.791-4,4v26c0,2.209,1.791,4,4,4h26c2.209,0,4-1.791,4-4v-26
					C116,697.791,114.209,696,112,696z"/>
			</g>
		</g>
		<g id="Rounded_Rectangle_2_copy_3">
			<g>
				<path fill="#345473" d="M186,660h-64c-2.209,0-4,1.791-4,4v62c0,2.209,1.791,4,4,4h64c2.209,0,4-1.791,4-4v-62
					C190,661.791,188.209,660,186,660z"/>
			</g>
		</g>
		<g id="Group_1_copy_1_">
			<g id="Shape_1">
				<g>
					<polygon fill="#FFFFFF" points="74.998,709.785 66.955,708.229 63,701.001 59.045,708.229 51.001,709.785 56.601,715.81 
						55.584,724 63,720.494 70.415,724 69.399,715.81 					"/>
				</g>
			</g>
			<g id="Rectangle_3_copy">
				<g>
					<path fill="#FFFFFF" d="M107.334,675.432l-2.667-2.849L99,678.467l-5.666-5.716l-2.667,2.681L99,683.979L107.334,675.432z
						 M89,685.318V688h20v-2.682H89z M107.334,667.849L104.666,665L99,670.884l-5.666-5.716l-2.667,2.681L99,676.396
						L107.334,667.849z"/>
				</g>
			</g>
			<g id="User__x28_24x24_x29_">
				<g>
					<path fill="#FFFFFF" d="M154.454,689c4.97,0,8.999-4.03,8.999-9s-4.027-9-8.999-9s-9,4.03-9,9S149.484,689,154.454,689z
						 M161.641,689.819c0,0-2.469,2.213-7.141,2.213s-7.14-2.213-7.14-2.213c-8.076,1.879-13.86,6.837-13.86,12.681v8.497
						c0,2,2,2,2,2h2c0,0,2,0,2-2V706c0-0.555,0.448-0.999,1-0.999s1,0.444,1,0.999l0.016,8.59c0,1.22,4.021,4.411,12.984,4.411
						c8.965,0,12.984-3.191,12.984-4.411L167.5,706c0-0.555,0.449-0.999,1-0.999s1,0.444,1,0.999v4.997c0,2,2,2,2,2h2c0,0,2,0,2-2
						V702.5C175.5,696.656,169.715,691.698,161.641,689.819z"/>
				</g>
			</g>
			<g id="New__x28_24x24_x29_">
				<g>
					<path fill="#FFFFFF" d="M36.635,707.366L38,706.001c0,0,0-2-1-3.001c-1-1-3-0.999-3-0.999l-1.381,1.382
						c0.786,0.466,1.556,1.046,2.268,1.754C35.592,705.838,36.168,706.594,36.635,707.366z M24.887,715.138
						c0.705,0.7,1.281,1.456,1.748,2.229l8.846-8.846c-0.383-0.814-0.924-1.621-1.652-2.349c-0.728-0.728-1.535-1.269-2.348-1.651
						l-8.862,8.861C23.405,713.85,24.174,714.429,24.887,715.138z M21.48,714.521l-0.48,0.48v4h4l0.48-0.48
						c-0.383-0.813-0.924-1.62-1.651-2.349C23.101,715.445,22.294,714.904,21.48,714.521z M35,721H19v-16h7.009l3-3H18
						c-1.104,0-2,0.896-2,2.001V722c0,1.106,0.896,2.001,2,2.001h18c1.104,0,2-0.895,2-2.001v-11.038L35,714V721z"/>
				</g>
			</g>
			<g id="Rectangle_3">
				<g>
					<path fill="#FFFFFF" d="M71.334,675.695l-2.667-2.789L65,676.68V667h-4v9.68l-3.667-3.609l-2.667,2.625L63,684.063
						L71.334,675.695z M53,685.375V688h20v-2.625H53z"/>
				</g>
			</g>
			<g id="Menu__x28_24x24_x29_">
				<g>
					<path fill="#FFFFFF" d="M38.247,683.011H15.752c-0.413,0-0.75,0.36-0.75,0.801v3.421c0,0.424,0.337,0.77,0.75,0.77h22.495
						c0.413,0,0.75-0.346,0.75-0.77v-3.421C38.997,683.371,38.66,683.011,38.247,683.011z M38.247,675.011H15.752
						c-0.413,0-0.75,0.36-0.75,0.801v3.42c0,0.425,0.337,0.77,0.75,0.77h22.495c0.413,0,0.75-0.345,0.75-0.77v-3.42
						C38.997,675.371,38.66,675.011,38.247,675.011z M38.247,667.011H15.752c-0.413,0-0.75,0.36-0.75,0.801v3.421
						c0,0.423,0.337,0.769,0.75,0.769h22.495c0.413,0,0.75-0.346,0.75-0.769v-3.421C38.997,667.371,38.66,667.011,38.247,667.011z"
						/>
				</g>
			</g>
			<g id="Rectangle_4_copy_3">
				<g>
					<path fill="#FFFFFF" d="M105,716v-4h-4v4h-4v4h4v4h4v-4h4v-4H105z M98,710h-3v-3h-3v3h-3v3h3v3h3v-3h3V710z M100,709h2v-2h2v-2
						h-2v-2h-2v2h-2v2h2V709z"/>
				</g>
			</g>
		</g>
	</g>
	<g id="Shape_2">
		<g>
			<rect x="1011" y="34" fill="#8E44AD" width="189" height="3"/>
		</g>
	</g>
	<g id="Pete_Placehold">
		<text transform="matrix(1.0143 0 0 1 1008.5 31.4404)" fill="#FFFFFF" font-family="'Lato-Bold'" font-size="24.9822">Pete Placehold</text>
	</g>
	<g id="Core_Stats_1_">
		<g id="STRENGTH">
			
				<text transform="matrix(1.013 0 0 1 1015.9072 585.3535)" fill="#345473" font-family="'Univers-UltraCondensed'" font-size="32.6078">STRENGTH</text>
		</g>
		<g id="TOUGHNESS">
			
				<text transform="matrix(1.013 0 0 1 1015.9072 614.3037)" fill="#345473" font-family="'Univers-UltraCondensed'" font-size="32.6078">TOUGHNESS</text>
		</g>
		<g id="SPEED">
			
				<text transform="matrix(1.013 0 0 1 1015.9072 643.2529)" fill="#345473" font-family="'Univers-UltraCondensed'" font-size="32.6078">SPEED</text>
		</g>
		<g id="INTELLIGENCE">
			
				<text transform="matrix(1.013 0 0 1 1015.9072 672.2031)" fill="#345473" font-family="'Univers-UltraCondensed'" font-size="32.6078">INTELLIGENCE</text>
		</g>
		<g id="LIBIDO">
			
				<text transform="matrix(1.013 0 0 1 1015.9072 701.1523)" fill="#345473" font-family="'Univers-UltraCondensed'" font-size="32.6078">LIBIDO</text>
		</g>
		<g id="SENSITIVITY">
			
				<text transform="matrix(1.013 0 0 1 1015.9072 730.1016)" fill="#345473" font-family="'Univers-UltraCondensed'" font-size="32.6078">SENSITIVITY</text>
		</g>
		<g id="Shape_2_copy_2__x2B__STRENGTH_2_" enable-background="new    ">
			<defs>
				<rect id="SVGID_1_" x="1010" y="561" enable-background="new    " width="180" height="24"/>
			</defs>
			<clipPath id="SVGID_2_">
				<use xlink:href="#SVGID_1_"  overflow="visible"/>
			</clipPath>
			<g clip-path="url(#SVGID_2_)">
				
					<image overflow="visible" width="183" height="27" id="Shape_2_copy_2__x2B__STRENGTH_xA0_Image" xlink:href="AA229CAE.png"  transform="matrix(1 0 0 1 1009 560)">
				</image>
			</g>
		</g>
		<g id="Shape_2_copy_3__x2B__TOUGHNESS_2_" enable-background="new    ">
			<defs>
				<rect id="SVGID_3_" x="1010" y="590" enable-background="new    " width="90" height="24"/>
			</defs>
			<clipPath id="SVGID_4_">
				<use xlink:href="#SVGID_3_"  overflow="visible"/>
			</clipPath>
			<g clip-path="url(#SVGID_4_)">
				
					<image overflow="visible" width="93" height="27" id="Shape_2_copy_3__x2B__TOUGHNESS_xA0_Image" xlink:href="AA229CB2.png"  transform="matrix(1 0 0 1 1009 589)">
				</image>
			</g>
		</g>
		<g id="Shape_2_copy_4__x2B__SPEED_2_" enable-background="new    ">
			<defs>
				<rect id="SVGID_5_" x="1010" y="619" enable-background="new    " width="45" height="24"/>
			</defs>
			<clipPath id="SVGID_6_">
				<use xlink:href="#SVGID_5_"  overflow="visible"/>
			</clipPath>
			<g clip-path="url(#SVGID_6_)">
				
					<image overflow="visible" width="47" height="27" id="Shape_2_copy_4__x2B__SPEED_xA0_Image" xlink:href="AA229CB5.png"  transform="matrix(1 0 0 1 1009 618)">
				</image>
			</g>
		</g>
		<g id="Shape_2_copy_5__x2B__INTELLIGENCE_2_" enable-background="new    ">
			<defs>
				<rect id="SVGID_7_" x="1010" y="648" enable-background="new    " width="140" height="24"/>
			</defs>
			<clipPath id="SVGID_8_">
				<use xlink:href="#SVGID_7_"  overflow="visible"/>
			</clipPath>
			<g clip-path="url(#SVGID_8_)">
				
					<image overflow="visible" width="143" height="27" id="Shape_2_copy_5__x2B__INTELLIGENCE_xA0_Image" xlink:href="AA229CB6.png"  transform="matrix(1 0 0 1 1009 647)">
				</image>
			</g>
		</g>
		<g id="Shape_2_copy_6__x2B__LIBIDO_2_" enable-background="new    ">
			<defs>
				<rect id="SVGID_9_" x="1010" y="677" enable-background="new    " width="107" height="24"/>
			</defs>
			<clipPath id="SVGID_10_">
				<use xlink:href="#SVGID_9_"  overflow="visible"/>
			</clipPath>
			<g clip-path="url(#SVGID_10_)">
				
					<image overflow="visible" width="110" height="27" id="Shape_2_copy_6__x2B__LIBIDO_xA0_Image" xlink:href="AA229CB4.png"  transform="matrix(1 0 0 1 1009 676)">
				</image>
			</g>
		</g>
		<g id="Shape_2_copy_7__x2B__SENSITIVITY_2_" enable-background="new    ">
			<defs>
				<rect id="SVGID_11_" x="1010" y="706" enable-background="new    " width="72" height="24"/>
			</defs>
			<clipPath id="SVGID_12_">
				<use xlink:href="#SVGID_11_"  overflow="visible"/>
			</clipPath>
			<g clip-path="url(#SVGID_12_)">
				
					<image overflow="visible" width="75" height="27" id="Shape_2_copy_7__x2B__SENSITIVITY_xA0_Image" xlink:href="AA229CB3.png"  transform="matrix(1 0 0 1 1009 705)">
				</image>
			</g>
		</g>
		<g id="_x31_00_1_">
			<text transform="matrix(1.0143 0 0 1 1150.707 580.4404)" fill="#FFFFFF" font-family="'Lato-Bold'" font-size="21.4133">100</text>
		</g>
		<g id="_x35_0">
			<text transform="matrix(1.0143 0 0 1 1163.3047 609.4404)" fill="#FFFFFF" font-family="'Lato-Bold'" font-size="21.4133">50</text>
		</g>
		<g id="_x32_5">
			<text transform="matrix(1.0143 0 0 1 1163.3047 638.4404)" fill="#FFFFFF" font-family="'Lato-Bold'" font-size="21.4133">25</text>
		</g>
		<g id="_x37_8">
			<text transform="matrix(1.0143 0 0 1 1163.3047 667.4404)" fill="#FFFFFF" font-family="'Lato-Bold'" font-size="21.4133">78</text>
		</g>
		<g id="_x36_0">
			<text transform="matrix(1.0143 0 0 1 1163.3047 696.4404)" fill="#FFFFFF" font-family="'Lato-Bold'" font-size="21.4133">60</text>
		</g>
		<g id="_x34_0">
			<text transform="matrix(1.0143 0 0 1 1163.3047 725.4404)" fill="#FFFFFF" font-family="'Lato-Bold'" font-size="21.4133">40</text>
		</g>
		<g id="Shape_2_copy_8">
			<g>
				<rect x="1010" y="555" fill="#8E44AD" width="190" height="1"/>
			</g>
		</g>
		<g id="CORE_STATS">
			<text transform="matrix(1.0143 0 0 1 1011.5 554.4404)" fill="#FFFFFF" font-family="'Lato-Light'" font-size="14.2755">CORE STATS</text>
		</g>
	</g>
	<g id="Advancement_1_">
		<g id="LEVEL">
			
				<text transform="matrix(1.013 0 0 1 1015.9072 473.3535)" fill="#345473" font-family="'Univers-UltraCondensed'" font-size="32.6078">LEVEL</text>
		</g>
		<g id="_x35__1_">
			<text transform="matrix(1.0143 0 0 1 1176.9023 468.4404)" fill="#FFFFFF" font-family="'Lato-Bold'" font-size="21.4133">5</text>
		</g>
		<g id="EXP">
			
				<text transform="matrix(1.013 0 0 1 1015.9072 502.3535)" fill="#345473" font-family="'Univers-UltraCondensed'" font-size="32.6078">EXP</text>
		</g>
		<g id="Shape_2_copy_15__x2B__EXP_2_" enable-background="new    ">
			<defs>
				<rect id="SVGID_13_" x="1011" y="478" enable-background="new    " width="69" height="24"/>
			</defs>
			<clipPath id="SVGID_14_">
				<use xlink:href="#SVGID_13_"  overflow="visible"/>
			</clipPath>
			<g clip-path="url(#SVGID_14_)">
				
					<image overflow="visible" width="72" height="27" id="Shape_2_copy_15__x2B__EXP_xA0_Image" xlink:href="AA229CBD.png"  transform="matrix(1 0 0 1 1010 477)">
				</image>
			</g>
		</g>
		<g id="_x37_8__x2F__200">
			<text transform="matrix(1.0143 0 0 1 1109.7227 497.4404)" fill="#FFFFFF" font-family="'Lato-Bold'" font-size="21.4133">78 / 200</text>
		</g>
		<g id="CREDITS">
			
				<text transform="matrix(1.013 0 0 1 1015.9072 531.3535)" fill="#345473" font-family="'Univers-UltraCondensed'" font-size="32.6078">CREDITS</text>
		</g>
		<g id="_x31_9650">
			<text transform="matrix(1.0143 0 0 1 1126.5127 526.4404)" fill="#FFFFFF" font-family="'Lato-Bold'" font-size="21.4133">19650</text>
		</g>
		<g id="Shape_2_copy_16">
			<g>
				<rect x="1010" y="443" fill="#8E44AD" width="190" height="1"/>
			</g>
		</g>
		<g id="ADVANCEMENT">
			<text transform="matrix(1.0143 0 0 1 1012.5 442.4404)" fill="#FFFFFF" font-family="'Lato-Light'" font-size="14.2755">ADVANCEMENT</text>
		</g>
	</g>
	<g id="Status_1_">
		<g id="Rounded_Rectangle_2_copy_6">
			<g>
				<path fill="#345473" d="M1046,212h-26c-2.209,0-4,1.791-4,4v26c0,2.209,1.791,4,4,4h26c2.209,0,4-1.791,4-4v-26
					C1050,213.791,1048.209,212,1046,212z"/>
			</g>
		</g>
		<g id="Rounded_Rectangle_2_copy_7">
			<g>
				<path fill="#345473" d="M1085,212h-26c-2.209,0-4,1.791-4,4v26c0,2.209,1.791,4,4,4h26c2.209,0,4-1.791,4-4v-26
					C1089,213.791,1087.209,212,1085,212z"/>
			</g>
		</g>
		<g id="Rounded_Rectangle_2_copy_8">
			<g>
				<path fill="#345473" d="M1124,212h-26c-2.209,0-4,1.791-4,4v26c0,2.209,1.791,4,4,4h26c2.209,0,4-1.791,4-4v-26
					C1128,213.791,1126.209,212,1124,212z"/>
			</g>
		</g>
		<g id="ICON_x0D_ART_1_">
			<text transform="matrix(1.0153 0 0 1 1100.0049 228.416)"><tspan x="0" y="0" fill="#FFFFFF" font-family="'Univers-UltraCondensed'" font-size="16.7439">ICON</tspan><tspan x="1.402" y="14.168" fill="#FFFFFF" font-family="'Univers-UltraCondensed'" font-size="16.7439">ART</tspan></text>
		</g>
		<g id="Shape_4">
			<g>
				<path fill="#FFFFFF" d="M1076.162,222.713c0-4.263-3.393-7.718-7.577-7.718s-7.577,3.455-7.577,7.718
					c0,4.262,3.393,7.717,7.577,7.717S1076.162,226.975,1076.162,222.713z M1064.258,220.956c0-1.846,1.469-3.341,3.28-3.341
					s3.28,1.495,3.28,3.341c0,1.845-1.469,3.341-3.28,3.341S1064.258,222.801,1064.258,220.956z M1078.662,227.528
					c-2.954,0-5.35,2.439-5.35,5.447c0,3.009,2.396,5.447,5.35,5.447c2.953,0,5.349-2.439,5.349-5.447
					C1084.011,229.967,1081.615,227.528,1078.662,227.528z M1077.923,234.094c-1.279,0-2.317-1.056-2.317-2.358
					c0-1.303,1.037-2.358,2.317-2.358c1.278,0,2.315,1.056,2.315,2.358C1080.238,233.038,1079.201,234.094,1077.923,234.094z
					 M1070.322,234.829c-2.217,0-4.015,1.831-4.015,4.09c0,2.259,1.798,4.09,4.015,4.09c2.218,0,4.016-1.831,4.016-4.09
					C1074.338,236.66,1072.54,234.829,1070.322,234.829z M1069.768,239.758c-0.96,0-1.738-0.792-1.738-1.771
					c0-0.977,0.778-1.77,1.738-1.77s1.738,0.793,1.738,1.77C1071.506,238.966,1070.728,239.758,1069.768,239.758z"/>
			</g>
		</g>
		<g id="Rounded_Rectangle_2_copy_11">
			<g>
				<path fill="#345473" d="M1163,212h-26c-2.209,0-4,1.791-4,4v26c0,2.209,1.791,4,4,4h26c2.209,0,4-1.791,4-4v-26
					C1167,213.791,1165.209,212,1163,212z"/>
			</g>
		</g>
		<g id="ICON_x0D_ART">
			<text transform="matrix(1.0153 0 0 1 1139.0049 228.416)"><tspan x="0" y="0" fill="#FFFFFF" font-family="'Univers-UltraCondensed'" font-size="16.7439">ICON</tspan><tspan x="1.402" y="14.168" fill="#FFFFFF" font-family="'Univers-UltraCondensed'" font-size="16.7439">ART</tspan></text>
		</g>
		<g id="Shape_2_copy_16_1_">
			<g>
				<rect x="1010" y="206" fill="#8E44AD" width="190" height="1"/>
			</g>
		</g>
		<g id="STATUS">
			<text transform="matrix(1.0143 0 0 1 1012.5 205.4404)" fill="#FFFFFF" font-family="'Lato-Light'" font-size="14.2755">STATUS</text>
		</g>
		<g id="Status_Description_1_">
			<g id="Rounded_Rectangle_2_copy_10">
				<g>
					<path fill="#2C3E50" d="M986,212H528c-2.209,0-4,1.791-4,4v264c0,2.209,1.791,4,4,4h458c2.209,0,4-1.791,4-4V216
						C990,213.791,988.209,212,986,212z"/>
				</g>
			</g>
			<g id="Thanks_to_the_wonderful_Dr._REDACTED_x2C__your_package_is_now_laced_1_">
				<rect x="617.512" y="250.165" fill="none" width="362.488" height="223.189"/>
				<text id="Thanks_to_the_wonderful_Dr._REDACTED_x2C__your_package_is_now_laced" transform="matrix(1 0 0 1 617.5117 260.483)"><tspan x="0" y="0" fill="#FFFFFF" font-family="'Lato-Regular'" font-size="14">Thanks to the wonderful Dr. REDACTED, your package is </tspan><tspan x="0" y="15" fill="#FFFFFF" font-family="'Lato-Regular'" font-size="14">now laced with nanites, granting it basic sentience and the </tspan><tspan x="0" y="30" fill="#FFFFFF" font-family="'Lato-Regular'" font-size="14">ability to move independently. Due to your modest size at </tspan><tspan x="0" y="45" fill="#FFFFFF" font-family="'Lato-Regular'" font-size="14">the time of “installation,” your penis is only capable of </tspan><tspan x="0" y="60" fill="#FFFFFF" font-family="'Lato-Regular'" font-size="14">acting on basic commands, such as vibration or alerting you </tspan><tspan x="0" y="75" fill="#FFFFFF" font-family="'Lato-Regular'" font-size="14">to unusual activity, and is not self-aware.</tspan><tspan x="0" y="97" fill="#FFFFFF" font-family="'Lato-Regular'" font-size="14">Your augmented tool is capable of </tspan><tspan x="209.003" y="97" fill="#8E44AD" font-family="'Lato-Bold'" font-size="14">slight lust prevention</tspan><tspan x="341.182" y="97" fill="#FFFFFF" font-family="'Lato-Regular'" font-size="14"> in </tspan><tspan x="0" y="112" fill="#FFFFFF" font-family="'Lato-Regular'" font-size="14">battle. This feature can be disabled upon request. The </tspan><tspan x="0" y="127" fill="#FFFFFF" font-family="'Lato-Regular'" font-size="14">interconnected nature of your dick also makes it more </tspan><tspan x="0" y="142" fill="#FFFFFF" font-family="'Lato-Regular'" font-size="14">susceptible to </tspan><tspan x="87.498" y="142" fill="#8E44AD" font-family="'Lato-Bold'" font-size="14">computer viruses</tspan><tspan x="195.78" y="142" fill="#FFFFFF" font-family="'Lato-Regular'" font-size="14"> and various other </tspan><tspan x="0" y="157" fill="#FFFFFF" font-family="'Lato-Regular'" font-size="14">technological attacks, so it is recommended to take caution </tspan><tspan x="0" y="172" fill="#FFFFFF" font-family="'Lato-Regular'" font-size="14">around more tech-savy adversaries. </tspan><tspan x="0" y="194" fill="#FFFFFF" font-family="'Lato-Regular'" font-size="14">More benefits (or drawbacks) may be available in future </tspan><tspan x="0" y="209" fill="#FFFFFF" font-family="'Lato-Regular'" font-size="14">“firmware updates.” </tspan></text>
			</g>
			<g id="SmartDick_v1.4">
				<text transform="matrix(1.0143 0 0 1 615.5 240.4404)" fill="#FFFFFF" font-family="'Lato-Bold'" font-size="21.4133">SmartDick v1.4</text>
			</g>
			<g id="Rounded_Rectangle_2_copy_9">
				<g>
					<path fill="#345473" d="M602,222h-64c-2.209,0-4,1.791-4,4v62c0,2.209,1.791,4,4,4h64c2.209,0,4-1.791,4-4v-62
						C606,223.791,604.209,222,602,222z"/>
				</g>
			</g>
			<g id="Shape_5">
				<g>
					<path fill="#FFFFFF" d="M579.848,239.816c-2.747-1.661-3.713-9.311-10.976-9.311s-8.275,7.446-10.809,9.311
						c-2.534,1.863-0.41,5.742,2.603,7.007c-3.302,9.055-7.751,39.025,0,43.009h3.411c-0.479-2.987-0.935-6.534-1.212-10.408
						c-1.344-18.773,2.639-30.679,4.494-37.36l0.051-0.184c-1.814,6.685-3.263,19.106-1.949,37.486
						c0.279,3.901,0.657,7.47,1.031,10.466h4.486c0.375-2.996,0.753-6.564,1.031-10.466c1.32-18.471-0.135-30.851-1.957-37.518
						l0.06,0.215c1.855,6.682,5.837,18.587,4.494,37.36c-0.277,3.874-0.733,7.421-1.212,10.408h3.684
						c5.724-4.537,3.113-31.785,0-43.009C580.471,245.302,582.595,241.478,579.848,239.816z M537.989,252.384v2.116
						c0.855-0.652,1.283-1.058,1.756-1.688h0.045v13.196h2.117v-16.259h-1.892C539.723,250.47,538.507,252.001,537.989,252.384z
						 M547.402,249.614c-2.681,0-3.355,1.08-3.355,4.008v8.512c0,2.928,0.675,4.009,3.355,4.009c2.68,0,3.356-1.081,3.356-4.009
						v-8.512C550.758,250.694,550.082,249.614,547.402,249.614z M548.641,262.494c0,1.014,0,2.027-1.238,2.027
						c-1.239,0-1.239-1.014-1.239-2.027v-9.232c0-1.014,0-2.026,1.239-2.026c1.238,0,1.238,1.013,1.238,2.026V262.494z
						 M551.591,252.384v2.116c0.855-0.652,1.283-1.058,1.756-1.688h0.046v13.196h2.116v-16.259h-1.892
						C553.324,250.47,552.108,252.001,551.591,252.384z M585.955,249.614c-2.68,0-3.355,1.08-3.355,4.008v8.512
						c0,2.928,0.676,4.009,3.355,4.009s3.355-1.081,3.355-4.009v-8.512C589.31,250.694,588.635,249.614,585.955,249.614z
						 M587.193,262.494c0,1.014,0,2.027-1.238,2.027c-1.238,0-1.238-1.014-1.238-2.027v-9.232c0-1.014,0-2.026,1.238-2.026
						c1.238,0,1.238,1.013,1.238,2.026V262.494z M590.144,252.384v2.116c0.855-0.652,1.283-1.058,1.757-1.688h0.045v13.196h2.116
						v-16.259h-1.892C591.877,250.47,590.661,252.001,590.144,252.384z M598.655,249.614c-2.68,0-3.355,1.08-3.355,4.008v8.512
						c0,2.928,0.676,4.009,3.355,4.009c2.681,0,3.356-1.081,3.356-4.009v-8.512C602.012,250.694,601.336,249.614,598.655,249.614z
						 M599.894,262.494c0,1.014,0,2.027-1.239,2.027c-1.238,0-1.238-1.014-1.238-2.027v-9.232c0-1.014,0-2.026,1.238-2.026
						c1.239,0,1.239,1.013,1.239,2.026V262.494z M581.361,262.888v-13.139h-1.819C580.319,253.696,580.958,258.312,581.361,262.888z
						 M557.63,250.972c-0.448,0.602-0.97,1.193-1.266,1.412v2.116c0.248-0.188,0.46-0.357,0.647-0.517
						C557.206,252.955,557.413,251.946,557.63,250.972z M578.379,224.168v3.148c4.461,0.001,8.484,1.803,11.409,4.726
						c2.923,2.925,4.726,6.948,4.727,11.409h3.148C597.662,232.801,589.03,224.169,578.379,224.168z M588.293,243.55h3.148
						c-0.001-7.178-5.818-12.995-12.997-12.996v3.148c2.725,0.001,5.177,1.1,6.964,2.884
						C587.193,238.374,588.292,240.825,588.293,243.55z M559.364,227.316v-3.148c-10.651,0.001-19.283,8.633-19.284,19.283h3.148
						c0.001-4.461,1.804-8.484,4.727-11.409C550.88,229.119,554.903,227.317,559.364,227.316z M549.45,243.55
						c0.001-2.725,1.1-5.176,2.884-6.964c1.788-1.784,4.24-2.883,6.965-2.884v-3.148c-7.179,0.001-12.996,5.818-12.997,12.996
						H549.45z"/>
				</g>
			</g>
			<g id="Shape_5_copy">
				<g>
					<path fill="#FFFFFF" d="M1037.617,221.391c-1.288-0.784-1.74-4.395-5.146-4.395c-3.404,0-3.879,3.515-5.067,4.394
						c-1.188,0.88-0.192,2.711,1.221,3.308c-1.548,4.273-3.634,18.418,0,20.298h1.599c-0.225-1.41-0.438-3.084-0.568-4.912
						c-0.629-8.86,1.237-14.478,2.107-17.632l0.024-0.087c-0.851,3.154-1.53,9.017-0.914,17.691
						c0.131,1.842,0.308,3.525,0.483,4.939h2.104c0.176-1.414,0.353-3.098,0.483-4.939c0.619-8.717-0.063-14.56-0.918-17.706
						l0.028,0.102c0.87,3.153,2.736,8.771,2.107,17.632c-0.131,1.828-0.344,3.502-0.568,4.912h1.727
						c2.684-2.142,1.46-15.001,0-20.298C1037.909,223.979,1038.905,222.175,1037.617,221.391z M1017.991,227.321v0.999
						c0.401-0.309,0.603-0.5,0.824-0.797h0.021v6.228h0.993v-7.673h-0.888C1018.805,226.418,1018.234,227.141,1017.991,227.321z
						 M1022.405,226.014c-1.257,0-1.573,0.511-1.573,1.892v4.017c0,1.382,0.316,1.892,1.573,1.892c1.256,0,1.573-0.51,1.573-1.892
						v-4.017C1023.978,226.524,1023.661,226.014,1022.405,226.014z M1022.985,232.093c0,0.479,0,0.957-0.58,0.957
						c-0.581,0-0.581-0.479-0.581-0.957v-4.357c0-0.478,0-0.956,0.581-0.956c0.58,0,0.58,0.479,0.58,0.956V232.093z
						 M1024.369,227.321v0.999c0.4-0.309,0.602-0.5,0.823-0.797h0.021v6.228h0.993v-7.673h-0.887
						C1025.182,226.418,1024.611,227.141,1024.369,227.321z M1040.48,226.014c-1.257,0-1.573,0.511-1.573,1.892v4.017
						c0,1.382,0.316,1.892,1.573,1.892s1.573-0.51,1.573-1.892v-4.017C1042.054,226.524,1041.737,226.014,1040.48,226.014z
						 M1041.062,232.093c0,0.479,0,0.957-0.581,0.957s-0.581-0.479-0.581-0.957v-4.357c0-0.478,0-0.956,0.581-0.956
						s0.581,0.479,0.581,0.956V232.093z M1042.444,227.321v0.999c0.401-0.309,0.602-0.5,0.823-0.797h0.021v6.228h0.992v-7.673
						h-0.887C1043.257,226.418,1042.688,227.141,1042.444,227.321z M1046.435,226.014c-1.257,0-1.573,0.511-1.573,1.892v4.017
						c0,1.382,0.316,1.892,1.573,1.892c1.256,0,1.573-0.51,1.573-1.892v-4.017C1048.009,226.524,1047.691,226.014,1046.435,226.014z
						 M1047.016,232.093c0,0.479,0,0.957-0.58,0.957c-0.581,0-0.581-0.479-0.581-0.957v-4.357c0-0.478,0-0.956,0.581-0.956
						c0.58,0,0.58,0.479,0.58,0.956V232.093z M1038.326,232.278v-6.2h-0.853C1037.838,227.941,1038.138,230.119,1038.326,232.278z
						 M1027.2,226.655c-0.21,0.284-0.455,0.563-0.593,0.666v0.999c0.116-0.089,0.215-0.169,0.303-0.244
						C1027.002,227.591,1027.099,227.115,1027.2,226.655z M1036.929,214.005v1.486c2.091,0,3.978,0.851,5.349,2.23
						c1.371,1.381,2.216,3.279,2.217,5.385h1.476C1045.969,218.079,1041.922,214.005,1036.929,214.005z M1041.577,223.152h1.476
						c0-3.388-2.728-6.133-6.094-6.134v1.486c1.277,0,2.428,0.518,3.266,1.361C1041.06,220.709,1041.576,221.866,1041.577,223.152z
						 M1028.014,215.491v-1.486c-4.994,0-9.041,4.074-9.042,9.101h1.477c0-2.106,0.846-4.004,2.216-5.385
						C1024.035,216.342,1025.922,215.491,1028.014,215.491z M1023.365,223.152c0-1.286,0.516-2.443,1.353-3.286
						c0.838-0.843,1.987-1.361,3.265-1.361v-1.486c-3.365,0.001-6.093,2.746-6.094,6.134H1023.365z"/>
				</g>
			</g>
			<g id="Shape_2_copy_17">
				<g>
					<rect x="534" y="317" fill="#8E44AD" width="72" height="1"/>
				</g>
			</g>
			<g id="STATS_1_">
				<text transform="matrix(1.0143 0 0 1 534.5 316.4404)" fill="#FFFFFF" font-family="'Lato-Light'" font-size="14.2755">STATS</text>
			</g>
			<g id="LUST_DEF_x0D_LIBIDO_x0D_SENSITIVITY">
				<rect x="534.5" y="325.792" fill="none" width="59.64" height="102.708"/>
				<text transform="matrix(1 0 0 1 534.5 335.1778)"><tspan x="0" y="0" fill="#FFFFFF" font-family="'Univers-UltraCondensed'" font-size="13">LUST DEF</tspan><tspan x="0" y="14" fill="#FFFFFF" font-family="'Univers-UltraCondensed'" font-size="13">LIBIDO</tspan><tspan x="0" y="28" fill="#FFFFFF" font-family="'Univers-UltraCondensed'" font-size="13">SENSITIVITY</tspan></text>
			</g>
			<g id="_x2B_10_x25__x0D__x2B_5_x0D_-10_x25__x0D_">
				<rect x="561.049" y="325.792" fill="none" width="44.951" height="102.708"/>
				<text transform="matrix(1 0 0 1 580.584 335.1778)"><tspan x="0" y="0" fill="#00FF00" font-family="'Univers-UltraCondensed'" font-size="13">+10%</tspan><tspan x="12.778" y="14" fill="#00FF00" font-family="'Univers-UltraCondensed'" font-size="13">+5</tspan><tspan x="3.955" y="28" fill="#FF0000" font-family="'Univers-UltraCondensed'" font-size="13">-10%</tspan></text>
			</g>
		</g>
	</g>
	<g id="Combat_Stats_1_">
		<g id="HP_1_">
			
				<text transform="matrix(1.0024 0 0 1 1016.4219 102.1504)" fill="#345473" font-family="'Univers-UltraCondensed'" font-size="48.4032">HP</text>
		</g>
		<g id="Shape_2_copy_11__x2B__HP_2_" enable-background="new    ">
			<defs>
				<rect id="SVGID_15_" x="1011" y="67" enable-background="new    " width="180" height="35"/>
			</defs>
			<clipPath id="SVGID_16_">
				<use xlink:href="#SVGID_15_"  overflow="visible"/>
			</clipPath>
			<g clip-path="url(#SVGID_16_)">
				
					<image overflow="visible" width="183" height="38" id="Shape_2_copy_11__x2B__HP_xA0_Image" xlink:href="AA229CBE.png"  transform="matrix(1 0 0 1 1010 66)">
				</image>
			</g>
		</g>
		<g id="_x31_00">
			<text transform="matrix(1.0181 0 0 1 1138 93.8027)" fill="#FFFFFF" font-family="'Lato-Bold'" font-size="28.791">100</text>
		</g>
		<g id="LUST_1_">
			
				<text transform="matrix(1.0024 0 0 1 1016.4219 142.1504)" fill="#345473" font-family="'Univers-UltraCondensed'" font-size="48.4032">LUST</text>
		</g>
		<g id="Shape_2_copy_12__x2B__LUST_2_" enable-background="new    ">
			<defs>
				<rect id="SVGID_17_" x="1011" y="107" enable-background="new    " width="14" height="35"/>
			</defs>
			<clipPath id="SVGID_18_">
				<use xlink:href="#SVGID_17_"  overflow="visible"/>
			</clipPath>
			<g clip-path="url(#SVGID_18_)">
				
					<image overflow="visible" width="17" height="38" id="Shape_2_copy_12__x2B__LUST_xA0_Image" xlink:href="AA229CBC.png"  transform="matrix(1 0 0 1 1010 106)">
				</image>
			</g>
		</g>
		<g id="_x38_">
			<text transform="matrix(1.0181 0 0 1 1172 133.8027)" fill="#FFFFFF" font-family="'Lato-Bold'" font-size="28.791">8</text>
		</g>
		<g id="FATIGUE_1_">
			
				<text transform="matrix(1.0024 0 0 1 1016.4219 182.1504)" fill="#345473" font-family="'Univers-UltraCondensed'" font-size="48.4032">FATIGUE</text>
		</g>
		<g id="Shape_2_copy_13__x2B__FATIGUE_2_" enable-background="new    ">
			<defs>
				<rect id="SVGID_19_" x="1011" y="147" enable-background="new    " width="36" height="35"/>
			</defs>
			<clipPath id="SVGID_20_">
				<use xlink:href="#SVGID_19_"  overflow="visible"/>
			</clipPath>
			<g clip-path="url(#SVGID_20_)">
				
					<image overflow="visible" width="39" height="38" id="Shape_2_copy_13__x2B__FATIGUE_xA0_Image" xlink:href="9700A571.png"  transform="matrix(1 0 0 1 1010 146)">
				</image>
			</g>
		</g>
		<g id="_x32_0">
			<text transform="matrix(1.0181 0 0 1 1155 173.8027)" fill="#FFFFFF" font-family="'Lato-Bold'" font-size="28.791">20</text>
		</g>
		<g id="Shape_2_copy_11">
			<g>
				<rect x="1010" y="61" fill="#8E44AD" width="190" height="1"/>
			</g>
		</g>
		<g id="COMBAT_STATS">
			<text transform="matrix(1.0143 0 0 1 1012.5 60.4404)" fill="#FFFFFF" font-family="'Lato-Light'" font-size="14.2755">COMBAT STATS</text>
		</g>
	</g>
	<g id="Enemy_Stats_1_">
		<g id="HP">
			
				<text transform="matrix(1.0024 0 0 1 15.4219 221.1504)" fill="#345473" font-family="'Univers-UltraCondensed'" font-size="48.4032">HP</text>
		</g>
		<g id="_x2D__4_">
			<text transform="matrix(1.0181 0 0 1 177.4775 212.8027)" fill="#FFFFFF" font-family="'Lato-Bold'" font-size="28.791">-</text>
		</g>
		<g id="LUST">
			
				<text transform="matrix(1.0024 0 0 1 15.4219 261.1504)" fill="#345473" font-family="'Univers-UltraCondensed'" font-size="48.4032">LUST</text>
		</g>
		<g id="_x2D__3_">
			<text transform="matrix(1.0181 0 0 1 177.4775 252.8027)" fill="#FFFFFF" font-family="'Lato-Bold'" font-size="28.791">-</text>
		</g>
		<g id="FATIGUE">
			
				<text transform="matrix(1.0024 0 0 1 15.4219 301.1504)" fill="#345473" font-family="'Univers-UltraCondensed'" font-size="48.4032">FATIGUE</text>
		</g>
		<g id="RACE">
			
				<text transform="matrix(1.013 0 0 1 8.9067 330.3535)" fill="#345473" font-family="'Univers-UltraCondensed'" font-size="32.6078">RACE</text>
		</g>
		<g id="_x2D__2_">
			<text transform="matrix(1.0143 0 0 1 181.7026 326.4404)" fill="#FFFFFF" font-family="'Lato-Bold'" font-size="21.4133">-</text>
		</g>
		<g id="SEX">
			
				<text transform="matrix(1.013 0 0 1 8.9067 359.3535)" fill="#345473" font-family="'Univers-UltraCondensed'" font-size="32.6078">SEX</text>
		</g>
		<g id="_x2D__1_">
			<text transform="matrix(1.0143 0 0 1 181.7026 354.4404)" fill="#FFFFFF" font-family="'Lato-Bold'" font-size="21.4133">-</text>
		</g>
		<g id="_x2D_">
			<text transform="matrix(1.0181 0 0 1 177.4775 292.8027)" fill="#FFFFFF" font-family="'Lato-Bold'" font-size="28.791">-</text>
		</g>
		<g id="Shape_2_copy_11_1_">
			<g>
				<rect y="180" fill="#8E44AD" width="189" height="1"/>
			</g>
		</g>
		<g id="STATS">
			<text transform="matrix(1.0143 0 0 1 11.5 179.4404)" fill="#FFFFFF" font-family="'Lato-Light'" font-size="14.2755">STATS</text>
		</g>
	</g>
	<g id="Galactic_Standard_1_">
		<g id="LOCAL_TIME">
			
				<text transform="matrix(1.013 0 0 1 8.9067 603.3535)" fill="#345473" font-family="'Univers-UltraCondensed'" font-size="32.6078">LOCAL TIME</text>
		</g>
		<g id="_x32_0:00">
			<text transform="matrix(1.0143 0 0 1 132.354 598.4404)" fill="#FFFFFF" font-family="'Lato-Bold'" font-size="21.4133">20:00</text>
		</g>
		<g id="SOLAR_DAYS">
			
				<text transform="matrix(1.013 0 0 1 8.9067 632.3535)" fill="#345473" font-family="'Univers-UltraCondensed'" font-size="32.6078">SOLAR DAYS</text>
		</g>
		<g id="_x31_90">
			<text transform="matrix(1.0143 0 0 1 150.7075 627.4404)" fill="#FFFFFF" font-family="'Lato-Bold'" font-size="21.4133">190</text>
		</g>
		<g id="Shape_2_copy_10">
			<g>
				<rect y="573" fill="#8E44AD" width="189" height="1"/>
			</g>
		</g>
		<g id="GALACTIC_STANDARD">
			<text transform="matrix(1.0143 0 0 1 11.5 572.4404)" fill="#FFFFFF" font-family="'Lato-Light'" font-size="14.2755">GALACTIC STANDARD</text>
		</g>
	</g>
	<g id="Sprite_Panel_1_">
		<g id="Shape_2_copy_14">
			<g>
				<rect y="10" fill="#8E44AD" width="189" height="96"/>
			</g>
		</g>
		<g id="Shape_2_copy_20">
			<g>
				<rect y="111" fill="#8E44AD" width="189" height="20"/>
			</g>
		</g>
		<g id="DEAD_SHIP_x0D_BAY">
			<text transform="matrix(1.013 0 0 1 81.7612 55.3535)"><tspan x="0" y="0" fill="#2C3E50" font-family="'Univers-UltraCondensed'" font-size="32.6078">DEAD SHIP</tspan><tspan x="60.407" y="29.347" fill="#2C3E50" font-family="'Univers-UltraCondensed'" font-size="32.6078">BAY</tspan></text>
		</g>
		<g id="PLANET_DEBAUCHERY">
			
				<text transform="matrix(1.013 0 0 1 49.5449 129.3535)" fill="#2C3E50" font-family="'Univers-UltraCondensed'" font-size="21.1951">PLANET DEBAUCHERY</text>
		</g>
		<g id="Shape_2_copy_21">
			<g>
				<rect y="136" fill="#8E44AD" width="189" height="20"/>
			</g>
		</g>
		<g id="NOT_MASS_EFFECT_NEBULA">
			
				<text transform="matrix(1.013 0 0 1 17.2969 154.3535)" fill="#2C3E50" font-family="'Univers-UltraCondensed'" font-size="21.1951">NOT MASS EFFECT NEBULA</text>
		</g>
	</g>
</g>
<g id="button_bottom_1_">
	<g id="buttons_1_">
		<g id="Rectangle_1_copy_3">
			<g>
				<polygon fill="#345473" points="1000,740 1000,640 200,640 200,740 0,740 0,800 1200,800 1200,740 				"/>
			</g>
		</g>
		<g id="Rounded_Rectangle_4">
			<g>
				<path fill="#2C3E50" d="M350,650H218c-4.419,0-8,3.582-8,8v24c0,4.418,3.581,8,8,8h132c4.418,0,8-3.582,8-8v-24
					C358,653.582,354.418,650,350,650z"/>
			</g>
		</g>
		<g id="Rounded_Rectangle_4_copy">
			<g>
				<path fill="#2C3E50" d="M508,650H376c-4.418,0-8,3.582-8,8v24c0,4.418,3.582,8,8,8h132c4.418,0,8-3.582,8-8v-24
					C516,653.582,512.418,650,508,650z"/>
			</g>
		</g>
		<g id="Rounded_Rectangle_4_copy_2">
			<g>
				<path fill="#2C3E50" d="M666,650H534c-4.418,0-8,3.582-8,8v24c0,4.418,3.582,8,8,8h132c4.418,0,8-3.582,8-8v-24
					C674,653.582,670.418,650,666,650z"/>
			</g>
		</g>
		<g id="Rounded_Rectangle_4_copy_3">
			<g>
				<path fill="#2C3E50" d="M824,650H692c-4.418,0-8,3.582-8,8v24c0,4.418,3.582,8,8,8h132c4.418,0,8-3.582,8-8v-24
					C832,653.582,828.418,650,824,650z"/>
			</g>
		</g>
		<g id="Rounded_Rectangle_4_copy_4">
			<g>
				<path fill="#2C3E50" d="M982,650H850c-4.418,0-8,3.582-8,8v24c0,4.418,3.582,8,8,8h132c4.418,0,8-3.582,8-8v-24
					C990,653.582,986.418,650,982,650z"/>
			</g>
		</g>
		<g id="Rounded_Rectangle_4_copy_5">
			<g>
				<path fill="#2C3E50" d="M350,700H218c-4.419,0-8,3.582-8,8v24c0,4.418,3.581,8,8,8h132c4.418,0,8-3.582,8-8v-24
					C358,703.582,354.418,700,350,700z"/>
			</g>
		</g>
		<g id="Rounded_Rectangle_4_copy_5_1_">
			<g>
				<path fill="#8E44AD" d="M508,700H376c-4.418,0-8,3.582-8,8v24c0,4.418,3.582,8,8,8h132c4.418,0,8-3.582,8-8v-24
					C516,703.582,512.418,700,508,700z"/>
			</g>
		</g>
		<g id="Rounded_Rectangle_4_copy_5_2_">
			<g>
				<path fill="#2C3E50" d="M666,700H534c-4.418,0-8,3.582-8,8v24c0,4.418,3.582,8,8,8h132c4.418,0,8-3.582,8-8v-24
					C674,703.582,670.418,700,666,700z"/>
			</g>
		</g>
		<g id="Rounded_Rectangle_4_copy_5_3_">
			<g>
				<path fill="#2C3E50" d="M824,700H692c-4.418,0-8,3.582-8,8v24c0,4.418,3.582,8,8,8h132c4.418,0,8-3.582,8-8v-24
					C832,703.582,828.418,700,824,700z"/>
			</g>
		</g>
		<g id="Rounded_Rectangle_4_copy_5_4_">
			<g>
				<path fill="#2C3E50" d="M982,700H850c-4.418,0-8,3.582-8,8v24c0,4.418,3.582,8,8,8h132c4.418,0,8-3.582,8-8v-24
					C990,703.582,986.418,700,982,700z"/>
			</g>
		</g>
		<g id="Rounded_Rectangle_4_copy_6">
			<g>
				<path fill="#8E44AD" d="M350,750H218c-4.419,0-8,3.582-8,8v24c0,4.418,3.581,8,8,8h132c4.418,0,8-3.582,8-8v-24
					C358,753.582,354.418,750,350,750z"/>
			</g>
		</g>
		<g id="Rounded_Rectangle_4_copy_6_1_">
			<g>
				<path fill="#8E44AD" d="M508,750H376c-4.418,0-8,3.582-8,8v24c0,4.418,3.582,8,8,8h132c4.418,0,8-3.582,8-8v-24
					C516,753.582,512.418,750,508,750z"/>
			</g>
		</g>
		<g id="Rounded_Rectangle_4_copy_6_2_">
			<g>
				<path fill="#8E44AD" d="M666,750H534c-4.418,0-8,3.582-8,8v24c0,4.418,3.582,8,8,8h132c4.418,0,8-3.582,8-8v-24
					C674,753.582,670.418,750,666,750z"/>
			</g>
		</g>
		<g id="Rounded_Rectangle_4_copy_6_3_">
			<g>
				<path fill="#2C3E50" d="M824,750H692c-4.418,0-8,3.582-8,8v24c0,4.418,3.582,8,8,8h132c4.418,0,8-3.582,8-8v-24
					C832,753.582,828.418,750,824,750z"/>
			</g>
		</g>
		<g id="Rounded_Rectangle_4_copy_6_4_">
			<g>
				<path fill="#2C3E50" d="M982,750H850c-4.418,0-8,3.582-8,8v24c0,4.418,3.582,8,8,8h132c4.418,0,8-3.582,8-8v-24
					C990,753.582,986.418,750,982,750z"/>
			</g>
		</g>
		<g id="Rounded_Rectangle_4_copy_7">
			<g>
				<path fill="#2C3E50" d="M1082,750h-74c-4.418,0-8,3.582-8,8v24c0,4.418,3.582,8,8,8h74c4.418,0,8-3.582,8-8v-24
					C1090,753.582,1086.418,750,1082,750z"/>
			</g>
		</g>
		<g id="Rounded_Rectangle_5_copy_2">
			<g>
				<path fill="#345473" d="M1051,760h-17c-1.104,0-2,0.896-2,2v5c0,1.104,0.896,2,2,2h17c1.104,0,2-0.896,2-2v-5
					C1053,760.896,1052.104,760,1051,760z M1030,780v-5.999l-3-3.999l3-4.008V760l-8,10L1030,780z M1022,765.994V760l-8,10l8,10
					v-5.999l-3-3.999L1022,765.994z M1051,771h-17c-1.104,0-2,0.896-2,2v5c0,1.104,0.896,2,2,2h17c1.104,0,2-0.896,2-2v-5
					C1053,771.896,1052.104,771,1051,771z M1074,760h-17c-1.104,0-2,0.896-2,2v5c0,1.104,0.896,2,2,2h17c1.104,0,2-0.896,2-2v-5
					C1076,760.896,1075.104,760,1074,760z M1074,771h-17c-1.104,0-2,0.896-2,2v5c0,1.104,0.896,2,2,2h17c1.104,0,2-0.896,2-2v-5
					C1076,771.896,1075.104,771,1074,771z"/>
			</g>
		</g>
		<g id="Rounded_Rectangle_4_copy_8">
			<g>
				<path fill="#2C3E50" d="M1182,750h-74c-4.418,0-8,3.582-8,8v24c0,4.418,3.582,8,8,8h74c4.418,0,8-3.582,8-8v-24
					C1190,753.582,1186.418,750,1182,750z"/>
			</g>
		</g>
		<g id="Rounded_Rectangle_5_copy_3">
			<g>
				<path fill="#345473" d="M1156,771h-17c-1.104,0-2,0.896-2,2v5c0,1.104,0.896,2,2,2h17c1.104,0,2-0.896,2-2v-5
					C1158,771.896,1157.104,771,1156,771z M1160,760v5.999l3,3.999l-3,4.008V780l8-10L1160,760z M1168,760v5.999l3,3.999l-3,4.008
					V780l8-10L1168,760z M1156,760h-17c-1.104,0-2,0.896-2,2v5c0,1.104,0.896,2,2,2h17c1.104,0,2-0.896,2-2v-5
					C1158,760.896,1157.104,760,1156,760z M1133,771h-17c-1.104,0-2,0.896-2,2v5c0,1.104,0.896,2,2,2h17c1.104,0,2-0.896,2-2v-5
					C1135,771.896,1134.104,771,1133,771z M1133,760h-17c-1.104,0-2,0.896-2,2v5c0,1.104,0.896,2,2,2h17c1.104,0,2-0.896,2-2v-5
					C1135,760.896,1134.104,760,1133,760z"/>
			</g>
		</g>
		<g id="Rounded_Rectangle_4_copy_9">
			<g>
				<path fill="#2C3E50" d="M92,750H18c-4.418,0-8,3.582-8,8v24c0,4.418,3.582,8,8,8h74c4.419,0,8-3.582,8-8v-24
					C100,753.582,96.419,750,92,750z"/>
			</g>
		</g>
		<g id="Rounded_Rectangle_4_copy_9_1_">
			<g>
				<path fill="#2C3E50" d="M192,750h-74c-4.419,0-8,3.582-8,8v24c0,4.418,3.581,8,8,8h74c4.419,0,8-3.582,8-8v-24
					C200,753.582,196.419,750,192,750z"/>
			</g>
		</g>
		<g id="Rectangle_3_copy_2">
			<g>
				<path fill="#345473" d="M130,763h-9v2h9V763z M136,767h-15v2h15V767z M133,771h-12v2h12V771z M121,777h4v-2h-4V777z M126,777h11
					v-2h-11V777z M138,777h20v-2h-20V777z M159,777h7v-2h-7V777z M167,775v2h8.992l-1.848-2H167z M134,773h6v-2h-6V773z M154,773v-2
					h-13v2H154z M165,771h-10v2h10V771z M170.018,771H166v2h6.069L170.018,771z M157,767h-20v2h20V767z M172,768h-4l0.034-1H158v2
					h12.869L172,768z M140,763h-9v2h9V763z M154,763h-13v2h13V763z M168.705,763H155v2h12.976L168.705,763z M185.667,767.906
					L182,771.68c0,0,0-1.627,0-3.476c0-10.882-13-9.677-13-1.204c0.106-0.021,4.01,0.108,4,0c0-2.885,5-3.824,5,1.233
					c0,1.876,0,3.446,0,3.446l-3.667-3.609l-2.666,2.625l8.333,8.367l8.333-8.367L185.667,767.906z"/>
			</g>
		</g>
		<g id="Rectangle_3_copy_3">
			<g>
				<path fill="#345473" d="M42,767h-2.965L39,768h-4l1.154,1H42V767z M39,773v-2h-2.789l-1.206,2H39z M31,777v-1l-0.428,1H31z
					 M32,777h11v-2H32V777z M44,777h20v-2H44V777z M65,777h7v-2h-7V777z M73,777h12v-2H73V777z M46,771h-6v2h6V771z M60,773v-2H47v2
					H60z M71,771H61v2h10V771z M81,771h-9v2h9V771z M82,771v2h10v-2H82z M63,767H43v2h20V767z M85,767H64v2h21V767z M46,765v-2
					h-7.324l0.37,2H46z M60,763H47v2h13V763z M87,763H61v2h26V763z M32.761,767.843l-3.601,3.663c0,0,0-1.594,0-3.498
					c0-5.133,4.911-4.181,4.911-1.252c-0.01,0.11,3.824-0.022,3.929,0c0-8.601-12.769-9.824-12.769,1.223c0,1.876,0,3.527,0,3.527
					l-3.602-3.83l-2.619,2.831L27.195,779l8.186-8.493L32.761,767.843z"/>
			</g>
		</g>
	</g>
	<g id="Labelrific">
		<text transform="matrix(1.0143 0 0 1 712.1758 778.4404)" fill="#FFFFFF" font-family="'Lato-Bold'" font-size="21.4133">Labelrific</text>
	</g>
	<g id="Items">
		<text transform="matrix(1.0143 0 0 1 730.1924 677.4404)" fill="#FFFFFF" font-family="'Lato-Bold'" font-size="21.4133">Items</text>
	</g>
	<g id="Console">
		<text transform="matrix(1.0143 0 0 1 719.2031 728.4404)" fill="#FFFFFF" font-family="'Lato-Bold'" font-size="21.4133">Console</text>
	</g>
	<g id="Reflect">
		<text transform="matrix(1.0143 0 0 1 880.6934 778.4404)" fill="#FFFFFF" font-family="'Lato-Bold'" font-size="21.4133">Reflect</text>
	</g>
	<g id="Followers">
		<text transform="matrix(1.0143 0 0 1 867.5908 678.4404)" fill="#FFFFFF" font-family="'Lato-Bold'" font-size="21.4133">Followers</text>
	</g>
	<g id="Masturbate">
		<text transform="matrix(1.0143 0 0 1 858.2725 728.4404)" fill="#FFFFFF" font-family="'Lato-Bold'" font-size="21.4133">Masturbate</text>
	</g>
	<g id="Attack_x21_">
		<text transform="matrix(1.0143 0 0 1 406.6138 678.4404)" fill="#FFFFFF" font-family="'Lato-Bold'" font-size="21.4133">Attack!</text>
	</g>
	<g id="North">
		<text transform="matrix(1.0143 0 0 1 412.3027 728.4404)" fill="#FFFFFF" font-family="'Lato-Bold'" font-size="21.4133">North</text>
	</g>
	<g id="HOW">
		<text transform="matrix(1.0143 0 0 1 255.2417 727.4404)" fill="#FFFFFF" font-family="'Lato-Bold'" font-size="21.4133">HOW</text>
	</g>
	<g id="Back">
		<text transform="matrix(1.0143 0 0 1 259.5698 678.4404)" fill="#FFFFFF" font-family="'Lato-Bold'" font-size="21.4133">Back</text>
	</g>
	<g id="West">
		<text transform="matrix(1.0143 0 0 1 258.3818 777.4404)" fill="#FFFFFF" font-family="'Lato-Bold'" font-size="21.4133">West</text>
	</g>
	<g id="South">
		<text transform="matrix(1.0143 0 0 1 413.9487 778.4404)" fill="#FFFFFF" font-family="'Lato-Bold'" font-size="21.4133">South</text>
	</g>
	<g id="East">
		<text transform="matrix(1.0143 0 0 1 578.6484 777.4404)" fill="#FFFFFF" font-family="'Lato-Bold'" font-size="21.4133">East</text>
	</g>
	<g id="PKMN">
		<text transform="matrix(1.0143 0 0 1 566.8218 677.4404)" fill="#FFFFFF" font-family="'Lato-Bold'" font-size="21.4133">PKMN</text>
	</g>
	<g id="Solve_It_x21_">
		<text transform="matrix(1.0143 0 0 1 560.3345 728.4404)" fill="#FFFFFF" font-family="'Lato-Bold'" font-size="21.4133">Solve It!</text>
	</g>
	<g id="keys_1_">
		<g id="_x32_">
			
				<text transform="matrix(0.9977 0 0 1 505.8032 684.5078)" fill="#345473" font-family="'Univers-UltraCondensed'" font-size="14">2</text>
		</g>
		<g id="_x33_">
			
				<text transform="matrix(0.9977 0 0 1 663.8027 684.5078)" fill="#345473" font-family="'Univers-UltraCondensed'" font-size="14">3</text>
		</g>
		<g id="_x31_">
			
				<text transform="matrix(0.9977 0 0 1 348.8032 684.5078)" fill="#345473" font-family="'Univers-UltraCondensed'" font-size="14">1</text>
		</g>
		<g id="Q">
			
				<text transform="matrix(0.9977 0 0 1 346.0527 735.5078)" fill="#345473" font-family="'Univers-UltraCondensed'" font-size="14">Q</text>
		</g>
		<g id="W">
			
				<text transform="matrix(0.9977 0 0 1 501.6836 734.5078)" fill="#345473" font-family="'Univers-UltraCondensed'" font-size="14">W</text>
		</g>
		<g id="E">
			
				<text transform="matrix(0.9977 0 0 1 664.6006 734.5078)" fill="#345473" font-family="'Univers-UltraCondensed'" font-size="14">E</text>
		</g>
		<g id="A">
			
				<text transform="matrix(0.9977 0 0 1 346.8008 784.5078)" fill="#345473" font-family="'Univers-UltraCondensed'" font-size="14">A</text>
		</g>
		<g id="S">
			
				<text transform="matrix(0.9977 0 0 1 505.8306 784.5078)" fill="#345473" font-family="'Univers-UltraCondensed'" font-size="14">S</text>
		</g>
		<g id="D">
			
				<text transform="matrix(0.9977 0 0 1 664.3193 784.5078)" fill="#345473" font-family="'Univers-UltraCondensed'" font-size="14">D</text>
		</g>
		<g id="_x34_">
			
				<text transform="matrix(0.9977 0 0 1 821.8027 684.5078)" fill="#345473" font-family="'Univers-UltraCondensed'" font-size="14">4</text>
		</g>
		<g id="_x35_">
			
				<text transform="matrix(0.9977 0 0 1 979.8027 684.5078)" fill="#345473" font-family="'Univers-UltraCondensed'" font-size="14">5</text>
		</g>
		<g id="R">
			
				<text transform="matrix(0.9977 0 0 1 821.5645 734.5078)" fill="#345473" font-family="'Univers-UltraCondensed'" font-size="14">R</text>
		</g>
		<g id="T">
			<text transform="matrix(0.9977 0 0 1 980.083 734.5078)" fill="#345473" font-family="'Univers-UltraCondensed'" font-size="14">T</text>
		</g>
		<g id="F">
			
				<text transform="matrix(0.9977 0 0 1 822.6006 784.5078)" fill="#345473" font-family="'Univers-UltraCondensed'" font-size="14">F</text>
		</g>
		<g id="G">
			
				<text transform="matrix(0.9977 0 0 1 979.3193 784.5078)" fill="#345473" font-family="'Univers-UltraCondensed'" font-size="14">G</text>
		</g>
		<g id="_x36_">
			
				<text transform="matrix(0.9977 0 0 1 1079.8027 784.5078)" fill="#345473" font-family="'Univers-UltraCondensed'" font-size="14">6</text>
		</g>
		<g id="Y">
			
				<text transform="matrix(0.9977 0 0 1 1178.3193 784.5078)" fill="#345473" font-family="'Univers-UltraCondensed'" font-size="14">Y</text>
		</g>
	</g>
</g>
</svg>
