<?xml version="1.0" encoding="utf-8"?>
<!-- Generator: Adobe Illustrator 17.0.1, SVG Export Plug-In . SVG Version: 6.00 Build 0)  -->
<!DOCTYPE svg PUBLIC "-//W3C//DTD SVG 1.1//EN" "http://www.w3.org/Graphics/SVG/1.1/DTD/svg11.dtd">
<svg version="1.1" xmlns="http://www.w3.org/2000/svg" xmlns:xlink="http://www.w3.org/1999/xlink" x="0px" y="0px" width="1200px"
	 height="800px" viewBox="0 0 1200 800" enable-background="new 0 0 1200 800" xml:space="preserve">
<g id="Background__x2B__Layer_6__x2B__side_panel_xA0_Image_1_">
	
		<image overflow="visible" width="1200" height="800" id="Background__x2B__Layer_6__x2B__side_panel_xA0_Image" xlink:href="5C8C35A7.png" >
	</image>
</g>
<g id="button_bottom_1_">
	<g id="Rectangle_1_copy">
		<g>
			<rect x="200" y="640" fill-rule="evenodd" clip-rule="evenodd" fill="#345473" width="800" height="160"/>
		</g>
	</g>
	<g id="Rectangle_1_copy_5">
		<g>
			<rect y="740" fill-rule="evenodd" clip-rule="evenodd" fill="#345473" width="200" height="60"/>
		</g>
	</g>
	<g id="Rectangle_1_copy_3">
		<g>
			<rect x="1000" y="740" fill-rule="evenodd" clip-rule="evenodd" fill="#345473" width="200" height="60"/>
		</g>
	</g>
	<g id="buttons_1_">
		<g id="Rounded_Rectangle_4">
			<g>
				<path fill-rule="evenodd" clip-rule="evenodd" fill="#2C3E50" d="M350,650H218c-4.418,0-8,3.582-8,8v24c0,4.418,3.582,8,8,8h132
					c4.418,0,8-3.582,8-8v-24C358,653.582,354.418,650,350,650z"/>
			</g>
		</g>
		<g id="Rounded_Rectangle_4_copy">
			<g>
				<path fill-rule="evenodd" clip-rule="evenodd" fill="#2C3E50" d="M508,650H376c-4.418,0-8,3.582-8,8v24c0,4.418,3.582,8,8,8h132
					c4.418,0,8-3.582,8-8v-24C516,653.582,512.418,650,508,650z"/>
			</g>
		</g>
		<g id="Rounded_Rectangle_4_copy_2">
			<g>
				<path fill-rule="evenodd" clip-rule="evenodd" fill="#2C3E50" d="M666,650H534c-4.418,0-8,3.582-8,8v24c0,4.418,3.582,8,8,8h132
					c4.418,0,8-3.582,8-8v-24C674,653.582,670.418,650,666,650z"/>
			</g>
		</g>
		<g id="Rounded_Rectangle_4_copy_3">
			<g>
				<path fill-rule="evenodd" clip-rule="evenodd" fill="#2C3E50" d="M824,650H692c-4.418,0-8,3.582-8,8v24c0,4.418,3.582,8,8,8h132
					c4.418,0,8-3.582,8-8v-24C832,653.582,828.418,650,824,650z"/>
			</g>
		</g>
		<g id="Rounded_Rectangle_4_copy_4">
			<g>
				<path fill-rule="evenodd" clip-rule="evenodd" fill="#2C3E50" d="M982,650H850c-4.418,0-8,3.582-8,8v24c0,4.418,3.582,8,8,8h132
					c4.418,0,8-3.582,8-8v-24C990,653.582,986.418,650,982,650z"/>
			</g>
		</g>
		<g id="Rounded_Rectangle_4_copy_5">
			<g>
				<path fill-rule="evenodd" clip-rule="evenodd" fill="#2C3E50" d="M350,700H218c-4.418,0-8,3.582-8,8v24c0,4.418,3.582,8,8,8h132
					c4.418,0,8-3.582,8-8v-24C358,703.582,354.418,700,350,700z"/>
			</g>
		</g>
		<g id="Rounded_Rectangle_4_copy_5_1_">
			<g>
				<path fill-rule="evenodd" clip-rule="evenodd" fill="#8E44AD" d="M508,700H376c-4.418,0-8,3.582-8,8v24c0,4.418,3.582,8,8,8h132
					c4.418,0,8-3.582,8-8v-24C516,703.582,512.418,700,508,700z"/>
			</g>
		</g>
		<g id="Rounded_Rectangle_4_copy_5_2_">
			<g>
				<path fill-rule="evenodd" clip-rule="evenodd" fill="#2C3E50" d="M666,700H534c-4.418,0-8,3.582-8,8v24c0,4.418,3.582,8,8,8h132
					c4.418,0,8-3.582,8-8v-24C674,703.582,670.418,700,666,700z"/>
			</g>
		</g>
		<g id="Rounded_Rectangle_4_copy_5_3_">
			<g>
				<path fill-rule="evenodd" clip-rule="evenodd" fill="#2C3E50" d="M824,700H692c-4.418,0-8,3.582-8,8v24c0,4.418,3.582,8,8,8h132
					c4.418,0,8-3.582,8-8v-24C832,703.582,828.418,700,824,700z"/>
			</g>
		</g>
		<g id="Rounded_Rectangle_4_copy_5_4_">
			<g>
				<path fill-rule="evenodd" clip-rule="evenodd" fill="#2C3E50" d="M982,700H850c-4.418,0-8,3.582-8,8v24c0,4.418,3.582,8,8,8h132
					c4.418,0,8-3.582,8-8v-24C990,703.582,986.418,700,982,700z"/>
			</g>
		</g>
		<g id="Rounded_Rectangle_4_copy_6">
			<g>
				<path fill-rule="evenodd" clip-rule="evenodd" fill="#8E44AD" d="M350,750H218c-4.418,0-8,3.582-8,8v24c0,4.418,3.582,8,8,8h132
					c4.418,0,8-3.582,8-8v-24C358,753.582,354.418,750,350,750z"/>
			</g>
		</g>
		<g id="Rounded_Rectangle_4_copy_6_1_">
			<g>
				<path fill-rule="evenodd" clip-rule="evenodd" fill="#8E44AD" d="M508,750H376c-4.418,0-8,3.582-8,8v24c0,4.418,3.582,8,8,8h132
					c4.418,0,8-3.582,8-8v-24C516,753.582,512.418,750,508,750z"/>
			</g>
		</g>
		<g id="Rounded_Rectangle_4_copy_6_2_">
			<g>
				<path fill-rule="evenodd" clip-rule="evenodd" fill="#8E44AD" d="M666,750H534c-4.418,0-8,3.582-8,8v24c0,4.418,3.582,8,8,8h132
					c4.418,0,8-3.582,8-8v-24C674,753.582,670.418,750,666,750z"/>
			</g>
		</g>
		<g id="Rounded_Rectangle_4_copy_6_3_">
			<g>
				<path fill-rule="evenodd" clip-rule="evenodd" fill="#2C3E50" d="M824,750H692c-4.418,0-8,3.582-8,8v24c0,4.418,3.582,8,8,8h132
					c4.418,0,8-3.582,8-8v-24C832,753.582,828.418,750,824,750z"/>
			</g>
		</g>
		<g id="Rounded_Rectangle_4_copy_6_4_">
			<g>
				<path fill-rule="evenodd" clip-rule="evenodd" fill="#2C3E50" d="M982,750H850c-4.418,0-8,3.582-8,8v24c0,4.418,3.582,8,8,8h132
					c4.418,0,8-3.582,8-8v-24C990,753.582,986.418,750,982,750z"/>
			</g>
		</g>
		<g id="Rounded_Rectangle_4_copy_7">
			<g>
				<path fill-rule="evenodd" clip-rule="evenodd" fill="#2C3E50" d="M1082,750h-74c-4.418,0-8,3.582-8,8v24c0,4.418,3.582,8,8,8h74
					c4.418,0,8-3.582,8-8v-24C1090,753.582,1086.418,750,1082,750z"/>
			</g>
		</g>
		<g id="Rounded_Rectangle_5_copy_2">
			<g>
				<path fill-rule="evenodd" clip-rule="evenodd" fill="#345473" d="M1051,760h-17c-1.104,0-2,0.895-2,2v5c0,1.105,0.896,2,2,2h17
					c1.104,0,2-0.895,2-2v-5C1053,760.895,1052.104,760,1051,760z M1030,780v-5.999l-3-3.999l3-4.009V760l-8,10L1030,780z
					 M1022,765.994V760l-8,10l8,10v-5.999l-3-3.999L1022,765.994z M1051,771h-17c-1.104,0-2,0.895-2,2v5c0,1.105,0.896,2,2,2h17
					c1.104,0,2-0.895,2-2v-5C1053,771.895,1052.104,771,1051,771z M1074,760h-17c-1.104,0-2,0.895-2,2v5c0,1.105,0.896,2,2,2h17
					c1.105,0,2-0.895,2-2v-5C1076,760.895,1075.105,760,1074,760z M1074,771h-17c-1.104,0-2,0.895-2,2v5c0,1.105,0.896,2,2,2h17
					c1.105,0,2-0.895,2-2v-5C1076,771.895,1075.105,771,1074,771z"/>
			</g>
		</g>
		<g id="Rounded_Rectangle_4_copy_8">
			<g>
				<path fill-rule="evenodd" clip-rule="evenodd" fill="#2C3E50" d="M1182,750h-74c-4.418,0-8,3.582-8,8v24c0,4.418,3.582,8,8,8h74
					c4.418,0,8-3.582,8-8v-24C1190,753.582,1186.418,750,1182,750z"/>
			</g>
		</g>
		<g id="Rounded_Rectangle_5_copy_3">
			<g>
				<path fill-rule="evenodd" clip-rule="evenodd" fill="#345473" d="M1156,771h-17c-1.104,0-2,0.895-2,2v5c0,1.105,0.896,2,2,2h17
					c1.105,0,2-0.895,2-2v-5C1158,771.895,1157.105,771,1156,771z M1160,760v5.999l3,3.999l-3,4.009V780l8-10L1160,760z M1168,760
					v5.999l3,3.999l-3,4.009V780l8-10L1168,760z M1156,760h-17c-1.104,0-2,0.895-2,2v5c0,1.105,0.896,2,2,2h17c1.105,0,2-0.895,2-2
					v-5C1158,760.895,1157.105,760,1156,760z M1133,771h-17c-1.104,0-2,0.895-2,2v5c0,1.105,0.896,2,2,2h17c1.104,0,2-0.895,2-2v-5
					C1135,771.895,1134.104,771,1133,771z M1133,760h-17c-1.104,0-2,0.895-2,2v5c0,1.105,0.896,2,2,2h17c1.104,0,2-0.895,2-2v-5
					C1135,760.895,1134.104,760,1133,760z"/>
			</g>
		</g>
		<g id="Rounded_Rectangle_4_copy_9">
			<g>
				<path fill-rule="evenodd" clip-rule="evenodd" fill="#2C3E50" d="M92,750H18c-4.418,0-8,3.582-8,8v24c0,4.418,3.582,8,8,8h74
					c4.418,0,8-3.582,8-8v-24C100,753.582,96.418,750,92,750z"/>
			</g>
		</g>
		<g id="Rounded_Rectangle_4_copy_9_1_">
			<g>
				<path fill-rule="evenodd" clip-rule="evenodd" fill="#2C3E50" d="M192,750h-74c-4.418,0-8,3.582-8,8v24c0,4.418,3.582,8,8,8h74
					c4.418,0,8-3.582,8-8v-24C200,753.582,196.418,750,192,750z"/>
			</g>
		</g>
		<g id="Rectangle_3_copy_2">
			<g>
				<path fill-rule="evenodd" clip-rule="evenodd" fill="#345473" d="M130,763h-9v2h9V763z M136,767h-15v2h15V767z M133,771h-12v2
					h12V771z M121,777h4v-2h-4V777z M126,777h11v-2h-11V777z M138,777h20v-2h-20V777z M159,777h7v-2h-7V777z M167,775v2h8.991
					l-1.848-2H167z M134,773h6v-2h-6V773z M154,773v-2h-13v2H154z M165,771h-10v2h10V771z M170.018,771H166v2h6.07L170.018,771z
					 M157,767h-20v2h20V767z M172,768h-4l0.034-1H158v2h12.869L172,768z M140,763h-9v2h9V763z M154,763h-13v2h13V763z M168.705,763
					H155v2h12.976L168.705,763z M185.667,767.906L182,771.68c0,0,0-1.627,0-3.475c0-10.883-13-9.677-13-1.204
					c0.106-0.022,4.01,0.109,4,0c0-2.885,5-3.824,5,1.234c0,1.876,0,3.446,0,3.446l-3.667-3.609l-2.667,2.625l8.333,8.367
					l8.333-8.367L185.667,767.906z"/>
			</g>
		</g>
		<g id="Rectangle_3_copy_3">
			<g>
				<path fill-rule="evenodd" clip-rule="evenodd" fill="#345473" d="M42,767h-2.966L39,768h-4l1.154,1H42V767z M39,773v-2h-2.788
					l-1.207,2H39z M31,777v-1l-0.428,1H31z M32,777h11v-2H32V777z M44,777h20v-2H44V777z M65,777h7v-2h-7V777z M73,777h12v-2H73V777
					z M46,771h-6v2h6V771z M60,773v-2H47v2H60z M71,771H61v2h10V771z M81,771h-9v2h9V771z M82,771v2h10v-2H82z M63,767H43v2h20V767z
					 M85,767H64v2h21V767z M46,765v-2h-7.324l0.37,2H46z M60,763H47v2h13V763z M87,763H61v2h26V763z M32.761,767.842l-3.602,3.664
					c0,0,0-1.594,0-3.498c0-5.134,4.911-4.181,4.911-1.252c-0.009,0.11,3.825-0.022,3.929,0c0-8.6-12.769-9.824-12.769,1.223
					c0,1.876,0,3.528,0,3.528l-3.602-3.83l-2.619,2.831L27.195,779l8.185-8.493L32.761,767.842z"/>
			</g>
		</g>
	</g>
	<g id="Back">
		<text transform="matrix(1.0143 0 0 1 259.5696 678.4406)" fill="#FFFFFF" font-family="'Lato-Bold'" font-size="21.4133">Back</text>
	</g>
	<g id="keys_1_">
		<g id="_x32_">
			
				<text transform="matrix(0.9977 0 0 1 505.8032 684.5067)" fill="#345473" font-family="'Univers-UltraCondensed'" font-size="14">2</text>
		</g>
		<g id="_x33_">
			
				<text transform="matrix(0.9977 0 0 1 663.8026 684.5067)" fill="#345473" font-family="'Univers-UltraCondensed'" font-size="14">3</text>
		</g>
		<g id="_x31_">
			<text transform="matrix(0.9977 0 0 1 348.803 684.5067)" fill="#345473" font-family="'Univers-UltraCondensed'" font-size="14">1</text>
		</g>
		<g id="Q">
			
				<text transform="matrix(0.9977 0 0 1 346.0526 735.5068)" fill="#345473" font-family="'Univers-UltraCondensed'" font-size="14">Q</text>
		</g>
		<g id="W">
			
				<text transform="matrix(0.9977 0 0 1 501.6836 734.5068)" fill="#345473" font-family="'Univers-UltraCondensed'" font-size="14">W</text>
		</g>
		<g id="E">
			
				<text transform="matrix(0.9977 0 0 1 664.6004 734.5068)" fill="#345473" font-family="'Univers-UltraCondensed'" font-size="14">E</text>
		</g>
		<g id="A">
			
				<text transform="matrix(0.9977 0 0 1 346.8009 784.5068)" fill="#345473" font-family="'Univers-UltraCondensed'" font-size="14">A</text>
		</g>
		<g id="S">
			
				<text transform="matrix(0.9977 0 0 1 505.8306 784.5068)" fill="#345473" font-family="'Univers-UltraCondensed'" font-size="14">S</text>
		</g>
		<g id="D">
			
				<text transform="matrix(0.9977 0 0 1 664.3195 784.5068)" fill="#345473" font-family="'Univers-UltraCondensed'" font-size="14">D</text>
		</g>
		<g id="_x34_">
			
				<text transform="matrix(0.9977 0 0 1 821.8024 684.5067)" fill="#345473" font-family="'Univers-UltraCondensed'" font-size="14">4</text>
		</g>
		<g id="_x35_">
			
				<text transform="matrix(0.9977 0 0 1 979.8029 684.5067)" fill="#345473" font-family="'Univers-UltraCondensed'" font-size="14">5</text>
		</g>
		<g id="R">
			
				<text transform="matrix(0.9977 0 0 1 821.5641 734.5068)" fill="#345473" font-family="'Univers-UltraCondensed'" font-size="14">R</text>
		</g>
		<g id="T">
			
				<text transform="matrix(0.9977 0 0 1 980.0832 734.5068)" fill="#345473" font-family="'Univers-UltraCondensed'" font-size="14">T</text>
		</g>
		<g id="F">
			
				<text transform="matrix(0.9977 0 0 1 822.6002 784.5068)" fill="#345473" font-family="'Univers-UltraCondensed'" font-size="14">F</text>
		</g>
		<g id="G">
			
				<text transform="matrix(0.9977 0 0 1 979.3195 784.5068)" fill="#345473" font-family="'Univers-UltraCondensed'" font-size="14">G</text>
		</g>
		<g id="_x36_">
			
				<text transform="matrix(0.9977 0 0 1 1079.8027 784.5068)" fill="#345473" font-family="'Univers-UltraCondensed'" font-size="14">6</text>
		</g>
		<g id="Y">
			
				<text transform="matrix(0.9977 0 0 1 1178.319 784.5068)" fill="#345473" font-family="'Univers-UltraCondensed'" font-size="14">Y</text>
		</g>
	</g>
</g>
<g id="MAIN_MENU_1_">
	<g id="Column_1_">
		<g id="MAIN_MENU_2_">
			
				<text transform="matrix(1.0053 0 0 1 207.9999 84.186)" fill="#2C3E50" font-family="'Univers-UltraCondensed'" font-size="87.325">MAIN MENU</text>
		</g>
		<g id="Rounded_Rectangle_4_copy_10">
			<g>
				<path fill-rule="evenodd" clip-rule="evenodd" fill="#2C3E50" d="M508,518H376c-4.418,0-8,3.582-8,8v24c0,4.418,3.582,8,8,8h132
					c4.418,0,8-3.582,8-8v-24C516,521.582,512.418,518,508,518z"/>
			</g>
		</g>
		<g id="New_Game">
			<text transform="matrix(1.0143 0 0 1 389.3129 545.4409)" fill="#FFFFFF" font-family="'Lato-Bold'" font-size="21.4133">New Game</text>
		</g>
		<g id="Rounded_Rectangle_4_copy_14">
			<g>
				<path fill-rule="evenodd" clip-rule="evenodd" fill="#2C3E50" d="M666,518H534c-4.418,0-8,3.582-8,8v24c0,4.418,3.582,8,8,8h132
					c4.418,0,8-3.582,8-8v-24C674,521.582,670.418,518,666,518z"/>
			</g>
		</g>
		<g id="Data">
			<text transform="matrix(1.0143 0 0 1 576.8081 545.4409)" fill="#FFFFFF" font-family="'Lato-Bold'" font-size="21.4133">Data</text>
		</g>
		<g id="Rounded_Rectangle_4_copy_17">
			<g>
				<path fill-rule="evenodd" clip-rule="evenodd" fill="#2C3E50" d="M824,518H692c-4.418,0-8,3.582-8,8v24c0,4.418,3.582,8,8,8h132
					c4.418,0,8-3.582,8-8v-24C832,521.582,828.418,518,824,518z"/>
			</g>
		</g>
		<g id="Credits">
			<text transform="matrix(1.0143 0 0 1 722.8958 545.4409)" fill="#FFFFFF" font-family="'Lato-Bold'" font-size="21.4133">Credits</text>
		</g>
		<g id="trialswebsite.com">
			<text transform="matrix(1.0143 0 0 1 530.6245 494.4403)" fill="#FFFFFF" font-family="'Lato-Regular'" font-size="17.8444">trialswebsite.com</text>
		</g>
		<g id="v0.7.10a1__x28_Cocksock_Test_x29_">
			<text transform="matrix(1.0143 0 0 1 784.7681 34.4407)" fill="#2C3E50" font-family="'Lato-Regular'" font-size="16.06">v0.7.10a1 (Cocksock Test)</text>
		</g>
		<g id="Created_by:_Fenoxo_Edited_By:_Ashi_x2C__SoS_x2C__Zeikfried_x2C__and_Others_1_">
			
				<text id="Created_by:_Fenoxo_Edited_By:_Ashi_x2C__SoS_x2C__Zeikfried_x2C__and_Others" transform="matrix(1.0143 0 0 1 523.1577 348.441)"><tspan x="0" y="0" fill="#FFFFFF" font-family="'Lato-Regular'" font-size="17.8444">Created by: Fenoxo</tspan><tspan x="-87.168" y="21.413" fill="#FFFFFF" font-family="'Lato-Regular'" font-size="17.8444">Edited By: Ashi, SoS, Zeikfried, and Others</tspan></text>
		</g>
		<g id="Rounded_Rectangle_4_copy_13">
			<g>
				<path fill-rule="evenodd" clip-rule="evenodd" fill="#8E44AD" d="M666,568H534c-4.418,0-8,3.582-8,8v44c0,4.418,3.582,8,8,8h132
					c4.418,0,8-3.582,8-8v-44C674,571.582,670.418,568,666,568z"/>
			</g>
		</g>
		<g id="Debug_Mode_x03_Enabled">
			<text transform="matrix(1.0143 0 0 1 538.228 594.44)"><tspan x="0" y="0" fill="#FFFFFF" font-family="'Lato-Bold'" font-size="21.4133">Debug Mode </tspan><tspan x="22.741" y="21.413" fill="#FFFFFF" font-family="'Lato-Bold'" font-size="21.4133">Enabled</tspan></text>
		</g>
		<g id="Rounded_Rectangle_4_copy_15">
			<g>
				<path fill-rule="evenodd" clip-rule="evenodd" fill="#8E44AD" d="M825,568H693c-4.418,0-8,3.582-8,8v44c0,4.418,3.582,8,8,8h132
					c4.418,0,8-3.582,8-8v-44C833,571.582,829.418,568,825,568z"/>
			</g>
		</g>
		<g id="Silly_Content_x03_Enabled">
			<text transform="matrix(1.0143 0 0 1 696.9402 594.44)"><tspan x="0" y="0" fill="#FFFFFF" font-family="'Lato-Bold'" font-size="21.4133">Silly Content </tspan><tspan x="23.024" y="21.413" fill="#FFFFFF" font-family="'Lato-Bold'" font-size="21.4133">Enabled</tspan></text>
		</g>
		<g id="Rounded_Rectangle_4_copy_16">
			<g>
				<path fill-rule="evenodd" clip-rule="evenodd" fill="#2C3E50" d="M508,568H376c-4.418,0-8,3.582-8,8v44c0,4.418,3.582,8,8,8h132
					c4.418,0,8-3.582,8-8v-44C516,571.582,512.418,568,508,568z"/>
			</g>
		</g>
		<g id="Easy_Mode_x03_Disabled">
			<text transform="matrix(1.0143 0 0 1 389.6928 594.44)"><tspan x="0" y="0" fill="#FFFFFF" font-family="'Lato-Bold'" font-size="21.4133">Easy Mode </tspan><tspan x="10.043" y="21.413" fill="#FFFFFF" font-family="'Lato-Bold'" font-size="21.4133">Disabled</tspan></text>
		</g>
		<g id="Rectangle_4">
			<g>
				<rect x="210" y="381" fill-rule="evenodd" clip-rule="evenodd" fill="#2C3E50" width="780" height="90"/>
			</g>
		</g>
		<g id="Shape_7">
			<g>
				<path fill-rule="evenodd" clip-rule="evenodd" fill="#345473" d="M302.352,447.582l-31.612-54.588
					c-6.185-10.679-16.305-10.679-22.49,0l-31.613,54.588c-6.185,10.68-1.124,19.418,11.245,19.418h63.225
					C303.477,467,308.538,458.262,302.352,447.582z M264.78,460.185h-10.572v-10.539h10.572V460.185z M263.719,443.238h-8.456
					l-1.937-46.457h12.336L263.719,443.238z"/>
			</g>
		</g>
		<g id="There_are_many_strange_and_odd_fetishes_contained_in_this_game._1_">
			
				<text id="There_are_many_strange_and_odd_fetishes_contained_in_this_game." transform="matrix(1.0143 0 0 1 271.4141 410.4407)"><tspan x="0" y="0" fill="#FFFFFF" font-family="'Lato-Regular'" font-size="17.8444">There are many strange and odd fetishes contained in this game.  Peruse at own risk.</tspan><tspan x="105.406" y="21.413" fill="#FFFFFF" font-family="'Lato-Regular'" font-size="17.8444">Please be 18 or the legal age to view porn before playing.</tspan><tspan x="110.937" y="42.826" fill="#FFFFFF" font-family="'Lato-Regular'" font-size="17.8444">Try to keep your keyboard clean.  Think of the children!</tspan></text>
		</g>
	</g>
	<g id="Shape_6_xA0_Image_1_">
	</g>
	<g id="TRIALS_IN_TAINTED_SPACE">
		<g>
			<path fill="#8E44AD" d="M388.975,266.826h11.383v2.81h-4.018v21.339h-3.348v-21.339h-4.018V266.826z"/>
			<path fill="#2C3E50" d="M409.831,266.826h5.189c4.888,0,5.39,1.304,5.39,6.589c0,3.244-0.436,4.649-3.181,5.485v0.066
				c2.276,0.234,3.046,1.405,3.046,3.68v5.251c0,0.87,0,2.074,0.201,3.077h-3.147c-0.335-0.602-0.402-1.204-0.402-2.174v-5.452
				c0-2.274-0.402-2.876-2.611-2.876h-1.138v10.502h-3.348V266.826z M413.178,277.663h0.871c2.645,0,3.013-0.501,3.013-4.114
				c0-3.579-0.201-3.914-2.276-3.914h-1.607V277.663z"/>
			<path fill="#2C3E50" d="M430.787,266.826h3.348v24.149h-3.348V266.826z"/>
			<path fill="#2C3E50" d="M448.999,266.826h3.883l4.921,24.149h-3.348l-1.104-6.154h-5.223l-1.105,6.154h-3.348L448.999,266.826z
				 M448.63,282.011h4.252l-2.076-11.64h-0.067L448.63,282.011z"/>
			<path fill="#2C3E50" d="M467.444,266.826h3.348v21.339h5.625v2.81h-8.972V266.826z"/>
			<path fill="#2C3E50" d="M485.655,283.984h3.348v1.973c0,1.605,0.603,2.609,1.942,2.609c1.774,0,2.209-1.204,2.209-2.776
				c0-2.04-0.101-2.709-3.583-6.154c-2.143-2.141-3.917-4.08-3.917-7.358c0-3.946,1.841-5.652,5.49-5.652
				c1.808,0,3.113,0.602,3.917,1.338c0.569,0.535,0.971,1.371,0.971,3.077v2.274h-3.147v-1.906c0-1.372-0.569-2.174-1.875-2.174
				c-1.373,0-2.009,0.769-2.009,2.642c0,1.639,0.334,2.643,3.415,5.854c3.281,3.412,3.884,4.582,3.884,7.492
				c0,3.779-1.473,5.954-5.457,5.954c-3.08,0-5.189-1.304-5.189-4.315V283.984z"/>
			<path fill="#8E44AD" d="M520.604,266.826h3.348v24.149h-3.348V266.826z"/>
			<path fill="#2C3E50" d="M534.363,266.826h4.62l3.951,20.068H543v-20.068h3.147v24.149h-4.821l-3.951-20.604h-0.067v20.604h-2.946
				V266.826z"/>
			<path fill="#8E44AD" d="M568.647,266.826h11.383v2.81h-4.018v21.339h-3.348v-21.339h-4.018V266.826z"/>
			<path fill="#2C3E50" d="M591.284,266.826h3.883l4.921,24.149h-3.348l-1.104-6.154h-5.223l-1.105,6.154h-3.348L591.284,266.826z
				 M590.915,282.011h4.252l-2.076-11.64h-0.067L590.915,282.011z"/>
			<path fill="#2C3E50" d="M609.629,266.826h3.348v24.149h-3.348V266.826z"/>
			<path fill="#2C3E50" d="M623.387,266.826h4.62l3.95,20.068h0.067v-20.068h3.146v24.149h-4.82l-3.95-20.604h-0.067v20.604h-2.946
				V266.826z"/>
			<path fill="#2C3E50" d="M644.646,266.826h11.382v2.81h-4.017v21.339h-3.349v-21.339h-4.017V266.826z"/>
			<path fill="#2C3E50" d="M665.5,266.826h9.106v2.81h-5.758v7.559h5.423v2.81h-5.423v8.161h5.758v2.81H665.5V266.826z"/>
			<path fill="#2C3E50" d="M684.08,266.826h5.391c5.423,0,5.858,1.806,5.858,8.83v7.191c0,6.188-1.104,8.128-6.395,8.128h-4.854
				V266.826z M687.429,288.165h1.606c2.478,0,2.946-1.305,2.946-5.452v-8.295c0-3.579-0.368-4.783-3.214-4.783h-1.339V288.165z"/>
			<path fill="#8E44AD" d="M719.632,283.984h3.348v1.973c0,1.605,0.603,2.609,1.942,2.609c1.774,0,2.209-1.204,2.209-2.776
				c0-2.04-0.101-2.709-3.582-6.154c-2.143-2.141-3.917-4.08-3.917-7.358c0-3.946,1.842-5.652,5.49-5.652
				c1.809,0,3.114,0.602,3.917,1.338c0.569,0.535,0.971,1.371,0.971,3.077v2.274h-3.146v-1.906c0-1.372-0.569-2.174-1.875-2.174
				c-1.372,0-2.009,0.769-2.009,2.642c0,1.639,0.335,2.643,3.415,5.854c3.281,3.412,3.884,4.582,3.884,7.492
				c0,3.779-1.474,5.954-5.457,5.954c-3.08,0-5.189-1.304-5.189-4.315V283.984z"/>
			<path fill="#2C3E50" d="M740.421,266.826h5.524c4.553,0,5.423,1.238,5.423,6.823s-0.87,6.823-5.423,6.823h-2.176v10.502h-3.349
				V266.826z M743.77,277.663h1.74c2.276,0,2.511-0.368,2.511-4.014s-0.234-4.014-2.511-4.014h-1.74V277.663z"/>
			<path fill="#2C3E50" d="M763.454,266.826h3.883l4.922,24.149h-3.348l-1.105-6.154h-5.222l-1.105,6.154h-3.348L763.454,266.826z
				 M763.086,282.011h4.251l-2.075-11.64h-0.067L763.086,282.011z"/>
			<path fill="#2C3E50" d="M781.367,272.98c0-3.378,1.105-6.355,5.658-6.355c3.314,0,4.854,1.672,4.854,4.382v2.408h-3.147v-1.673
				c0-1.538-0.535-2.508-1.941-2.508c-1.741,0-2.076,1.238-2.076,4.147v11.84c0,2.843,0.904,3.345,1.976,3.345
				c1.238,0,2.042-0.87,2.042-2.876v-1.672h3.147v2.676c0,2.542-1.038,4.482-4.922,4.482c-4.218,0-5.591-2.241-5.591-5.987V272.98z"
				/>
			<path fill="#2C3E50" d="M801.554,266.826h9.106v2.81h-5.758v7.559h5.423v2.81h-5.423v8.161h5.758v2.81h-9.106V266.826z"/>
		</g>
	</g>
	<g>
		<g>
			<g enable-background="new    ">
				<g>
					<rect x="459.354" y="54.335" fill="#C9C9C9" width="0" height="174.789"/>
				</g>
				<g>
					<polygon fill="#BDBDBD" points="485.601,251.959 487.601,253.959 459.35,253.959 461.35,251.959 					"/>
				</g>
				<g>
					<polygon fill="#C3C3C3" points="461.35,251.959 459.35,253.959 459.35,215.124 461.35,216.663 					"/>
				</g>
				<g>
					<polygon fill="#C3C3C3" points="485.601,210.743 487.601,208.257 487.601,253.959 485.601,251.959 					"/>
				</g>
				<g enable-background="new    ">
					<defs>
						<path id="SVGID_1_" enable-background="new    " d="M461.35,216.663l-2-1.539c7.875-2.088,17.703-4.554,28.251-6.867l-2,2.486
							C477.549,212.536,467.716,214.975,461.35,216.663z"/>
					</defs>
					<clipPath id="SVGID_2_">
						<use xlink:href="#SVGID_1_"  overflow="visible"/>
					</clipPath>
					<g clip-path="url(#SVGID_2_)" enable-background="new    ">
						<path fill="#D7D7D7" d="M461.35,216.663l-2-1.539c7.875-2.088,17.703-4.554,28.251-6.867l-2,2.486
							C477.549,212.536,467.716,214.975,461.35,216.663"/>
					</g>
				</g>
				<g>
					<path fill="#F3F3F3" d="M485.601,210.743v41.216H461.35v-35.296C467.716,214.975,477.549,212.536,485.601,210.743z"/>
				</g>
				<g enable-background="new    ">
					<defs>
						<path id="SVGID_3_" enable-background="new    " d="M485.601,200.708l2,1.609c-10.548,2.313-20.376,4.779-28.251,6.867
							l2-2.599C466.734,205.157,476.557,202.664,485.601,200.708z"/>
					</defs>
					<clipPath id="SVGID_4_">
						<use xlink:href="#SVGID_3_"  overflow="visible"/>
					</clipPath>
					<g clip-path="url(#SVGID_4_)" enable-background="new    ">
						<path fill="#BFBFBF" d="M485.601,200.708l2,1.609c-10.548,2.313-20.376,4.779-28.251,6.867l2-2.599
							C466.734,205.157,476.557,202.664,485.601,200.708"/>
					</g>
				</g>
				<g>
					<polygon fill="#BDBDBD" points="461.35,166.27 459.35,168.27 403.046,168.27 403.784,166.27 					"/>
				</g>
				<g>
					<polygon fill="#BDBDBD" points="544.749,166.27 546.749,168.27 487.601,168.27 485.601,166.27 					"/>
				</g>
				<g>
					<polygon fill="#C3C3C3" points="485.601,166.27 487.601,168.27 487.601,202.317 485.601,200.708 					"/>
				</g>
				<g>
					<polygon fill="#C3C3C3" points="461.35,206.585 459.35,209.184 459.35,168.27 461.35,166.27 					"/>
				</g>
				<g>
					<polygon fill="#BDBDBD" points="403.784,166.27 403.046,168.27 371.96,141.729 377.383,143.729 					"/>
				</g>
				<g>
					<polygon fill="#C3C3C3" points="544.749,143.729 546.749,141.729 546.749,168.27 544.749,166.27 					"/>
				</g>
				<g>
					<path fill="#F3F3F3" d="M544.749,143.729v22.541h-59.148v34.438c-9.044,1.956-18.867,4.449-24.251,5.877V166.27h-57.566
						l-26.401-22.541H544.749z"/>
				</g>
				<g>
					<polygon fill="#DFDFDF" points="377.383,143.729 371.96,141.729 546.749,141.729 544.749,143.729 					"/>
				</g>
			</g>
			<g enable-background="new    ">
				<g enable-background="new    ">
					<defs>
						<path id="SVGID_5_" enable-background="new    " d="M756.326,192.61c-0.936-0.084-0.936-0.084-1.762-0.139
							c0.136,0.009,0.136-0.005-0.03-0.038L756.326,192.61z"/>
					</defs>
					<clipPath id="SVGID_6_">
						<use xlink:href="#SVGID_5_"  overflow="visible"/>
					</clipPath>
					<g clip-path="url(#SVGID_6_)" enable-background="new    ">
						<path fill="#C2C2C2" d="M755.904,192.556l-1.34-0.086c0.103,0.007,0.128,0.001,0.062-0.017l1.674,0.153
							C756.246,192.6,756.11,192.584,755.904,192.556"/>
						<path fill="#BFBFBF" d="M756.3,192.607l-1.674-0.153c-0.021-0.006-0.052-0.013-0.092-0.021l1.792,0.177
							C756.326,192.61,756.317,192.609,756.3,192.607"/>
					</g>
				</g>
				<g enable-background="new    ">
					<defs>
						<path id="SVGID_7_" enable-background="new    " d="M755.062,192.433c1.057,0.135,1.865,0.235,3.394,0.387
							c-1.177-0.116-2.746-0.271-3.922-0.387C754.892,192.433,755.062,192.433,755.062,192.433z"/>
					</defs>
					<clipPath id="SVGID_8_">
						<use xlink:href="#SVGID_7_"  overflow="visible"/>
					</clipPath>
					<g clip-path="url(#SVGID_8_)" enable-background="new    ">
						<path fill="#BFBFBF" d="M758.456,192.82l-3.922-0.387c0.358,0,0.528,0,0.528,0l2.943,0.387
							C758.301,192.82,758.456,192.82,758.456,192.82"/>
					</g>
				</g>
				<g enable-background="new    ">
					<defs>
						<path id="SVGID_9_" enable-background="new    " d="M822.175,187.598c-0.273-0.231-0.555-0.467-0.999-0.82
							c0,0-0.001-0.01-0.005-0.033L822.175,187.598z"/>
					</defs>
					<clipPath id="SVGID_10_">
						<use xlink:href="#SVGID_9_"  overflow="visible"/>
					</clipPath>
					<g clip-path="url(#SVGID_10_)" enable-background="new    ">
						<path fill="#BFBFBF" d="M822.169,187.565l-0.994-0.787c0,0-0.002-0.01-0.005-0.033l1.005,0.853
							C822.175,187.598,822.173,187.587,822.169,187.565"/>
					</g>
				</g>
				<g enable-background="new    ">
					<defs>
						<path id="SVGID_11_" enable-background="new    " d="M798.385,186.767c-0.251,0.341-0.499,0.685-0.742,1.033
							c0.22-0.316,0.514-0.738,0.734-1.055C798.383,186.759,798.385,186.766,798.385,186.767z"/>
					</defs>
					<clipPath id="SVGID_12_">
						<use xlink:href="#SVGID_11_"  overflow="visible"/>
					</clipPath>
					<g clip-path="url(#SVGID_12_)" enable-background="new    ">
						<path fill="#C5C5C5" d="M797.643,187.8l0.734-1.055c0.003,0.01,0.006,0.016,0.007,0.019l-0.744,1.027
							C797.642,187.797,797.643,187.8,797.643,187.8"/>
						<polyline fill="#C2C2C2" points="797.64,187.791 798.384,186.764 798.385,186.767 797.636,187.782 797.64,187.791 						"/>
					</g>
				</g>
				<g>
					<rect x="557.742" y="167.51" fill="#C9C9C9" width="0" height="21.987"/>
				</g>
				<g>
					<rect x="700.118" y="156.705" fill="#C9C9C9" width="0" height="6.444"/>
				</g>
				<g>
					<rect x="626.372" y="89.403" fill="#C9C9C9" width="0" height="141.048"/>
				</g>
				<g enable-background="new    ">
					<defs>
						<path id="SVGID_13_" enable-background="new    " d="M651.669,192.433l2,2c-8.415,0-16.668,0-24.642,0l2-2
							C637.001,192.433,645.254,192.433,651.669,192.433z"/>
					</defs>
					<clipPath id="SVGID_14_">
						<use xlink:href="#SVGID_13_"  overflow="visible"/>
					</clipPath>
					<g clip-path="url(#SVGID_14_)" enable-background="new    ">
						<path fill="#BFBFBF" d="M651.669,192.433l2,2c-8.415,0-16.668,0-24.642,0l2-2
							C637.001,192.433,645.254,192.433,651.669,192.433"/>
					</g>
				</g>
				<g enable-background="new    ">
					<defs>
						<path id="SVGID_15_" enable-background="new    " d="M755.062,192.433c0.818,0.105,1.664,0.213,3.139,0.362
							c4.976,0.504,11.613,1.147,16.59,1.638c-16.335,0-34.929,0-54.324,0l0.924-2C738.176,192.433,755.062,192.433,755.062,192.433
							z"/>
					</defs>
					<clipPath id="SVGID_16_">
						<use xlink:href="#SVGID_15_"  overflow="visible"/>
					</clipPath>
					<g clip-path="url(#SVGID_16_)" enable-background="new    ">
						<path fill="#BFBFBF" d="M754.534,192.433l20.257,2c-16.335,0-34.929,0-54.324,0l0.924-2
							C739.862,192.433,758.456,192.433,754.534,192.433"/>
					</g>
				</g>
				<g enable-background="new    ">
					<defs>
						<path id="SVGID_17_" enable-background="new    " d="M566.736,192.433l2,2c-9.828,0-17.424,0-21.987,0l2-2
							C551.312,192.433,558.908,192.433,566.736,192.433z"/>
					</defs>
					<clipPath id="SVGID_18_">
						<use xlink:href="#SVGID_17_"  overflow="visible"/>
					</clipPath>
					<g clip-path="url(#SVGID_18_)" enable-background="new    ">
						<path fill="#BFBFBF" d="M566.736,192.433l2,2c-9.828,0-17.424,0-21.987,0l2-2
							C551.312,192.433,558.908,192.433,566.736,192.433"/>
					</g>
				</g>
				<g>
					<polygon fill="#BDBDBD" points="821.171,186.745 823.526,188.745 796.985,188.745 798.378,186.745 					"/>
				</g>
				<g enable-background="new    ">
					<defs>
						<path id="SVGID_19_" enable-background="new    " d="M754.564,192.471c0.136,0.009,0.136-0.005-0.03-0.038
							c0.538,0.053,1.255,0.124,1.792,0.177C755.583,192.54,755.263,192.519,754.564,192.471z"/>
					</defs>
					<clipPath id="SVGID_20_">
						<use xlink:href="#SVGID_19_"  overflow="visible"/>
					</clipPath>
					<g clip-path="url(#SVGID_20_)" enable-background="new    ">
						<path fill="#D7D7D7" d="M754.564,192.471l1.34,0.086c0.258,0.035,0.406,0.052,0.421,0.053l-1.767-0.172
							C754.7,192.468,754.693,192.479,754.564,192.471"/>
						<path fill="#DADADA" d="M754.558,192.438l1.767,0.172c0.001,0,0.001,0,0.001,0l-1.792-0.177
							C754.542,192.435,754.55,192.436,754.558,192.438"/>
					</g>
				</g>
				<g>
					<polygon fill="#C3C3C3" points="566.736,180.503 568.736,178.503 568.736,194.433 566.736,192.433 					"/>
				</g>
				<g>
					<polygon fill="#DFDFDF" points="548.749,180.503 546.749,178.503 568.736,178.503 566.736,180.503 					"/>
				</g>
				<g>
					<polygon fill="#C3C3C3" points="548.749,192.433 546.749,194.433 546.749,178.503 548.749,180.503 					"/>
				</g>
				<g>
					<path fill="#F3F3F3" d="M566.736,180.503v11.93c-7.828,0-15.424,0-17.987,0v-11.93H566.736z"/>
				</g>
				<g>
					<polygon fill="#C3C3C3" points="631.027,192.433 629.027,194.433 629.027,181.536 631.027,179.536 					"/>
				</g>
				<g>
					<polygon fill="#C3C3C3" points="651.669,179.536 653.669,181.536 653.669,194.433 651.669,192.433 					"/>
				</g>
				<g>
					<polygon fill="#BDBDBD" points="701.34,179.536 703.34,181.536 653.669,181.536 651.669,179.536 					"/>
				</g>
				<g>
					<polygon fill="#BDBDBD" points="631.027,179.536 629.027,181.536 583.901,181.536 584.582,179.536 					"/>
				</g>
				<g enable-background="new    ">
					<defs>
						<path id="SVGID_21_" enable-background="new    " d="M721.391,192.433l-0.924,2c-2.682-3.15-4.239-6.768-4.239-10.998
							c0-2.277,0.718-4.799,0.756-4.932l2.26-0.634c-0.35,1.28-1.019,3.588-1.016,5.566
							C718.228,187.141,719.589,190.312,721.391,192.433z"/>
					</defs>
					<clipPath id="SVGID_22_">
						<use xlink:href="#SVGID_21_"  overflow="visible"/>
					</clipPath>
					<g clip-path="url(#SVGID_22_)" enable-background="new    ">
						<path fill="#BFBFBF" d="M721.391,192.433l-0.924,2c-2.489-2.923-4.009-6.249-4.215-10.093l1.997-0.112
							C718.426,187.592,719.719,190.465,721.391,192.433"/>
						<path fill="#C2C2C2" d="M718.249,184.228l-1.997,0.112c-0.016-0.299-0.024-0.6-0.024-0.905c0-0.679,0.064-1.379,0.154-2.032
							l1.996,0.211c-0.092,0.612-0.151,1.231-0.15,1.821C718.228,183.702,718.235,183.966,718.249,184.228"/>
						<path fill="#C5C5C5" d="M718.378,181.614l-1.996-0.211c0.213-1.537,0.575-2.807,0.602-2.9l2.26-0.634
							C718.998,178.768,718.596,180.173,718.378,181.614"/>
					</g>
				</g>
				<g enable-background="new    ">
					<defs>
						<path id="SVGID_23_" enable-background="new    " d="M798.385,186.767c-0.411,0.559-0.411,0.559-1.4,1.978
							c-0.189-0.512-3.789-10.242-29.763-10.242c-4.734,0-25.965,0.954-25.965,6.066c0,4.023,15.435,6.255,33.534,9.864
							l-18.465-1.823c-0.936-0.084-0.936-0.084-1.762-0.139c-1.298-0.083-14.948-2.153-15.307-7.902
							c0.526-7.526,23.124-8.066,27.965-8.066C793.698,176.322,798.368,186.79,798.385,186.767z"/>
					</defs>
					<clipPath id="SVGID_24_">
						<use xlink:href="#SVGID_23_"  overflow="visible"/>
					</clipPath>
					<g clip-path="url(#SVGID_24_)" enable-background="new    ">
						<path fill="#BFBFBF" d="M798.378,186.745l-1.393,2c-0.189-0.512-3.789-10.242-29.763-10.242c-4.661,0-25.31,0.925-25.95,5.831
							l-1.975-0.11c1.182-7.197,23.159-7.721,27.925-7.721C794.358,176.317,798.587,187.319,798.378,186.745"/>
						<path fill="#C2C2C2" d="M739.297,184.224l1.975,0.11c-0.01,0.077-0.015,0.156-0.015,0.235c0,0.067,0.004,0.134,0.013,0.2
							l-1.98,0.115c-0.016-0.104-0.027-0.209-0.033-0.315C739.265,184.452,739.279,184.337,739.297,184.224"/>
						<path fill="#C5C5C5" d="M739.29,184.884l1.98-0.115c0.015,0.114,0.042,0.226,0.081,0.337l-1.943,0.301
							C739.357,185.236,739.317,185.062,739.29,184.884"/>
						<path fill="#C7C7C7" d="M739.408,185.407l1.943-0.301c0.037,0.104,0.085,0.207,0.143,0.309l-1.91,0.463
							C739.516,185.724,739.456,185.567,739.408,185.407"/>
						<path fill="#CACACA" d="M739.585,185.878l1.91-0.463c0.058,0.101,0.125,0.2,0.203,0.298l-1.88,0.611
							C739.731,186.179,739.653,186.03,739.585,185.878"/>
						<path fill="#CDCDCD" d="M739.818,186.325l1.88-0.611c0.094,0.118,0.202,0.235,0.324,0.35l-1.852,0.774
							C740.039,186.671,739.922,186.5,739.818,186.325"/>
						<path fill="#CFCFCF" d="M740.169,186.837l1.852-0.774c0.14,0.132,0.298,0.262,0.473,0.39l-1.836,0.939
							C740.481,187.213,740.317,187.028,740.169,186.837"/>
						<path fill="#D2D2D2" d="M740.658,187.393l1.836-0.939c0.224,0.163,0.476,0.324,0.756,0.482l-1.85,1.116
							C741.133,187.841,740.884,187.621,740.658,187.393"/>
						<path fill="#D5D5D5" d="M741.401,188.052l1.85-1.116c0.39,0.221,0.834,0.436,1.328,0.649l-1.956,1.299
							C742.185,188.623,741.774,188.346,741.401,188.052"/>
						<path fill="#D7D7D7" d="M742.623,188.884l1.956-1.299c0.786,0.338,1.699,0.666,2.724,0.988l-2.414,1.438
							C744.089,189.674,743.321,189.3,742.623,188.884"/>
						<path fill="#DADADA" d="M744.889,190.01l2.414-1.438c3.641,1.143,8.702,2.208,14.553,3.351l-8.935,0.318
							C750.976,191.91,747.73,191.203,744.889,190.01"/>
						<path fill="#D7D7D7" d="M752.92,192.242l8.935-0.318c3.931,0.768,8.219,1.571,12.673,2.458l-19.971-1.943
							C754.945,192.519,754.227,192.465,752.92,192.242"/>
						<path fill="#DADADA" d="M754.558,192.438l19.971,1.943c0.087,0.017,0.175,0.035,0.263,0.052l-20.257-2
							C754.542,192.435,754.55,192.436,754.558,192.438"/>
					</g>
				</g>
				<g>
					<polygon fill="#BDBDBD" points="584.582,179.536 583.901,181.536 555.848,159.927 561.722,161.927 					"/>
				</g>
				<g enable-background="new    ">
					<defs>
						<path id="SVGID_25_" enable-background="new    " d="M821.176,186.778c0,0-0.002-0.01-0.005-0.033
							c0.301,0.256,0.703,0.597,1.005,0.853C821.686,187.184,821.341,186.91,821.176,186.778z"/>
					</defs>
					<clipPath id="SVGID_26_">
						<use xlink:href="#SVGID_25_"  overflow="visible"/>
					</clipPath>
					<g clip-path="url(#SVGID_26_)" enable-background="new    ">
						<path fill="#C5C5C5" d="M821.176,186.778l0.994,0.787c0.004,0.022,0.006,0.033,0.006,0.033l-1.005-0.853
							C821.174,186.767,821.176,186.778,821.176,186.778"/>
					</g>
				</g>
				<g enable-background="new    ">
					<defs>
						<path id="SVGID_27_" enable-background="new    " d="M822.175,187.598c-0.273-0.231-0.555-0.467-0.999-0.82
							c-0.017-0.013-4.956-24.697-53.954-24.851v-2c51.57,0,56.067,27.377,56.304,28.818L822.175,187.598z"/>
					</defs>
					<clipPath id="SVGID_28_">
						<use xlink:href="#SVGID_27_"  overflow="visible"/>
					</clipPath>
					<g clip-path="url(#SVGID_28_)" enable-background="new    ">
						<path fill="#DADADA" d="M767.222,161.927v-2c9.952,0,18.151,1.02,24.905,2.676l-0.772,1.897
							C784.822,162.94,776.877,161.957,767.222,161.927"/>
						<path fill="#D7D7D7" d="M791.355,164.499l0.772-1.897c4.488,1.101,8.338,2.482,11.64,4.032l-1.168,1.625
							C799.415,166.825,795.697,165.535,791.355,164.499"/>
						<path fill="#D5D5D5" d="M802.598,168.26l1.168-1.625c2.179,1.023,4.12,2.12,5.848,3.258l-1.388,1.364
							C806.567,170.216,804.699,169.206,802.598,168.26"/>
						<path fill="#D2D2D2" d="M808.226,171.256l1.388-1.364c1.461,0.962,2.77,1.954,3.943,2.955l-1.551,1.095
							C810.885,173.038,809.63,172.136,808.226,171.256"/>
						<path fill="#CFCFCF" d="M812.006,173.943l1.551-1.095c1.126,0.962,2.126,1.933,3.014,2.895l-1.691,0.797
							C814.037,175.684,813.083,174.812,812.006,173.943"/>
						<path fill="#CDCDCD" d="M814.881,176.541l1.691-0.797c0.93,1.008,1.737,2.007,2.437,2.976l-1.822,0.447
							C816.528,178.32,815.765,177.438,814.881,176.541"/>
						<path fill="#CACACA" d="M817.187,179.167l1.822-0.447c0.791,1.096,1.446,2.155,1.988,3.148l-1.954,0.005
							C818.543,181.034,817.932,180.123,817.187,179.167"/>
						<path fill="#C7C7C7" d="M819.044,181.873l1.954-0.005c0.725,1.329,1.247,2.541,1.622,3.566l-2.11-0.657
							C820.184,183.985,819.713,182.994,819.044,181.873"/>
						<path fill="#C5C5C5" d="M820.509,184.777l2.11,0.657c0.66,1.806,0.861,3.035,0.907,3.311l-2.355-2
							C821.205,186.951,821.082,186.172,820.509,184.777"/>
					</g>
				</g>
				<g>
					<polygon fill="#DFDFDF" points="561.722,161.927 555.848,159.927 696.896,159.927 696.896,161.927 					"/>
				</g>
				<g>
					<polygon fill="#C3C3C3" points="701.34,161.311 703.34,165.885 703.34,181.536 701.34,179.536 					"/>
				</g>
				<g>
					<polygon fill="#BDBDBD" points="719.244,177.869 716.984,178.503 703.34,165.885 701.34,161.311 					"/>
				</g>
				<g>
					<rect x="696.896" y="159.927" fill="#DFDFDF" width="6.444" height="2"/>
				</g>
				<g enable-background="new    ">
					<defs>
						<path id="SVGID_29_" enable-background="new    " d="M703.34,161.927v-2c9.234,0,29.079,0,63.882,0v2
							C732.419,161.927,712.574,161.927,703.34,161.927z"/>
					</defs>
					<clipPath id="SVGID_30_">
						<use xlink:href="#SVGID_29_"  overflow="visible"/>
					</clipPath>
					<g clip-path="url(#SVGID_30_)" enable-background="new    ">
						<path fill="#DADADA" d="M703.34,161.927v-2c9.234,0,29.079,0,63.882,0v2C732.419,161.927,712.574,161.927,703.34,161.927"/>
					</g>
				</g>
				<g>
					<path fill="#F3F3F3" d="M767.222,161.927c50.033,0.157,54.126,25.891,53.949,24.818h-22.793
						c0.21,0.574-4.019-10.428-31.156-10.242c-4.841,0-27.439,0.54-27.965,8.066c0.396,6.353,17.025,8.214,15.277,7.864
						c3.922,0-14.672,0-33.143,0c-1.802-2.121-3.163-5.292-3.163-8.998c-0.003-1.978,0.666-4.286,1.016-5.566l-17.904-16.558v18.225
						h-49.671v12.897c-6.415,0-14.668,0-20.642,0v-12.897h-46.445l-22.86-17.609h135.174h6.444
						C712.574,161.927,732.419,161.927,767.222,161.927z"/>
				</g>
			</g>
			<g enable-background="new    ">
				<g>
					<polygon fill="#BDBDBD" points="566.736,251.959 568.736,253.959 546.749,253.959 548.749,251.959 					"/>
				</g>
				<g>
					<path fill="#F3F3F3" d="M566.736,202.373v49.586h-17.987v-49.586C551.312,202.373,558.908,202.373,566.736,202.373z"/>
				</g>
				<g>
					<polygon fill="#C3C3C3" points="566.736,202.373 568.736,200.373 568.736,253.959 566.736,251.959 					"/>
				</g>
				<g>
					<polygon fill="#C3C3C3" points="548.749,251.959 546.749,253.959 546.749,200.373 548.749,202.373 					"/>
				</g>
				<g enable-background="new    ">
					<defs>
						<path id="SVGID_31_" enable-background="new    " d="M548.749,202.373l-2-2c4.563,0,12.159,0,21.987,0l-2,2
							C558.908,202.373,551.312,202.373,548.749,202.373z"/>
					</defs>
					<clipPath id="SVGID_32_">
						<use xlink:href="#SVGID_31_"  overflow="visible"/>
					</clipPath>
					<g clip-path="url(#SVGID_32_)" enable-background="new    ">
						<path fill="#DADADA" d="M548.749,202.373l-2-2c4.563,0,12.159,0,21.987,0l-2,2
							C558.908,202.373,551.312,202.373,548.749,202.373"/>
					</g>
				</g>
			</g>
			<g enable-background="new    ">
				<g enable-background="new    ">
					<defs>
						<path id="SVGID_33_" enable-background="new    " d="M704.078,224.128c0.31,0.241,0.622,0.479,0.938,0.713
							c0,0,0.002,0.008,0.006,0.023L704.078,224.128z"/>
					</defs>
					<clipPath id="SVGID_34_">
						<use xlink:href="#SVGID_33_"  overflow="visible"/>
					</clipPath>
					<g clip-path="url(#SVGID_34_)" enable-background="new    ">
						<path fill="#BFBFBF" d="M704.084,224.152l0.932,0.689c0,0,0.002,0.008,0.006,0.023l-0.943-0.736
							C704.078,224.128,704.08,224.136,704.084,224.152"/>
					</g>
				</g>
				<g>
					<rect x="716.737" y="208.585" fill="#C9C9C9" width="0" height="28.557"/>
				</g>
				<g>
					<polygon fill="#DFDFDF" points="705.021,224.864 702.458,222.864 731.015,222.864 729.911,224.864 					"/>
				</g>
				<g enable-background="new    ">
					<defs>
						<path id="SVGID_35_" enable-background="new    " d="M705.016,224.841c0,0,0.002,0.008,0.006,0.023
							c-0.283-0.221-0.66-0.515-0.943-0.736C704.388,224.369,704.7,224.607,705.016,224.841z"/>
					</defs>
					<clipPath id="SVGID_36_">
						<use xlink:href="#SVGID_35_"  overflow="visible"/>
					</clipPath>
					<g clip-path="url(#SVGID_36_)" enable-background="new    ">
						<path fill="#BFBFBF" d="M705.016,224.841l-0.932-0.689c-0.004-0.016-0.006-0.024-0.006-0.024l0.943,0.736
							C705.017,224.848,705.015,224.841,705.016,224.841"/>
					</g>
				</g>
				<g enable-background="new    ">
					<defs>
						<path id="SVGID_37_" enable-background="new    " d="M704.078,224.128c0.31,0.241,0.622,0.479,0.938,0.713
							c0.013,0.01,8.298,29.637,68.849,29.773c53.697-0.216,55.633-24.872,55.627-27.574c0.072-12.011-13.514-19.552-29.95-24.645
							l0-2.022c17.406,5.301,31.95,13.221,31.95,26.667c0,3.132-2.277,29.574-57.627,29.574c-62.946,0-70.983-32.062-71.406-33.75
							L704.078,224.128z"/>
					</defs>
					<clipPath id="SVGID_38_">
						<use xlink:href="#SVGID_37_"  overflow="visible"/>
					</clipPath>
					<g clip-path="url(#SVGID_38_)" enable-background="new    ">
						<path fill="#D7D7D7" d="M799.541,202.395v-2.022c4.519,1.376,8.845,2.929,12.774,4.709l-0.738,1.81
							C807.883,205.205,803.808,203.717,799.541,202.395"/>
						<path fill="#D5D5D5" d="M811.577,206.892l0.738-1.81c3.145,1.425,6.035,2.995,8.565,4.738l-1.263,1.528
							C817.246,209.722,814.534,208.243,811.577,206.892"/>
						<path fill="#D2D2D2" d="M819.617,211.348l1.263-1.528c1.421,0.979,2.729,2.011,3.905,3.103l-1.514,1.306
							C822.173,213.221,820.949,212.261,819.617,211.348"/>
						<path fill="#CFCFCF" d="M823.272,214.229l1.514-1.306c0.854,0.793,1.638,1.616,2.346,2.473l-1.669,1.11
							C824.802,215.72,824.07,214.962,823.272,214.229"/>
						<path fill="#CDCDCD" d="M825.462,216.506l1.669-1.11c0.587,0.71,1.121,1.443,1.599,2.2l-1.779,0.923
							C826.508,217.828,826.01,217.158,825.462,216.506"/>
						<path fill="#CACACA" d="M826.952,218.519l1.779-0.923c0.433,0.685,0.819,1.39,1.155,2.115l-1.861,0.732
							C827.712,219.785,827.354,219.144,826.952,218.519"/>
						<path fill="#C7C7C7" d="M828.024,220.443l1.861-0.732c0.332,0.715,0.615,1.451,0.848,2.206l-1.925,0.523
							C828.594,221.758,828.332,221.092,828.024,220.443"/>
						<path fill="#C5C5C5" d="M828.808,222.44l1.925-0.523c0.254,0.827,0.447,1.678,0.575,2.554l-1.975,0.268
							C829.218,223.952,829.042,223.186,828.808,222.44"/>
						<path fill="#C2C2C2" d="M829.333,224.739l1.975-0.268c0.121,0.833,0.184,1.69,0.184,2.57c0,0.127-0.004,0.291-0.014,0.49
							l-1.998-0.059c0.009-0.178,0.012-0.323,0.012-0.432C829.496,226.254,829.442,225.487,829.333,224.739"/>
						<path fill="#BFBFBF" d="M829.479,227.472l1.998,0.059c-0.256,4.735-4.499,29.084-57.612,29.084
							c-62.946,0-70.983-32.062-71.406-33.75l2.563,2c-0.248-0.984,7.309,29.612,68.843,29.75
							C825.391,254.406,829.256,231.694,829.479,227.472"/>
					</g>
				</g>
				<g enable-background="new    ">
					<defs>
						<path id="SVGID_39_" enable-background="new    " d="M729.911,224.864l0.255-0.462l0.85-1.538
							c0.37,0.588,7.398,11.754,39.438,11.754c10.8,0,33.489-1.323,33.489-8.721c0-9.882-52.56-10.827-76.302-25.524l7.031,2
							c17.232,10.705,70.633,11.163,71.271,23.524c-0.428,9.749-24.543,10.724-35.489,10.721
							C737.503,236.734,729.801,224.686,729.911,224.864z"/>
					</defs>
					<clipPath id="SVGID_40_">
						<use xlink:href="#SVGID_39_"  overflow="visible"/>
					</clipPath>
					<g clip-path="url(#SVGID_40_)" enable-background="new    ">
						<path fill="#CDCDCD" d="M729.911,224.864l1.104-2c0.039,0.062,0.154,0.244,0.366,0.52l-1.219,1.808
							C729.976,224.964,729.899,224.845,729.911,224.864"/>
						<path fill="#CFCFCF" d="M730.161,225.192l1.219-1.808c0.213,0.278,0.526,0.65,0.959,1.091l-1.263,1.709
							C730.647,225.762,730.349,225.422,730.161,225.192"/>
						<path fill="#D2D2D2" d="M731.077,226.183l1.263-1.709c0.489,0.497,1.132,1.08,1.962,1.712l-1.233,1.685
							C732.217,227.235,731.563,226.658,731.077,226.183"/>
						<path fill="#D5D5D5" d="M733.069,227.872l1.233-1.685c1.02,0.776,2.321,1.625,3.964,2.476l-1.096,1.745
							C735.465,229.526,734.117,228.654,733.069,227.872"/>
						<path fill="#D7D7D7" d="M737.171,230.407l1.096-1.745c2.513,1.302,5.826,2.607,10.153,3.663l-0.711,1.913
							C743.224,233.129,739.779,231.756,737.171,230.407"/>
						<path fill="#DADADA" d="M747.709,234.239l0.711-1.913c5.535,1.351,12.73,2.292,22.034,2.292c5.8,0,15.028-0.382,22.329-1.88
							l0.99,1.832c-7.766,1.77-17.441,2.05-23.319,2.048C760.885,236.652,753.446,235.66,747.709,234.239"/>
						<path fill="#D7D7D7" d="M793.772,234.57l-0.99-1.832c2.182-0.448,4.192-0.996,5.887-1.663l1.401,1.477
							C798.243,233.379,796.093,234.041,793.772,234.57"/>
						<path fill="#D5D5D5" d="M800.07,232.552l-1.401-1.477c0.793-0.312,1.517-0.65,2.158-1.017l1.58,1.221
							C801.709,231.742,800.925,232.165,800.07,232.552"/>
						<path fill="#D2D2D2" d="M802.407,231.28l-1.58-1.221c0.426-0.244,0.815-0.5,1.162-0.769l1.69,1.014
							C803.297,230.647,802.871,230.972,802.407,231.28"/>
						<path fill="#CFCFCF" d="M803.68,230.304l-1.69-1.014c0.266-0.206,0.508-0.42,0.724-0.641l1.769,0.834
							C804.242,229.768,803.973,230.041,803.68,230.304"/>
						<path fill="#CDCDCD" d="M804.483,229.483l-1.769-0.834c0.176-0.181,0.335-0.367,0.476-0.558l1.829,0.672
							C804.859,229.01,804.68,229.25,804.483,229.483"/>
						<path fill="#CACACA" d="M805.018,228.762l-1.829-0.672c0.128-0.174,0.24-0.352,0.336-0.535l1.88,0.513
							C805.293,228.306,805.163,228.537,805.018,228.762"/>
						<path fill="#C7C7C7" d="M805.405,228.068l-1.88-0.513c0.093-0.176,0.171-0.357,0.233-0.542l1.925,0.349
							C805.607,227.603,805.514,227.839,805.405,228.068"/>
						<path fill="#C5C5C5" d="M805.684,227.362l-1.925-0.349c0.063-0.187,0.111-0.379,0.141-0.576l1.966,0.17
							C805.823,226.866,805.762,227.117,805.684,227.362"/>
						<path fill="#C2C2C2" d="M805.867,226.608l-1.966-0.17c0.028-0.176,0.042-0.357,0.042-0.54c0-0.046-0.001-0.092-0.003-0.138
							l1.991-0.035c0.005,0.057,0.009,0.115,0.012,0.173C805.931,226.139,805.906,226.376,805.867,226.608"/>
						<path fill="#BFBFBF" d="M805.93,225.724l-1.991,0.035c-0.488-9.753-52.668-10.758-76.299-25.386l7.031,2
							C751.822,213.028,804.804,213.531,805.93,225.724"/>
					</g>
				</g>
				<g>
					<path fill="#F3F3F3" d="M799.541,202.395c16.436,5.093,30.022,12.634,29.95,24.645c0.006,2.702-1.93,27.358-55.627,27.574
						c-61.534-0.138-69.091-30.734-68.843-29.75h24.889c-0.11-0.178,7.592,11.87,40.542,11.754
						c10.946,0.003,35.061-0.972,35.489-10.721c-0.639-12.361-54.04-12.819-71.271-23.524
						C755.018,202.373,780.407,202.373,799.541,202.395z"/>
				</g>
				<g enable-background="new    ">
					<defs>
						<path id="SVGID_41_" enable-background="new    " d="M734.671,202.373l-7.031-2c27.378,0,52.767,0,71.901,0l0,2.022
							C780.407,202.373,755.018,202.373,734.671,202.373z"/>
					</defs>
					<clipPath id="SVGID_42_">
						<use xlink:href="#SVGID_41_"  overflow="visible"/>
					</clipPath>
					<g clip-path="url(#SVGID_42_)" enable-background="new    ">
						<path fill="#DADADA" d="M734.671,202.373l-7.031-2c27.378,0,52.767,0,71.901,0v2.022
							C780.407,202.373,755.018,202.373,734.671,202.373"/>
					</g>
				</g>
			</g>
			<g enable-background="new    ">
				<g>
					<polygon fill="#BDBDBD" points="651.669,251.959 653.669,253.959 629.027,253.959 631.027,251.959 					"/>
				</g>
				<g>
					<path fill="#F3F3F3" d="M651.669,202.373v49.586h-20.642v-49.586C637.001,202.373,645.254,202.373,651.669,202.373z"/>
				</g>
				<g>
					<polygon fill="#C3C3C3" points="651.669,202.373 653.669,200.373 653.669,253.959 651.669,251.959 					"/>
				</g>
				<g>
					<polygon fill="#C3C3C3" points="631.027,251.959 629.027,253.959 629.027,200.373 631.027,202.373 					"/>
				</g>
				<g enable-background="new    ">
					<defs>
						<path id="SVGID_43_" enable-background="new    " d="M631.027,202.373l-2-2c7.974,0,16.227,0,24.642,0l-2,2
							C645.254,202.373,637.001,202.373,631.027,202.373z"/>
					</defs>
					<clipPath id="SVGID_44_">
						<use xlink:href="#SVGID_43_"  overflow="visible"/>
					</clipPath>
					<g clip-path="url(#SVGID_44_)" enable-background="new    ">
						<path fill="#DADADA" d="M631.027,202.373l-2-2c7.974,0,16.227,0,24.642,0l-2,2
							C645.254,202.373,637.001,202.373,631.027,202.373"/>
					</g>
				</g>
			</g>
		</g>
	</g>
	<g>
		<linearGradient id="SVGID_45_" gradientUnits="userSpaceOnUse" x1="473.4755" y1="1403.2185" x2="473.4755" y2="-1126.0363">
			<stop  offset="0" style="stop-color:#B43C62"/>
			<stop  offset="1" style="stop-color:#9B388B"/>
		</linearGradient>
		<path fill="url(#SVGID_45_)" d="M459.35,253.959h28.251v-45.702c-10.548,2.313-20.376,4.779-28.251,6.867V253.959z"/>
		<linearGradient id="SVGID_46_" gradientUnits="userSpaceOnUse" x1="459.3545" y1="1905.4639" x2="459.3545" y2="-1827.6561">
			<stop  offset="0" style="stop-color:#B43C62"/>
			<stop  offset="1" style="stop-color:#9B388B"/>
		</linearGradient>
		<path fill="url(#SVGID_46_)" d="M546.749,141.729H371.96l31.086,26.541h56.304v40.914c7.875-2.088,17.703-4.554,28.251-6.867
			V168.27h59.148V141.729z"/>
		<linearGradient id="SVGID_47_" gradientUnits="userSpaceOnUse" x1="557.7425" y1="595.0234" x2="557.7426" y2="-286.5834">
			<stop  offset="0" style="stop-color:#B43C62"/>
			<stop  offset="1" style="stop-color:#9B388B"/>
		</linearGradient>
		<path fill="url(#SVGID_47_)" d="M546.749,194.433c3.422,0,8.551,0,15.047,0c2.165,0,4.483,0,6.94,0l0,0h0v-15.93h-21.987V194.433z
			"/>
		<linearGradient id="SVGID_48_" gradientUnits="userSpaceOnUse" x1="689.687" y1="1062.1506" x2="689.687" y2="-847.4953">
			<stop  offset="0" style="stop-color:#B43C62"/>
			<stop  offset="1" style="stop-color:#9B388B"/>
		</linearGradient>
		<path fill="url(#SVGID_48_)" d="M703.34,165.885l13.644,12.618c-0.038,0.133-0.756,2.655-0.756,4.932
			c0,2.644,0.608,5.048,1.719,7.249c0.667,1.32,1.514,2.568,2.52,3.749v0c14.546,0,28.642,0,41.672,0c4.343,0,8.568,0,12.652,0
			c0,0,0,0-0.001,0c0,0,0,0,0,0c-0.096-0.019-0.193-0.038-0.289-0.058c-0.06-0.012-0.119-0.023-0.179-0.035
			c-1.093-0.217-2.176-0.429-3.246-0.637c-0.107-0.021-0.211-0.041-0.317-0.062c-1.073-0.208-2.133-0.412-3.176-0.613
			c-1.005-0.193-1.989-0.382-2.961-0.569c-0.175-0.034-0.349-0.067-0.523-0.101c-0.937-0.181-1.855-0.359-2.755-0.536
			c-0.165-0.032-0.329-0.065-0.492-0.097c-0.513-0.101-1.019-0.202-1.518-0.302c-0.1-0.02-0.202-0.04-0.302-0.06
			c-0.579-0.117-1.146-0.232-1.705-0.348c-0.156-0.032-0.309-0.064-0.464-0.097c-0.432-0.09-0.856-0.18-1.274-0.269
			c-0.15-0.032-0.302-0.064-0.45-0.096c-0.534-0.116-1.059-0.231-1.57-0.347c-0.066-0.015-0.129-0.03-0.195-0.045
			c-0.582-0.133-1.146-0.265-1.695-0.398c-0.092-0.022-0.186-0.044-0.276-0.067c-0.561-0.138-1.1-0.276-1.622-0.414
			c-0.11-0.029-0.219-0.059-0.327-0.088c-0.519-0.14-1.022-0.281-1.5-0.424c-0.059-0.018-0.115-0.036-0.174-0.053
			c-0.451-0.136-0.88-0.273-1.29-0.412c-0.065-0.022-0.134-0.044-0.198-0.066c-0.329-0.113-0.645-0.228-0.944-0.343
			c-0.062-0.024-0.117-0.048-0.177-0.071c-0.235-0.093-0.462-0.186-0.678-0.28c-0.091-0.04-0.178-0.08-0.266-0.12
			c-0.18-0.082-0.352-0.165-0.516-0.248c-0.081-0.041-0.162-0.082-0.239-0.123c-0.179-0.095-0.345-0.192-0.503-0.289
			c-0.047-0.029-0.099-0.057-0.144-0.086c-0.041-0.026-0.077-0.053-0.116-0.08c-0.11-0.074-0.217-0.149-0.315-0.224
			c-0.047-0.036-0.091-0.073-0.135-0.109c-0.082-0.068-0.16-0.136-0.233-0.204c-0.041-0.038-0.08-0.077-0.118-0.115
			c-0.069-0.071-0.131-0.144-0.19-0.216c-0.028-0.035-0.059-0.07-0.084-0.105c-0.026-0.035-0.044-0.072-0.067-0.107
			c-0.079-0.121-0.142-0.245-0.19-0.369c-0.02-0.053-0.044-0.105-0.058-0.159c-0.009-0.033-0.017-0.066-0.024-0.099
			c-0.022-0.107-0.039-0.214-0.039-0.323c0-0.154,0.021-0.305,0.059-0.451c0.002-0.01,0.005-0.019,0.007-0.029
			c0.039-0.141,0.094-0.278,0.166-0.412c0.004-0.008,0.008-0.017,0.012-0.025c0.069-0.125,0.156-0.246,0.252-0.366
			c0.025-0.031,0.05-0.062,0.077-0.092c0.055-0.063,0.121-0.125,0.184-0.186c0.1-0.099,0.209-0.196,0.327-0.291
			c0.076-0.06,0.151-0.121,0.234-0.179c0.064-0.045,0.129-0.09,0.197-0.135c0.108-0.071,0.223-0.14,0.342-0.209
			c0.071-0.041,0.14-0.082,0.214-0.122c0.137-0.074,0.283-0.146,0.432-0.217c0.065-0.031,0.126-0.063,0.192-0.094
			c0.22-0.1,0.449-0.198,0.69-0.292c0.029-0.012,0.062-0.022,0.091-0.034c0.214-0.083,0.435-0.163,0.664-0.241
			c0.09-0.031,0.185-0.06,0.277-0.09c0.175-0.057,0.352-0.114,0.535-0.169c0.108-0.032,0.219-0.064,0.33-0.096
			c0.176-0.05,0.355-0.1,0.537-0.149c0.117-0.031,0.234-0.062,0.353-0.092c0.187-0.048,0.378-0.094,0.571-0.139
			c0.117-0.028,0.232-0.055,0.351-0.082c0.216-0.049,0.435-0.096,0.656-0.143c0.098-0.021,0.195-0.042,0.294-0.063
			c0.322-0.066,0.649-0.129,0.98-0.19c0.036-0.007,0.073-0.013,0.109-0.019c0.296-0.054,0.596-0.106,0.898-0.156
			c0.12-0.02,0.241-0.039,0.362-0.058c0.223-0.036,0.446-0.071,0.67-0.105c0.134-0.02,0.27-0.04,0.405-0.059
			c0.216-0.031,0.432-0.062,0.648-0.092c0.136-0.019,0.273-0.037,0.41-0.055c0.22-0.029,0.44-0.057,0.66-0.084
			c0.131-0.016,0.262-0.033,0.393-0.048c0.24-0.029,0.479-0.056,0.719-0.083c0.11-0.012,0.221-0.025,0.331-0.037
			c0.345-0.038,0.689-0.073,1.031-0.107c0.041-0.004,0.08-0.008,0.121-0.011c0.307-0.03,0.612-0.059,0.915-0.086
			c0.113-0.01,0.224-0.019,0.336-0.029c0.227-0.02,0.454-0.039,0.678-0.057c0.127-0.01,0.252-0.02,0.377-0.03
			c0.209-0.016,0.417-0.032,0.623-0.047c0.126-0.009,0.251-0.018,0.375-0.027c0.203-0.014,0.404-0.028,0.602-0.041
			c0.116-0.008,0.232-0.015,0.346-0.022c0.211-0.013,0.418-0.026,0.624-0.037c0.097-0.006,0.196-0.012,0.292-0.017
			c0.589-0.033,1.15-0.06,1.675-0.082c0.091-0.004,0.178-0.007,0.267-0.011c0.169-0.007,0.337-0.013,0.497-0.019
			c0.097-0.003,0.19-0.007,0.283-0.01c0.143-0.005,0.284-0.009,0.419-0.013c0.093-0.003,0.185-0.005,0.275-0.008
			c0.129-0.003,0.253-0.006,0.374-0.009c0.078-0.002,0.158-0.003,0.233-0.005c0.124-0.002,0.239-0.004,0.353-0.006
			c0.062-0.001,0.128-0.002,0.187-0.003c0.163-0.002,0.316-0.003,0.453-0.003c0.804,0,1.586,0.01,2.348,0.028
			c0.26,0.006,0.505,0.019,0.761,0.027c0.491,0.016,0.986,0.03,1.459,0.053c0.299,0.015,0.581,0.036,0.872,0.053
			c0.413,0.024,0.831,0.047,1.23,0.076c0.296,0.022,0.576,0.05,0.865,0.076c0.374,0.032,0.754,0.063,1.115,0.099
			c0.29,0.03,0.565,0.065,0.847,0.097c0.343,0.039,0.691,0.077,1.022,0.12c0.275,0.036,0.536,0.077,0.803,0.116
			c0.319,0.046,0.643,0.091,0.952,0.141c0.263,0.043,0.512,0.089,0.767,0.134c0.295,0.052,0.595,0.102,0.88,0.158
			c0.248,0.048,0.483,0.1,0.724,0.15c0.275,0.058,0.554,0.114,0.819,0.174c0.235,0.053,0.458,0.11,0.685,0.166
			c0.253,0.062,0.509,0.123,0.753,0.187c0.223,0.059,0.434,0.12,0.65,0.181c0.233,0.066,0.469,0.131,0.694,0.198
			c0.207,0.063,0.404,0.127,0.604,0.192c0.216,0.07,0.435,0.138,0.643,0.21c0.193,0.066,0.376,0.134,0.562,0.202
			c0.2,0.073,0.402,0.145,0.594,0.219c0.179,0.069,0.35,0.14,0.522,0.21c0.184,0.075,0.369,0.15,0.546,0.226
			c0.165,0.071,0.323,0.144,0.482,0.216c0.17,0.077,0.34,0.154,0.503,0.232c0.151,0.073,0.296,0.146,0.441,0.22
			c0.156,0.079,0.313,0.158,0.462,0.237c0.139,0.074,0.272,0.149,0.405,0.223c0.141,0.079,0.283,0.158,0.418,0.238
			c0.128,0.075,0.25,0.151,0.372,0.226c0.128,0.079,0.256,0.158,0.378,0.237c0.116,0.076,0.227,0.151,0.338,0.226
			c0.115,0.079,0.231,0.157,0.34,0.236c0.105,0.075,0.205,0.15,0.304,0.224c0.104,0.078,0.208,0.157,0.307,0.234
			c0.094,0.074,0.183,0.147,0.272,0.22c0.093,0.077,0.185,0.153,0.273,0.229c0.084,0.073,0.165,0.145,0.244,0.216
			c0.082,0.074,0.163,0.148,0.24,0.221c0.074,0.07,0.145,0.14,0.215,0.209c0.073,0.072,0.145,0.144,0.213,0.215
			c0.065,0.067,0.127,0.134,0.187,0.199c0.064,0.069,0.126,0.138,0.185,0.205c0.056,0.064,0.111,0.128,0.163,0.19
			c0.055,0.066,0.109,0.131,0.16,0.195c0.048,0.06,0.094,0.119,0.138,0.176c0.047,0.062,0.093,0.123,0.136,0.182
			c0.04,0.055,0.079,0.11,0.116,0.163c0.04,0.057,0.078,0.114,0.114,0.168c0.033,0.05,0.065,0.099,0.095,0.147
			c0.032,0.051,0.063,0.101,0.092,0.149c0.027,0.046,0.054,0.091,0.079,0.134c0.026,0.045,0.05,0.088,0.073,0.13
			c0.021,0.039,0.042,0.078,0.061,0.114c0.02,0.039,0.039,0.075,0.056,0.11c0.016,0.033,0.032,0.065,0.046,0.094
			c0.015,0.033,0.029,0.063,0.042,0.092c0.01,0.024,0.021,0.048,0.03,0.068c0.011,0.025,0.02,0.048,0.029,0.069
			c0.007,0.017,0.014,0.035,0.019,0.049c0.008,0.021,0.016,0.042,0.02,0.053h26.541c-0.005-0.032-0.014-0.082-0.024-0.139
			c-0.003-0.016-0.005-0.026-0.008-0.044c-0.012-0.066-0.027-0.147-0.045-0.239c-0.004-0.018-0.007-0.035-0.011-0.055
			c-0.02-0.1-0.044-0.21-0.072-0.335c-0.004-0.017-0.008-0.036-0.013-0.054c-0.029-0.125-0.062-0.261-0.099-0.409
			c-0.003-0.013-0.006-0.025-0.01-0.039c-0.04-0.154-0.086-0.321-0.136-0.498c-0.009-0.031-0.017-0.061-0.027-0.093
			c-0.052-0.177-0.109-0.363-0.172-0.56c-0.011-0.035-0.023-0.071-0.035-0.106c-0.068-0.207-0.14-0.421-0.222-0.647
			c-0.005-0.013-0.01-0.027-0.015-0.041c-0.08-0.222-0.169-0.453-0.264-0.692c-0.009-0.023-0.016-0.043-0.025-0.066
			c-0.004-0.009-0.009-0.02-0.012-0.029c-0.102-0.253-0.213-0.516-0.333-0.786c-0.02-0.045-0.039-0.09-0.06-0.135
			c-0.12-0.269-0.25-0.545-0.389-0.829c-0.024-0.049-0.048-0.097-0.072-0.146c-0.144-0.29-0.297-0.586-0.462-0.89
			c-0.021-0.039-0.044-0.079-0.066-0.118c-0.175-0.319-0.36-0.644-0.559-0.975c-0.005-0.009-0.011-0.018-0.016-0.026
			c-0.199-0.329-0.411-0.665-0.635-1.005c-0.023-0.035-0.045-0.069-0.068-0.105c-0.219-0.33-0.453-0.665-0.698-1.002
			c-0.039-0.054-0.078-0.108-0.118-0.163c-0.243-0.331-0.5-0.666-0.769-1.003c-0.048-0.06-0.096-0.12-0.145-0.18
			c-0.276-0.34-0.563-0.682-0.866-1.026c-0.044-0.05-0.091-0.101-0.135-0.151c-0.319-0.358-0.65-0.717-1.001-1.077
			c-0.02-0.021-0.042-0.041-0.062-0.062c-0.351-0.359-0.719-0.718-1.103-1.077c-0.034-0.032-0.066-0.064-0.101-0.096
			c-0.381-0.354-0.782-0.707-1.197-1.059c-0.065-0.055-0.128-0.11-0.194-0.165c-0.409-0.343-0.836-0.684-1.277-1.023
			c-0.078-0.06-0.156-0.119-0.235-0.179c-0.449-0.339-0.913-0.676-1.397-1.01c-0.076-0.052-0.154-0.104-0.23-0.156
			c-0.504-0.343-1.023-0.683-1.565-1.019c-0.045-0.028-0.091-0.055-0.136-0.082c-0.551-0.338-1.121-0.672-1.713-1
			c-0.037-0.021-0.073-0.042-0.11-0.062c-0.592-0.327-1.21-0.647-1.844-0.962c-0.058-0.029-0.11-0.059-0.168-0.088
			c-0.037-0.018-0.078-0.035-0.115-0.054c-0.53-0.259-1.076-0.514-1.636-0.765c-0.118-0.053-0.239-0.104-0.358-0.156
			c-0.507-0.222-1.026-0.441-1.558-0.654c-0.099-0.04-0.194-0.08-0.294-0.12c-0.6-0.237-1.219-0.469-1.851-0.694
			c-0.145-0.052-0.292-0.103-0.439-0.154c-0.611-0.213-1.233-0.422-1.873-0.623c-0.041-0.013-0.079-0.027-0.121-0.04
			c-0.012-0.004-0.025-0.007-0.037-0.011c-0.595-0.186-1.206-0.365-1.827-0.54c-0.173-0.049-0.35-0.096-0.525-0.143
			c-0.47-0.128-0.947-0.254-1.433-0.376c-0.201-0.05-0.401-0.101-0.604-0.15c-0.576-0.14-1.161-0.275-1.758-0.405
			c-0.09-0.02-0.176-0.041-0.266-0.06c-0.683-0.147-1.384-0.286-2.095-0.419c-0.067-0.013-0.13-0.027-0.197-0.039
			c-0.14-0.026-0.287-0.048-0.428-0.073c-0.509-0.092-1.024-0.18-1.547-0.265c-0.238-0.039-0.477-0.077-0.718-0.114
			c-0.567-0.087-1.144-0.17-1.728-0.249c-0.179-0.024-0.354-0.05-0.534-0.074c-0.761-0.099-1.535-0.19-2.324-0.274
			c-0.185-0.02-0.375-0.036-0.561-0.055c-0.617-0.062-1.241-0.121-1.875-0.174c-0.124-0.01-0.242-0.024-0.367-0.034
			c-0.168-0.014-0.343-0.023-0.513-0.036c-0.462-0.035-0.93-0.068-1.401-0.098c-0.314-0.02-0.629-0.04-0.947-0.058
			c-0.488-0.027-0.983-0.051-1.481-0.073c-0.31-0.014-0.619-0.028-0.933-0.04c-0.551-0.02-1.112-0.035-1.675-0.049
			c-0.271-0.007-0.537-0.016-0.81-0.021c-0.841-0.015-1.693-0.024-2.56-0.024c-34.803,0-54.648,0-63.882,0h-6.444H555.848
			l28.053,21.609h45.126v12.897c5.981,0,12.118,0,18.363,0c2.082,0,4.175,0,6.279,0l0,0h0v-12.897h49.671V165.885z M770.462,161.979
			c0.008,0,0.016,0.001,0.024,0.001c-0.06-0.002-0.119-0.003-0.178-0.005C770.359,161.976,770.411,161.977,770.462,161.979z
			 M772.966,162.068c0.018,0.001,0.036,0.002,0.054,0.003c-0.142-0.006-0.283-0.013-0.426-0.019
			C772.718,162.057,772.842,162.062,772.966,162.068z M775.304,162.195c0.025,0.002,0.048,0.004,0.073,0.005
			c-0.189-0.012-0.38-0.024-0.571-0.035C774.972,162.175,775.139,162.184,775.304,162.195z M777.506,162.357
			c0.027,0.002,0.053,0.005,0.08,0.007c-0.227-0.019-0.457-0.037-0.687-0.055C777.102,162.325,777.306,162.34,777.506,162.357z
			 M779.703,162.56c0.047,0.005,0.096,0.009,0.142,0.014c0.036,0.004,0.07,0.009,0.106,0.012c-0.183-0.019-0.371-0.036-0.556-0.055
			C779.496,162.542,779.602,162.55,779.703,162.56z M784.979,163.248c0.038,0.006,0.073,0.013,0.111,0.019
			c-0.159-0.025-0.319-0.05-0.479-0.075C784.733,163.211,784.857,163.229,784.979,163.248z M786.768,163.549
			c0.091,0.016,0.186,0.031,0.277,0.048c0.049,0.009,0.095,0.019,0.143,0.028c-0.199-0.037-0.402-0.071-0.603-0.107
			C786.645,163.529,786.708,163.538,786.768,163.549z M791.633,164.569c0.043,0.01,0.084,0.022,0.127,0.032
			c-0.135-0.033-0.27-0.066-0.406-0.098C791.446,164.525,791.541,164.546,791.633,164.569z M793.478,165.039
			c0.025,0.007,0.049,0.014,0.074,0.021c0.035,0.009,0.067,0.02,0.102,0.029c-0.167-0.046-0.338-0.089-0.506-0.134
			C793.255,164.983,793.37,165.01,793.478,165.039z M797.557,166.281c0.029,0.01,0.06,0.02,0.089,0.029
			c0.055,0.019,0.106,0.039,0.161,0.058c-0.14-0.048-0.282-0.096-0.423-0.143C797.44,166.244,797.5,166.262,797.557,166.281z
			 M810.487,172.783c0.014,0.01,0.026,0.02,0.04,0.03c-0.075-0.055-0.151-0.109-0.227-0.164c0.027,0.02,0.058,0.039,0.085,0.059
			C810.419,172.733,810.452,172.758,810.487,172.783z M811.835,173.806c0.034,0.027,0.063,0.054,0.096,0.081
			c-0.061-0.049-0.12-0.097-0.182-0.146c0.012,0.009,0.025,0.018,0.036,0.027C811.802,173.781,811.819,173.794,811.835,173.806z
			 M817.145,179.116c0.004,0.006,0.008,0.011,0.013,0.017c-0.037-0.047-0.073-0.094-0.11-0.141c0.007,0.008,0.015,0.017,0.021,0.026
			C817.095,179.05,817.12,179.083,817.145,179.116z M817.846,180.049c0.011,0.016,0.021,0.031,0.032,0.047
			c-0.022-0.031-0.042-0.061-0.065-0.091c0.005,0.007,0.011,0.015,0.016,0.022C817.836,180.034,817.841,180.041,817.846,180.049z
			 M819.556,182.778C819.556,182.778,819.557,182.778,819.556,182.778c-0.021-0.04-0.044-0.081-0.067-0.122
			c0.001,0.001,0.002,0.003,0.002,0.004C819.513,182.699,819.535,182.738,819.556,182.778z M796.621,184.5
			c0.06,0.06,0.119,0.119,0.176,0.178c-0.029-0.03-0.061-0.061-0.091-0.092C796.678,184.557,796.651,184.529,796.621,184.5z
			 M797.01,184.903c0.052,0.057,0.103,0.113,0.152,0.168c-0.026-0.029-0.055-0.06-0.081-0.089
			C797.057,184.955,797.034,184.93,797.01,184.903z M797.343,185.279c0.044,0.052,0.087,0.102,0.127,0.152
			c-0.023-0.028-0.049-0.058-0.073-0.086C797.379,185.323,797.362,185.301,797.343,185.279z M797.623,185.621
			c0.037,0.047,0.072,0.092,0.106,0.137c-0.02-0.026-0.043-0.055-0.064-0.082C797.651,185.657,797.637,185.64,797.623,185.621z
			 M798.358,186.718c-0.002-0.004-0.004-0.008-0.007-0.012c0.011,0.02,0.017,0.032,0.022,0.041
			C798.37,186.74,798.365,186.731,798.358,186.718z M798.288,186.593c-0.002-0.003-0.004-0.006-0.006-0.01
			c0.012,0.02,0.023,0.039,0.032,0.056C798.307,186.626,798.297,186.608,798.288,186.593z M798.195,186.436
			c-0.005-0.008-0.009-0.015-0.014-0.022c0.017,0.027,0.033,0.053,0.047,0.077C798.219,186.473,798.206,186.453,798.195,186.436z
			 M798.061,186.226c-0.008-0.011-0.015-0.022-0.022-0.034c0.023,0.034,0.045,0.067,0.065,0.099
			C798.091,186.271,798.075,186.247,798.061,186.226z M797.885,185.971c-0.011-0.015-0.02-0.029-0.031-0.044
			c0.029,0.041,0.058,0.081,0.085,0.119C797.922,186.022,797.903,185.996,797.885,185.971z M820.533,184.837
			c0.002,0.004,0.003,0.007,0.004,0.011c-0.004-0.011-0.009-0.022-0.014-0.033C820.527,184.822,820.53,184.83,820.533,184.837z
			 M820.731,185.346c0.007,0.019,0.015,0.039,0.022,0.058c0.001,0.004,0.002,0.007,0.004,0.011
			c-0.009-0.024-0.018-0.049-0.027-0.073C820.73,185.343,820.73,185.345,820.731,185.346z M820.918,185.88
			c0.001,0.002,0.001,0.004,0.002,0.006c-0.004-0.011-0.007-0.022-0.011-0.034C820.912,185.861,820.915,185.871,820.918,185.88z
			 M821.107,186.503c0.001,0.004,0.002,0.007,0.003,0.011c-0.002-0.008-0.005-0.017-0.007-0.025
			C821.104,186.493,821.106,186.499,821.107,186.503z M821.157,186.7c0.001,0.005,0.001,0.005,0.002,0.01
			c-0.002-0.007-0.004-0.016-0.006-0.024C821.155,186.691,821.156,186.697,821.157,186.7z M819.964,183.571
			c-0.008-0.017-0.017-0.035-0.025-0.052c0.008,0.017,0.016,0.033,0.025,0.05C819.964,183.57,819.964,183.57,819.964,183.571z
			 M816.298,178.083c-0.037-0.043-0.074-0.086-0.112-0.13c0.007,0.008,0.015,0.016,0.022,0.024
			C816.238,178.013,816.268,178.048,816.298,178.083z M815.264,176.94c-0.009-0.01-0.019-0.019-0.028-0.029
			c0.002,0.003,0.005,0.005,0.008,0.008C815.25,176.925,815.257,176.933,815.264,176.94z M813.17,174.927
			c-0.013-0.011-0.025-0.022-0.037-0.033c0.005,0.005,0.011,0.009,0.016,0.014C813.156,174.914,813.163,174.92,813.17,174.927z
			 M808.904,171.694c-0.054-0.036-0.11-0.071-0.165-0.107c0.02,0.013,0.043,0.026,0.063,0.039
			C808.836,171.648,808.87,171.671,808.904,171.694z M803.576,168.717c-0.055-0.026-0.11-0.053-0.166-0.079
			c0.033,0.016,0.067,0.031,0.1,0.047C803.534,168.695,803.554,168.706,803.576,168.717z M801.693,167.865
			c-0.101-0.043-0.205-0.086-0.307-0.129c0.051,0.022,0.106,0.042,0.157,0.063C801.593,167.821,801.642,167.843,801.693,167.865z
			 M799.872,167.124c-0.01-0.004-0.02-0.008-0.03-0.012c0.005,0.002,0.011,0.004,0.016,0.006
			C799.863,167.12,799.867,167.122,799.872,167.124z M796.272,184.164c-0.034-0.031-0.066-0.062-0.1-0.094
			c0.07,0.064,0.137,0.127,0.203,0.19C796.341,184.228,796.306,184.196,796.272,184.164z M795.778,183.721
			c-0.04-0.034-0.078-0.068-0.119-0.103c0.081,0.068,0.158,0.135,0.234,0.202C795.856,183.788,795.816,183.755,795.778,183.721z
			 M795.223,183.264c-0.047-0.037-0.092-0.074-0.14-0.112c0.091,0.07,0.178,0.14,0.264,0.209
			C795.306,183.33,795.264,183.297,795.223,183.264z M794.613,182.803c-0.059-0.043-0.115-0.085-0.176-0.128
			c0.101,0.072,0.199,0.143,0.295,0.215C794.694,182.861,794.652,182.832,794.613,182.803z M793.92,182.322
			c-0.068-0.045-0.133-0.09-0.203-0.136c0.114,0.074,0.222,0.147,0.331,0.22C794.006,182.378,793.963,182.35,793.92,182.322z
			 M793.149,181.832c-0.076-0.046-0.148-0.092-0.226-0.138c0.125,0.074,0.245,0.148,0.365,0.222
			C793.242,181.888,793.195,181.86,793.149,181.832z M792.307,181.345c-0.086-0.048-0.169-0.095-0.257-0.143
			c0.137,0.074,0.268,0.147,0.399,0.221C792.402,181.397,792.354,181.371,792.307,181.345z M791.383,180.858
			c-0.097-0.049-0.191-0.098-0.29-0.146c0.15,0.073,0.294,0.147,0.438,0.22C791.482,180.908,791.432,180.883,791.383,180.858z
			 M790.391,180.385c-0.114-0.052-0.223-0.104-0.34-0.155c0.165,0.073,0.322,0.146,0.482,0.219
			C790.486,180.428,790.438,180.407,790.391,180.385z M789.302,179.917c-0.128-0.052-0.251-0.105-0.382-0.156
			c0.18,0.071,0.35,0.143,0.524,0.214C789.397,179.955,789.349,179.936,789.302,179.917z M788.106,179.456
			c-0.137-0.05-0.269-0.101-0.41-0.15c0.194,0.068,0.378,0.138,0.566,0.207C788.211,179.494,788.158,179.475,788.106,179.456z
			 M786.844,179.023c-0.155-0.05-0.305-0.102-0.464-0.151c0.208,0.064,0.405,0.131,0.606,0.197
			C786.939,179.054,786.891,179.038,786.844,179.023z M785.486,178.611c-0.175-0.05-0.344-0.101-0.524-0.15
			c0.223,0.061,0.436,0.124,0.652,0.186C785.572,178.635,785.529,178.623,785.486,178.611z M784.016,178.221
			c-0.191-0.047-0.376-0.097-0.572-0.142c0.239,0.056,0.465,0.115,0.697,0.173C784.099,178.241,784.057,178.231,784.016,178.221z
			 M782.444,177.861c-0.209-0.044-0.411-0.091-0.625-0.133c0.253,0.05,0.494,0.105,0.74,0.158
			C782.521,177.877,782.482,177.869,782.444,177.861z M780.759,177.533c-0.226-0.04-0.444-0.083-0.676-0.121
			c0.271,0.045,0.529,0.094,0.792,0.142C780.837,177.547,780.798,177.54,780.759,177.533z M778.945,177.241
			c-0.237-0.034-0.465-0.072-0.707-0.104c0.288,0.038,0.56,0.082,0.84,0.124C779.034,177.254,778.99,177.247,778.945,177.241z
			 M777.02,176.992c-0.248-0.028-0.488-0.06-0.741-0.086c0.299,0.031,0.583,0.068,0.874,0.102
			C777.108,177.003,777.064,176.997,777.02,176.992z M775.012,176.794c-0.271-0.023-0.532-0.05-0.809-0.07
			c0.304,0.022,0.591,0.052,0.887,0.077C775.063,176.798,775.038,176.796,775.012,176.794z M772.761,176.637
			c-0.255-0.014-0.501-0.033-0.761-0.045c0.3,0.014,0.584,0.035,0.878,0.051C772.838,176.641,772.8,176.639,772.761,176.637z
			 M770.204,176.534c-0.179-0.004-0.349-0.013-0.53-0.017c0.268,0.005,0.519,0.017,0.782,0.025
			C770.371,176.54,770.289,176.536,770.204,176.534z M739.498,185.66c0.026,0.068,0.059,0.135,0.089,0.202
			C739.557,185.794,739.524,185.728,739.498,185.66z M740.416,187.126c0.057,0.065,0.116,0.129,0.177,0.192
			C740.531,187.254,740.473,187.19,740.416,187.126z M754.154,192.428c-0.024-0.003-0.053-0.007-0.079-0.01c0,0,0,0,0,0
			C754.101,192.421,754.13,192.425,754.154,192.428z M753.84,192.386c-0.038-0.005-0.08-0.012-0.12-0.018c0,0,0,0,0,0
			C753.76,192.374,753.802,192.38,753.84,192.386z M753.467,192.33c-0.052-0.008-0.107-0.017-0.163-0.026
			C753.359,192.313,753.415,192.322,753.467,192.33z M753.032,192.26c-0.063-0.011-0.126-0.021-0.192-0.033
			C752.905,192.239,752.97,192.25,753.032,192.26z M751.997,192.072c-0.014-0.003-0.027-0.005-0.04-0.008
			c0.008,0.002,0.015,0.003,0.023,0.004C751.986,192.07,751.991,192.071,751.997,192.072z M752.54,192.174
			c-0.069-0.013-0.139-0.025-0.211-0.039C752.401,192.149,752.471,192.162,752.54,192.174z M751.865,192.047
			c-0.03-0.006-0.062-0.013-0.092-0.019c0.014,0.003,0.027,0.005,0.041,0.008C751.83,192.04,751.849,192.044,751.865,192.047z
			 M751.402,191.953c-0.075-0.016-0.149-0.031-0.226-0.047C751.253,191.922,751.327,191.937,751.402,191.953z M750.75,191.812
			c-0.069-0.015-0.135-0.03-0.205-0.045C750.615,191.783,750.681,191.797,750.75,191.812z M749.207,191.44
			c-0.026-0.007-0.051-0.014-0.077-0.02c0.008,0.002,0.015,0.004,0.023,0.006C749.171,191.43,749.189,191.435,749.207,191.44z
			 M749.886,191.612c-0.001,0-0.003-0.001-0.005-0.001C749.883,191.611,749.885,191.611,749.886,191.612z M749.034,191.393
			c-0.014-0.004-0.029-0.008-0.043-0.012c0.011,0.003,0.022,0.006,0.033,0.009C749.027,191.391,749.031,191.392,749.034,191.393z
			 M748.511,191.251c-0.089-0.025-0.179-0.052-0.269-0.077C748.332,191.199,748.422,191.226,748.511,191.251z M747.801,191.044
			c-0.097-0.029-0.193-0.059-0.29-0.09C747.608,190.985,747.705,191.015,747.801,191.044z M747.084,190.819
			c-0.1-0.033-0.2-0.066-0.3-0.099C746.884,190.753,746.984,190.787,747.084,190.819z M745.647,190.312
			c-0.086-0.033-0.172-0.065-0.257-0.099c0.017,0.007,0.034,0.012,0.05,0.019C745.509,190.258,745.578,190.285,745.647,190.312z
			 M746.362,190.575c-0.1-0.035-0.199-0.071-0.299-0.107C746.163,190.504,746.263,190.539,746.362,190.575z M744.651,189.907
			c0.093,0.041,0.188,0.079,0.283,0.119C744.839,189.987,744.744,189.948,744.651,189.907z M744.086,189.653
			c-0.039-0.018-0.077-0.036-0.115-0.054c0.028,0.013,0.057,0.026,0.086,0.039C744.066,189.643,744.076,189.648,744.086,189.653z
			 M743.471,189.35c-0.052-0.027-0.105-0.052-0.156-0.079C743.366,189.298,743.419,189.323,743.471,189.35z M742.689,188.922
			c-0.049-0.029-0.094-0.059-0.142-0.088l0,0C742.595,188.863,742.64,188.894,742.689,188.922z M741.344,187.999
			c0.068,0.055,0.135,0.11,0.206,0.164C741.479,188.11,741.412,188.054,741.344,187.999z M741.899,188.414
			c0.067,0.046,0.131,0.094,0.2,0.139C742.031,188.508,741.966,188.46,741.899,188.414z M741.001,187.714
			c-0.053-0.047-0.101-0.096-0.151-0.143c0.037,0.035,0.075,0.07,0.113,0.104C740.977,187.688,740.987,187.702,741.001,187.714z
			 M739.857,186.376c-0.041-0.067-0.084-0.134-0.121-0.203c0.001,0.001,0.002,0.002,0.002,0.003
			C739.775,186.244,739.817,186.31,739.857,186.376z M740.194,186.86c-0.052-0.066-0.103-0.133-0.152-0.201
			C740.091,186.726,740.142,186.793,740.194,186.86z M739.364,185.228c-0.009-0.034-0.02-0.068-0.028-0.103
			c0.005,0.024,0.015,0.047,0.02,0.071C739.36,185.207,739.362,185.218,739.364,185.228z"/>
		<linearGradient id="SVGID_49_" gradientUnits="userSpaceOnUse" x1="557.7425" y1="1601.4769" x2="557.7426" y2="-1364.0988">
			<stop  offset="0" style="stop-color:#B43C62"/>
			<stop  offset="1" style="stop-color:#9B388B"/>
		</linearGradient>
		<path fill="url(#SVGID_49_)" d="M546.749,253.959h21.987v-53.586c-9.828,0-17.424,0-21.987,0V253.959z"/>
		<linearGradient id="SVGID_50_" gradientUnits="userSpaceOnUse" x1="766.9745" y1="1670.8976" x2="766.9745" y2="-1441.6138">
			<stop  offset="0" style="stop-color:#B43C62"/>
			<stop  offset="1" style="stop-color:#9B388B"/>
		</linearGradient>
		<path fill="url(#SVGID_50_)" d="M831.386,228.521c0.031-0.248,0.053-0.473,0.069-0.674c0-0.004,0.001-0.009,0.001-0.013
			c0.001-0.012,0.001-0.02,0.002-0.032c0.012-0.154,0.02-0.294,0.025-0.416c0-0.008,0-0.014,0.001-0.021
			c0.005-0.125,0.007-0.235,0.007-0.324c0-0.149-0.002-0.297-0.005-0.444c-0.004-0.177-0.018-0.35-0.028-0.526
			c-0.007-0.125-0.01-0.251-0.02-0.375c-0.026-0.354-0.062-0.704-0.108-1.049c-0.003-0.023-0.005-0.047-0.008-0.071
			c0-0.003-0.001-0.006-0.001-0.009c-0.053-0.38-0.12-0.756-0.197-1.127c-0.025-0.119-0.057-0.236-0.085-0.354
			c-0.051-0.222-0.099-0.446-0.159-0.665c-0.007-0.025-0.017-0.049-0.024-0.074c-0.12-0.429-0.254-0.852-0.406-1.267
			c-0.03-0.083-0.067-0.163-0.098-0.246c-0.127-0.333-0.263-0.662-0.41-0.987c-0.021-0.047-0.038-0.097-0.06-0.144
			c-0.039-0.084-0.088-0.165-0.128-0.249c-0.142-0.293-0.291-0.583-0.448-0.869c-0.073-0.132-0.145-0.264-0.221-0.394
			c-0.184-0.316-0.379-0.628-0.582-0.936c-0.054-0.082-0.104-0.166-0.159-0.247c-0.262-0.385-0.54-0.763-0.831-1.136
			c-0.074-0.095-0.154-0.187-0.23-0.282c-0.226-0.28-0.46-0.557-0.702-0.83c-0.106-0.12-0.215-0.238-0.324-0.357
			c-0.237-0.257-0.482-0.511-0.734-0.762c-0.104-0.104-0.205-0.208-0.311-0.311c-0.356-0.345-0.722-0.685-1.104-1.019
			c-0.024-0.021-0.05-0.041-0.074-0.062c-0.361-0.313-0.734-0.62-1.117-0.924c-0.127-0.1-0.257-0.199-0.386-0.299
			c-0.296-0.228-0.596-0.453-0.904-0.675c-0.079-0.057-0.153-0.117-0.233-0.174c-0.053-0.038-0.112-0.074-0.166-0.112
			c-0.503-0.354-1.018-0.703-1.55-1.044c-0.072-0.046-0.148-0.091-0.22-0.137c-0.484-0.306-0.981-0.606-1.487-0.901
			c-0.128-0.074-0.254-0.149-0.383-0.223c-0.565-0.323-1.141-0.641-1.731-0.951c-0.101-0.053-0.205-0.105-0.306-0.157
			c-0.525-0.272-1.06-0.54-1.603-0.803c-0.083-0.04-0.161-0.082-0.244-0.122c-0.043-0.021-0.09-0.04-0.133-0.061
			c-0.739-0.352-1.494-0.694-2.262-1.029c-0.13-0.057-0.261-0.114-0.392-0.17c-0.768-0.33-1.549-0.653-2.343-0.967
			c-0.13-0.052-0.261-0.102-0.392-0.153c-0.811-0.317-1.633-0.628-2.467-0.929c-0.099-0.036-0.2-0.071-0.3-0.106
			c-0.878-0.314-1.765-0.622-2.664-0.92c-0.002-0.001-0.005-0.002-0.007-0.003c-0.007-0.002-0.015-0.005-0.022-0.007
			c-1.046-0.347-2.105-0.683-3.176-1.009c-0.001,0-0.002-0.001-0.003-0.001c-19.134,0-44.523,0-71.901,0
			c23.742,14.697,76.302,15.642,76.302,25.524c0,0.207-0.024,0.407-0.058,0.604c-0.01,0.054-0.022,0.108-0.034,0.161
			c-0.036,0.159-0.083,0.316-0.141,0.469c-0.014,0.037-0.024,0.075-0.04,0.112c-0.076,0.183-0.169,0.362-0.276,0.537
			c-0.026,0.043-0.056,0.084-0.084,0.126c-0.092,0.139-0.193,0.275-0.303,0.408c-0.036,0.044-0.071,0.088-0.109,0.131
			c-0.145,0.164-0.301,0.325-0.473,0.48c-0.023,0.021-0.049,0.041-0.073,0.061c-0.146,0.128-0.304,0.253-0.468,0.376
			c-0.102,0.076-0.21,0.151-0.318,0.225c-0.124,0.085-0.249,0.169-0.381,0.251c-0.116,0.072-0.237,0.143-0.36,0.213
			c-0.137,0.079-0.277,0.156-0.422,0.232c-0.137,0.072-0.278,0.142-0.421,0.212c-0.149,0.072-0.3,0.144-0.456,0.214
			c-0.15,0.067-0.304,0.133-0.46,0.199c-0.15,0.063-0.303,0.124-0.458,0.185c-0.238,0.093-0.483,0.183-0.732,0.271
			c-0.136,0.048-0.27,0.097-0.409,0.144c-0.295,0.099-0.601,0.194-0.91,0.287c-0.1,0.03-0.196,0.062-0.298,0.092
			c-0.512,0.149-1.045,0.288-1.589,0.422c-0.13,0.032-0.261,0.063-0.392,0.094c-0.533,0.126-1.075,0.248-1.632,0.36
			c-0.024,0.005-0.048,0.01-0.072,0.015c-0.966,0.195-1.968,0.368-2.987,0.526c-0.087,0.013-0.174,0.026-0.261,0.039
			c-0.961,0.146-1.939,0.276-2.924,0.392c-0.113,0.013-0.226,0.027-0.339,0.04c-0.504,0.058-1.008,0.112-1.513,0.163
			c-0.041,0.004-0.081,0.009-0.122,0.013c-0.549,0.054-1.098,0.104-1.645,0.15c-0.163,0.014-0.326,0.026-0.489,0.04
			c-0.392,0.032-0.783,0.062-1.173,0.09c-0.178,0.013-0.356,0.026-0.534,0.038c-0.422,0.029-0.842,0.055-1.258,0.08
			c-0.115,0.007-0.231,0.015-0.345,0.021c-0.528,0.03-1.05,0.057-1.564,0.081c-0.129,0.006-0.254,0.011-0.382,0.016
			c-0.387,0.017-0.771,0.033-1.148,0.046c-0.167,0.006-0.333,0.012-0.497,0.017c-0.359,0.012-0.712,0.022-1.059,0.031
			c-0.135,0.004-0.271,0.008-0.404,0.011c-0.465,0.011-0.921,0.02-1.362,0.027c-0.265,0.004-0.521,0.006-0.777,0.009
			c-0.101,0.001-0.208,0.003-0.307,0.003c-0.353,0.003-0.696,0.004-1.028,0.004c-0.944,0-1.863-0.011-2.764-0.03
			c-0.297-0.006-0.581-0.017-0.874-0.026c-0.598-0.017-1.193-0.035-1.772-0.059c-0.33-0.014-0.651-0.032-0.976-0.048
			c-0.524-0.027-1.043-0.055-1.551-0.088c-0.328-0.021-0.652-0.045-0.974-0.069c-0.47-0.035-0.934-0.073-1.39-0.113
			c-0.366-0.032-0.729-0.066-1.086-0.101c-0.43-0.043-0.852-0.088-1.269-0.135c-0.346-0.039-0.691-0.079-1.028-0.121
			c-0.409-0.051-0.808-0.105-1.205-0.16c-0.325-0.045-0.651-0.091-0.968-0.138c-0.389-0.059-0.768-0.121-1.146-0.184
			c-0.304-0.051-0.61-0.1-0.906-0.153c-0.389-0.07-0.766-0.143-1.141-0.216c-0.255-0.05-0.515-0.099-0.764-0.15
			c-0.392-0.081-0.77-0.166-1.148-0.252c-0.217-0.049-0.441-0.096-0.653-0.147c-0.439-0.104-0.861-0.212-1.279-0.32
			c-0.136-0.035-0.279-0.069-0.412-0.104c-0.546-0.146-1.075-0.296-1.587-0.449c-0.137-0.041-0.264-0.084-0.399-0.126
			c-0.372-0.115-0.742-0.23-1.096-0.348c-0.181-0.061-0.352-0.123-0.529-0.184c-0.292-0.101-0.586-0.203-0.866-0.306
			c-0.187-0.069-0.364-0.139-0.546-0.209c-0.254-0.098-0.509-0.195-0.753-0.294c-0.182-0.074-0.355-0.148-0.531-0.222
			c-0.222-0.094-0.444-0.188-0.657-0.283c-0.228-0.101-0.445-0.203-0.662-0.304c-0.175-0.082-0.353-0.164-0.522-0.246
			c-0.212-0.104-0.414-0.207-0.616-0.311c-0.156-0.08-0.316-0.16-0.466-0.24c-0.201-0.107-0.39-0.214-0.581-0.321
			c-0.136-0.076-0.278-0.153-0.408-0.229c-0.193-0.112-0.374-0.224-0.556-0.335c-0.11-0.067-0.226-0.135-0.331-0.202
			c-0.402-0.254-0.768-0.503-1.114-0.748c-0.072-0.051-0.144-0.102-0.214-0.153c-0.327-0.238-0.634-0.471-0.911-0.695
			c-0.042-0.034-0.079-0.067-0.12-0.1c-0.254-0.209-0.488-0.412-0.701-0.605c-0.033-0.03-0.07-0.062-0.103-0.092
			c-0.221-0.205-0.417-0.398-0.595-0.58c-0.037-0.038-0.073-0.075-0.108-0.112c-0.167-0.176-0.321-0.343-0.448-0.492
			c-0.013-0.015-0.022-0.027-0.034-0.041c-0.12-0.142-0.223-0.269-0.309-0.382c-0.015-0.02-0.033-0.042-0.047-0.061
			c-0.083-0.11-0.151-0.204-0.201-0.278c-0.012-0.018-0.023-0.034-0.034-0.05c-0.039-0.058-0.074-0.113-0.09-0.137h-28.557
			c0.423,1.688,8.46,33.75,71.406,33.75c0.835,0,1.656-0.007,2.467-0.018c0.27-0.004,0.532-0.012,0.799-0.017
			c0.536-0.011,1.072-0.021,1.598-0.037c0.311-0.009,0.615-0.022,0.922-0.033c0.472-0.017,0.943-0.034,1.406-0.055
			c0.322-0.015,0.638-0.032,0.956-0.049c0.436-0.023,0.872-0.045,1.3-0.072c0.324-0.02,0.643-0.042,0.963-0.064
			c0.413-0.028,0.824-0.057,1.229-0.089c0.319-0.025,0.634-0.051,0.949-0.078c0.395-0.034,0.787-0.068,1.175-0.105
			c0.312-0.03,0.622-0.06,0.93-0.092c0.381-0.039,0.758-0.08,1.132-0.122c0.302-0.034,0.603-0.069,0.9-0.104
			c0.371-0.045,0.738-0.092,1.102-0.139c0.288-0.038,0.576-0.075,0.86-0.115c0.367-0.051,0.729-0.105,1.09-0.159
			c0.271-0.041,0.542-0.081,0.809-0.123c0.366-0.058,0.724-0.119,1.083-0.18c0.252-0.043,0.507-0.085,0.756-0.129
			c0.373-0.066,0.737-0.136,1.102-0.206c0.223-0.043,0.451-0.084,0.671-0.128c0.421-0.084,0.833-0.171,1.244-0.259
			c0.155-0.033,0.314-0.065,0.468-0.098c0.562-0.123,1.114-0.251,1.656-0.382c0.104-0.025,0.204-0.052,0.308-0.078
			c0.433-0.107,0.863-0.215,1.284-0.326c0.191-0.051,0.376-0.104,0.565-0.155c0.327-0.089,0.655-0.179,0.975-0.271
			c0.206-0.06,0.407-0.121,0.61-0.182c0.292-0.087,0.584-0.174,0.869-0.264c0.209-0.066,0.414-0.133,0.62-0.199
			c0.272-0.088,0.544-0.177,0.81-0.267c0.205-0.069,0.406-0.14,0.608-0.211c0.257-0.09,0.514-0.181,0.765-0.273
			c0.199-0.073,0.396-0.147,0.592-0.221c0.247-0.093,0.491-0.187,0.733-0.282c0.191-0.075,0.381-0.151,0.568-0.227
			c0.237-0.096,0.471-0.193,0.702-0.291c0.183-0.078,0.366-0.155,0.546-0.234c0.228-0.099,0.452-0.2,0.675-0.301
			c0.175-0.079,0.351-0.158,0.523-0.239c0.222-0.104,0.439-0.208,0.656-0.314c0.163-0.079,0.327-0.157,0.487-0.237
			c0.223-0.111,0.441-0.224,0.658-0.337c0.146-0.076,0.294-0.151,0.437-0.227c0.23-0.122,0.454-0.247,0.677-0.371
			c0.123-0.068,0.25-0.136,0.372-0.205c0.273-0.155,0.538-0.311,0.801-0.468c0.066-0.04,0.136-0.078,0.201-0.118
			c0.326-0.197,0.644-0.396,0.955-0.596c0.092-0.059,0.18-0.12,0.271-0.179c0.215-0.141,0.43-0.282,0.637-0.424
			c0.118-0.081,0.232-0.163,0.348-0.244c0.176-0.123,0.352-0.246,0.523-0.37c0.119-0.086,0.233-0.173,0.349-0.259
			c0.161-0.12,0.322-0.24,0.478-0.36c0.117-0.09,0.23-0.18,0.344-0.271c0.099-0.078,0.202-0.157,0.299-0.235
			c0.035-0.029,0.067-0.057,0.102-0.086c0.332-0.271,0.655-0.543,0.965-0.816c0.036-0.032,0.069-0.063,0.105-0.095
			c0.276-0.246,0.543-0.492,0.802-0.74c0.081-0.077,0.161-0.154,0.24-0.232c0.243-0.237,0.479-0.474,0.707-0.711
			c0.04-0.042,0.083-0.084,0.123-0.126c0.261-0.275,0.51-0.55,0.752-0.825c0.023-0.026,0.048-0.051,0.07-0.077
			c0.024-0.027,0.043-0.054,0.067-0.082c0.369-0.425,0.715-0.85,1.039-1.272c0.039-0.05,0.077-0.1,0.115-0.15
			c0.318-0.42,0.615-0.838,0.892-1.252c0.016-0.025,0.037-0.05,0.053-0.075c0.015-0.022,0.026-0.043,0.041-0.065
			c0.246-0.372,0.475-0.741,0.69-1.106c0.029-0.05,0.059-0.1,0.088-0.149c0.21-0.363,0.405-0.72,0.587-1.073
			c0.013-0.026,0.03-0.053,0.043-0.079c0.012-0.023,0.021-0.046,0.033-0.069c0.171-0.338,0.33-0.671,0.477-0.997
			c0.023-0.05,0.045-0.1,0.067-0.15c0.143-0.324,0.275-0.642,0.396-0.953c0.008-0.022,0.019-0.044,0.027-0.066
			c0.01-0.026,0.017-0.05,0.027-0.076c0.121-0.316,0.231-0.625,0.331-0.925c0.014-0.044,0.028-0.086,0.042-0.13
			c0.097-0.299,0.185-0.589,0.263-0.869c0.004-0.016,0.011-0.034,0.015-0.049c0.006-0.022,0.01-0.041,0.016-0.063
			c0.082-0.302,0.155-0.592,0.218-0.869c0.008-0.034,0.015-0.068,0.023-0.102c0.061-0.274,0.113-0.535,0.157-0.782
			c0.003-0.015,0.007-0.032,0.009-0.046c0.002-0.014,0.003-0.025,0.006-0.039c0.049-0.281,0.088-0.544,0.119-0.785
			C831.383,228.539,831.385,228.53,831.386,228.521z"/>
		<linearGradient id="SVGID_51_" gradientUnits="userSpaceOnUse" x1="641.348" y1="1601.4769" x2="641.348" y2="-1364.0988">
			<stop  offset="0" style="stop-color:#B43C62"/>
			<stop  offset="1" style="stop-color:#9B388B"/>
		</linearGradient>
		<path fill="url(#SVGID_51_)" d="M629.027,253.959h24.642v-53.586c-8.415,0-16.668,0-24.642,0V253.959z"/>
	</g>
</g>
</svg>
